<?xml version="1.0" encoding="UTF-8" standalone="no"?>
<svg
   xmlns:dc="http://purl.org/dc/elements/1.1/"
   xmlns:cc="http://creativecommons.org/ns#"
   xmlns:rdf="http://www.w3.org/1999/02/22-rdf-syntax-ns#"
   xmlns:svg="http://www.w3.org/2000/svg"
   xmlns="http://www.w3.org/2000/svg"
   xmlns:sodipodi="http://sodipodi.sourceforge.net/DTD/sodipodi-0.dtd"
   xmlns:inkscape="http://www.inkscape.org/namespaces/inkscape"
   width="8cm"
   height="6cm"
   viewBox="0 -6 302.3622 226.77165"
   version="1.1"
   id="svg6"
   sodipodi:docname="anavi-fume-extractor-bottom.svg"
   inkscape:version="0.92.3 (2405546, 2018-03-11)">
  <metadata
     id="metadata12">
    <rdf:RDF>
      <cc:Work
         rdf:about="">
        <dc:format>image/svg+xml</dc:format>
        <dc:type
           rdf:resource="http://purl.org/dc/dcmitype/StillImage" />
        <dc:title>OpenSCAD Model</dc:title>
      </cc:Work>
    </rdf:RDF>
  </metadata>
  <defs
     id="defs10" />
  <sodipodi:namedview
     pagecolor="#ffffff"
     bordercolor="#666666"
     borderopacity="1"
     objecttolerance="10"
     gridtolerance="10"
     guidetolerance="10"
     inkscape:pageopacity="0"
     inkscape:pageshadow="2"
     inkscape:window-width="1837"
     inkscape:window-height="1018"
     id="namedview8"
     showgrid="false"
     units="cm"
     inkscape:zoom="1.489975"
     inkscape:cx="104.26865"
     inkscape:cy="50.538678"
     inkscape:window-x="83"
     inkscape:window-y="34"
     inkscape:window-maximized="1"
     inkscape:current-layer="svg6" />
  <title
     id="title2">OpenSCAD Model</title>
  <path
     d="M 4.3104524,208.93008 H 53.639014 v 7.53112 h 36.902482 v -7.53112 H 204.26138 v 7.53112 h 36.90248 v -7.53112 h 49.32883 V 20.652114 h -49.32883 v -7.531118 h -36.90248 v 7.531118 H 90.541496 V 13.120996 H 53.639014 v 7.531118 H 4.3104524 Z M 269.30915,65.824517 l -0.93837,-0.112967 -0.91579,-0.225934 -0.87925,-0.3389 -0.82918,-0.455634 -0.76478,-0.557302 -0.68947,-0.647676 -0.6025,-0.730519 -0.50684,-0.798298 -0.40292,-0.854782 -0.29258,-0.899968 -0.17698,-0.930093 -0.0595,-0.945156 0.0595,-0.94139 0.17698,-0.930093 0.29258,-0.899969 0.40292,-0.854781 0.50684,-0.798299 0.6025,-0.730519 0.68947,-0.647676 0.76478,-0.553538 0.82918,-0.455632 0.87925,-0.3389 0.91579,-0.225934 0.93837,-0.112967 h 0.94629 l 0.93838,0.112967 0.91578,0.225934 0.87888,0.3389 0.82918,0.455632 0.76479,0.553538 0.68947,0.647676 0.60286,0.730519 0.50685,0.798299 0.40254,0.854781 0.29258,0.899969 0.17698,0.930093 0.0599,0.94139 -0.0599,0.945156 -0.17698,0.930093 -0.29258,0.899968 -0.40254,0.854782 -0.50685,0.798298 -0.60286,0.730519 -0.68947,0.647676 -0.76479,0.557302 -0.82918,0.455634 -0.87888,0.3389 -0.91578,0.225934 -0.93838,0.112967 z m -244.761453,0 -0.938302,-0.112967 -0.915859,-0.225934 -0.879108,-0.3389 -0.829139,-0.455634 -0.764747,-0.557302 -0.689511,-0.647676 -0.602715,-0.730519 -0.506769,-0.798298 -0.402802,-0.854782 -0.292472,-0.899968 -0.176943,-0.930093 -0.05976,-0.945156 0.05976,-0.94139 0.176943,-0.930093 0.292472,-0.899969 0.402802,-0.854781 0.506769,-0.798299 0.602715,-0.730519 0.689511,-0.647676 0.764747,-0.553538 0.829139,-0.455632 0.879108,-0.3389 0.915859,-0.225934 0.938302,-0.112967 h 0.946323 l 0.938302,0.112967 0.915859,0.225934 0.879108,0.3389 0.8291,0.455632 0.764786,0.553538 0.689474,0.647676 0.602752,0.730519 0.506769,0.798299 0.402802,0.854781 0.292433,0.899969 0.176982,0.930093 0.05976,0.94139 -0.05976,0.945156 -0.176982,0.930093 -0.292433,0.899968 -0.402802,0.854782 -0.506769,0.798298 -0.602752,0.730519 -0.689474,0.647676 -0.764786,0.557302 -0.8291,0.455634 -0.879108,0.3389 -0.915859,0.225934 -0.938302,0.112967 z m 0,112.966773 -0.938302,-0.11297 -0.915859,-0.22593 -0.879108,-0.3389 -0.829139,-0.45563 -0.764747,-0.55354 -0.689511,-0.64767 -0.602715,-0.73052 -0.506769,-0.7983 -0.402802,-0.85478 -0.292472,-0.89997 -0.176943,-0.9301 -0.05976,-0.94515 0.05976,-0.94139 0.176943,-0.9301 0.292472,-0.89996 0.402802,-0.85479 0.506769,-0.79829 0.602715,-0.73053 0.689511,-0.64767 0.764747,-0.55353 0.829139,-0.45564 0.879108,-0.3389 0.915859,-0.22593 0.938302,-0.11297 h 0.946323 l 0.938302,0.11297 0.915859,0.22593 0.879108,0.3389 0.8291,0.45564 0.764786,0.55353 0.689474,0.64767 0.602752,0.73053 0.506769,0.79829 0.402802,0.85479 0.292433,0.89996 0.176982,0.9301 0.05976,0.94139 -0.05976,0.94515 -0.176982,0.9301 -0.292433,0.89997 -0.402802,0.85478 -0.506769,0.7983 -0.602752,0.73052 -0.689474,0.64767 -0.764786,0.55354 -0.8291,0.45563 -0.879108,0.3389 -0.915859,0.22593 -0.938302,0.11297 z m 244.761453,0 -0.93837,-0.11297 -0.91579,-0.22593 -0.87925,-0.3389 -0.82918,-0.45563 -0.76478,-0.55354 -0.68947,-0.64767 -0.6025,-0.73052 -0.50684,-0.7983 -0.40292,-0.85478 -0.29258,-0.89997 -0.17698,-0.9301 -0.0595,-0.94515 0.0595,-0.94139 0.17698,-0.9301 0.29258,-0.89996 0.40292,-0.85479 0.50684,-0.79829 0.6025,-0.73053 0.68947,-0.64767 0.76478,-0.55353 0.82918,-0.45564 0.87925,-0.3389 0.91579,-0.22593 0.93837,-0.11297 h 0.94629 l 0.93838,0.11297 0.91578,0.22593 0.87888,0.3389 0.82918,0.45564 0.76479,0.55353 0.68947,0.64767 0.60286,0.73053 0.50685,0.79829 0.40254,0.85479 0.29258,0.89996 0.17698,0.9301 0.0599,0.94139 -0.0599,0.94515 -0.17698,0.9301 -0.29258,0.89997 -0.40254,0.85478 -0.50685,0.7983 -0.60286,0.73052 -0.68947,0.64767 -0.76479,0.55354 -0.82918,0.45563 -0.87888,0.3389 -0.91578,0.22593 -0.93838,0.11297 z"
     id="path4"
     inkscape:connector-curvature="0"
     style="fill:none;stroke:#000000;stroke-width:1.06184959;stroke-miterlimit:4;stroke-dasharray:none" />
</svg>
