<?xml version="1.0" encoding="UTF-8" standalone="no"?>
<svg
   xmlns:dc="http://purl.org/dc/elements/1.1/"
   xmlns:cc="http://creativecommons.org/ns#"
   xmlns:rdf="http://www.w3.org/1999/02/22-rdf-syntax-ns#"
   xmlns:svg="http://www.w3.org/2000/svg"
   xmlns="http://www.w3.org/2000/svg"
   xmlns:sodipodi="http://sodipodi.sourceforge.net/DTD/sodipodi-0.dtd"
   xmlns:inkscape="http://www.inkscape.org/namespaces/inkscape"
   width="80mm"
   height="80mm"
   viewBox="0 -13 302.36222 302.36221"
   version="1.1"
   id="svg6"
   sodipodi:docname="anavi-fume-extractor-fan-net.svg"
   inkscape:version="0.92.3 (2405546, 2018-03-11)">
  <metadata
     id="metadata12">
    <rdf:RDF>
      <cc:Work
         rdf:about="">
        <dc:format>image/svg+xml</dc:format>
        <dc:type
           rdf:resource="http://purl.org/dc/dcmitype/StillImage" />
        <dc:title>OpenSCAD Model</dc:title>
      </cc:Work>
    </rdf:RDF>
  </metadata>
  <defs
     id="defs10" />
  <sodipodi:namedview
     pagecolor="#ffffff"
     bordercolor="#666666"
     borderopacity="1"
     objecttolerance="10"
     gridtolerance="10"
     guidetolerance="10"
     inkscape:pageopacity="0"
     inkscape:pageshadow="2"
     inkscape:window-width="1837"
     inkscape:window-height="1018"
     id="namedview8"
     showgrid="false"
     units="mm"
     inkscape:zoom="1.6388889"
     inkscape:cx="100.85732"
     inkscape:cy="210.94264"
     inkscape:window-x="83"
     inkscape:window-y="34"
     inkscape:window-maximized="1"
     inkscape:current-layer="svg6" />
  <title
     id="title2">OpenSCAD Model</title>
  <path
     d="m 301.73676,3.9557848 -0.44344,-2.32461 -0.7313,-2.24927001 -1.00709,-2.14376999 -1.26742,-1.99684 -1.50818,-1.82353 -1.72405,-1.6162997 -1.91433,-1.39024 -2.07294,-1.1416001 -2.19953,-0.87031 -2.29108,-0.58775 -2.34723,-0.29764 H 18.132138 l -2.347298,0.29764 -2.290934,0.58775 -2.199533,0.87031 -2.07309,1.1416001 -1.914362,1.39024 -1.724096,1.6162997 -1.507957,1.82353 -1.26764,1.99684 L 1.8000178,-0.61809521 1.0687582,1.6311748 0.62551483,3.9557848 0.47661763,6.314305 V 288.88559 H 301.88558 V 6.314305 Z M 16.720752,17.594535 l -1.407881,-0.17708 -1.37514,-0.35415 -1.31938,-0.51993 -1.244066,-0.68571 -1.148632,-0.83264 -1.034247,-0.97204 -0.904868,-1.09637 -0.760606,-1.1981 -0.604211,-1.28476 -0.438626,-1.34881 -0.266181,-1.39401 -0.08911,-1.41663 0.08911,-1.41662 0.266181,-1.3940202 0.438626,-1.3488 0.604211,-1.28476001 0.760606,-1.1981 0.904868,-1.09637999 1.034247,-0.96827 1.148632,-0.83641 1.244066,-0.68194 1.31938,-0.52369 1.37514,-0.35416 1.407881,-0.17708 h 1.419411 l 1.408484,0.17708 1.374575,0.35416 1.319945,0.52369 1.243501,0.68194 1.148632,0.83641 1.034813,0.96827 0.904867,1.09637999 0.760605,1.1981 0.604212,1.28476001 0.438626,1.3488 0.265617,1.3940202 0.08967,1.41662 -0.08967,1.41663 -0.265617,1.39401 -0.438626,1.34881 -0.604212,1.28476 -0.760605,1.1981 -0.904867,1.09637 -1.034813,0.97204 -1.148632,0.83264 -1.243501,0.68571 -1.319945,0.51993 -1.374575,0.35415 -1.408484,0.17708 z m 267.500758,0 -1.40871,-0.17708 -1.37442,-0.35415 -1.3198,-0.51993 -1.24369,-0.68571 -1.14875,-0.83264 -1.03458,-0.97204 -0.90498,-1.09637 -0.76068,-1.1981 -0.60395,-1.28476 -0.43893,-1.34881 -0.26523,-1.39401 -0.0893,-1.41663 0.0893,-1.41662 0.26523,-1.3940202 0.43893,-1.3488 0.60395,-1.28476001 0.76068,-1.1981 0.90498,-1.09637999 1.03458,-0.96827 1.14875,-0.83641 1.24369,-0.68194 1.3198,-0.52369 1.37442,-0.35416 1.40871,-0.17708 h 1.41926 l 1.40796,0.17708 1.37517,0.35416 1.31942,0.52369 1.24407,0.68194 1.14875,0.83641 1.0342,0.96827 0.9046,1.09637999 0.76068,1.1981 0.60433,1.28476001 0.43856,1.3488 0.26636,1.3940202 0.089,1.41662 -0.089,1.41663 -0.26636,1.39401 -0.43856,1.34881 -0.60433,1.28476 -0.76068,1.1981 -0.9046,1.09637 -1.0342,0.97204 -1.14875,0.83264 -1.24407,0.68571 -1.31942,0.51993 -1.37517,0.35415 -1.40796,0.17708 z M 19.615936,130.64588 V 36.647345 l -0.1926,-0.19214 26.641011,-26.64078 0.0795,0.0791 h 97.501643 v 93.197905 l -27.55518,27.55444 z m 166.655574,0 -27.55519,-27.55519 V 9.893535 h 97.12489 l 0.0795,-0.0791 0.0791,0.0791 h 0.29726 v 0.29765 l 26.26484,26.26402 h 0.18386 v 94.190675 z m -166.848174,116.7956 0.1926,-0.19253 v -101.533 h 96.474374 l 27.55518,27.55519 v 100.732 H 46.143844 l -0.0795,0.0795 z M 255.84121,274.00314 H 158.71632 V 173.27189 l 27.55519,-27.55594 h 96.47422 v 101.72553 h -0.18386 l -26.26478,26.2644 v 0.29726 h -0.29726 l -0.0791,0.0795 z m -239.120458,10.33908 -1.407881,-0.17783 -1.37514,-0.35302 -1.31938,-0.52257 -1.244066,-0.6842 -1.148632,-0.83415 -1.034247,-0.97129 -0.904868,-1.09411 -0.760606,-1.1981 -0.604211,-1.28438 -0.438626,-1.35032 -0.266181,-1.39401 -0.08911,-1.41662 0.08911,-1.41663 0.266181,-1.39401 0.438626,-1.35069 0.604211,-1.284 0.760606,-1.1981 0.904868,-1.09412 1.034247,-0.97167 1.148632,-0.83415 1.244066,-0.68419 1.31938,-0.52257 1.37514,-0.35303 1.407881,-0.17745 h 1.419411 l 1.408484,0.17745 1.374575,0.35303 1.319945,0.52257 1.243501,0.68419 1.148632,0.83415 1.034813,0.97167 0.904867,1.09412 0.760605,1.1981 0.604212,1.284 0.438626,1.35069 0.265617,1.39401 0.08967,1.41663 -0.08967,1.41662 -0.265617,1.39401 -0.438626,1.35032 -0.604212,1.28438 -0.760605,1.1981 -0.904867,1.09411 -1.034813,0.97129 -1.148632,0.83415 -1.243501,0.6842 -1.319945,0.52257 -1.374575,0.35302 -1.408484,0.17783 z m 267.500758,0 -1.40871,-0.17783 -1.37442,-0.35302 -1.3198,-0.52257 -1.24369,-0.6842 -1.14875,-0.83415 -1.03458,-0.97129 -0.90498,-1.09411 -0.76068,-1.1981 -0.60395,-1.28438 -0.43893,-1.35032 -0.26523,-1.39401 -0.0893,-1.41662 0.0893,-1.41663 0.26523,-1.39401 0.43893,-1.35069 0.60395,-1.284 0.76068,-1.1981 0.90498,-1.09412 1.03458,-0.97167 1.14875,-0.83415 1.24369,-0.68419 1.3198,-0.52257 1.37442,-0.35303 1.40871,-0.17745 h 1.41926 l 1.40796,0.17745 1.37517,0.35303 1.31942,0.52257 1.24407,0.68419 1.14875,0.83415 1.0342,0.97167 0.9046,1.09412 0.76068,1.1981 0.60433,1.284 0.43856,1.35069 0.26636,1.39401 0.089,1.41663 -0.089,1.41662 -0.26636,1.39401 -0.43856,1.35032 -0.60433,1.28438 -0.76068,1.1981 -0.9046,1.09411 -1.0342,0.97129 -1.14875,0.83415 -1.24407,0.6842 -1.31942,0.52257 -1.37517,0.35302 -1.40796,0.17783 z"
     id="path4"
     inkscape:connector-curvature="0"
     style="fill:none;stroke:#000000;stroke-width:0.95323527;stroke-miterlimit:4;stroke-dasharray:none" />
</svg>
