<?xml version="1.0" encoding="UTF-8" standalone="no"?>
<svg
   xmlns:dc="http://purl.org/dc/elements/1.1/"
   xmlns:cc="http://creativecommons.org/ns#"
   xmlns:rdf="http://www.w3.org/1999/02/22-rdf-syntax-ns#"
   xmlns:svg="http://www.w3.org/2000/svg"
   xmlns="http://www.w3.org/2000/svg"
   xmlns:sodipodi="http://sodipodi.sourceforge.net/DTD/sodipodi-0.dtd"
   xmlns:inkscape="http://www.inkscape.org/namespaces/inkscape"
   width="80mm"
   height="130mm"
   viewBox="0 -13 302.36222 491.33859"
   version="1.1"
   id="svg6"
   sodipodi:docname="anavi-fume-extractor-front.svg"
   inkscape:version="0.92.3 (2405546, 2018-03-11)">
  <metadata
     id="metadata12">
    <rdf:RDF>
      <cc:Work
         rdf:about="">
        <dc:format>image/svg+xml</dc:format>
        <dc:type
           rdf:resource="http://purl.org/dc/dcmitype/StillImage" />
        <dc:title>OpenSCAD Model</dc:title>
      </cc:Work>
    </rdf:RDF>
  </metadata>
  <defs
     id="defs10" />
  <sodipodi:namedview
     pagecolor="#ffffff"
     bordercolor="#666666"
     borderopacity="1"
     objecttolerance="10"
     gridtolerance="10"
     guidetolerance="10"
     inkscape:pageopacity="0"
     inkscape:pageshadow="2"
     inkscape:window-width="1837"
     inkscape:window-height="1018"
     id="namedview8"
     showgrid="false"
     inkscape:zoom="1.6045885"
     inkscape:cx="89.638659"
     inkscape:cy="236.1502"
     inkscape:window-x="83"
     inkscape:window-y="34"
     inkscape:window-maximized="1"
     inkscape:current-layer="svg6"
     units="mm" />
  <title
     id="title2">OpenSCAD Model</title>
  <path
     d="m 287.16805,477.54097 2.29562,-0.58928 2.20389,-0.87269 2.07705,-1.14227 1.91812,-1.39284 1.72747,-1.62268 1.51117,-1.82661 1.26993,-2.00113 1.00908,-2.14511 0.73274,-2.25402 0.44433,-2.32889 0.14911,-2.3652 V 9.7660628 l -0.14911,-2.36319 -0.44433,-2.32923 -0.73274,-2.25372 -1.00908,-2.14802004 -1.26993,-2.00078996 -1.51117,-1.82714 -1.72747,-1.61951 -1.91812,-1.39302 -2.07705,-1.1438202 -2.20389,-0.87205 -2.29562,-0.58892 -2.35188,-0.29824 H 18.19089 l -2.351949,0.29824 -2.295474,0.58892 -2.203891,0.87205 -2.0771964,1.1438202 -1.9181547,1.39302 -1.727512,1.61951 -1.5109453,1.82714 -1.2701518,2.00078996 -1.0092059,2.14802004 -0.7327086,2.25372 -0.4441217,2.32923 -0.14919205,2.36319 V 459.00025 l 0.14919205,2.3652 0.4441217,2.32889 0.7327086,2.25402 1.0092059,2.14511 1.2701518,2.00113 1.5109453,1.82661 1.727512,1.62268 1.9181547,1.39284 2.0771964,1.14227 2.203891,0.87269 2.295474,0.58928 2.351949,0.29723 H 284.81617 Z M 16.776708,21.068643 l -1.410671,-0.17743 -1.377866,-0.35485 -1.321994,-0.52097 -1.246531,-0.68706 -1.150907,-0.83429 -1.0362956,-0.97397 -0.9066613,-1.09855 -0.7621123,-1.20048 -0.6054089,-1.2873 -0.4394944,-1.35147 -0.2667086,-1.3968 -0.089279,-1.4194102 0.089279,-1.41942 0.2667086,-1.3968 0.4394944,-1.35146 0.6054089,-1.2873 0.7621123,-1.20048 0.9066613,-1.09855 1.0362956,-0.97019 1.150907,-0.83807004 1.246531,-0.68329 1.321994,-0.52473996 1.377866,-0.35484 1.410671,-0.17744 h 1.422223 l 1.411274,0.17744 1.3773,0.35484 1.32256,0.52473996 1.245965,0.68329 1.150906,0.83807004 1.036865,0.97019 0.906659,1.09855 0.762113,1.20048 0.605409,1.2873 0.439494,1.35146 0.266143,1.3968 0.08985,1.41942 -0.08985,1.4194102 -0.266143,1.3968 -0.439494,1.35147 -0.605409,1.2873 -0.762113,1.20048 -0.906659,1.09855 -1.036865,0.97397 -1.150906,0.83429 -1.245965,0.68706 -1.32256,0.52097 -1.3773,0.35485 -1.411274,0.17743 z m 268.030782,0 -1.4115,-0.17743 -1.37714,-0.35485 -1.32241,-0.52097 -1.24617,-0.68706 -1.15102,-0.83429 -1.03662,-0.97397 -0.90678,-1.09855 -0.76219,-1.20048 -0.60514,-1.2873 -0.4398,-1.35147 -0.26576,-1.3968 -0.0896,-1.4194102 0.0896,-1.41942 0.26576,-1.3968 0.4398,-1.35146 0.60514,-1.2873 0.76219,-1.20048 0.90678,-1.09855 1.03662,-0.97019 1.15102,-0.83807004 1.24617,-0.68329 1.32241,-0.52473996 1.37714,-0.35484 1.4115,-0.17744 h 1.42208 l 1.41074,0.17744 1.3779,0.35484 1.32204,0.52473996 1.24653,0.68329 1.15102,0.83807004 1.03626,0.97019 0.9064,1.09855 0.76218,1.20048 0.60553,1.2873 0.43942,1.35146 0.26689,1.3968 0.0892,1.41942 -0.0892,1.4194102 -0.26689,1.3968 -0.43942,1.35147 -0.60553,1.2873 -0.76218,1.20048 -0.9064,1.09855 -1.03626,0.97397 -1.15102,0.83429 -1.24653,0.68706 -1.32204,0.52097 -1.3779,0.35485 -1.41074,0.17743 z M 256.37097,277.98531 h -69.00539 l -16.98672,-16.98634 v -0.19026 h -37.75077 v 0.19026 L 115.641,277.98531 H 46.258097 l -0.07965,0.0798 -26.693796,-26.69394 0.192981,-0.1929 V 40.159363 l -0.192981,-0.19254 26.693796,-26.69356 0.07965,0.0794 H 115.641 l 16.98709,16.98785 v 0.18877 h 37.75077 v -0.18877 l 16.98672,-16.98785 h 69.00539 l 0.0798,-0.0794 0.0794,0.0794 h 0.29785 v 0.29823 l 26.31682,26.31606 h 0.18422 V 251.3713 h -0.18422 l -26.31682,26.31643 v 0.29786 h -0.29785 l -0.0794,0.0798 z m 28.43652,10.35956 -1.4115,-0.17819 -1.37714,-0.35372 -1.32241,-0.52359 -1.24617,-0.68557 -1.15102,-0.8358 -1.03662,-0.9732 -0.90678,-1.09629 -0.76219,-1.20048 -0.60514,-1.28691 -0.4398,-1.353 -0.26576,-1.39678 -0.0896,-1.41943 0.0896,-1.41943 0.26576,-1.39678 0.4398,-1.35336 0.60514,-1.28654 0.76219,-1.20047 0.90678,-1.0963 1.03662,-0.97359 1.15102,-0.83579 1.24617,-0.68556 1.32241,-0.52359 1.37714,-0.35373 1.4115,-0.17782 h 1.42208 l 1.41074,0.17782 1.3779,0.35373 1.32204,0.52359 1.24653,0.68556 1.15102,0.83579 1.03626,0.97359 0.9064,1.0963 0.76218,1.20047 0.60553,1.28654 0.43942,1.35336 0.26689,1.39678 0.0892,1.41943 -0.0892,1.41943 -0.26689,1.39678 -0.43942,1.353 -0.60553,1.28691 -0.76218,1.20048 -0.9064,1.09629 -1.03626,0.9732 -1.15102,0.8358 -1.24653,0.68557 -1.32204,0.52359 -1.3779,0.35372 -1.41074,0.17819 z m -268.030782,0 -1.410671,-0.17819 -1.377866,-0.35372 -1.321994,-0.52359 -1.246531,-0.68557 -1.150907,-0.8358 -1.0362956,-0.9732 -0.9066613,-1.09629 -0.7621123,-1.20048 -0.6054089,-1.28691 -0.4394944,-1.353 -0.2667086,-1.39678 -0.089279,-1.41943 0.089279,-1.41943 0.2667086,-1.39678 0.4394944,-1.35336 0.6054089,-1.28654 0.7621123,-1.20047 0.9066613,-1.0963 1.0362956,-0.97359 1.150907,-0.83579 1.246531,-0.68556 1.321994,-0.52359 1.377866,-0.35373 1.410671,-0.17782 h 1.422223 l 1.411274,0.17782 1.3773,0.35373 1.32256,0.52359 1.245965,0.68556 1.150906,0.83579 1.036865,0.97359 0.906659,1.0963 0.762113,1.20047 0.605409,1.28654 0.439494,1.35336 0.266143,1.39678 0.08985,1.41943 -0.08985,1.41943 -0.266143,1.39678 -0.439494,1.353 -0.605409,1.28691 -0.762113,1.20048 -0.906659,1.09629 -1.036865,0.9732 -1.150906,0.8358 -1.245965,0.68557 -1.32256,0.52359 -1.3773,0.35372 -1.411274,0.17819 z m 215.289182,96.96361 -4.93893,-0.62439 -4.82116,-1.23785 -4.62786,-1.83242 -4.36248,-2.39794 -4.02688,-2.92566 -3.62898,-3.40777 -3.17296,-3.8351 -2.66671,-4.20357 -2.12007,-4.50365 -1.53798,-4.73395 -0.93243,-4.88987 -0.31297,-4.96837 0.31297,-4.96762 0.93243,-4.88987 1.53798,-4.73394 2.12007,-4.50405 2.66671,-4.20316 3.17296,-3.83548 3.62898,-3.40776 4.02688,-2.92568 4.36248,-2.39794 4.62786,-1.83242 4.82116,-1.23785 4.93893,-0.62439 h 4.97744 l 4.93893,0.62439 4.82152,1.23785 4.62824,1.83242 4.36175,2.39794 4.02763,2.92568 3.62859,3.40776 3.17257,3.83548 2.66787,4.20316 2.11893,4.50405 1.53872,4.73394 0.93246,4.88987 0.31294,4.96762 -0.31294,4.96837 -0.93246,4.88987 -1.53872,4.73395 -2.11893,4.50365 -2.66787,4.20357 -3.17257,3.8351 -3.62859,3.40777 -4.02763,2.92566 -4.36175,2.39794 -4.62824,1.83242 -4.82152,1.23785 -4.93893,0.62439 z m -126.33787,-50.90012 -0.94075,-0.11891 -0.9181,-0.23594 -0.88148,-0.34919 -0.83089,-0.45679 -0.76748,-0.5572 -0.69046,-0.64893 -0.60514,-0.73048 -0.507747,-0.80069 -0.403563,-0.85771 -0.292936,-0.90224 -0.178188,-0.93131 -0.05935,-0.94641 0.05935,-0.94566 0.178188,-0.93168 0.292936,-0.90188 0.403563,-0.85769 0.507747,-0.8007 0.60514,-0.73047 0.69046,-0.64932 0.76748,-0.55682 0.83089,-0.45679 0.88148,-0.34919 0.9181,-0.23632 0.94075,-0.11855 h 0.94829 l 0.94038,0.11855 0.91885,0.23632 0.88149,0.34919 0.83052,0.45679 0.76709,0.55682 0.6916,0.64932 0.60401,0.73047 0.50812,0.8007 0.40393,0.85769 0.29295,0.90188 0.17743,0.93168 0.06,0.94566 -0.06,0.94641 -0.17743,0.93131 -0.29295,0.90224 -0.40393,0.85771 -0.50812,0.80069 -0.60401,0.73048 -0.6916,0.64893 -0.76709,0.5572 -0.83052,0.45679 -0.88149,0.34919 -0.91885,0.23594 -0.94038,0.11891 z m -86.826887,0 -0.940674,-0.11891 -0.918174,-0.23594 -0.88133,-0.34919 -0.831234,-0.45679 -0.76668,-0.5572 -0.691255,-0.64893 -0.604239,-0.73048 -0.508049,-0.80069 -0.403821,-0.85771 -0.29321,-0.90224 -0.177391,-0.93131 -0.05992,-0.94641 0.05992,-0.94566 0.177391,-0.93168 0.29321,-0.90188 0.403821,-0.85769 0.508049,-0.8007 0.604239,-0.73047 0.691255,-0.64932 0.76668,-0.55682 0.831234,-0.45679 0.88133,-0.34919 0.918174,-0.23632 0.940674,-0.11855 h 0.948714 l 0.940674,0.11855 0.918174,0.23632 0.88133,0.34919 0.831196,0.45679 0.766717,0.55682 0.691218,0.64932 0.604277,0.73047 0.508049,0.8007 0.403822,0.85769 0.293172,0.90188 0.177428,0.93168 0.05992,0.94566 -0.05992,0.94641 -0.177428,0.93131 -0.293172,0.90224 -0.403822,0.85771 -0.508049,0.80069 -0.604277,0.73048 -0.691218,0.64893 -0.766717,0.5572 -0.831196,0.45679 -0.88133,0.34919 -0.918174,0.23594 -0.940674,0.11891 z m 113.490257,0.006 -0.47075,-0.0591 -0.8996,-0.29257 -0.79918,-0.507 -0.64743,-0.6897 -0.45603,-0.82939 -0.23518,-0.91658 -0.0298,-4.24734 0.11855,-0.93848 0.34844,-0.88035 0.55607,-0.76558 0.72934,-0.60289 0.8558,-0.40281 0.92981,-0.17741 h 53.32448 l 0.92942,0.17741 0.85619,0.40281 0.72935,0.60289 0.55568,0.76558 0.34845,0.88035 0.0888,0.46546 0.0298,4.24772 -0.11854,0.9381 -0.34845,0.88036 -0.55568,0.76557 -0.72935,0.60289 -0.85619,0.40279 -0.92942,0.17744 z m 0,52.85069 -0.47075,-0.0593 -0.8996,-0.29256 -0.79918,-0.50699 -0.64743,-0.68933 -0.45603,-0.82977 -0.23518,-0.91621 -0.0298,-4.24771 0.11855,-0.93847 0.34844,-0.87998 0.55607,-0.76558 0.72934,-0.60325 0.8558,-0.40244 0.92981,-0.17742 h 53.32448 l 0.92942,0.17742 0.85619,0.40244 0.72935,0.60325 0.55568,0.76558 0.34845,0.87998 0.0888,0.46546 0.0298,4.24771 -0.11854,0.93847 -0.34845,0.87998 -0.55568,0.76559 -0.72935,0.60325 -0.85619,0.40242 -0.92942,0.17743 z m -113.490257,33.96928 -0.940674,-0.11929 -0.918174,-0.23557 -0.88133,-0.34919 -0.831234,-0.45678 -0.76668,-0.55683 -0.691255,-0.64931 -0.604239,-0.73048 -0.508049,-0.80069 -0.403821,-0.85808 -0.29321,-0.90149 -0.177391,-0.93169 -0.05992,-0.94641 0.05992,-0.94566 0.177391,-0.93168 0.29321,-0.90187 0.403821,-0.8577 0.508049,-0.80069 0.604239,-0.73048 0.691255,-0.64931 0.76668,-0.55683 0.831234,-0.45678 0.88133,-0.3492 0.918174,-0.23594 0.940674,-0.11891 h 0.948714 l 0.940674,0.11891 0.918174,0.23594 0.88133,0.3492 0.831196,0.45678 0.766717,0.55683 0.691218,0.64931 0.604277,0.73048 0.508049,0.80069 0.403822,0.8577 0.293172,0.90187 0.177428,0.93168 0.05992,0.94566 -0.05992,0.94641 -0.177428,0.93169 -0.293172,0.90149 -0.403822,0.85808 -0.508049,0.80069 -0.604277,0.73048 -0.691218,0.64931 -0.766717,0.55683 -0.831196,0.45678 -0.88133,0.34919 -0.918174,0.23557 -0.940674,0.11929 z m 86.826887,0 -0.94075,-0.11929 -0.9181,-0.23557 -0.88148,-0.34919 -0.83089,-0.45678 -0.76748,-0.55683 -0.69046,-0.64931 -0.60514,-0.73048 -0.507747,-0.80069 -0.403563,-0.85808 -0.292936,-0.90149 -0.178188,-0.93169 -0.05935,-0.94641 0.05935,-0.94566 0.178188,-0.93168 0.292936,-0.90187 0.403563,-0.8577 0.507747,-0.80069 0.60514,-0.73048 0.69046,-0.64931 0.76748,-0.55683 0.83089,-0.45678 0.88148,-0.3492 0.9181,-0.23594 0.94075,-0.11891 h 0.94829 l 0.94038,0.11891 0.91885,0.23594 0.88149,0.3492 0.83052,0.45678 0.76709,0.55683 0.6916,0.64931 0.60401,0.73048 0.50812,0.80069 0.40393,0.8577 0.29295,0.90187 0.17743,0.93168 0.06,0.94566 -0.06,0.94641 -0.17743,0.93169 -0.29295,0.90149 -0.40393,0.85808 -0.50812,0.80069 -0.60401,0.73048 -0.6916,0.64931 -0.76709,0.55683 -0.83052,0.45678 -0.88149,0.34919 -0.91885,0.23557 -0.94038,0.11929 z m -48.601474,50.22296 v -9.81501 h 37.75078 v 9.81501 z m 151.003084,0 v -9.81501 h 37.75077 v 9.81501 z"
     id="path4"
     style="fill:none;stroke:#000000;stroke-width:1.0007751;stroke-miterlimit:4;stroke-dasharray:none"
     inkscape:connector-curvature="0" />
</svg>
