<?xml version="1.0" encoding="UTF-8" standalone="no"?>
<svg
   xmlns:dc="http://purl.org/dc/elements/1.1/"
   xmlns:cc="http://creativecommons.org/ns#"
   xmlns:rdf="http://www.w3.org/1999/02/22-rdf-syntax-ns#"
   xmlns:svg="http://www.w3.org/2000/svg"
   xmlns="http://www.w3.org/2000/svg"
   xmlns:sodipodi="http://sodipodi.sourceforge.net/DTD/sodipodi-0.dtd"
   xmlns:inkscape="http://www.inkscape.org/namespaces/inkscape"
   width="80mm"
   height="130mm"
   viewBox="0 -13 302.36222 491.33859"
   version="1.1"
   id="svg6"
   sodipodi:docname="anavi-fume-extractor-back.svg"
   inkscape:version="0.92.3 (2405546, 2018-03-11)">
  <metadata
     id="metadata12">
    <rdf:RDF>
      <cc:Work
         rdf:about="">
        <dc:format>image/svg+xml</dc:format>
        <dc:type
           rdf:resource="http://purl.org/dc/dcmitype/StillImage" />
        <dc:title>OpenSCAD Model</dc:title>
      </cc:Work>
    </rdf:RDF>
  </metadata>
  <defs
     id="defs10" />
  <sodipodi:namedview
     pagecolor="#ffffff"
     bordercolor="#666666"
     borderopacity="1"
     objecttolerance="10"
     gridtolerance="10"
     guidetolerance="10"
     inkscape:pageopacity="0"
     inkscape:pageshadow="2"
     inkscape:window-width="1837"
     inkscape:window-height="1018"
     id="namedview8"
     showgrid="false"
     units="mm"
     inkscape:zoom="1.1346154"
     inkscape:cx="156.6734"
     inkscape:cy="126.12432"
     inkscape:window-x="83"
     inkscape:window-y="34"
     inkscape:window-maximized="1"
     inkscape:current-layer="svg6" />
  <title
     id="title2">OpenSCAD Model</title>
  <path
     d="m 286.97584,477.51137 2.29384,-0.58882 2.20218,-0.87202 2.07544,-1.14138 1.91664,-1.39176 1.72613,-1.62142 1.51,-1.8252 1.26895,-1.99958 1.00829,-2.14345 0.73218,-2.25228 0.44398,-2.32707 0.149,-2.36337 V 10.098793 l -0.149,-2.3613602 -0.44398,-2.32744 -0.73218,-2.25196 -1.00829,-2.14637 -1.26895,-1.99924004 -1.51,-1.82571996 -1.72613,-1.61826 -1.91664,-1.39194 -2.07544,-1.1429402 -2.20218,-0.87137 -2.29384,-0.58845 -2.35006,-0.29802 H 18.207014 l -2.350127,0.29802 -2.293697,0.58845 -2.202183,0.87137 -2.075588,1.1429402 -1.916669,1.39194 -1.726174,1.61826 -1.509775,1.82571996 -1.269168,1.99924004 -1.0084242,2.14637 -0.7321411,2.25196 -0.44377782,2.32744 -0.1490764,2.3613602 V 458.98502 l 0.1490764,2.36337 0.44377782,2.32707 0.7321411,2.25228 1.0084242,2.14345 1.269168,1.99958 1.509775,1.8252 1.726174,1.62142 1.916669,1.39176 2.075588,1.14138 2.202183,0.87202 2.293697,0.58882 2.350127,0.297 H 284.62578 Z M 16.793928,21.392603 l -1.409579,-0.17729 -1.376798,-0.35458 -1.32097,-0.52056 -1.245566,-0.68653 -1.150016,-0.83363 -1.035493,-0.97323 -0.905959,-1.0977 -0.761522,-1.19955 -0.60494,-1.2863 -0.439154,-1.35042 -0.266502,-1.39572 -0.08921,-1.4183 0.08921,-1.4183202 0.266502,-1.39573 0.439154,-1.35042 0.60494,-1.2863 0.761522,-1.19955 0.905959,-1.0977 1.035493,-0.96944 1.150016,-0.83742004 1.245566,-0.68276 1.32097,-0.52433 1.376798,-0.35456996 1.409579,-0.1773 h 1.421121 l 1.410181,0.1773 1.376233,0.35456996 1.321536,0.52433 1.245,0.68276 1.150015,0.83742004 1.036061,0.96944 0.905956,1.0977 0.761524,1.19955 0.60494,1.2863 0.439154,1.35042 0.265937,1.39573 0.08978,1.4183202 -0.08978,1.4183 -0.265937,1.39572 -0.439154,1.35042 -0.60494,1.2863 -0.761524,1.19955 -0.905956,1.0977 -1.036061,0.97323 -1.150015,0.83363 -1.245,0.68653 -1.321536,0.52056 -1.376233,0.35458 -1.410181,0.17729 z m 267.823182,0 -1.41041,-0.17729 -1.37607,-0.35458 -1.32139,-0.52056 -1.2452,-0.68653 -1.15013,-0.83363 -1.03582,-0.97323 -0.90608,-1.0977 -0.7616,-1.19955 -0.60468,-1.2863 -0.43945,-1.35042 -0.26555,-1.39572 -0.0895,-1.4183 0.0895,-1.4183202 0.26555,-1.39573 0.43945,-1.35042 0.60468,-1.2863 0.7616,-1.19955 0.90608,-1.0977 1.03582,-0.96944 1.15013,-0.83742004 1.2452,-0.68276 1.32139,-0.52433 1.37607,-0.35456996 1.41041,-0.1773 h 1.42097 l 1.40965,0.1773 1.37683,0.35456996 1.32102,0.52433 1.24557,0.68276 1.15012,0.83742004 1.03546,0.96944 0.9057,1.0977 0.76159,1.19955 0.60506,1.2863 0.43908,1.35042 0.26668,1.39573 0.0891,1.4183202 -0.0891,1.4183 -0.26668,1.39572 -0.43908,1.35042 -0.60506,1.2863 -0.76159,1.19955 -0.9057,1.0977 -1.03546,0.97323 -1.15012,0.83363 -1.24557,0.68653 -1.32102,0.52056 -1.37683,0.35458 -1.40965,0.17729 z M 57.112513,81.769683 V 36.503853 H 245.72017 v 45.26583 z m 0,82.987767 V 119.49123 H 245.72017 v 45.26622 z m 0,82.98737 V 202.47898 H 245.72017 v 45.26584 z m -40.318585,40.717 -1.409579,-0.17805 -1.376798,-0.35345 -1.32097,-0.52319 -1.245566,-0.68503 -1.150016,-0.83516 -1.035493,-0.97244 -0.905959,-1.09544 -0.761522,-1.19955 -0.60494,-1.28592 -0.439154,-1.35195 -0.266502,-1.3957 -0.08921,-1.41833 0.08921,-1.41833 0.266502,-1.3957 0.439154,-1.35231 0.60494,-1.28554 0.761522,-1.19954 0.905959,-1.09545 1.035493,-0.97284 1.150016,-0.83514 1.245566,-0.68502 1.32097,-0.5232 1.376798,-0.35345 1.409579,-0.17768 h 1.421121 l 1.410181,0.17768 1.376233,0.35345 1.321536,0.5232 1.245,0.68502 1.150015,0.83514 1.036061,0.97284 0.905956,1.09545 0.761524,1.19954 0.60494,1.28554 0.439154,1.35231 0.265937,1.3957 0.08978,1.41833 -0.08978,1.41833 -0.265937,1.3957 -0.439154,1.35195 -0.60494,1.28592 -0.761524,1.19955 -0.905956,1.09544 -1.036061,0.97244 -1.150015,0.83516 -1.245,0.68503 -1.321536,0.52319 -1.376233,0.35345 -1.410181,0.17805 z m 267.823182,0 -1.41041,-0.17805 -1.37607,-0.35345 -1.32139,-0.52319 -1.2452,-0.68503 -1.15013,-0.83516 -1.03582,-0.97244 -0.90608,-1.09544 -0.7616,-1.19955 -0.60468,-1.28592 -0.43945,-1.35195 -0.26555,-1.3957 -0.0895,-1.41833 0.0895,-1.41833 0.26555,-1.3957 0.43945,-1.35231 0.60468,-1.28554 0.7616,-1.19954 0.90608,-1.09545 1.03582,-0.97284 1.15013,-0.83514 1.2452,-0.68502 1.32139,-0.5232 1.37607,-0.35345 1.41041,-0.17768 h 1.42097 l 1.40965,0.17768 1.37683,0.35345 1.32102,0.5232 1.24557,0.68502 1.15012,0.83514 1.03546,0.97284 0.9057,1.09545 0.76159,1.19954 0.60506,1.28554 0.43908,1.35231 0.26668,1.3957 0.0891,1.41833 -0.0891,1.41833 -0.26668,1.3957 -0.43908,1.35195 -0.60506,1.28592 -0.76159,1.19955 -0.9057,1.09544 -1.03546,0.97244 -1.15012,0.83516 -1.24557,0.68503 -1.32102,0.52319 -1.37683,0.35345 -1.40965,0.17805 z M 57.112513,421.26349 V 308.09889 H 245.72017 v 113.1646 z m 0,50.16971 v -9.80741 h 37.721541 v 9.80741 z m 150.886127,0 v -9.80741 h 37.72153 v 9.80741 z"
     id="path4"
     style="fill:none;stroke:#000000;stroke-width:1.06042695;stroke-miterlimit:4;stroke-dasharray:none"
     inkscape:connector-curvature="0" />
</svg>
