<?xml version="1.0" encoding="UTF-8" standalone="no"?>
<svg
   xmlns:dc="http://purl.org/dc/elements/1.1/"
   xmlns:cc="http://creativecommons.org/ns#"
   xmlns:rdf="http://www.w3.org/1999/02/22-rdf-syntax-ns#"
   xmlns:svg="http://www.w3.org/2000/svg"
   xmlns="http://www.w3.org/2000/svg"
   xmlns:sodipodi="http://sodipodi.sourceforge.net/DTD/sodipodi-0.dtd"
   xmlns:inkscape="http://www.inkscape.org/namespaces/inkscape"
   width="80mm"
   height="60mm"
   viewBox="0 -6 302.36221 226.77165"
   version="1.1"
   id="svg6"
   sodipodi:docname="anavi-fume-extractor-bottom.svg"
   inkscape:version="0.92.3 (2405546, 2018-03-11)">
  <metadata
     id="metadata12">
    <rdf:RDF>
      <cc:Work
         rdf:about="">
        <dc:format>image/svg+xml</dc:format>
        <dc:type
           rdf:resource="http://purl.org/dc/dcmitype/StillImage" />
        <dc:title>OpenSCAD Model</dc:title>
      </cc:Work>
    </rdf:RDF>
  </metadata>
  <defs
     id="defs10" />
  <sodipodi:namedview
     pagecolor="#ffffff"
     bordercolor="#666666"
     borderopacity="1"
     objecttolerance="10"
     gridtolerance="10"
     guidetolerance="10"
     inkscape:pageopacity="0"
     inkscape:pageshadow="2"
     inkscape:window-width="1837"
     inkscape:window-height="1018"
     id="namedview8"
     showgrid="false"
     units="mm"
     inkscape:zoom="1.489975"
     inkscape:cx="193.66002"
     inkscape:cy="58.463142"
     inkscape:window-x="83"
     inkscape:window-y="34"
     inkscape:window-maximized="1"
     inkscape:current-layer="svg6" />
  <title
     id="title2">OpenSCAD Model</title>
  <path
     d="M 8.8341005,203.80326 H 60.633237 v 7.53429 h 32.020838 v -7.53429 H 211.32131 v 7.53429 h 32.02083 v -7.53429 h 51.79903 V 15.443174 H 243.34214 V 7.9087636 H 211.32131 V 15.443174 H 92.654075 V 7.9087636 H 60.633237 V 15.443174 H 8.8341005 Z M 273.94839,60.635274 l -0.93879,-0.11866 -0.91617,-0.23545 -0.87964,-0.34847 -0.82953,-0.45583 -0.76513,-0.55603 -0.68977,-0.6476 -0.60276,-0.72896 -0.50706,-0.79901 -0.4031,-0.85591 -0.2927,-0.90036 -0.17706,-0.92937 -0.0595,-0.94443 0.0595,-0.94369 0.17706,-0.92975 0.2927,-0.89999 0.4031,-0.8559 0.50706,-0.79902 0.60276,-0.72896 0.68977,-0.64796 0.76513,-0.55566 0.82953,-0.45582 0.87964,-0.34848 0.91617,-0.23582 0.93879,-0.11829 h 0.9467 l 0.93879,0.11829 0.91619,0.23582 0.87926,0.34848 0.82954,0.45582 0.76511,0.55566 0.68978,0.64796 0.60312,0.72896 0.50708,0.79902 0.40271,0.8559 0.29271,0.89999 0.17706,0.92975 0.0599,0.94369 -0.0599,0.94443 -0.17706,0.92937 -0.29271,0.90036 -0.40271,0.85591 -0.50708,0.79901 -0.60312,0.72896 -0.68978,0.6476 -0.76511,0.55603 -0.82954,0.45583 -0.87926,0.34847 -0.91619,0.23545 -0.93879,0.11866 z m -244.868218,0 -0.93871,-0.11866 -0.91626,-0.23545 -0.87949,-0.34847 -0.829501,-0.45583 -0.765081,-0.55603 -0.689812,-0.6476 -0.602978,-0.72896 -0.50699,-0.79901 -0.402977,-0.85591 -0.292599,-0.90036 -0.177022,-0.92937 -0.05979,-0.94443 0.05979,-0.94369 0.177022,-0.92975 0.292599,-0.89999 0.402977,-0.8559 0.50699,-0.79902 0.602978,-0.72896 0.689812,-0.64796 0.765081,-0.55566 0.829501,-0.45582 0.87949,-0.34848 0.91626,-0.23582 0.93871,-0.11829 h 0.946736 l 0.938712,0.11829 0.916259,0.23582 0.87949,0.34848 0.829462,0.45582 0.765119,0.55566 0.689775,0.64796 0.603015,0.72896 0.506991,0.79902 0.402977,0.8559 0.292562,0.89999 0.177058,0.92975 0.05979,0.94369 -0.05979,0.94443 -0.177058,0.92937 -0.292562,0.90036 -0.402977,0.85591 -0.506991,0.79901 -0.603015,0.72896 -0.689775,0.6476 -0.765119,0.55603 -0.829462,0.45583 -0.87949,0.34847 -0.916259,0.23545 -0.938712,0.11866 z m 0,113.015866 -0.93871,-0.1184 -0.91626,-0.23568 -0.87949,-0.34835 -0.829501,-0.45583 -0.765081,-0.55586 -0.689812,-0.64784 -0.602978,-0.72888 -0.50699,-0.79902 -0.402977,-0.85591 -0.292599,-0.90017 -0.177022,-0.92952 -0.05979,-0.94444 0.05979,-0.94369 0.177022,-0.92974 0.292599,-0.89998 0.402977,-0.85591 0.50699,-0.79903 0.602978,-0.72895 0.689812,-0.64796 0.765081,-0.55566 0.829501,-0.45583 0.87949,-0.34847 0.91626,-0.23583 0.93871,-0.11829 h 0.946736 l 0.938712,0.11829 0.916259,0.23583 0.87949,0.34847 0.829462,0.45583 0.765119,0.55566 0.689775,0.64796 0.603015,0.72895 0.506991,0.79903 0.402977,0.85591 0.292562,0.89998 0.177058,0.92974 0.05979,0.94369 -0.05979,0.94444 -0.177058,0.92952 -0.292562,0.90017 -0.402977,0.85591 -0.506991,0.79902 -0.603015,0.72888 -0.689775,0.64784 -0.765119,0.55586 -0.829462,0.45583 -0.87949,0.34835 -0.916259,0.23568 -0.938712,0.1184 z m 244.868218,0 -0.93879,-0.1184 -0.91617,-0.23568 -0.87964,-0.34835 -0.82953,-0.45583 -0.76513,-0.55586 -0.68977,-0.64784 -0.60276,-0.72888 -0.50706,-0.79902 -0.4031,-0.85591 -0.2927,-0.90017 -0.17706,-0.92952 -0.0595,-0.94444 0.0595,-0.94369 0.17706,-0.92974 0.2927,-0.89998 0.4031,-0.85591 0.50706,-0.79903 0.60276,-0.72895 0.68977,-0.64796 0.76513,-0.55566 0.82953,-0.45583 0.87964,-0.34847 0.91617,-0.23583 0.93879,-0.11829 h 0.9467 l 0.93879,0.11829 0.91619,0.23583 0.87926,0.34847 0.82954,0.45583 0.76511,0.55566 0.68978,0.64796 0.60312,0.72895 0.50708,0.79903 0.40271,0.85591 0.29271,0.89998 0.17706,0.92974 0.0599,0.94369 -0.0599,0.94444 -0.17706,0.92952 -0.29271,0.90017 -0.40271,0.85591 -0.50708,0.79902 -0.60312,0.72888 -0.68978,0.64784 -0.76511,0.55586 -0.82954,0.45583 -0.87926,0.34835 -0.91619,0.23568 -0.93879,0.1184 z"
     id="path4"
     inkscape:connector-curvature="0"
     style="fill:none;stroke:#000000;stroke-width:0.93702155;stroke-miterlimit:4;stroke-dasharray:none" />
</svg>
