<?xml version="1.0" encoding="UTF-8" standalone="no"?>
<svg
   xmlns:ooo="http://xml.openoffice.org/svg/export"
   xmlns:dc="http://purl.org/dc/elements/1.1/"
   xmlns:cc="http://creativecommons.org/ns#"
   xmlns:rdf="http://www.w3.org/1999/02/22-rdf-syntax-ns#"
   xmlns:svg="http://www.w3.org/2000/svg"
   xmlns="http://www.w3.org/2000/svg"
   xmlns:sodipodi="http://sodipodi.sourceforge.net/DTD/sodipodi-0.dtd"
   xmlns:inkscape="http://www.inkscape.org/namespaces/inkscape"
   version="1.2"
   width="75mm"
   height="93mm"
   viewBox="0 0 7500 9300"
   preserveAspectRatio="xMidYMid"
   xml:space="preserve"
   id="svg800"
   sodipodi:docname="test.svg"
   inkscape:version="0.92.5 (2060ec1f9f, 2020-04-08)"
   style="fill-rule:evenodd;stroke-width:28.22200012;stroke-linejoin:round"><metadata
   id="metadata804"><rdf:RDF><cc:Work
       rdf:about=""><dc:format>image/svg+xml</dc:format><dc:type
         rdf:resource="http://purl.org/dc/dcmitype/StillImage" /><dc:title></dc:title></cc:Work></rdf:RDF></metadata><sodipodi:namedview
   pagecolor="#ffffff"
   bordercolor="#666666"
   borderopacity="1"
   objecttolerance="10"
   gridtolerance="10"
   guidetolerance="10"
   inkscape:pageopacity="0"
   inkscape:pageshadow="2"
   inkscape:window-width="1832"
   inkscape:window-height="1009"
   id="namedview802"
   showgrid="false"
   inkscape:zoom="1.1327286"
   inkscape:cx="199.43836"
   inkscape:cy="273.77775"
   inkscape:window-x="88"
   inkscape:window-y="34"
   inkscape:window-maximized="1"
   inkscape:current-layer="svg800" />
 <defs
   class="ClipPathGroup"
   id="defs8">
  <clipPath
   id="presentation_clip_path"
   clipPathUnits="userSpaceOnUse">
   <rect
   x="0"
   y="0"
   width="11525"
   height="11025"
   id="rect2" />
  </clipPath>
  <clipPath
   id="presentation_clip_path_shrink"
   clipPathUnits="userSpaceOnUse">
   <rect
   x="11"
   y="11"
   width="11502"
   height="11003"
   id="rect5" />
  </clipPath>
 
  
 
   
  
    
   
     
    
      
     
       
       
       
      
        
        
        
        
        
        
        
        
        
        
        
        
        
        
        
        
        
        
        
        
        
        
        
        
        
        
        
        
        
        
        
        
        
        
        
        
        
        
        
        
        
        
        
        
        
        
        
        
        
        
        
        
        
        
        
        
        
        
        
        
        
        
        
        
        
        
        
        
        
        
        
        
        
        
        
        
        
        
        
        
        
        
        
        
        
        
        
        
        
        
        
        
        
        
        
        
        
        
        
        
        
        
        
        
        
        
        
        
        
        
        
        
        
        
        
        
        
        
        
        
        
        
        
        
        
        
        
        
        
        
        
        
        
        
        
        
        
        
        
        
        
        
        
        
        
        
        
        
        
        
        
        
        
        
        
        
        
        
        
        
        
        
        
        
        
        
        
        
        
        
        
        
        
        
        
        
        
        
        
        
        
        
        
        
        
        
        
        
        
        
        
        
        
        
        
        
        
        
        
        
        
        
        
        
        
        
        
        
        
        
        
        
        
        
        
        
        
        
        
        
        
        
        
        
        
        
        
        
        
        
        
        
        
        
        
        
        
        
        
        
        
        
        
        
        
        
        
        
        
        
        
        
        
        
        
        
        
        
        
        
        
        
        
        
        
        
        
        
        
        
        
        
        
        
        
        
        
        
        
        
        
        
        
        
        
        
        
        
        
        
        
        
        
        
        
        
        
        
        
        
        
        
        
        
        
        
        
        
        
        
        
        
        
        
        
        
        
        
        
        
        
        
        
        
        
        
        
        
        
        
        
        
        
        
        
        
        
        
        
        
        
        
        
        
        
        
        
        
        
        
        
        
        
        
        
        
        
        
        
        
        
        
        
        
        
        
        
       </defs>
 <defs
   class="TextShapeIndex"
   id="defs12">
  <g
   ooo:slide="id1"
   ooo:id-list="id3"
   id="g10" />
 </defs>
 <defs
   class="EmbeddedBulletChars"
   id="defs44">
  <g
   id="bullet-char-template-57356"
   transform="matrix(4.8828125e-4,0,0,-4.8828125e-4,0,0)">
   <path
   d="M 580,1141 1163,571 580,0 -4,571 Z"
   id="path14"
   inkscape:connector-curvature="0" />
  </g>
  <g
   id="bullet-char-template-57354"
   transform="matrix(4.8828125e-4,0,0,-4.8828125e-4,0,0)">
   <path
   d="M 8,1128 H 1137 V 0 H 8 Z"
   id="path17"
   inkscape:connector-curvature="0" />
  </g>
  <g
   id="bullet-char-template-10146"
   transform="matrix(4.8828125e-4,0,0,-4.8828125e-4,0,0)">
   <path
   d="M 174,0 602,739 174,1481 1456,739 Z M 1358,739 309,1346 659,739 Z"
   id="path20"
   inkscape:connector-curvature="0" />
  </g>
  <g
   id="bullet-char-template-10132"
   transform="matrix(4.8828125e-4,0,0,-4.8828125e-4,0,0)">
   <path
   d="M 2015,739 1276,0 H 717 l 543,543 H 174 v 393 h 1086 l -543,545 h 557 z"
   id="path23"
   inkscape:connector-curvature="0" />
  </g>
  <g
   id="bullet-char-template-10007"
   transform="matrix(4.8828125e-4,0,0,-4.8828125e-4,0,0)">
   <path
   d="m 0,-2 c -7,16 -16,29 -25,39 l 381,530 c -94,256 -141,385 -141,387 0,25 13,38 40,38 9,0 21,-2 34,-5 21,4 42,12 65,25 l 27,-13 111,-251 280,301 64,-25 24,25 c 21,-10 41,-24 62,-43 C 886,937 835,863 770,784 769,783 710,716 594,584 L 774,223 c 0,-27 -21,-55 -63,-84 l 16,-20 C 717,90 699,76 672,76 641,76 570,178 457,381 L 164,-76 c -22,-34 -53,-51 -92,-51 -42,0 -63,17 -64,51 -7,9 -10,24 -10,44 0,9 1,19 2,30 z"
   id="path26"
   inkscape:connector-curvature="0" />
  </g>
  <g
   id="bullet-char-template-10004"
   transform="matrix(4.8828125e-4,0,0,-4.8828125e-4,0,0)">
   <path
   d="M 285,-33 C 182,-33 111,30 74,156 52,228 41,333 41,471 c 0,78 14,145 41,201 34,71 87,106 158,106 53,0 88,-31 106,-94 l 23,-176 c 8,-64 28,-97 59,-98 l 735,706 c 11,11 33,17 66,17 42,0 63,-15 63,-46 V 965 c 0,-36 -10,-64 -30,-84 L 442,47 C 390,-6 338,-33 285,-33 Z"
   id="path29"
   inkscape:connector-curvature="0" />
  </g>
  <g
   id="bullet-char-template-9679"
   transform="matrix(4.8828125e-4,0,0,-4.8828125e-4,0,0)">
   <path
   d="M 813,0 C 632,0 489,54 383,161 276,268 223,411 223,592 c 0,181 53,324 160,431 106,107 249,161 430,161 179,0 323,-54 432,-161 108,-107 162,-251 162,-431 0,-180 -54,-324 -162,-431 C 1136,54 992,0 813,0 Z"
   id="path32"
   inkscape:connector-curvature="0" />
  </g>
  <g
   id="bullet-char-template-8226"
   transform="matrix(4.8828125e-4,0,0,-4.8828125e-4,0,0)">
   <path
   d="m 346,457 c -73,0 -137,26 -191,78 -54,51 -81,114 -81,188 0,73 27,136 81,188 54,52 118,78 191,78 73,0 134,-26 185,-79 51,-51 77,-114 77,-187 0,-75 -25,-137 -76,-188 -50,-52 -112,-78 -186,-78 z"
   id="path35"
   inkscape:connector-curvature="0" />
  </g>
  <g
   id="bullet-char-template-8211"
   transform="matrix(4.8828125e-4,0,0,-4.8828125e-4,0,0)">
   <path
   d="M -4,459 H 1135 V 606 H -4 Z"
   id="path38"
   inkscape:connector-curvature="0" />
  </g>
  <g
   id="bullet-char-template-61548"
   transform="matrix(4.8828125e-4,0,0,-4.8828125e-4,0,0)">
   <path
   d="m 173,740 c 0,163 58,303 173,419 116,115 255,173 419,173 163,0 302,-58 418,-173 116,-116 174,-256 174,-419 0,-163 -58,-303 -174,-418 C 1067,206 928,148 765,148 601,148 462,206 346,322 231,437 173,577 173,740 Z"
   id="path41"
   inkscape:connector-curvature="0" />
  </g>
 </defs>
 <g
   id="g49"
   transform="translate(0,-1725)">
  <g
   id="id2"
   class="Master_Slide">
   <g
   id="bg-id2"
   class="Background" />
   <g
   id="bo-id2"
   class="BackgroundObjects" />
  </g>
 </g>
 <rect
   style="fill:none;stroke:none"
   id="rect55"
   height="11025"
   width="11525"
   y="-1725"
   x="0"
   class="BoundingBox" /><path
   style="fill:none;stroke:#000000;stroke-width:15;stroke-linecap:round;stroke-linejoin:round"
   inkscape:connector-curvature="0"
   id="path57"
   d="m 6506.5008,8592.4992 200,-150" /><path
   style="fill:none;stroke:#000000;stroke-width:15;stroke-linecap:round;stroke-linejoin:round"
   inkscape:connector-curvature="0"
   id="path59"
   d="M 6706.5008,942.49919 V 8442.4992" /><path
   style="fill:none;stroke:#000000;stroke-width:15;stroke-linecap:round;stroke-linejoin:round"
   inkscape:connector-curvature="0"
   id="path61"
   d="m 6306.5008,492.49919 400,450" /><path
   style="fill:none;stroke:#000000;stroke-width:15;stroke-linecap:round;stroke-linejoin:round"
   inkscape:connector-curvature="0"
   id="path63"
   d="m 3907.5008,492.49919 h 2399" /><path
   style="fill:none;stroke:#000000;stroke-width:15;stroke-linecap:round;stroke-linejoin:round"
   inkscape:connector-curvature="0"
   id="path65"
   d="M 6906.5008,9192.4992 H 607.50078" /><path
   style="fill:none;stroke:#000000;stroke-width:15;stroke-linecap:round;stroke-linejoin:round"
   inkscape:connector-curvature="0"
   id="path67"
   d="m 6906.5008,9192.4992 v 0 c 88,0 174,-23 250,-67 76,-44 139,-107 183,-183 44,-76 67,-163 67,-250" /><path
   style="fill:none;stroke:#000000;stroke-width:15;stroke-linecap:round;stroke-linejoin:round"
   inkscape:connector-curvature="0"
   id="path69"
   d="m 107.50078,8692.4992 v 0 0 c 0,87 23,174 67,250 44,76 107,139 183,183 76,44 162,67 250,67" /><path
   style="fill:none;stroke:#000000;stroke-width:15;stroke-linecap:round;stroke-linejoin:round"
   inkscape:connector-curvature="0"
   id="path71"
   d="m 109.50078,637.49919 -2,8054.00001" /><path
   style="fill:none;stroke:#000000;stroke-width:15;stroke-linecap:round;stroke-linejoin:round"
   inkscape:connector-curvature="0"
   id="path73"
   d="M 7406.5008,592.49919 V 8691.4992" /><path
   style="fill:none;stroke:#000000;stroke-width:15;stroke-linecap:round;stroke-linejoin:round"
   inkscape:connector-curvature="0"
   id="path75"
   d="M 3907.5008,92.499192 V 492.49919" /><path
   style="fill:none;stroke:#000000;stroke-width:15;stroke-linecap:round;stroke-linejoin:round"
   inkscape:connector-curvature="0"
   id="path77"
   d="m 3907.5008,92.499192 h 2999" /><path
   style="fill:none;stroke:#000000;stroke-width:15;stroke-linecap:round;stroke-linejoin:round"
   inkscape:connector-curvature="0"
   id="path79"
   d="m 1007.5008,8592.4992 h 5499" /><path
   style="fill:none;stroke:#000000;stroke-width:15;stroke-linecap:round;stroke-linejoin:round"
   inkscape:connector-curvature="0"
   id="path81"
   d="m 507.50078,8092.4992 500.00002,500" /><path
   style="fill:none;stroke:#000000;stroke-width:15;stroke-linecap:round;stroke-linejoin:round"
   inkscape:connector-curvature="0"
   id="path83"
   d="m 507.50078,2292.4992 v 5800" /><path
   style="fill:none;stroke:#000000;stroke-width:15;stroke-linecap:round;stroke-linejoin:round"
   inkscape:connector-curvature="0"
   id="path85"
   d="M 1707.5008,2292.4992 H 507.50078" /><path
   style="fill:none;stroke:#000000;stroke-width:15;stroke-linecap:round;stroke-linejoin:round"
   inkscape:connector-curvature="0"
   id="path87"
   d="M 1707.5008,92.499192 V 2292.4992" /><path
   style="fill:none;stroke:#000000;stroke-width:15;stroke-linecap:round;stroke-linejoin:round"
   inkscape:connector-curvature="0"
   id="path89"
   d="M 607.50078,92.499192 H 1707.5008" /><path
   style="fill:none;stroke:#000000;stroke-width:15;stroke-linecap:round;stroke-linejoin:round"
   inkscape:connector-curvature="0"
   id="path91"
   d="m 607.50078,92.499192 v 0 c -88,0 -174,22.999998 -250,66.999998 -76,44 -139,107 -183,183 -44,76 -67,162 -67,250 0,15 1,30 2,45" /><path
   style="fill:none;stroke:#000000;stroke-width:15;stroke-linecap:round;stroke-linejoin:round"
   inkscape:connector-curvature="0"
   id="path93"
   d="m 7406.5008,592.49919 v 0 0 c 0,-88 -23,-174 -67,-250 -44,-76 -107,-139 -183,-183 -76,-44 -162,-66.999998 -250,-66.999998" /><path
   style="fill:none;stroke:#000000;stroke-width:15;stroke-linecap:round;stroke-linejoin:round"
   inkscape:connector-curvature="0"
   id="path95"
   d="m 7064.5008,590.49919 c 0,28 -7,55 -21,79 -14,24 -34,44 -58,58 -24,14 -51,21 -79,21 -27,0 -55,-7 -79,-21 -24,-14 -44,-34 -58,-58 -13,-24 -21,-51 -21,-79 0,-27 8,-55 21,-79 14,-24 34,-44 58,-58 24,-14 52,-21 79,-21 28,0 55,7 79,21 24,14 44,34 58,58 14,24 21,52 21,79 z" /><path
   style="fill:none;stroke:#000000;stroke-width:15;stroke-linecap:round;stroke-linejoin:round"
   inkscape:connector-curvature="0"
   id="path97"
   d="m 7054.5008,8732.4992 c 0,27 -7,55 -21,79 -14,24 -34,44 -58,58 -24,13 -51,21 -79,21 -27,0 -55,-8 -79,-21 -24,-14 -44,-34 -58,-58 -13,-24 -21,-52 -21,-79 0,-28 8,-55 21,-79 14,-24 34,-44 58,-58 24,-14 52,-21 79,-21 28,0 55,7 79,21 24,14 44,34 58,58 14,24 21,51 21,79 z" /><path
   style="fill:none;stroke:#000000;stroke-width:15;stroke-linecap:round;stroke-linejoin:round"
   inkscape:connector-curvature="0"
   id="path99"
   d="m 760.50078,8732.4992 c 0,28 -8,56 -22,81 -14,25 -35,45 -60,60 -24,14 -52,21 -81,21 -29,0 -57,-7 -81,-21 -25,-15 -46,-35 -60,-60 -14,-25 -22,-53 -22,-81 0,-29 8,-57 22,-82 14,-24 35,-45 60,-59 24,-15 52,-22 81,-22 29,0 57,7 81,22 25,14 46,35 60,59 14,25 22,53 22,82 z" /><path
   style="fill:none;stroke:#000000;stroke-width:15;stroke-linecap:round;stroke-linejoin:round"
   inkscape:connector-curvature="0"
   id="path101"
   d="m 768.50078,592.49919 c 0,28 -7,56 -21,81 -15,24 -35,45 -59,59 -25,14 -53,21 -81,21 -28,0 -56,-7 -81,-21 -24,-14 -45,-35 -59,-59 -14,-25 -21,-53 -21,-81 0,-28 7,-56 21,-80 14,-25 35,-45 59,-59 25,-15 53,-22 81,-22 28,0 56,7 81,22 24,14 44,34 59,59 14,24 21,52 21,80 z" /><path
   style="fill:none;stroke:#000000;stroke-width:5;stroke-linecap:round;stroke-linejoin:round"
   inkscape:connector-curvature="0"
   id="path773"
   d="M 607.50078,9192.4992 H 6906.5008" /><path
   style="fill:none;stroke:#000000;stroke-width:5;stroke-linecap:round;stroke-linejoin:round"
   inkscape:connector-curvature="0"
   id="path777"
   d="M 7406.5008,592.49919 V 8691.4992" /><path
   style="fill:none;stroke:#000000;stroke-width:5;stroke-linecap:round;stroke-linejoin:round"
   inkscape:connector-curvature="0"
   id="path779"
   d="M 107.50078,8691.4992 V 592.49919" /><path
   style="fill:none;stroke:#000000;stroke-width:5;stroke-linecap:round;stroke-linejoin:round"
   inkscape:connector-curvature="0"
   id="path781"
   d="m 6906.5008,9192.4992 v 0 c 88,0 174,-23 250,-67 76,-44 139,-107 183,-183 44,-76 67,-163 67,-250" /><path
   style="fill:none;stroke:#000000;stroke-width:5;stroke-linecap:round;stroke-linejoin:round"
   inkscape:connector-curvature="0"
   id="path783"
   d="m 7406.5008,592.49919 v 0 0 c 0,-88 -23,-174 -67,-250 -44,-76 -107,-139 -183,-183 -76,-44 -162,-66.999998 -250,-66.999998" /><path
   style="fill:none;stroke:#000000;stroke-width:5;stroke-linecap:round;stroke-linejoin:round"
   inkscape:connector-curvature="0"
   id="path785"
   d="m 107.50078,8692.4992 v 0 0 c 0,87 23,174 67,250 44,76 107,139 183,183 76,44 162,67 250,67" /><path
   style="fill:none;stroke:#000000;stroke-width:5;stroke-linecap:round;stroke-linejoin:round"
   inkscape:connector-curvature="0"
   id="path787"
   d="m 607.50078,92.499192 v 0 c -88,0 -174,22.999998 -250,66.999998 -76,44 -139,107 -183,183 -44,76 -67,162 -67,250 v 0" />
</svg>