solid OpenSCAD_Model
  facet normal 1 0 0
    outer loop
      vertex 0 36 14
      vertex 0 38 12
      vertex 0 37.989 12.2091
    endloop
  endfacet
  facet normal 1 0 0
    outer loop
      vertex 0 36 14
      vertex 0 37.989 12.2091
      vertex 0 37.9563 12.4158
    endloop
  endfacet
  facet normal 1 0 0
    outer loop
      vertex 0 36 14
      vertex 0 37.9563 12.4158
      vertex 0 37.9021 12.618
    endloop
  endfacet
  facet normal 1 0 0
    outer loop
      vertex 0 36 14
      vertex 0 37.9021 12.618
      vertex 0 37.8271 12.8135
    endloop
  endfacet
  facet normal 1 0 0
    outer loop
      vertex 0 36 14
      vertex 0 37.8271 12.8135
      vertex 0 37.732 13
    endloop
  endfacet
  facet normal 1 0 0
    outer loop
      vertex 0 36 14
      vertex 0 37.732 13
      vertex 0 37.618 13.1756
    endloop
  endfacet
  facet normal 1 0 0
    outer loop
      vertex 0 36 14
      vertex 0 37.618 13.1756
      vertex 0 37.4863 13.3383
    endloop
  endfacet
  facet normal 1 0 0
    outer loop
      vertex 0 36 14
      vertex 0 37.4863 13.3383
      vertex 0 37.3383 13.4863
    endloop
  endfacet
  facet normal 1 0 0
    outer loop
      vertex 0 36 14
      vertex 0 37.3383 13.4863
      vertex 0 37.1756 13.618
    endloop
  endfacet
  facet normal 1 0 0
    outer loop
      vertex 0 36 14
      vertex 0 37.1756 13.618
      vertex 0 37 13.732
    endloop
  endfacet
  facet normal 1 0 0
    outer loop
      vertex 0 36 14
      vertex 0 37 13.732
      vertex 0 36.8135 13.8271
    endloop
  endfacet
  facet normal 1 0 0
    outer loop
      vertex 0 36 14
      vertex 0 36.8135 13.8271
      vertex 0 36.618 13.9021
    endloop
  endfacet
  facet normal 1 0 0
    outer loop
      vertex 0 36 14
      vertex 0 36.618 13.9021
      vertex 0 36.4158 13.9563
    endloop
  endfacet
  facet normal 1 0 0
    outer loop
      vertex 0 36 14
      vertex 0 36.4158 13.9563
      vertex 0 36.2091 13.989
    endloop
  endfacet
  facet normal 1 0 0
    outer loop
      vertex 0 38 12
      vertex 0 36 14
      vertex 0 38 7
    endloop
  endfacet
  facet normal 1 0 0
    outer loop
      vertex 0 36 14
      vertex 0 23 7
      vertex 0 38 7
    endloop
  endfacet
  facet normal 1 0 0
    outer loop
      vertex 0 0 2
      vertex 0 23 7
      vertex 0 2 14
    endloop
  endfacet
  facet normal 1 -0 0
    outer loop
      vertex 0 2 14
      vertex 0 23 7
      vertex 0 36 14
    endloop
  endfacet
  facet normal 1 -0 0
    outer loop
      vertex 0 23 5
      vertex 0 38 2
      vertex 0 38 5
    endloop
  endfacet
  facet normal 1 0 0
    outer loop
      vertex 0 0 12
      vertex 0 2 14
      vertex 0 1.79094 13.989
    endloop
  endfacet
  facet normal 1 0 0
    outer loop
      vertex 0 0 12
      vertex 0 1.79094 13.989
      vertex 0 1.58418 13.9563
    endloop
  endfacet
  facet normal 1 0 0
    outer loop
      vertex 0 0 12
      vertex 0 1.58418 13.9563
      vertex 0 1.38197 13.9021
    endloop
  endfacet
  facet normal 1 0 0
    outer loop
      vertex 0 0 12
      vertex 0 1.38197 13.9021
      vertex 0 1.18653 13.8271
    endloop
  endfacet
  facet normal 1 0 0
    outer loop
      vertex 0 0 12
      vertex 0 1.18653 13.8271
      vertex 0 1 13.732
    endloop
  endfacet
  facet normal 1 0 0
    outer loop
      vertex 0 0 12
      vertex 0 1 13.732
      vertex 0 0.824429 13.618
    endloop
  endfacet
  facet normal 1 0 0
    outer loop
      vertex 0 0 12
      vertex 0 0.824429 13.618
      vertex 0 0.661738 13.4863
    endloop
  endfacet
  facet normal 1 0 0
    outer loop
      vertex 0 0 12
      vertex 0 0.661738 13.4863
      vertex 0 0.51371 13.3383
    endloop
  endfacet
  facet normal 1 0 0
    outer loop
      vertex 0 0 12
      vertex 0 0.51371 13.3383
      vertex 0 0.381966 13.1756
    endloop
  endfacet
  facet normal 1 0 0
    outer loop
      vertex 0 0 12
      vertex 0 0.381966 13.1756
      vertex 0 0.267949 13
    endloop
  endfacet
  facet normal 1 0 0
    outer loop
      vertex 0 0 12
      vertex 0 0.267949 13
      vertex 0 0.172909 12.8135
    endloop
  endfacet
  facet normal 1 0 0
    outer loop
      vertex 0 0 12
      vertex 0 0.172909 12.8135
      vertex 0 0.0978861 12.618
    endloop
  endfacet
  facet normal 1 0 0
    outer loop
      vertex 0 0 12
      vertex 0 0.0978861 12.618
      vertex 0 0.043704 12.4158
    endloop
  endfacet
  facet normal 1 0 0
    outer loop
      vertex 0 0 12
      vertex 0 0.043704 12.4158
      vertex 0 0.0109558 12.2091
    endloop
  endfacet
  facet normal 1 0 0
    outer loop
      vertex 0 2 14
      vertex 0 0 12
      vertex 0 0 2
    endloop
  endfacet
  facet normal 1 0 0
    outer loop
      vertex 0 23 5
      vertex 0 0 2
      vertex 0 38 2
    endloop
  endfacet
  facet normal 1 0 0
    outer loop
      vertex 0 23 7
      vertex 0 0 2
      vertex 0 23 5
    endloop
  endfacet
  facet normal -0 0 1
    outer loop
      vertex -2 36 14
      vertex 0 2 14
      vertex 0 36 14
    endloop
  endfacet
  facet normal 0 0 1
    outer loop
      vertex 0 2 14
      vertex -2 36 14
      vertex -2 2 14
    endloop
  endfacet
  facet normal -1 0 0
    outer loop
      vertex -2 38 0
      vertex -2 23 5
      vertex -2 38 5
    endloop
  endfacet
  facet normal -1 0 0
    outer loop
      vertex -2 23 5
      vertex -2 2 14
      vertex -2 23 7
    endloop
  endfacet
  facet normal -1 0 0
    outer loop
      vertex -2 0 0
      vertex -2 2 14
      vertex -2 23 5
    endloop
  endfacet
  facet normal -1 0 0
    outer loop
      vertex -2 0 12
      vertex -2 2 14
      vertex -2 0 0
    endloop
  endfacet
  facet normal -1 0 0
    outer loop
      vertex -2 2 14
      vertex -2 0 12
      vertex -2 1.79094 13.989
    endloop
  endfacet
  facet normal -1 0 0
    outer loop
      vertex -2 1.79094 13.989
      vertex -2 0 12
      vertex -2 1.58418 13.9563
    endloop
  endfacet
  facet normal -1 0 0
    outer loop
      vertex -2 1.38197 13.9021
      vertex -2 0 12
      vertex -2 1.18653 13.8271
    endloop
  endfacet
  facet normal -1 0 0
    outer loop
      vertex -2 1.18653 13.8271
      vertex -2 0 12
      vertex -2 1 13.732
    endloop
  endfacet
  facet normal -1 0 0
    outer loop
      vertex -2 1 13.732
      vertex -2 0 12
      vertex -2 0.824429 13.618
    endloop
  endfacet
  facet normal -1 0 0
    outer loop
      vertex -2 0.824429 13.618
      vertex -2 0 12
      vertex -2 0.661738 13.4863
    endloop
  endfacet
  facet normal -1 0 0
    outer loop
      vertex -2 0.661738 13.4863
      vertex -2 0 12
      vertex -2 0.51371 13.3383
    endloop
  endfacet
  facet normal -1 0 0
    outer loop
      vertex -2 0.51371 13.3383
      vertex -2 0 12
      vertex -2 0.381966 13.1756
    endloop
  endfacet
  facet normal -1 0 0
    outer loop
      vertex -2 0.381966 13.1756
      vertex -2 0 12
      vertex -2 0.267949 13
    endloop
  endfacet
  facet normal -1 0 0
    outer loop
      vertex -2 0.267949 13
      vertex -2 0 12
      vertex -2 0.172909 12.8135
    endloop
  endfacet
  facet normal -1 0 0
    outer loop
      vertex -2 0 0
      vertex -2 23 5
      vertex -2 38 0
    endloop
  endfacet
  facet normal -1 0 0
    outer loop
      vertex -2 0.172909 12.8135
      vertex -2 0 12
      vertex -2 0.0978861 12.618
    endloop
  endfacet
  facet normal -1 0 0
    outer loop
      vertex -2 0.0978861 12.618
      vertex -2 0 12
      vertex -2 0.043704 12.4158
    endloop
  endfacet
  facet normal -1 0 0
    outer loop
      vertex -2 1.58418 13.9563
      vertex -2 0 12
      vertex -2 1.38197 13.9021
    endloop
  endfacet
  facet normal -1 0 0
    outer loop
      vertex -2 0.043704 12.4158
      vertex -2 0 12
      vertex -2 0.0109558 12.2091
    endloop
  endfacet
  facet normal -1 0 0
    outer loop
      vertex -2 36 14
      vertex -2 38 12
      vertex -2 38 7
    endloop
  endfacet
  facet normal -1 0 0
    outer loop
      vertex -2 38 12
      vertex -2 36 14
      vertex -2 37.989 12.2091
    endloop
  endfacet
  facet normal -1 0 0
    outer loop
      vertex -2 37.989 12.2091
      vertex -2 36 14
      vertex -2 37.9563 12.4158
    endloop
  endfacet
  facet normal -1 0 0
    outer loop
      vertex -2 37.9563 12.4158
      vertex -2 36 14
      vertex -2 37.9021 12.618
    endloop
  endfacet
  facet normal -1 0 0
    outer loop
      vertex -2 37.9021 12.618
      vertex -2 36 14
      vertex -2 37.8271 12.8135
    endloop
  endfacet
  facet normal -1 0 0
    outer loop
      vertex -2 37.8271 12.8135
      vertex -2 36 14
      vertex -2 37.732 13
    endloop
  endfacet
  facet normal -1 0 0
    outer loop
      vertex -2 37.732 13
      vertex -2 36 14
      vertex -2 37.618 13.1756
    endloop
  endfacet
  facet normal -1 0 0
    outer loop
      vertex -2 37.618 13.1756
      vertex -2 36 14
      vertex -2 37.4863 13.3383
    endloop
  endfacet
  facet normal -1 0 0
    outer loop
      vertex -2 37.4863 13.3383
      vertex -2 36 14
      vertex -2 37.3383 13.4863
    endloop
  endfacet
  facet normal -1 0 0
    outer loop
      vertex -2 37.3383 13.4863
      vertex -2 36 14
      vertex -2 37.1756 13.618
    endloop
  endfacet
  facet normal -1 0 0
    outer loop
      vertex -2 37.1756 13.618
      vertex -2 36 14
      vertex -2 37 13.732
    endloop
  endfacet
  facet normal -1 0 0
    outer loop
      vertex -2 37 13.732
      vertex -2 36 14
      vertex -2 36.8135 13.8271
    endloop
  endfacet
  facet normal -1 0 0
    outer loop
      vertex -2 36.8135 13.8271
      vertex -2 36 14
      vertex -2 36.618 13.9021
    endloop
  endfacet
  facet normal -1 0 0
    outer loop
      vertex -2 36.618 13.9021
      vertex -2 36 14
      vertex -2 36.4158 13.9563
    endloop
  endfacet
  facet normal -1 0 0
    outer loop
      vertex -2 36.4158 13.9563
      vertex -2 36 14
      vertex -2 36.2091 13.989
    endloop
  endfacet
  facet normal -1 0 0
    outer loop
      vertex -2 23 7
      vertex -2 36 14
      vertex -2 38 7
    endloop
  endfacet
  facet normal -1 -0 0
    outer loop
      vertex -2 36 14
      vertex -2 23 7
      vertex -2 2 14
    endloop
  endfacet
  facet normal 0 -0.99863 0.0523233
    outer loop
      vertex -2 0 12
      vertex 0 0.0109558 12.2091
      vertex -2 0.0109558 12.2091
    endloop
  endfacet
  facet normal 0 -0.99863 0.0523233
    outer loop
      vertex 0 0.0109558 12.2091
      vertex -2 0 12
      vertex 0 0 12
    endloop
  endfacet
  facet normal 0 -0.965923 0.258831
    outer loop
      vertex -2 0.043704 12.4158
      vertex 0 0.0978861 12.618
      vertex -2 0.0978861 12.618
    endloop
  endfacet
  facet normal 0 -0.965923 0.258831
    outer loop
      vertex 0 0.0978861 12.618
      vertex -2 0.043704 12.4158
      vertex 0 0.043704 12.4158
    endloop
  endfacet
  facet normal 0 -0.156213 0.987723
    outer loop
      vertex -2 1.79094 13.989
      vertex 0 1.58418 13.9563
      vertex 0 1.79094 13.989
    endloop
  endfacet
  facet normal 0 -0.156213 0.987723
    outer loop
      vertex 0 1.58418 13.9563
      vertex -2 1.79094 13.989
      vertex -2 1.58418 13.9563
    endloop
  endfacet
  facet normal 0 -0.933616 0.358274
    outer loop
      vertex -2 0.0978861 12.618
      vertex 0 0.172909 12.8135
      vertex -2 0.172909 12.8135
    endloop
  endfacet
  facet normal 0 -0.933616 0.358274
    outer loop
      vertex 0 0.172909 12.8135
      vertex -2 0.0978861 12.618
      vertex 0 0.0978861 12.618
    endloop
  endfacet
  facet normal 0 -0.629192 0.77725
    outer loop
      vertex -2 0.824429 13.618
      vertex 0 0.661738 13.4863
      vertex 0 0.824429 13.618
    endloop
  endfacet
  facet normal 0 -0.629192 0.77725
    outer loop
      vertex 0 0.661738 13.4863
      vertex -2 0.824429 13.618
      vertex -2 0.661738 13.4863
    endloop
  endfacet
  facet normal 0 -0.358275 0.933616
    outer loop
      vertex -2 1.38197 13.9021
      vertex 0 1.18653 13.8271
      vertex 0 1.38197 13.9021
    endloop
  endfacet
  facet normal 0 -0.358275 0.933616
    outer loop
      vertex 0 1.18653 13.8271
      vertex -2 1.38197 13.9021
      vertex -2 1.18653 13.8271
    endloop
  endfacet
  facet normal 0 -0.70704 0.707174
    outer loop
      vertex -2 0.51371 13.3383
      vertex 0 0.661738 13.4863
      vertex -2 0.661738 13.4863
    endloop
  endfacet
  facet normal 0 -0.70704 0.707174
    outer loop
      vertex 0 0.661738 13.4863
      vertex -2 0.51371 13.3383
      vertex 0 0.51371 13.3383
    endloop
  endfacet
  facet normal 0 -0.987681 0.156482
    outer loop
      vertex -2 0.0109558 12.2091
      vertex 0 0.043704 12.4158
      vertex -2 0.043704 12.4158
    endloop
  endfacet
  facet normal 0 -0.987681 0.156482
    outer loop
      vertex 0 0.043704 12.4158
      vertex -2 0.0109558 12.2091
      vertex 0 0.0109558 12.2091
    endloop
  endfacet
  facet normal 0 -0.454211 0.890894
    outer loop
      vertex -2 1.18653 13.8271
      vertex 0 1 13.732
      vertex 0 1.18653 13.8271
    endloop
  endfacet
  facet normal 0 -0.454211 0.890894
    outer loop
      vertex 0 1 13.732
      vertex -2 1.18653 13.8271
      vertex -2 1 13.732
    endloop
  endfacet
  facet normal 0 -0.544581 0.838708
    outer loop
      vertex -2 1 13.732
      vertex 0 0.824429 13.618
      vertex 0 1 13.732
    endloop
  endfacet
  facet normal 0 -0.544581 0.838708
    outer loop
      vertex 0 0.824429 13.618
      vertex -2 1 13.732
      vertex -2 0.824429 13.618
    endloop
  endfacet
  facet normal 0 -0.258899 0.965904
    outer loop
      vertex -2 1.58418 13.9563
      vertex 0 1.38197 13.9021
      vertex 0 1.58418 13.9563
    endloop
  endfacet
  facet normal 0 -0.258899 0.965904
    outer loop
      vertex 0 1.38197 13.9021
      vertex -2 1.58418 13.9563
      vertex -2 1.38197 13.9021
    endloop
  endfacet
  facet normal 0 -0.0525438 0.998619
    outer loop
      vertex -2 2 14
      vertex 0 1.79094 13.989
      vertex 0 2 14
    endloop
  endfacet
  facet normal 0 -0.0525438 0.998619
    outer loop
      vertex 0 1.79094 13.989
      vertex -2 2 14
      vertex -2 1.79094 13.989
    endloop
  endfacet
  facet normal 0 -0.777164 0.629298
    outer loop
      vertex -2 0.381966 13.1756
      vertex 0 0.51371 13.3383
      vertex -2 0.51371 13.3383
    endloop
  endfacet
  facet normal 0 -0.777164 0.629298
    outer loop
      vertex 0 0.51371 13.3383
      vertex -2 0.381966 13.1756
      vertex 0 0.381966 13.1756
    endloop
  endfacet
  facet normal 0 -0.89098 0.454042
    outer loop
      vertex -2 0.172909 12.8135
      vertex 0 0.267949 13
      vertex -2 0.267949 13
    endloop
  endfacet
  facet normal 0 -0.89098 0.454042
    outer loop
      vertex 0 0.267949 13
      vertex -2 0.172909 12.8135
      vertex 0 0.172909 12.8135
    endloop
  endfacet
  facet normal 0 -0.838712 0.544575
    outer loop
      vertex -2 0.267949 13
      vertex 0 0.381966 13.1756
      vertex -2 0.381966 13.1756
    endloop
  endfacet
  facet normal 0 -0.838712 0.544575
    outer loop
      vertex 0 0.381966 13.1756
      vertex -2 0.267949 13
      vertex 0 0.267949 13
    endloop
  endfacet
  facet normal 0 0.933653 0.358179
    outer loop
      vertex 0 37.9021 12.618
      vertex -2 37.8271 12.8135
      vertex 0 37.8271 12.8135
    endloop
  endfacet
  facet normal 0 0.933653 0.358179
    outer loop
      vertex -2 37.8271 12.8135
      vertex 0 37.9021 12.618
      vertex -2 37.9021 12.618
    endloop
  endfacet
  facet normal 0 0.777267 0.629171
    outer loop
      vertex 0 37.618 13.1756
      vertex -2 37.4863 13.3383
      vertex 0 37.4863 13.3383
    endloop
  endfacet
  facet normal 0 0.777267 0.629171
    outer loop
      vertex -2 37.4863 13.3383
      vertex 0 37.618 13.1756
      vertex -2 37.618 13.1756
    endloop
  endfacet
  facet normal 0 0.838749 0.544518
    outer loop
      vertex 0 37.732 13
      vertex -2 37.618 13.1756
      vertex 0 37.618 13.1756
    endloop
  endfacet
  facet normal 0 0.838749 0.544518
    outer loop
      vertex -2 37.618 13.1756
      vertex 0 37.732 13
      vertex -2 37.732 13
    endloop
  endfacet
  facet normal 0 0.987716 0.156257
    outer loop
      vertex 0 37.989 12.2091
      vertex -2 37.9563 12.4158
      vertex 0 37.9563 12.4158
    endloop
  endfacet
  facet normal 0 0.987716 0.156257
    outer loop
      vertex -2 37.9563 12.4158
      vertex 0 37.989 12.2091
      vertex -2 37.989 12.2091
    endloop
  endfacet
  facet normal -0 0.258911 0.965901
    outer loop
      vertex -2 36.618 13.9021
      vertex 0 36.4158 13.9563
      vertex 0 36.618 13.9021
    endloop
  endfacet
  facet normal 0 0.258911 0.965901
    outer loop
      vertex 0 36.4158 13.9563
      vertex -2 36.618 13.9021
      vertex -2 36.4158 13.9563
    endloop
  endfacet
  facet normal 0 0.998619 0.0525338
    outer loop
      vertex 0 38 12
      vertex -2 37.989 12.2091
      vertex 0 37.989 12.2091
    endloop
  endfacet
  facet normal 0 0.998619 0.0525338
    outer loop
      vertex -2 37.989 12.2091
      vertex 0 38 12
      vertex -2 38 12
    endloop
  endfacet
  facet normal -0 0.544518 0.838749
    outer loop
      vertex -2 37.1756 13.618
      vertex 0 37 13.732
      vertex 0 37.1756 13.618
    endloop
  endfacet
  facet normal 0 0.544518 0.838749
    outer loop
      vertex 0 37 13.732
      vertex -2 37.1756 13.618
      vertex -2 37 13.732
    endloop
  endfacet
  facet normal -0 0.156257 0.987716
    outer loop
      vertex -2 36.4158 13.9563
      vertex 0 36.2091 13.989
      vertex 0 36.4158 13.9563
    endloop
  endfacet
  facet normal 0 0.156257 0.987716
    outer loop
      vertex 0 36.2091 13.989
      vertex -2 36.4158 13.9563
      vertex -2 36.2091 13.989
    endloop
  endfacet
  facet normal 0 0.965901 0.258911
    outer loop
      vertex 0 37.9563 12.4158
      vertex -2 37.9021 12.618
      vertex 0 37.9021 12.618
    endloop
  endfacet
  facet normal 0 0.965901 0.258911
    outer loop
      vertex -2 37.9021 12.618
      vertex 0 37.9563 12.4158
      vertex -2 37.9563 12.4158
    endloop
  endfacet
  facet normal 0 0.890864 0.454269
    outer loop
      vertex 0 37.8271 12.8135
      vertex -2 37.732 13
      vertex 0 37.732 13
    endloop
  endfacet
  facet normal 0 0.890864 0.454269
    outer loop
      vertex -2 37.732 13
      vertex 0 37.8271 12.8135
      vertex -2 37.8271 12.8135
    endloop
  endfacet
  facet normal -0 0.358179 0.933653
    outer loop
      vertex -2 36.8135 13.8271
      vertex 0 36.618 13.9021
      vertex 0 36.8135 13.8271
    endloop
  endfacet
  facet normal 0 0.358179 0.933653
    outer loop
      vertex 0 36.618 13.9021
      vertex -2 36.8135 13.8271
      vertex -2 36.618 13.9021
    endloop
  endfacet
  facet normal -0 0.629171 0.777267
    outer loop
      vertex -2 37.3383 13.4863
      vertex 0 37.1756 13.618
      vertex 0 37.3383 13.4863
    endloop
  endfacet
  facet normal 0 0.629171 0.777267
    outer loop
      vertex 0 37.1756 13.618
      vertex -2 37.3383 13.4863
      vertex -2 37.1756 13.618
    endloop
  endfacet
  facet normal -0 0.0525338 0.998619
    outer loop
      vertex -2 36.2091 13.989
      vertex 0 36 14
      vertex 0 36.2091 13.989
    endloop
  endfacet
  facet normal 0 0.0525338 0.998619
    outer loop
      vertex 0 36 14
      vertex -2 36.2091 13.989
      vertex -2 36 14
    endloop
  endfacet
  facet normal -0 0.454269 0.890864
    outer loop
      vertex -2 37 13.732
      vertex 0 36.8135 13.8271
      vertex 0 37 13.732
    endloop
  endfacet
  facet normal 0 0.454269 0.890864
    outer loop
      vertex 0 36.8135 13.8271
      vertex -2 37 13.732
      vertex -2 36.8135 13.8271
    endloop
  endfacet
  facet normal -0 0.707107 0.707107
    outer loop
      vertex -2 37.4863 13.3383
      vertex 0 37.3383 13.4863
      vertex 0 37.4863 13.3383
    endloop
  endfacet
  facet normal 0 0.707107 0.707107
    outer loop
      vertex 0 37.3383 13.4863
      vertex -2 37.4863 13.3383
      vertex -2 37.3383 13.4863
    endloop
  endfacet
  facet normal -0 0 1
    outer loop
      vertex -2 38 5
      vertex 0 23 5
      vertex 0 38 5
    endloop
  endfacet
  facet normal 0 0 1
    outer loop
      vertex 0 23 5
      vertex -2 38 5
      vertex -2 23 5
    endloop
  endfacet
  facet normal 0 0 -1
    outer loop
      vertex -2 0 0
      vertex 45 38 0
      vertex 45 0 0
    endloop
  endfacet
  facet normal -0 0 -1
    outer loop
      vertex 45 38 0
      vertex -2 0 0
      vertex -2 38 0
    endloop
  endfacet
  facet normal 0 1 0
    outer loop
      vertex 45 38 5
      vertex 43 38 2
      vertex 43 38 5
    endloop
  endfacet
  facet normal 0 1 0
    outer loop
      vertex 43 38 2
      vertex 45 38 0
      vertex 0 38 2
    endloop
  endfacet
  facet normal 0 1 -0
    outer loop
      vertex 45 38 0
      vertex 43 38 2
      vertex 45 38 5
    endloop
  endfacet
  facet normal 0 1 -0
    outer loop
      vertex 0 38 2
      vertex -2 38 5
      vertex 0 38 5
    endloop
  endfacet
  facet normal 0 1 0
    outer loop
      vertex 0 38 2
      vertex -2 38 0
      vertex -2 38 5
    endloop
  endfacet
  facet normal 0 1 0
    outer loop
      vertex -2 38 0
      vertex 0 38 2
      vertex 45 38 0
    endloop
  endfacet
  facet normal 0 -1 0
    outer loop
      vertex -2 0 12
      vertex 0 0 2
      vertex 0 0 12
    endloop
  endfacet
  facet normal 0 -1 -0
    outer loop
      vertex 0 0 2
      vertex -2 0 0
      vertex 43 0 2
    endloop
  endfacet
  facet normal 0 -1 0
    outer loop
      vertex -2 0 0
      vertex 0 0 2
      vertex -2 0 12
    endloop
  endfacet
  facet normal 0 -1 0
    outer loop
      vertex 43 0 2
      vertex 45 0 12
      vertex 43 0 12
    endloop
  endfacet
  facet normal 0 -1 0
    outer loop
      vertex 43 0 2
      vertex 45 0 0
      vertex 45 0 12
    endloop
  endfacet
  facet normal 0 -1 0
    outer loop
      vertex 45 0 0
      vertex 43 0 2
      vertex -2 0 0
    endloop
  endfacet
  facet normal 0 0 -1
    outer loop
      vertex -2 23 7
      vertex 0 38 7
      vertex 0 23 7
    endloop
  endfacet
  facet normal -0 0 -1
    outer loop
      vertex 0 38 7
      vertex -2 23 7
      vertex -2 38 7
    endloop
  endfacet
  facet normal 0 1 -0
    outer loop
      vertex 0 23 5
      vertex -2 23 7
      vertex 0 23 7
    endloop
  endfacet
  facet normal 0 1 0
    outer loop
      vertex -2 23 7
      vertex 0 23 5
      vertex -2 23 5
    endloop
  endfacet
  facet normal 0 1 -0
    outer loop
      vertex 0 38 7
      vertex -2 38 12
      vertex 0 38 12
    endloop
  endfacet
  facet normal 0 1 0
    outer loop
      vertex -2 38 12
      vertex 0 38 7
      vertex -2 38 7
    endloop
  endfacet
  facet normal 1 0 0
    outer loop
      vertex 45 36 14
      vertex 45 38 12
      vertex 45 37.989 12.2091
    endloop
  endfacet
  facet normal 1 0 0
    outer loop
      vertex 45 36 14
      vertex 45 37.989 12.2091
      vertex 45 37.9563 12.4158
    endloop
  endfacet
  facet normal 1 0 0
    outer loop
      vertex 45 36 14
      vertex 45 37.9563 12.4158
      vertex 45 37.9021 12.618
    endloop
  endfacet
  facet normal 1 0 0
    outer loop
      vertex 45 36 14
      vertex 45 37.9021 12.618
      vertex 45 37.8271 12.8135
    endloop
  endfacet
  facet normal 1 0 0
    outer loop
      vertex 45 36 14
      vertex 45 37.8271 12.8135
      vertex 45 37.732 13
    endloop
  endfacet
  facet normal 1 0 0
    outer loop
      vertex 45 36 14
      vertex 45 37.732 13
      vertex 45 37.618 13.1756
    endloop
  endfacet
  facet normal 1 0 0
    outer loop
      vertex 45 36 14
      vertex 45 37.618 13.1756
      vertex 45 37.4863 13.3383
    endloop
  endfacet
  facet normal 1 0 0
    outer loop
      vertex 45 36 14
      vertex 45 37.4863 13.3383
      vertex 45 37.3383 13.4863
    endloop
  endfacet
  facet normal 1 0 0
    outer loop
      vertex 45 36 14
      vertex 45 37.3383 13.4863
      vertex 45 37.1756 13.618
    endloop
  endfacet
  facet normal 1 0 0
    outer loop
      vertex 45 36 14
      vertex 45 37.1756 13.618
      vertex 45 37 13.732
    endloop
  endfacet
  facet normal 1 0 0
    outer loop
      vertex 45 36 14
      vertex 45 37 13.732
      vertex 45 36.8135 13.8271
    endloop
  endfacet
  facet normal 1 0 0
    outer loop
      vertex 45 36 14
      vertex 45 36.8135 13.8271
      vertex 45 36.618 13.9021
    endloop
  endfacet
  facet normal 1 0 0
    outer loop
      vertex 45 36 14
      vertex 45 36.618 13.9021
      vertex 45 36.4158 13.9563
    endloop
  endfacet
  facet normal 1 0 0
    outer loop
      vertex 45 36 14
      vertex 45 36.4158 13.9563
      vertex 45 36.2091 13.989
    endloop
  endfacet
  facet normal 1 0 0
    outer loop
      vertex 45 38 12
      vertex 45 36 14
      vertex 45 38 7
    endloop
  endfacet
  facet normal 1 0 0
    outer loop
      vertex 45 36 14
      vertex 45 23 7
      vertex 45 38 7
    endloop
  endfacet
  facet normal 1 0 0
    outer loop
      vertex 45 23 7
      vertex 45 2 14
      vertex 45 23 5
    endloop
  endfacet
  facet normal 1 -0 0
    outer loop
      vertex 45 2 14
      vertex 45 23 7
      vertex 45 36 14
    endloop
  endfacet
  facet normal 1 -0 0
    outer loop
      vertex 45 23 5
      vertex 45 38 0
      vertex 45 38 5
    endloop
  endfacet
  facet normal 1 0 0
    outer loop
      vertex 45 0 12
      vertex 45 2 14
      vertex 45 1.79094 13.989
    endloop
  endfacet
  facet normal 1 0 0
    outer loop
      vertex 45 0 12
      vertex 45 1.79094 13.989
      vertex 45 1.58418 13.9563
    endloop
  endfacet
  facet normal 1 0 0
    outer loop
      vertex 45 0 12
      vertex 45 1.58418 13.9563
      vertex 45 1.38197 13.9021
    endloop
  endfacet
  facet normal 1 0 0
    outer loop
      vertex 45 0 12
      vertex 45 1.38197 13.9021
      vertex 45 1.18653 13.8271
    endloop
  endfacet
  facet normal 1 0 0
    outer loop
      vertex 45 0 12
      vertex 45 1.18653 13.8271
      vertex 45 1 13.732
    endloop
  endfacet
  facet normal 1 0 0
    outer loop
      vertex 45 0 12
      vertex 45 1 13.732
      vertex 45 0.824429 13.618
    endloop
  endfacet
  facet normal 1 0 0
    outer loop
      vertex 45 0 12
      vertex 45 0.824429 13.618
      vertex 45 0.661738 13.4863
    endloop
  endfacet
  facet normal 1 0 0
    outer loop
      vertex 45 0 12
      vertex 45 0.661738 13.4863
      vertex 45 0.51371 13.3383
    endloop
  endfacet
  facet normal 1 0 0
    outer loop
      vertex 45 0 12
      vertex 45 0.51371 13.3383
      vertex 45 0.381966 13.1756
    endloop
  endfacet
  facet normal 1 0 0
    outer loop
      vertex 45 0 12
      vertex 45 0.381966 13.1756
      vertex 45 0.267949 13
    endloop
  endfacet
  facet normal 1 0 0
    outer loop
      vertex 45 0 12
      vertex 45 0.267949 13
      vertex 45 0.172909 12.8135
    endloop
  endfacet
  facet normal 1 0 0
    outer loop
      vertex 45 0 12
      vertex 45 0.172909 12.8135
      vertex 45 0.0978861 12.618
    endloop
  endfacet
  facet normal 1 0 0
    outer loop
      vertex 45 2 14
      vertex 45 0 12
      vertex 45 0 0
    endloop
  endfacet
  facet normal 1 0 0
    outer loop
      vertex 45 0 12
      vertex 45 0.0978861 12.618
      vertex 45 0.043704 12.4158
    endloop
  endfacet
  facet normal 1 0 0
    outer loop
      vertex 45 0 12
      vertex 45 0.043704 12.4158
      vertex 45 0.0109558 12.2091
    endloop
  endfacet
  facet normal 1 0 0
    outer loop
      vertex 45 2 14
      vertex 45 0 0
      vertex 45 23 5
    endloop
  endfacet
  facet normal 1 0 0
    outer loop
      vertex 45 23 5
      vertex 45 0 0
      vertex 45 38 0
    endloop
  endfacet
  facet normal -0 0 1
    outer loop
      vertex 43 36 14
      vertex 45 2 14
      vertex 45 36 14
    endloop
  endfacet
  facet normal 0 0 1
    outer loop
      vertex 45 2 14
      vertex 43 36 14
      vertex 43 2 14
    endloop
  endfacet
  facet normal -1 0 0
    outer loop
      vertex 43 38 2
      vertex 43 23 5
      vertex 43 38 5
    endloop
  endfacet
  facet normal -1 0 0
    outer loop
      vertex 43 0 2
      vertex 43 23 7
      vertex 43 23 5
    endloop
  endfacet
  facet normal -1 -0 0
    outer loop
      vertex 43 23 7
      vertex 43 0 2
      vertex 43 2 14
    endloop
  endfacet
  facet normal -1 0 0
    outer loop
      vertex 43 0 12
      vertex 43 2 14
      vertex 43 0 2
    endloop
  endfacet
  facet normal -1 0 0
    outer loop
      vertex 43 2 14
      vertex 43 0 12
      vertex 43 1.79094 13.989
    endloop
  endfacet
  facet normal -1 0 0
    outer loop
      vertex 43 1.79094 13.989
      vertex 43 0 12
      vertex 43 1.58418 13.9563
    endloop
  endfacet
  facet normal -1 0 0
    outer loop
      vertex 43 1.58418 13.9563
      vertex 43 0 12
      vertex 43 1.38197 13.9021
    endloop
  endfacet
  facet normal -1 0 0
    outer loop
      vertex 43 1.38197 13.9021
      vertex 43 0 12
      vertex 43 1.18653 13.8271
    endloop
  endfacet
  facet normal -1 0 0
    outer loop
      vertex 43 1 13.732
      vertex 43 0 12
      vertex 43 0.824429 13.618
    endloop
  endfacet
  facet normal -1 0 0
    outer loop
      vertex 43 0.824429 13.618
      vertex 43 0 12
      vertex 43 0.661738 13.4863
    endloop
  endfacet
  facet normal -1 0 0
    outer loop
      vertex 43 0.661738 13.4863
      vertex 43 0 12
      vertex 43 0.51371 13.3383
    endloop
  endfacet
  facet normal -1 0 0
    outer loop
      vertex 43 0.51371 13.3383
      vertex 43 0 12
      vertex 43 0.381966 13.1756
    endloop
  endfacet
  facet normal -1 0 0
    outer loop
      vertex 43 0.381966 13.1756
      vertex 43 0 12
      vertex 43 0.267949 13
    endloop
  endfacet
  facet normal -1 0 0
    outer loop
      vertex 43 0.267949 13
      vertex 43 0 12
      vertex 43 0.172909 12.8135
    endloop
  endfacet
  facet normal -1 0 0
    outer loop
      vertex 43 0.172909 12.8135
      vertex 43 0 12
      vertex 43 0.0978861 12.618
    endloop
  endfacet
  facet normal -1 0 0
    outer loop
      vertex 43 0.0978861 12.618
      vertex 43 0 12
      vertex 43 0.043704 12.4158
    endloop
  endfacet
  facet normal -1 0 0
    outer loop
      vertex 43 0 2
      vertex 43 23 5
      vertex 43 38 2
    endloop
  endfacet
  facet normal -1 0 0
    outer loop
      vertex 43 1.18653 13.8271
      vertex 43 0 12
      vertex 43 1 13.732
    endloop
  endfacet
  facet normal -1 0 0
    outer loop
      vertex 43 0.043704 12.4158
      vertex 43 0 12
      vertex 43 0.0109558 12.2091
    endloop
  endfacet
  facet normal -1 0 0
    outer loop
      vertex 43 36 14
      vertex 43 38 12
      vertex 43 38 7
    endloop
  endfacet
  facet normal -1 0 0
    outer loop
      vertex 43 38 12
      vertex 43 36 14
      vertex 43 37.989 12.2091
    endloop
  endfacet
  facet normal -1 0 0
    outer loop
      vertex 43 37.989 12.2091
      vertex 43 36 14
      vertex 43 37.9563 12.4158
    endloop
  endfacet
  facet normal -1 0 0
    outer loop
      vertex 43 37.9563 12.4158
      vertex 43 36 14
      vertex 43 37.9021 12.618
    endloop
  endfacet
  facet normal -1 0 0
    outer loop
      vertex 43 37.9021 12.618
      vertex 43 36 14
      vertex 43 37.8271 12.8135
    endloop
  endfacet
  facet normal -1 0 0
    outer loop
      vertex 43 37.8271 12.8135
      vertex 43 36 14
      vertex 43 37.732 13
    endloop
  endfacet
  facet normal -1 0 0
    outer loop
      vertex 43 37.732 13
      vertex 43 36 14
      vertex 43 37.618 13.1756
    endloop
  endfacet
  facet normal -1 0 0
    outer loop
      vertex 43 37.618 13.1756
      vertex 43 36 14
      vertex 43 37.4863 13.3383
    endloop
  endfacet
  facet normal -1 0 0
    outer loop
      vertex 43 37.4863 13.3383
      vertex 43 36 14
      vertex 43 37.3383 13.4863
    endloop
  endfacet
  facet normal -1 0 0
    outer loop
      vertex 43 37.3383 13.4863
      vertex 43 36 14
      vertex 43 37.1756 13.618
    endloop
  endfacet
  facet normal -1 0 0
    outer loop
      vertex 43 37.1756 13.618
      vertex 43 36 14
      vertex 43 37 13.732
    endloop
  endfacet
  facet normal -1 0 0
    outer loop
      vertex 43 37 13.732
      vertex 43 36 14
      vertex 43 36.8135 13.8271
    endloop
  endfacet
  facet normal -1 0 0
    outer loop
      vertex 43 36.8135 13.8271
      vertex 43 36 14
      vertex 43 36.618 13.9021
    endloop
  endfacet
  facet normal -1 0 0
    outer loop
      vertex 43 36.618 13.9021
      vertex 43 36 14
      vertex 43 36.4158 13.9563
    endloop
  endfacet
  facet normal -1 0 0
    outer loop
      vertex 43 36.4158 13.9563
      vertex 43 36 14
      vertex 43 36.2091 13.989
    endloop
  endfacet
  facet normal -1 0 0
    outer loop
      vertex 43 23 7
      vertex 43 36 14
      vertex 43 38 7
    endloop
  endfacet
  facet normal -1 -0 0
    outer loop
      vertex 43 36 14
      vertex 43 23 7
      vertex 43 2 14
    endloop
  endfacet
  facet normal 0 -0.156213 0.987723
    outer loop
      vertex 43 1.79094 13.989
      vertex 45 1.58418 13.9563
      vertex 45 1.79094 13.989
    endloop
  endfacet
  facet normal 0 -0.156213 0.987723
    outer loop
      vertex 45 1.58418 13.9563
      vertex 43 1.79094 13.989
      vertex 43 1.58418 13.9563
    endloop
  endfacet
  facet normal 0 -0.965923 0.258831
    outer loop
      vertex 43 0.043704 12.4158
      vertex 45 0.0978861 12.618
      vertex 43 0.0978861 12.618
    endloop
  endfacet
  facet normal 0 -0.965923 0.258831
    outer loop
      vertex 45 0.0978861 12.618
      vertex 43 0.043704 12.4158
      vertex 45 0.043704 12.4158
    endloop
  endfacet
  facet normal 0 -0.838712 0.544575
    outer loop
      vertex 43 0.267949 13
      vertex 45 0.381966 13.1756
      vertex 43 0.381966 13.1756
    endloop
  endfacet
  facet normal 0 -0.838712 0.544575
    outer loop
      vertex 45 0.381966 13.1756
      vertex 43 0.267949 13
      vertex 45 0.267949 13
    endloop
  endfacet
  facet normal 0 -0.99863 0.0523233
    outer loop
      vertex 43 0 12
      vertex 45 0.0109558 12.2091
      vertex 43 0.0109558 12.2091
    endloop
  endfacet
  facet normal 0 -0.99863 0.0523233
    outer loop
      vertex 45 0.0109558 12.2091
      vertex 43 0 12
      vertex 45 0 12
    endloop
  endfacet
  facet normal 0 -0.89098 0.454042
    outer loop
      vertex 43 0.172909 12.8135
      vertex 45 0.267949 13
      vertex 43 0.267949 13
    endloop
  endfacet
  facet normal 0 -0.89098 0.454042
    outer loop
      vertex 45 0.267949 13
      vertex 43 0.172909 12.8135
      vertex 45 0.172909 12.8135
    endloop
  endfacet
  facet normal 0 -0.258899 0.965904
    outer loop
      vertex 43 1.58418 13.9563
      vertex 45 1.38197 13.9021
      vertex 45 1.58418 13.9563
    endloop
  endfacet
  facet normal 0 -0.258899 0.965904
    outer loop
      vertex 45 1.38197 13.9021
      vertex 43 1.58418 13.9563
      vertex 43 1.38197 13.9021
    endloop
  endfacet
  facet normal 0 -0.0525438 0.998619
    outer loop
      vertex 43 2 14
      vertex 45 1.79094 13.989
      vertex 45 2 14
    endloop
  endfacet
  facet normal 0 -0.0525438 0.998619
    outer loop
      vertex 45 1.79094 13.989
      vertex 43 2 14
      vertex 43 1.79094 13.989
    endloop
  endfacet
  facet normal 0 -0.358275 0.933616
    outer loop
      vertex 43 1.38197 13.9021
      vertex 45 1.18653 13.8271
      vertex 45 1.38197 13.9021
    endloop
  endfacet
  facet normal 0 -0.358275 0.933616
    outer loop
      vertex 45 1.18653 13.8271
      vertex 43 1.38197 13.9021
      vertex 43 1.18653 13.8271
    endloop
  endfacet
  facet normal 0 -0.629192 0.77725
    outer loop
      vertex 43 0.824429 13.618
      vertex 45 0.661738 13.4863
      vertex 45 0.824429 13.618
    endloop
  endfacet
  facet normal 0 -0.629192 0.77725
    outer loop
      vertex 45 0.661738 13.4863
      vertex 43 0.824429 13.618
      vertex 43 0.661738 13.4863
    endloop
  endfacet
  facet normal 0 -0.544581 0.838708
    outer loop
      vertex 43 1 13.732
      vertex 45 0.824429 13.618
      vertex 45 1 13.732
    endloop
  endfacet
  facet normal 0 -0.544581 0.838708
    outer loop
      vertex 45 0.824429 13.618
      vertex 43 1 13.732
      vertex 43 0.824429 13.618
    endloop
  endfacet
  facet normal 0 -0.933616 0.358274
    outer loop
      vertex 43 0.0978861 12.618
      vertex 45 0.172909 12.8135
      vertex 43 0.172909 12.8135
    endloop
  endfacet
  facet normal 0 -0.933616 0.358274
    outer loop
      vertex 45 0.172909 12.8135
      vertex 43 0.0978861 12.618
      vertex 45 0.0978861 12.618
    endloop
  endfacet
  facet normal 0 -0.454211 0.890894
    outer loop
      vertex 43 1.18653 13.8271
      vertex 45 1 13.732
      vertex 45 1.18653 13.8271
    endloop
  endfacet
  facet normal 0 -0.454211 0.890894
    outer loop
      vertex 45 1 13.732
      vertex 43 1.18653 13.8271
      vertex 43 1 13.732
    endloop
  endfacet
  facet normal 0 -0.777164 0.629298
    outer loop
      vertex 43 0.381966 13.1756
      vertex 45 0.51371 13.3383
      vertex 43 0.51371 13.3383
    endloop
  endfacet
  facet normal 0 -0.777164 0.629298
    outer loop
      vertex 45 0.51371 13.3383
      vertex 43 0.381966 13.1756
      vertex 45 0.381966 13.1756
    endloop
  endfacet
  facet normal 0 -0.987681 0.156482
    outer loop
      vertex 43 0.0109558 12.2091
      vertex 45 0.043704 12.4158
      vertex 43 0.043704 12.4158
    endloop
  endfacet
  facet normal 0 -0.987681 0.156482
    outer loop
      vertex 45 0.043704 12.4158
      vertex 43 0.0109558 12.2091
      vertex 45 0.0109558 12.2091
    endloop
  endfacet
  facet normal 0 -0.70704 0.707174
    outer loop
      vertex 43 0.51371 13.3383
      vertex 45 0.661738 13.4863
      vertex 43 0.661738 13.4863
    endloop
  endfacet
  facet normal 0 -0.70704 0.707174
    outer loop
      vertex 45 0.661738 13.4863
      vertex 43 0.51371 13.3383
      vertex 45 0.51371 13.3383
    endloop
  endfacet
  facet normal -0 0.454269 0.890864
    outer loop
      vertex 43 37 13.732
      vertex 45 36.8135 13.8271
      vertex 45 37 13.732
    endloop
  endfacet
  facet normal 0 0.454269 0.890864
    outer loop
      vertex 45 36.8135 13.8271
      vertex 43 37 13.732
      vertex 43 36.8135 13.8271
    endloop
  endfacet
  facet normal -0 0.629171 0.777267
    outer loop
      vertex 43 37.3383 13.4863
      vertex 45 37.1756 13.618
      vertex 45 37.3383 13.4863
    endloop
  endfacet
  facet normal 0 0.629171 0.777267
    outer loop
      vertex 45 37.1756 13.618
      vertex 43 37.3383 13.4863
      vertex 43 37.1756 13.618
    endloop
  endfacet
  facet normal 0 0.777267 0.629171
    outer loop
      vertex 45 37.618 13.1756
      vertex 43 37.4863 13.3383
      vertex 45 37.4863 13.3383
    endloop
  endfacet
  facet normal 0 0.777267 0.629171
    outer loop
      vertex 43 37.4863 13.3383
      vertex 45 37.618 13.1756
      vertex 43 37.618 13.1756
    endloop
  endfacet
  facet normal 0 0.838749 0.544518
    outer loop
      vertex 45 37.732 13
      vertex 43 37.618 13.1756
      vertex 45 37.618 13.1756
    endloop
  endfacet
  facet normal 0 0.838749 0.544518
    outer loop
      vertex 43 37.618 13.1756
      vertex 45 37.732 13
      vertex 43 37.732 13
    endloop
  endfacet
  facet normal 0 0.987716 0.156257
    outer loop
      vertex 45 37.989 12.2091
      vertex 43 37.9563 12.4158
      vertex 45 37.9563 12.4158
    endloop
  endfacet
  facet normal 0 0.987716 0.156257
    outer loop
      vertex 43 37.9563 12.4158
      vertex 45 37.989 12.2091
      vertex 43 37.989 12.2091
    endloop
  endfacet
  facet normal -0 0.156257 0.987716
    outer loop
      vertex 43 36.4158 13.9563
      vertex 45 36.2091 13.989
      vertex 45 36.4158 13.9563
    endloop
  endfacet
  facet normal 0 0.156257 0.987716
    outer loop
      vertex 45 36.2091 13.989
      vertex 43 36.4158 13.9563
      vertex 43 36.2091 13.989
    endloop
  endfacet
  facet normal 0 0.998619 0.0525338
    outer loop
      vertex 45 38 12
      vertex 43 37.989 12.2091
      vertex 45 37.989 12.2091
    endloop
  endfacet
  facet normal 0 0.998619 0.0525338
    outer loop
      vertex 43 37.989 12.2091
      vertex 45 38 12
      vertex 43 38 12
    endloop
  endfacet
  facet normal -0 0.544518 0.838749
    outer loop
      vertex 43 37.1756 13.618
      vertex 45 37 13.732
      vertex 45 37.1756 13.618
    endloop
  endfacet
  facet normal 0 0.544518 0.838749
    outer loop
      vertex 45 37 13.732
      vertex 43 37.1756 13.618
      vertex 43 37 13.732
    endloop
  endfacet
  facet normal -0 0.258911 0.965901
    outer loop
      vertex 43 36.618 13.9021
      vertex 45 36.4158 13.9563
      vertex 45 36.618 13.9021
    endloop
  endfacet
  facet normal 0 0.258911 0.965901
    outer loop
      vertex 45 36.4158 13.9563
      vertex 43 36.618 13.9021
      vertex 43 36.4158 13.9563
    endloop
  endfacet
  facet normal -0 0.358179 0.933653
    outer loop
      vertex 43 36.8135 13.8271
      vertex 45 36.618 13.9021
      vertex 45 36.8135 13.8271
    endloop
  endfacet
  facet normal 0 0.358179 0.933653
    outer loop
      vertex 45 36.618 13.9021
      vertex 43 36.8135 13.8271
      vertex 43 36.618 13.9021
    endloop
  endfacet
  facet normal 0 0.965901 0.258911
    outer loop
      vertex 45 37.9563 12.4158
      vertex 43 37.9021 12.618
      vertex 45 37.9021 12.618
    endloop
  endfacet
  facet normal 0 0.965901 0.258911
    outer loop
      vertex 43 37.9021 12.618
      vertex 45 37.9563 12.4158
      vertex 43 37.9563 12.4158
    endloop
  endfacet
  facet normal -0 0.0525338 0.998619
    outer loop
      vertex 43 36.2091 13.989
      vertex 45 36 14
      vertex 45 36.2091 13.989
    endloop
  endfacet
  facet normal 0 0.0525338 0.998619
    outer loop
      vertex 45 36 14
      vertex 43 36.2091 13.989
      vertex 43 36 14
    endloop
  endfacet
  facet normal -0 0.707107 0.707107
    outer loop
      vertex 43 37.4863 13.3383
      vertex 45 37.3383 13.4863
      vertex 45 37.4863 13.3383
    endloop
  endfacet
  facet normal 0 0.707107 0.707107
    outer loop
      vertex 45 37.3383 13.4863
      vertex 43 37.4863 13.3383
      vertex 43 37.3383 13.4863
    endloop
  endfacet
  facet normal 0 0.890864 0.454269
    outer loop
      vertex 45 37.8271 12.8135
      vertex 43 37.732 13
      vertex 45 37.732 13
    endloop
  endfacet
  facet normal 0 0.890864 0.454269
    outer loop
      vertex 43 37.732 13
      vertex 45 37.8271 12.8135
      vertex 43 37.8271 12.8135
    endloop
  endfacet
  facet normal 0 0.933653 0.358179
    outer loop
      vertex 45 37.9021 12.618
      vertex 43 37.8271 12.8135
      vertex 45 37.8271 12.8135
    endloop
  endfacet
  facet normal 0 0.933653 0.358179
    outer loop
      vertex 43 37.8271 12.8135
      vertex 45 37.9021 12.618
      vertex 43 37.9021 12.618
    endloop
  endfacet
  facet normal -0 0 1
    outer loop
      vertex 43 38 5
      vertex 45 23 5
      vertex 45 38 5
    endloop
  endfacet
  facet normal 0 0 1
    outer loop
      vertex 45 23 5
      vertex 43 38 5
      vertex 43 23 5
    endloop
  endfacet
  facet normal 0 0 -1
    outer loop
      vertex 43 23 7
      vertex 45 38 7
      vertex 45 23 7
    endloop
  endfacet
  facet normal -0 0 -1
    outer loop
      vertex 45 38 7
      vertex 43 23 7
      vertex 43 38 7
    endloop
  endfacet
  facet normal 0 1 -0
    outer loop
      vertex 45 23 5
      vertex 43 23 7
      vertex 45 23 7
    endloop
  endfacet
  facet normal 0 1 0
    outer loop
      vertex 43 23 7
      vertex 45 23 5
      vertex 43 23 5
    endloop
  endfacet
  facet normal 0 1 -0
    outer loop
      vertex 45 38 7
      vertex 43 38 12
      vertex 45 38 12
    endloop
  endfacet
  facet normal 0 1 0
    outer loop
      vertex 43 38 12
      vertex 45 38 7
      vertex 43 38 7
    endloop
  endfacet
  facet normal -0 0 1
    outer loop
      vertex 0 38 2
      vertex 43 0 2
      vertex 43 38 2
    endloop
  endfacet
  facet normal 0 0 1
    outer loop
      vertex 43 0 2
      vertex 0 38 2
      vertex 0 0 2
    endloop
  endfacet
endsolid OpenSCAD_Model
