<?xml version="1.0" encoding="UTF-8" standalone="no"?>
<svg
   xmlns:dc="http://purl.org/dc/elements/1.1/"
   xmlns:cc="http://creativecommons.org/ns#"
   xmlns:rdf="http://www.w3.org/1999/02/22-rdf-syntax-ns#"
   xmlns:svg="http://www.w3.org/2000/svg"
   xmlns="http://www.w3.org/2000/svg"
   xmlns:sodipodi="http://sodipodi.sourceforge.net/DTD/sodipodi-0.dtd"
   xmlns:inkscape="http://www.inkscape.org/namespaces/inkscape"
   width="41mm"
   height="19mm"
   viewBox="0 -38 41 19"
   version="1.1"
   id="svg6"
   sodipodi:docname="anavi-macro-pad-2-upper.svg"
   inkscape:version="0.92.5 (2060ec1f9f, 2020-04-08)">
  <metadata
     id="metadata12">
    <rdf:RDF>
      <cc:Work
         rdf:about="">
        <dc:format>image/svg+xml</dc:format>
        <dc:type
           rdf:resource="http://purl.org/dc/dcmitype/StillImage" />
      </cc:Work>
    </rdf:RDF>
  </metadata>
  <defs
     id="defs10" />
  <sodipodi:namedview
     pagecolor="#ffffff"
     bordercolor="#666666"
     borderopacity="1"
     objecttolerance="10"
     gridtolerance="10"
     guidetolerance="10"
     inkscape:pageopacity="0"
     inkscape:pageshadow="2"
     inkscape:window-width="1832"
     inkscape:window-height="1009"
     id="namedview8"
     showgrid="false"
     inkscape:zoom="3.071748"
     inkscape:cx="77.480315"
     inkscape:cy="35.905512"
     inkscape:window-x="88"
     inkscape:window-y="34"
     inkscape:window-maximized="1"
     inkscape:current-layer="svg6" />
  <title
     id="title2">OpenSCAD Model</title>
  <path
     d="m 39.313595,-19.097663 0.24241,-0.06208 0.232742,-0.09189 0.219387,-0.120203 0.202541,-0.146629 0.182506,-0.17077 0.159581,-0.192226 0.134163,-0.210705 0.106554,-0.225805 0.07744,-0.237229 0.04685,-0.245077 0.01575,-0.249051 v -14.901325 l -0.01575,-0.249051 -0.04685,-0.245077 -0.07744,-0.23723 -0.106554,-0.225803 -0.134163,-0.210706 -0.159581,-0.192227 -0.182506,-0.170769 -0.202541,-0.146629 -0.219387,-0.120204 -0.232742,-0.09189 -0.24241,-0.06209 -0.248393,-0.03119 H 1.9348197 l -0.2483719,0.03119 -0.2424811,0.06209 -0.2327628,0.09189 -0.21937635,0.120204 -0.20254206,0.146629 -0.18249729,0.170769 -0.15957583,0.192227 -0.13414557,0.210706 -0.10658724,0.225803 -0.0773695,0.23723 -0.0469055,0.245077 -0.0157264,0.249051 v 14.90132 l 0.0157264,0.249051 0.0469055,0.245077 0.0773695,0.237229 0.10658724,0.225805 0.13414557,0.210705 0.15957583,0.192226 0.18249729,0.17077 0.20254206,0.146629 0.21937635,0.120203 0.2327628,0.09189 0.2424811,0.06208 0.2483719,0.03119 H 39.065202 Z m -17.481229,-2.35411 -0.322849,-0.04063 -0.315275,-0.08076 -0.302515,-0.11931 -0.285271,-0.156265 -0.263245,-0.190736 -0.237229,-0.22203 -0.207523,-0.249945 -0.174334,-0.273788 -0.13855,-0.293555 -0.100572,-0.308458 -0.061,-0.318589 -0.02044,-0.323757 0.02044,-0.323756 0.061,-0.31859 0.100572,-0.308457 0.13855,-0.293457 0.174334,-0.273886 0.207523,-0.249945 0.237229,-0.222031 0.263245,-0.190735 0.285271,-0.156167 0.302515,-0.119409 0.315275,-0.08066 0.322849,-0.04073 h 0.325542 l 0.322849,0.04073 0.315174,0.08066 0.302616,0.119409 0.285172,0.156167 0.263343,0.190735 0.237229,0.222031 0.207425,0.249945 0.174432,0.273886 0.138549,0.293457 0.100572,0.308457 0.061,0.31859 0.02043,0.323756 -0.02043,0.323757 -0.061,0.318589 -0.100572,0.308458 -0.138549,0.293555 -0.174432,0.273788 -0.207425,0.249945 -0.237229,0.22203 -0.263343,0.190736 -0.285172,0.156265 -0.302616,0.11931 -0.315174,0.08076 -0.322849,0.04063 z m -18.7014376,0.05086 -0.248382,-0.03129 -0.2424911,-0.06208 -0.2327626,-0.09179 -0.2193764,-0.120204 -0.202541,-0.146728 -0.1824963,-0.170769 -0.1595808,-0.192227 -0.1341436,-0.210707 -0.1065832,-0.225704 -0.077358,-0.237327 -0.046917,-0.245078 -0.01571,-0.24905 0.01571,-0.249052 0.046917,-0.245076 0.077358,-0.237229 0.1065832,-0.225805 0.1341436,-0.210705 0.1595808,-0.192226 0.1824963,-0.17077 0.202541,-0.146729 0.2193764,-0.120203 0.2327626,-0.09179 0.2424911,-0.06208 0.248382,-0.03119 h 0.2503454 l 0.2483621,0.03119 0.2424812,0.06208 0.2327627,0.09179 0.2193962,0.120203 0.202531,0.146729 0.1824964,0.17077 0.1595708,0.192226 0.1341536,0.210705 0.1065832,0.225805 0.077368,0.237229 0.046907,0.245076 0.015729,0.249052 -0.015729,0.24905 -0.046907,0.245078 -0.077368,0.237327 -0.1065832,0.225704 -0.1341536,0.210707 -0.1595708,0.192227 -0.1824964,0.170769 -0.202531,0.146728 -0.2193962,0.120204 -0.2327627,0.09179 -0.2424812,0.06208 -0.2483621,0.03129 z m 34.4877796,0 -0.248393,-0.03129 -0.242411,-0.06208 -0.232841,-0.09179 -0.219388,-0.120204 -0.20254,-0.146728 -0.182407,-0.170769 -0.15958,-0.192227 -0.134164,-0.210707 -0.106653,-0.225704 -0.07735,-0.237327 -0.04685,-0.245078 -0.01575,-0.24905 0.01575,-0.249052 0.04685,-0.245076 0.07735,-0.237229 0.106653,-0.225805 0.134164,-0.210705 0.15958,-0.192226 0.182407,-0.17077 0.20254,-0.146729 0.219388,-0.120203 0.232841,-0.09179 0.242411,-0.06208 0.248393,-0.03119 h 0.250386 l 0.248391,0.03119 0.24241,0.06208 0.232844,0.09179 0.219286,0.120203 0.202541,0.146729 0.182507,0.17077 0.15958,0.192226 0.134164,0.210705 0.106554,0.225805 0.07745,0.237229 0.04685,0.245076 0.01575,0.249052 -0.01575,0.24905 -0.04685,0.245078 -0.07745,0.237327 -0.106554,0.225704 -0.134164,0.210707 -0.15958,0.192227 -0.182507,0.170769 -0.202541,0.146728 -0.219286,0.120204 -0.232844,0.09179 -0.24241,0.06208 -0.248391,0.03129 z"
     id="path4"
     style="fill:none;stroke:#000000;stroke-width:0.13295633;stroke-miterlimit:4;stroke-dasharray:none"
     inkscape:connector-curvature="0" />
</svg>
