<?xml version="1.0" encoding="UTF-8" standalone="no"?>
<svg
   xmlns:dc="http://purl.org/dc/elements/1.1/"
   xmlns:cc="http://creativecommons.org/ns#"
   xmlns:rdf="http://www.w3.org/1999/02/22-rdf-syntax-ns#"
   xmlns:svg="http://www.w3.org/2000/svg"
   xmlns="http://www.w3.org/2000/svg"
   xmlns:sodipodi="http://sodipodi.sourceforge.net/DTD/sodipodi-0.dtd"
   xmlns:inkscape="http://www.inkscape.org/namespaces/inkscape"
   width="41mm"
   height="38mm"
   viewBox="0 -38 41 38"
   version="1.1"
   id="svg6"
   sodipodi:docname="anavi-macro-pad-2-base.svg"
   inkscape:version="0.92.5 (2060ec1f9f, 2020-04-08)">
  <metadata
     id="metadata12">
    <rdf:RDF>
      <cc:Work
         rdf:about="">
        <dc:format>image/svg+xml</dc:format>
        <dc:type
           rdf:resource="http://purl.org/dc/dcmitype/StillImage" />
      </cc:Work>
    </rdf:RDF>
  </metadata>
  <defs
     id="defs10" />
  <sodipodi:namedview
     pagecolor="#ffffff"
     bordercolor="#666666"
     borderopacity="1"
     objecttolerance="10"
     gridtolerance="10"
     guidetolerance="10"
     inkscape:pageopacity="0"
     inkscape:pageshadow="2"
     inkscape:window-width="1832"
     inkscape:window-height="1009"
     id="namedview8"
     showgrid="false"
     inkscape:zoom="1.6432018"
     inkscape:cx="77.480315"
     inkscape:cy="71.811024"
     inkscape:window-x="88"
     inkscape:window-y="34"
     inkscape:window-maximized="1"
     inkscape:current-layer="svg6" />
  <title
     id="title2">OpenSCAD Model</title>
  <path
     d="m 39.314096,-0.09730712 0.242419,-0.06226576 0.232748,-0.0921511 0.219392,-0.12060835 0.202547,-0.14714653 0.182511,-0.17137523 0.159585,-0.19288087 0.134166,-0.21137624 0.106557,-0.2265189 0.07745,-0.238081 0.04685,-0.2459152 0.01575,-0.2498425 V -35.944579 l -0.01575,-0.249883 -0.04685,-0.245895 -0.07745,-0.238021 -0.106557,-0.226559 -0.134166,-0.211409 -0.159585,-0.192868 -0.182511,-0.17134 -0.202547,-0.147119 -0.219392,-0.120604 -0.232748,-0.0922 -0.242419,-0.0623 -0.248398,-0.0313 H 1.9343232 l -0.2483786,0.0313 -0.2424876,0.0623 -0.2327691,0.0922 -0.21938205,0.120604 -0.20254747,0.147119 -0.18250215,0.17134 -0.15958011,0.192868 -0.13414916,0.211409 -0.10659008,0.226559 -0.0773717,0.238021 -0.04690676,0.245895 -0.01572685,0.249883 v 33.8891102 l 0.01572685,0.2498425 0.04690676,0.2459152 0.0773717,0.238081 0.10659008,0.2265189 0.13414916,0.21137627 0.15958011,0.19288087 0.18250215,0.17137523 0.20254747,0.14714653 0.21938205,0.12060835 0.2327691,0.0921511 0.2424876,0.06226576 0.2483786,0.0313762 H 39.065698 Z M 3.2301322,-21.346247 l -0.2483786,-0.0314 -0.2424877,-0.0623 -0.2327689,-0.0921 -0.2194021,-0.120606 -0.2025265,-0.147218 -0.1825012,-0.171339 -0.159585,-0.192869 -0.1341473,-0.211408 -0.106596,-0.226459 -0.07737,-0.238122 -0.046898,-0.245895 -0.015729,-0.249881 0.015729,-0.249883 0.046898,-0.245895 0.07737,-0.238022 0.106596,-0.226559 0.1341473,-0.211408 0.159585,-0.192869 0.1825012,-0.171339 0.2025265,-0.147218 0.2194021,-0.120606 0.2327689,-0.0921 0.2424877,-0.0623 0.2483786,-0.0313 h 0.2503522 l 0.2483885,0.0313 0.2424877,0.0623 0.2327689,0.0921 0.2193822,0.120606 0.2025465,0.147218 0.1825011,0.171339 0.1595851,0.192869 0.1341472,0.211408 0.106596,0.226559 0.07735,0.238022 0.046928,0.245895 0.015709,0.249883 -0.015709,0.249881 -0.046928,0.245895 -0.07735,0.238122 -0.106596,0.226459 -0.1341472,0.211408 -0.1595851,0.192869 -0.1825011,0.171339 -0.2025465,0.147218 -0.2193822,0.120606 -0.2327689,0.0921 -0.2424877,0.0623 -0.2483885,0.0314 z m 34.2893548,0 -0.248399,-0.0314 -0.242418,-0.0623 -0.232848,-0.0921 -0.219392,-0.120606 -0.202547,-0.147218 -0.182411,-0.171339 -0.159586,-0.192869 -0.134167,-0.211408 -0.106655,-0.226459 -0.07735,-0.238122 -0.04685,-0.245895 -0.01575,-0.249881 0.01575,-0.249883 0.04685,-0.245895 0.07735,-0.238022 0.106655,-0.226559 0.134167,-0.211408 0.159586,-0.192869 0.182411,-0.171339 0.202547,-0.147218 0.219392,-0.120606 0.232848,-0.0921 0.242418,-0.0623 0.248399,-0.0313 h 0.250392 l 0.248398,0.0313 0.242418,0.0623 0.232749,0.0921 0.219492,0.120606 0.202447,0.147218 0.182511,0.171339 0.159585,0.192869 0.134167,0.211408 0.106556,0.226559 0.07745,0.238022 0.04685,0.245895 0.01575,0.249883 -0.01575,0.249881 -0.04685,0.245895 -0.07745,0.238122 -0.106556,0.226459 -0.134167,0.211408 -0.159585,0.192869 -0.182511,0.171339 -0.202447,0.147218 -0.219492,0.120606 -0.232749,0.0921 -0.242418,0.0623 -0.248398,0.0314 z m -17.144683,17.0441892 -0.248398,-0.031377 -0.242418,-0.062266 -0.232848,-0.092148 -0.219393,-0.1206054 -0.202546,-0.1471485 -0.182412,-0.1713792 -0.159585,-0.1928789 -0.134167,-0.2113684 -0.106656,-0.2265287 -0.07735,-0.2380811 -0.04685,-0.2459153 -0.01575,-0.2498525 0.01575,-0.2498424 0.04685,-0.2459153 0.07735,-0.238081 0.106656,-0.2265189 0.134167,-0.2113782 0.159585,-0.1928789 0.182412,-0.1713793 0.202546,-0.1471385 0.219393,-0.1206153 0.232848,-0.092148 0.242418,-0.062266 0.248398,-0.031377 h 0.250393 l 0.248398,0.031377 0.242418,0.062266 0.232748,0.092148 0.219393,0.1206153 0.202547,0.1471385 0.182511,0.1713793 0.159585,0.1928789 0.134167,0.2113782 0.106556,0.2265189 0.07745,0.238081 0.04685,0.2459153 0.01575,0.2498424 -0.01575,0.2498525 -0.04685,0.2459153 -0.07745,0.2380811 -0.106556,0.2265287 -0.134167,0.2113684 -0.159585,0.1928789 -0.182511,0.1713792 -0.202547,0.1471485 -0.219393,0.1206054 -0.232748,0.092148 -0.242418,0.062266 -0.248398,0.031377 z"
     id="path4"
     style="fill:none;stroke:#000000;stroke-width:0.13186322;stroke-miterlimit:4;stroke-dasharray:none"
     inkscape:connector-curvature="0" />
</svg>
