<?xml version="1.0" encoding="UTF-8" standalone="no"?>
<svg
   xmlns:dc="http://purl.org/dc/elements/1.1/"
   xmlns:cc="http://creativecommons.org/ns#"
   xmlns:rdf="http://www.w3.org/1999/02/22-rdf-syntax-ns#"
   xmlns:svg="http://www.w3.org/2000/svg"
   xmlns="http://www.w3.org/2000/svg"
   xmlns:sodipodi="http://sodipodi.sourceforge.net/DTD/sodipodi-0.dtd"
   xmlns:inkscape="http://www.inkscape.org/namespaces/inkscape"
   width="41mm"
   height="19mm"
   viewBox="0 -38 41 19"
   version="1.1"
   id="svg6"
   sodipodi:docname="anavi-macro-pad-2-upper.svg"
   inkscape:version="0.92.5 (2060ec1f9f, 2020-04-08)">
  <metadata
     id="metadata12">
    <rdf:RDF>
      <cc:Work
         rdf:about="">
        <dc:format>image/svg+xml</dc:format>
        <dc:type
           rdf:resource="http://purl.org/dc/dcmitype/StillImage" />
      </cc:Work>
    </rdf:RDF>
  </metadata>
  <defs
     id="defs10" />
  <sodipodi:namedview
     pagecolor="#ffffff"
     bordercolor="#666666"
     borderopacity="1"
     objecttolerance="10"
     gridtolerance="10"
     guidetolerance="10"
     inkscape:pageopacity="0"
     inkscape:pageshadow="2"
     inkscape:window-width="1832"
     inkscape:window-height="1009"
     id="namedview8"
     showgrid="false"
     inkscape:zoom="3.071748"
     inkscape:cx="77.480315"
     inkscape:cy="35.905512"
     inkscape:window-x="88"
     inkscape:window-y="34"
     inkscape:window-maximized="1"
     inkscape:current-layer="svg6" />
  <title
     id="title2">OpenSCAD Model</title>
  <path
     d="m 39.314195,-19.097019 0.242419,-0.06209 0.23275,-0.0919 0.219394,-0.120212 0.202547,-0.146639 0.182513,-0.170781 0.159585,-0.19224 0.134168,-0.210719 0.106557,-0.225821 0.07745,-0.237246 0.04685,-0.245093 0.01575,-0.249068 v -14.902345 l -0.01575,-0.249068 -0.04685,-0.245094 -0.07745,-0.237245 -0.106557,-0.225821 -0.134168,-0.210719 -0.159585,-0.19224 -0.182513,-0.170781 -0.202547,-0.146639 -0.219394,-0.120212 -0.23275,-0.0919 -0.242419,-0.06209 -0.2484,-0.0312 H 1.9342255 l -0.2483799,0.0312 -0.2424888,0.06209 -0.2327702,0.0919 -0.21938325,0.120212 -0.20254854,0.146639 -0.18250311,0.170781 -0.15958095,0.19224 -0.13414986,0.210719 -0.10659065,0.225821 -0.0773721,0.237245 -0.046907,0.245094 -0.01572694,0.249068 v 14.902345 l 0.01572694,0.249068 0.046907,0.245093 0.0773721,0.237246 0.10659065,0.225821 0.13414986,0.210719 0.15958095,0.19224 0.18250311,0.170781 0.20254854,0.146639 0.21938325,0.120212 0.2327702,0.0919 0.2424888,0.06209 0.2483799,0.0312 H 39.065795 Z m -17.506806,-1.957671 -0.3725,-0.04689 -0.363828,-0.09309 -0.349076,-0.137797 -0.329139,-0.180318 -0.303821,-0.219959 -0.273719,-0.256321 -0.239429,-0.28831 -0.201152,-0.316029 -0.159885,-0.338681 -0.116126,-0.355967 -0.07027,-0.36769 -0.02362,-0.373553 0.02362,-0.373552 0.07027,-0.367691 0.116126,-0.355967 0.159885,-0.338681 0.201152,-0.316028 0.239429,-0.288312 0.273719,-0.256221 0.303821,-0.220057 0.329139,-0.180319 0.349076,-0.137797 0.363828,-0.09309 0.3725,-0.04689 h 0.37559 l 0.372501,0.04689 0.363727,0.09309 0.349176,0.137797 0.32914,0.180319 0.303821,0.220057 0.273718,0.256221 0.239329,0.288312 0.201251,0.316028 0.159886,0.338681 0.116026,0.355967 0.07037,0.367691 0.02362,0.373552 -0.02362,0.373553 -0.07037,0.36769 -0.116026,0.355967 -0.159886,0.338681 -0.201251,0.316029 -0.239329,0.28831 -0.273718,0.256321 -0.303821,0.219959 -0.32914,0.180318 -0.349176,0.137797 -0.363727,0.09309 -0.372501,0.04689 z m -18.5773476,-0.345735 -0.2483799,-0.03129 -0.2424889,-0.06209 -0.2327701,-0.0918 -0.2194033,-0.120212 -0.2025276,-0.146739 -0.1825021,-0.170781 -0.159586,-0.19224 -0.1341478,-0.21072 -0.1065966,-0.22572 -0.077371,-0.237345 -0.046898,-0.245094 -0.015729,-0.249067 0.015729,-0.249068 0.046898,-0.245094 0.077371,-0.237246 0.1065966,-0.22582 0.1341478,-0.21072 0.159586,-0.19224 0.1825021,-0.170781 0.2025276,-0.146737 0.2194033,-0.120213 0.2327701,-0.0918 0.2424889,-0.06209 0.2483799,-0.03119 h 0.2503535 l 0.24839,0.03119 0.2424888,0.06209 0.2327702,0.0918 0.2193833,0.120213 0.2025475,0.146737 0.1825021,0.170781 0.159586,0.19224 0.1341478,0.21072 0.1065967,0.22582 0.077351,0.237246 0.046928,0.245094 0.015709,0.249068 -0.015709,0.249067 -0.046928,0.245094 -0.077351,0.237345 -0.1065967,0.22572 -0.1341478,0.21072 -0.159586,0.19224 -0.1825021,0.170781 -0.2025475,0.146739 -0.2193833,0.120212 -0.2327702,0.0918 -0.2424888,0.06209 -0.24839,0.03129 z m 34.2895336,0 -0.248399,-0.03129 -0.242419,-0.06209 -0.23285,-0.0918 -0.219394,-0.120212 -0.202547,-0.146739 -0.182413,-0.170781 -0.159585,-0.19224 -0.134168,-0.21072 -0.106657,-0.22572 -0.07735,-0.237345 -0.04685,-0.245094 -0.01575,-0.249067 0.01575,-0.249068 0.04685,-0.245094 0.07735,-0.237246 0.106657,-0.22582 0.134168,-0.21072 0.159585,-0.19224 0.182413,-0.170781 0.202547,-0.146737 0.219394,-0.120213 0.23285,-0.0918 0.242419,-0.06209 0.248399,-0.03119 h 0.250394 l 0.2484,0.03119 0.242419,0.06209 0.232751,0.0918 0.219492,0.120213 0.202448,0.146737 0.182512,0.170781 0.159587,0.19224 0.134167,0.21072 0.106557,0.22582 0.07745,0.237246 0.04685,0.245094 0.01575,0.249068 -0.01575,0.249067 -0.04685,0.245094 -0.07745,0.237345 -0.106557,0.22572 -0.134167,0.21072 -0.159587,0.19224 -0.182512,0.170781 -0.202448,0.146739 -0.219492,0.120212 -0.232751,0.0918 -0.242419,0.06209 -0.2484,0.03129 z"
     id="path4"
     style="fill:none;stroke:#000000;stroke-width:0.13164847;stroke-miterlimit:4;stroke-dasharray:none"
     inkscape:connector-curvature="0" />
</svg>
