<?xml version="1.0" encoding="UTF-8" standalone="no"?>
<svg
   xmlns:dc="http://purl.org/dc/elements/1.1/"
   xmlns:cc="http://creativecommons.org/ns#"
   xmlns:rdf="http://www.w3.org/1999/02/22-rdf-syntax-ns#"
   xmlns:svg="http://www.w3.org/2000/svg"
   xmlns="http://www.w3.org/2000/svg"
   xmlns:sodipodi="http://sodipodi.sourceforge.net/DTD/sodipodi-0.dtd"
   xmlns:inkscape="http://www.inkscape.org/namespaces/inkscape"
   width="77mm"
   height="38mm"
   viewBox="0 -38 77 38"
   version="1.1"
   id="svg6"
   sodipodi:docname="anavi-macro-pad-2-bottom-2d.svg"
   inkscape:version="0.92.5 (2060ec1f9f, 2020-04-08)">
  <metadata
     id="metadata12">
    <rdf:RDF>
      <cc:Work
         rdf:about="">
        <dc:format>image/svg+xml</dc:format>
        <dc:type
           rdf:resource="http://purl.org/dc/dcmitype/StillImage" />
        <dc:title>OpenSCAD Model</dc:title>
      </cc:Work>
    </rdf:RDF>
  </metadata>
  <defs
     id="defs10" />
  <sodipodi:namedview
     pagecolor="#ffffff"
     bordercolor="#666666"
     borderopacity="1"
     objecttolerance="10"
     gridtolerance="10"
     guidetolerance="10"
     inkscape:pageopacity="0"
     inkscape:pageshadow="2"
     inkscape:window-width="1832"
     inkscape:window-height="1009"
     id="namedview8"
     showgrid="false"
     inkscape:zoom="3.2712121"
     inkscape:cx="123.02019"
     inkscape:cy="72.077226"
     inkscape:window-x="88"
     inkscape:window-y="34"
     inkscape:window-maximized="1"
     inkscape:current-layer="svg6" />
  <title
     id="title2">OpenSCAD Model</title>
  <path
     d="m 75.248738,-0.16288716 0.242369,-0.0620497 0.232701,-0.0918314 0.219348,-0.12018992 0.202505,-0.14663602 0.182474,-0.17078067 0.159552,-0.19221171 0.134141,-0.21064311 0.106534,-0.2257329 0.07743,-0.2372549 0.04684,-0.2450623 0.01575,-0.2489757 V -35.885794 l -0.01575,-0.249016 -0.04684,-0.245041 -0.07743,-0.237196 -0.106534,-0.225773 -0.134141,-0.210675 -0.159552,-0.192199 -0.182474,-0.170745 -0.202505,-0.146609 -0.219348,-0.120186 -0.232701,-0.09188 -0.242369,-0.06208 -0.248348,-0.03119 H 1.9996329 l -0.2483282,0.03119 -0.2424383,0.06208 -0.2327217,0.09188 -0.2193376,0.120186 -0.20250629,0.146609 -0.18246508,0.170745 -0.15954767,0.192199 -0.13412192,0.210675 -0.10656842,0.225773 -0.0773559,0.237196 -0.0468972,0.245041 -0.0157237,0.249016 v 33.7715385 l 0.0157237,0.2489757 0.0468972,0.2450623 0.0773559,0.2372549 0.10656842,0.2257329 0.13412192,0.21064311 0.15954767,0.19221171 0.18246508,0.17078067 0.20250629,0.14663602 0.2193376,0.12018992 0.2327217,0.0918314 0.2424383,0.0620497 0.2483282,0.0312673 H 5.1145274 V -15.026902 H 7.10769 V -0.13161982 H 69.892313 V -15.026902 h 1.993162 v 14.89528218 h 3.114915 z"
     id="path4"
     style="fill:none;stroke:#000000;stroke-width:0.2632418;stroke-miterlimit:4;stroke-dasharray:none"
     inkscape:connector-curvature="0" />
  <path
     style="fill:none;stroke:#ff0000;stroke-width:0.26484793;stroke-linecap:butt;stroke-linejoin:miter;stroke-miterlimit:4;stroke-dasharray:none;stroke-opacity:1"
     d="M 17.303616,-37.999394 17.132423,-5.9578144e-4"
     id="path866"
     inkscape:connector-curvature="0" />
  <path
     style="fill:none;stroke:#ff0000;stroke-width:0.26484793;stroke-linecap:butt;stroke-linejoin:miter;stroke-miterlimit:4;stroke-dasharray:none;stroke-opacity:1"
     d="M 60.303617,-37.999394 60.132424,-5.9551364e-4"
     id="path866-3"
     inkscape:connector-curvature="0" />
</svg>
