solid OpenSCAD_Model
  facet normal -1 0 0
    outer loop
      vertex 43 38 2
      vertex 43 23 6
      vertex 43 38 6
    endloop
  endfacet
  facet normal -1 -0 0
    outer loop
      vertex 43 23 6
      vertex 43 0 2
      vertex 43 23 8
    endloop
  endfacet
  facet normal -1 0 0
    outer loop
      vertex 43 0 2
      vertex 43 23 6
      vertex 43 38 2
    endloop
  endfacet
  facet normal -1 0 0
    outer loop
      vertex 43 23 8
      vertex 43 38 15
      vertex 43 38 8
    endloop
  endfacet
  facet normal -1 0 0
    outer loop
      vertex 43 0 15
      vertex 43 23 8
      vertex 43 0 2
    endloop
  endfacet
  facet normal -1 0 0
    outer loop
      vertex 43 23 8
      vertex 43 0 15
      vertex 43 38 15
    endloop
  endfacet
  facet normal -0 0 1
    outer loop
      vertex 0 38 2
      vertex 43 0 2
      vertex 43 38 2
    endloop
  endfacet
  facet normal 0 0 1
    outer loop
      vertex 43 0 2
      vertex 0 38 2
      vertex 0 0 2
    endloop
  endfacet
  facet normal 0 0 -1
    outer loop
      vertex -2 0 0
      vertex 45 38 0
      vertex 45 0 0
    endloop
  endfacet
  facet normal -0 0 -1
    outer loop
      vertex 45 38 0
      vertex -2 0 0
      vertex -2 38 0
    endloop
  endfacet
  facet normal 1 0 0
    outer loop
      vertex 0 38 15
      vertex 0 23 8
      vertex 0 38 8
    endloop
  endfacet
  facet normal 1 0 0
    outer loop
      vertex 0 0 2
      vertex 0 23 8
      vertex 0 0 15
    endloop
  endfacet
  facet normal 1 -0 0
    outer loop
      vertex 0 0 15
      vertex 0 23 8
      vertex 0 38 15
    endloop
  endfacet
  facet normal 1 -0 0
    outer loop
      vertex 0 23 6
      vertex 0 38 2
      vertex 0 38 6
    endloop
  endfacet
  facet normal 1 0 0
    outer loop
      vertex 0 23 6
      vertex 0 0 2
      vertex 0 38 2
    endloop
  endfacet
  facet normal 1 0 0
    outer loop
      vertex 0 23 8
      vertex 0 0 2
      vertex 0 23 6
    endloop
  endfacet
  facet normal 0 1 0
    outer loop
      vertex 45 38 6
      vertex 43 38 2
      vertex 43 38 6
    endloop
  endfacet
  facet normal 0 1 0
    outer loop
      vertex 43 38 2
      vertex 45 38 0
      vertex 0 38 2
    endloop
  endfacet
  facet normal 0 1 -0
    outer loop
      vertex 45 38 0
      vertex 43 38 2
      vertex 45 38 6
    endloop
  endfacet
  facet normal 0 1 -0
    outer loop
      vertex 0 38 2
      vertex -2 38 6
      vertex 0 38 6
    endloop
  endfacet
  facet normal 0 1 0
    outer loop
      vertex 0 38 2
      vertex -2 38 0
      vertex -2 38 6
    endloop
  endfacet
  facet normal 0 1 0
    outer loop
      vertex -2 38 0
      vertex 0 38 2
      vertex 45 38 0
    endloop
  endfacet
  facet normal 0 -1 0
    outer loop
      vertex -2 0 15
      vertex 0 0 2
      vertex 0 0 15
    endloop
  endfacet
  facet normal 0 -1 -0
    outer loop
      vertex 0 0 2
      vertex -2 0 0
      vertex 43 0 2
    endloop
  endfacet
  facet normal 0 -1 0
    outer loop
      vertex -2 0 0
      vertex 0 0 2
      vertex -2 0 15
    endloop
  endfacet
  facet normal 0 -1 0
    outer loop
      vertex 43 0 2
      vertex 45 0 15
      vertex 43 0 15
    endloop
  endfacet
  facet normal 0 -1 0
    outer loop
      vertex 43 0 2
      vertex 45 0 0
      vertex 45 0 15
    endloop
  endfacet
  facet normal 0 -1 0
    outer loop
      vertex 45 0 0
      vertex 43 0 2
      vertex -2 0 0
    endloop
  endfacet
  facet normal -0 0 1
    outer loop
      vertex -2 38 6
      vertex 0 23 6
      vertex 0 38 6
    endloop
  endfacet
  facet normal 0 0 1
    outer loop
      vertex 0 23 6
      vertex -2 38 6
      vertex -2 23 6
    endloop
  endfacet
  facet normal -1 0 0
    outer loop
      vertex -2 38 0
      vertex -2 23 6
      vertex -2 38 6
    endloop
  endfacet
  facet normal -1 -0 0
    outer loop
      vertex -2 23 6
      vertex -2 0 0
      vertex -2 23 8
    endloop
  endfacet
  facet normal -1 0 0
    outer loop
      vertex -2 0 0
      vertex -2 23 6
      vertex -2 38 0
    endloop
  endfacet
  facet normal -1 0 0
    outer loop
      vertex -2 23 8
      vertex -2 38 15
      vertex -2 38 8
    endloop
  endfacet
  facet normal -1 0 0
    outer loop
      vertex -2 0 15
      vertex -2 23 8
      vertex -2 0 0
    endloop
  endfacet
  facet normal -1 0 0
    outer loop
      vertex -2 23 8
      vertex -2 0 15
      vertex -2 38 15
    endloop
  endfacet
  facet normal 0 0 -1
    outer loop
      vertex -2 23 8
      vertex 0 38 8
      vertex 0 23 8
    endloop
  endfacet
  facet normal -0 0 -1
    outer loop
      vertex 0 38 8
      vertex -2 23 8
      vertex -2 38 8
    endloop
  endfacet
  facet normal 0 1 -0
    outer loop
      vertex 0 23 6
      vertex -2 23 8
      vertex 0 23 8
    endloop
  endfacet
  facet normal 0 1 0
    outer loop
      vertex -2 23 8
      vertex 0 23 6
      vertex -2 23 6
    endloop
  endfacet
  facet normal -0 0 1
    outer loop
      vertex -2 38 15
      vertex 0 0 15
      vertex 0 38 15
    endloop
  endfacet
  facet normal 0 0 1
    outer loop
      vertex 0 0 15
      vertex -2 38 15
      vertex -2 0 15
    endloop
  endfacet
  facet normal 0 1 -0
    outer loop
      vertex 0 38 8
      vertex -2 38 15
      vertex 0 38 15
    endloop
  endfacet
  facet normal 0 1 0
    outer loop
      vertex -2 38 15
      vertex 0 38 8
      vertex -2 38 8
    endloop
  endfacet
  facet normal 1 0 0
    outer loop
      vertex 45 38 15
      vertex 45 23 8
      vertex 45 38 8
    endloop
  endfacet
  facet normal 1 0 0
    outer loop
      vertex 45 0 0
      vertex 45 23 8
      vertex 45 0 15
    endloop
  endfacet
  facet normal 1 -0 0
    outer loop
      vertex 45 0 15
      vertex 45 23 8
      vertex 45 38 15
    endloop
  endfacet
  facet normal 1 -0 0
    outer loop
      vertex 45 23 6
      vertex 45 38 0
      vertex 45 38 6
    endloop
  endfacet
  facet normal 1 0 0
    outer loop
      vertex 45 23 8
      vertex 45 0 0
      vertex 45 23 6
    endloop
  endfacet
  facet normal 1 0 0
    outer loop
      vertex 45 23 6
      vertex 45 0 0
      vertex 45 38 0
    endloop
  endfacet
  facet normal -0 0 1
    outer loop
      vertex 43 38 6
      vertex 45 23 6
      vertex 45 38 6
    endloop
  endfacet
  facet normal 0 0 1
    outer loop
      vertex 45 23 6
      vertex 43 38 6
      vertex 43 23 6
    endloop
  endfacet
  facet normal 0 0 -1
    outer loop
      vertex 43 23 8
      vertex 45 38 8
      vertex 45 23 8
    endloop
  endfacet
  facet normal -0 0 -1
    outer loop
      vertex 45 38 8
      vertex 43 23 8
      vertex 43 38 8
    endloop
  endfacet
  facet normal 0 1 -0
    outer loop
      vertex 45 23 6
      vertex 43 23 8
      vertex 45 23 8
    endloop
  endfacet
  facet normal 0 1 0
    outer loop
      vertex 43 23 8
      vertex 45 23 6
      vertex 43 23 6
    endloop
  endfacet
  facet normal -0 0 1
    outer loop
      vertex 43 38 15
      vertex 45 0 15
      vertex 45 38 15
    endloop
  endfacet
  facet normal 0 0 1
    outer loop
      vertex 45 0 15
      vertex 43 38 15
      vertex 43 0 15
    endloop
  endfacet
  facet normal 0 1 -0
    outer loop
      vertex 45 38 8
      vertex 43 38 15
      vertex 45 38 15
    endloop
  endfacet
  facet normal 0 1 0
    outer loop
      vertex 43 38 15
      vertex 45 38 8
      vertex 43 38 8
    endloop
  endfacet
endsolid OpenSCAD_Model
