<?xml version="1.0" encoding="UTF-8" standalone="no"?>
<svg
   xmlns:dc="http://purl.org/dc/elements/1.1/"
   xmlns:cc="http://creativecommons.org/ns#"
   xmlns:rdf="http://www.w3.org/1999/02/22-rdf-syntax-ns#"
   xmlns:svg="http://www.w3.org/2000/svg"
   xmlns="http://www.w3.org/2000/svg"
   xmlns:sodipodi="http://sodipodi.sourceforge.net/DTD/sodipodi-0.dtd"
   xmlns:inkscape="http://www.inkscape.org/namespaces/inkscape"
   width="47mm"
   height="38mm"
   viewBox="-2 -38 47 38"
   version="1.1"
   id="svg6"
   sodipodi:docname="anavi-macro-pad-2-plate.svg"
   inkscape:version="0.92.5 (2060ec1f9f, 2020-04-08)">
  <metadata
     id="metadata12">
    <rdf:RDF>
      <cc:Work
         rdf:about="">
        <dc:format>image/svg+xml</dc:format>
        <dc:type
           rdf:resource="http://purl.org/dc/dcmitype/StillImage" />
      </cc:Work>
    </rdf:RDF>
  </metadata>
  <defs
     id="defs10" />
  <sodipodi:namedview
     pagecolor="#ffffff"
     bordercolor="#666666"
     borderopacity="1"
     objecttolerance="10"
     gridtolerance="10"
     guidetolerance="10"
     inkscape:pageopacity="0"
     inkscape:pageshadow="2"
     inkscape:window-width="1832"
     inkscape:window-height="1009"
     id="namedview8"
     showgrid="false"
     inkscape:zoom="1.6432018"
     inkscape:cx="88.818898"
     inkscape:cy="120.49646"
     inkscape:window-x="88"
     inkscape:window-y="34"
     inkscape:window-maximized="1"
     inkscape:current-layer="svg6" />
  <title
     id="title2">OpenSCAD Model</title>
  <path
     d="m 42.879725,-22.972323 h 1.988811 V -37.868536 H -1.8685361 v 14.896213 H 0.12027552 V -0.13146368 H 42.879725 Z m -38.7078226,1.634711 -0.2477959,-0.03128 -0.2419192,-0.06207 -0.2322135,-0.09176 -0.2188588,-0.120163 -0.2020632,-0.146678 -0.1820659,-0.17071 -0.1592043,-0.192162 -0.1338272,-0.210632 -0.1063318,-0.225628 -0.077176,-0.237247 -0.046807,-0.244994 -0.015673,-0.248964 0.015673,-0.248966 0.046807,-0.244993 0.077176,-0.237147 0.1063318,-0.225728 0.1338272,-0.210632 0.1592043,-0.192162 0.1820659,-0.17071 0.2020632,-0.146678 0.2188588,-0.120163 0.2322135,-0.09176 0.2419192,-0.06207 0.2477959,-0.03118 h 0.249755 l 0.247776,0.03118 0.2419091,0.06207 0.2322138,0.09176 0.2188784,0.120163 0.2020535,0.146678 0.1820657,0.17071 0.1591944,0.192162 0.1338371,0.210632 0.1063318,0.225728 0.077186,0.237147 0.046797,0.244993 0.015692,0.248966 -0.015692,0.248964 -0.046797,0.244994 -0.077186,0.237247 -0.1063318,0.225628 -0.1338371,0.210632 -0.1591944,0.192162 -0.1820657,0.17071 -0.2020535,0.146678 -0.2188784,0.120163 -0.2322138,0.09176 -0.2419091,0.06207 -0.247776,0.03128 z m 34.4064206,0 -0.247805,-0.03128 -0.24184,-0.06207 -0.232293,-0.09176 -0.21887,-0.120163 -0.202062,-0.146678 -0.181977,-0.17071 -0.159204,-0.192162 -0.133847,-0.210632 -0.106402,-0.225628 -0.07716,-0.237247 -0.04675,-0.244994 -0.01571,-0.248964 0.01571,-0.248966 0.04675,-0.244993 0.07716,-0.237147 0.106402,-0.225728 0.133847,-0.210632 0.159204,-0.192162 0.181977,-0.17071 0.202062,-0.146678 0.21887,-0.120163 0.232293,-0.09176 0.24184,-0.06207 0.247805,-0.03118 h 0.249795 l 0.247806,0.03118 0.24184,0.06207 0.232292,0.09176 0.218769,0.120163 0.202065,0.146678 0.182075,0.17071 0.159204,0.192162 0.133847,0.210632 0.106302,0.225728 0.07726,0.237147 0.04675,0.244993 0.01571,0.248966 -0.01571,0.248964 -0.04675,0.244994 -0.07726,0.237247 -0.106302,0.225628 -0.133847,0.210632 -0.159204,0.192162 -0.182075,0.17071 -0.202065,0.146678 -0.218769,0.120163 -0.232292,0.09176 -0.24184,0.06207 -0.247806,0.03128 z m -17.402101,16.981642 -0.247806,-0.031263 -0.24184,-0.062038 -0.232293,-0.091811 -0.218869,-0.1201628 -0.202062,-0.1466085 -0.181977,-0.1707504 -0.159204,-0.192171 -0.133847,-0.2105927 -0.106402,-0.2256976 -0.07716,-0.2372072 -0.04675,-0.245013 -0.01571,-0.2489355 0.01571,-0.2489257 0.04675,-0.2450129 0.07716,-0.2372073 0.106402,-0.2256876 0.133847,-0.2106026 0.159204,-0.192171 0.181977,-0.1707505 0.202062,-0.1465986 0.218869,-0.1201726 0.232293,-0.091811 0.24184,-0.062038 0.247806,-0.031263 h 0.249795 l 0.247805,0.031263 0.24184,0.062038 0.232292,0.091811 0.21877,0.1201726 0.202064,0.1465986 0.182076,0.1707505 0.159204,0.192171 0.133847,0.2106026 0.106301,0.2256876 0.07727,0.2372073 0.04673,0.2450129 0.01571,0.2489257 -0.01571,0.2489355 -0.04673,0.245013 -0.07727,0.2372072 -0.106301,0.2256976 -0.133847,0.2105927 -0.159204,0.192171 -0.182076,0.1707504 -0.202064,0.1466085 -0.21877,0.1201628 -0.232292,0.091811 -0.24184,0.062038 -0.247805,0.031263 z"
     id="path4"
     style="fill:none;stroke:#000000;stroke-width:0.26292786;stroke-miterlimit:4;stroke-dasharray:none"
     inkscape:connector-curvature="0" />
</svg>
