solid OpenSCAD_Model
  facet normal 0 0 -1
    outer loop
      vertex 21.1744 8.24605 -1
      vertex 6.18422 23.0993 -1
      vertex 6.2 23.35 -1
    endloop
  endfacet
  facet normal 0 0 -1
    outer loop
      vertex 21.4256 8.24605 -1
      vertex 36.8158 23.0993 -1
      vertex 21.6748 8.21457 -1
    endloop
  endfacet
  facet normal -0 0 -1
    outer loop
      vertex 2.26283 23.8474 -1
      vertex 0 23 -1
      vertex 2.34044 24.0862 -1
    endloop
  endfacet
  facet normal -0 0 -1
    outer loop
      vertex 4.32558 21.3539 -1
      vertex 0 0 -1
      vertex 4.07442 21.3539 -1
    endloop
  endfacet
  facet normal -0 0 -1
    outer loop
      vertex 4.07442 21.3539 -1
      vertex 0 0 -1
      vertex 3.82523 21.3854 -1
    endloop
  endfacet
  facet normal -0 0 -1
    outer loop
      vertex 3.82523 21.3854 -1
      vertex 0 0 -1
      vertex 3.58195 21.4479 -1
    endloop
  endfacet
  facet normal -0 0 -1
    outer loop
      vertex 3.58195 21.4479 -1
      vertex 0 0 -1
      vertex 3.34843 21.5403 -1
    endloop
  endfacet
  facet normal -0 0 -1
    outer loop
      vertex 3.34843 21.5403 -1
      vertex 0 0 -1
      vertex 3.12834 21.6613 -1
    endloop
  endfacet
  facet normal -0 0 -1
    outer loop
      vertex 3.12834 21.6613 -1
      vertex 0 0 -1
      vertex 0 23 -1
    endloop
  endfacet
  facet normal -0 -0 -1
    outer loop
      vertex 2.92514 21.809 -1
      vertex 3.12834 21.6613 -1
      vertex 0 23 -1
    endloop
  endfacet
  facet normal -0 -0 -1
    outer loop
      vertex 2.74205 21.9809 -1
      vertex 2.92514 21.809 -1
      vertex 0 23 -1
    endloop
  endfacet
  facet normal -0 -0 -1
    outer loop
      vertex 2.58195 22.1744 -1
      vertex 2.74205 21.9809 -1
      vertex 0 23 -1
    endloop
  endfacet
  facet normal -0 -0 -1
    outer loop
      vertex 2.44737 22.3865 -1
      vertex 2.58195 22.1744 -1
      vertex 0 23 -1
    endloop
  endfacet
  facet normal -0 -0 -1
    outer loop
      vertex 2.34044 22.6137 -1
      vertex 2.44737 22.3865 -1
      vertex 0 23 -1
    endloop
  endfacet
  facet normal 0 -0 -1
    outer loop
      vertex 2.21576 23.0993 -1
      vertex 2.26283 22.8526 -1
      vertex 0 23 -1
    endloop
  endfacet
  facet normal -0 -0 -1
    outer loop
      vertex 2.26283 22.8526 -1
      vertex 2.34044 22.6137 -1
      vertex 0 23 -1
    endloop
  endfacet
  facet normal -0 0 -1
    outer loop
      vertex 2.21576 23.0993 -1
      vertex 0 23 -1
      vertex 2.2 23.35 -1
    endloop
  endfacet
  facet normal -0 0 -1
    outer loop
      vertex 2.2 23.35 -1
      vertex 0 23 -1
      vertex 2.21576 23.6007 -1
    endloop
  endfacet
  facet normal -0 0 -1
    outer loop
      vertex 2.21576 23.6007 -1
      vertex 0 23 -1
      vertex 2.26283 23.8474 -1
    endloop
  endfacet
  facet normal 0 0 -1
    outer loop
      vertex 0 23 -1
      vertex 2.44737 24.3135 -1
      vertex 2.34044 24.0862 -1
    endloop
  endfacet
  facet normal 0 0 -1
    outer loop
      vertex 0 23 -1
      vertex 2.58195 24.5256 -1
      vertex 2.44737 24.3135 -1
    endloop
  endfacet
  facet normal 0 0 -1
    outer loop
      vertex 0 23 -1
      vertex -2 23 -1
      vertex 2.58195 24.5256 -1
    endloop
  endfacet
  facet normal -0 0 -1
    outer loop
      vertex 2.58195 24.5256 -1
      vertex -2 23 -1
      vertex 2.74205 24.7191 -1
    endloop
  endfacet
  facet normal -0 0 -1
    outer loop
      vertex 2.74205 24.7191 -1
      vertex -2 23 -1
      vertex 2.92514 24.891 -1
    endloop
  endfacet
  facet normal -0 0 -1
    outer loop
      vertex 2.92514 24.891 -1
      vertex -2 23 -1
      vertex -2 38 -1
    endloop
  endfacet
  facet normal -0 0 -1
    outer loop
      vertex 3.12834 25.0387 -1
      vertex 2.92514 24.891 -1
      vertex -2 38 -1
    endloop
  endfacet
  facet normal -0 0 -1
    outer loop
      vertex 3.34843 25.1597 -1
      vertex 3.12834 25.0387 -1
      vertex -2 38 -1
    endloop
  endfacet
  facet normal -0 0 -1
    outer loop
      vertex 3.82523 25.3146 -1
      vertex 3.58195 25.2521 -1
      vertex -2 38 -1
    endloop
  endfacet
  facet normal -0 0 -1
    outer loop
      vertex 3.58195 25.2521 -1
      vertex 3.34843 25.1597 -1
      vertex -2 38 -1
    endloop
  endfacet
  facet normal 0 0 -1
    outer loop
      vertex 3.82523 25.3146 -1
      vertex -2 38 -1
      vertex 4.07442 25.346 -1
    endloop
  endfacet
  facet normal 0 0 -1
    outer loop
      vertex 4.07442 25.346 -1
      vertex -2 38 -1
      vertex 4.32558 25.346 -1
    endloop
  endfacet
  facet normal 0 0 -1
    outer loop
      vertex 4.57475 25.3146 -1
      vertex -2 38 -1
      vertex 4.81802 25.2521 -1
    endloop
  endfacet
  facet normal 0 0 -1
    outer loop
      vertex 4.32558 25.346 -1
      vertex -2 38 -1
      vertex 4.57475 25.3146 -1
    endloop
  endfacet
  facet normal 0 0 -1
    outer loop
      vertex -2 38 -1
      vertex 5.05154 25.1597 -1
      vertex 4.81802 25.2521 -1
    endloop
  endfacet
  facet normal 0 0 -1
    outer loop
      vertex -2 38 -1
      vertex 5.27165 25.0387 -1
      vertex 5.05154 25.1597 -1
    endloop
  endfacet
  facet normal 0 0 -1
    outer loop
      vertex -2 38 -1
      vertex 5.47484 24.891 -1
      vertex 5.27165 25.0387 -1
    endloop
  endfacet
  facet normal 0 0 -1
    outer loop
      vertex -2 38 -1
      vertex 37.5251 24.891 -1
      vertex 5.47484 24.891 -1
    endloop
  endfacet
  facet normal 0 0 -1
    outer loop
      vertex 37.0474 24.3135 -1
      vertex 5.81802 24.5256 -1
      vertex 37.182 24.5256 -1
    endloop
  endfacet
  facet normal 0 0 -1
    outer loop
      vertex 6.2 23.35 -1
      vertex 6.18422 23.6007 -1
      vertex 36.8 23.35 -1
    endloop
  endfacet
  facet normal -0 0 -1
    outer loop
      vertex 21.1744 8.24605 -1
      vertex 20.9252 8.21457 -1
      vertex 6.18422 23.0993 -1
    endloop
  endfacet
  facet normal -0 0 -1
    outer loop
      vertex 37.3421 24.7191 -1
      vertex 37.182 24.5256 -1
      vertex 5.65793 24.7191 -1
    endloop
  endfacet
  facet normal 0 0 -1
    outer loop
      vertex 0 0 -1
      vertex 4.57475 21.3854 -1
      vertex 19.3628 6.74738 -1
    endloop
  endfacet
  facet normal -0 0 -1
    outer loop
      vertex 19.3 6.25 -1
      vertex 0 0 -1
      vertex 19.3158 6.50066 -1
    endloop
  endfacet
  facet normal 0 0 -1
    outer loop
      vertex 6.2 23.35 -1
      vertex 21.4256 8.24605 -1
      vertex 21.1744 8.24605 -1
    endloop
  endfacet
  facet normal 0 0 -1
    outer loop
      vertex 0 0 -1
      vertex 19.3 6.25 -1
      vertex 19.3158 5.99933 -1
    endloop
  endfacet
  facet normal 0 0 -1
    outer loop
      vertex 21.4256 8.24605 -1
      vertex 36.8 23.35 -1
      vertex 36.8158 23.0993 -1
    endloop
  endfacet
  facet normal 0 0 -1
    outer loop
      vertex 21.6748 8.21457 -1
      vertex 36.8158 23.0993 -1
      vertex 36.8628 22.8526 -1
    endloop
  endfacet
  facet normal 0 0 -1
    outer loop
      vertex 43 23 -1
      vertex 40.0748 21.809 -1
      vertex 40.2579 21.9809 -1
    endloop
  endfacet
  facet normal 0 0 -1
    outer loop
      vertex 43 0 -1
      vertex 38.182 21.4479 -1
      vertex 38.4252 21.3854 -1
    endloop
  endfacet
  facet normal -0 -0 -1
    outer loop
      vertex 38.9256 21.3539 -1
      vertex 43 0 -1
      vertex 38.6744 21.3539 -1
    endloop
  endfacet
  facet normal -0 0 -1
    outer loop
      vertex 37.5251 21.809 -1
      vertex 22.7579 7.61908 -1
      vertex 37.3421 21.9809 -1
    endloop
  endfacet
  facet normal 0 -0 -1
    outer loop
      vertex 19.3628 5.75261 -1
      vertex 19.4404 5.51375 -1
      vertex 0 0 -1
    endloop
  endfacet
  facet normal 0 0 -1
    outer loop
      vertex 0 0 -1
      vertex 19.4404 5.51375 -1
      vertex 19.5474 5.28648 -1
    endloop
  endfacet
  facet normal -0 0 -1
    outer loop
      vertex 19.682 5.07442 -1
      vertex 0 0 -1
      vertex 19.5474 5.28648 -1
    endloop
  endfacet
  facet normal 0 0 -1
    outer loop
      vertex 43 0 -1
      vertex 21.4256 4.25394 -1
      vertex 21.6748 4.28542 -1
    endloop
  endfacet
  facet normal 0 -0 -1
    outer loop
      vertex 4.32558 21.3539 -1
      vertex 4.57475 21.3854 -1
      vertex 0 0 -1
    endloop
  endfacet
  facet normal 0 -0 -1
    outer loop
      vertex 19.3158 5.99933 -1
      vertex 19.3628 5.75261 -1
      vertex 0 0 -1
    endloop
  endfacet
  facet normal 0 0 -1
    outer loop
      vertex 36.9404 22.6137 -1
      vertex 22.1516 8.05965 -1
      vertex 21.918 8.1521 -1
    endloop
  endfacet
  facet normal -0 -0 -1
    outer loop
      vertex 38.6744 21.3539 -1
      vertex 43 0 -1
      vertex 38.4252 21.3854 -1
    endloop
  endfacet
  facet normal 0 -0 -1
    outer loop
      vertex 4.81802 21.4479 -1
      vertex 19.3628 6.74738 -1
      vertex 4.57475 21.3854 -1
    endloop
  endfacet
  facet normal 0 0 -1
    outer loop
      vertex 6.13716 22.8526 -1
      vertex 6.18422 23.0993 -1
      vertex 20.9252 8.21457 -1
    endloop
  endfacet
  facet normal 0 0 -1
    outer loop
      vertex 4.81802 21.4479 -1
      vertex 19.4404 6.98624 -1
      vertex 19.3628 6.74738 -1
    endloop
  endfacet
  facet normal 0 0 -1
    outer loop
      vertex 4.81802 21.4479 -1
      vertex 5.05154 21.5403 -1
      vertex 19.4404 6.98624 -1
    endloop
  endfacet
  facet normal 0 0 -1
    outer loop
      vertex 6.05954 22.6137 -1
      vertex 6.13716 22.8526 -1
      vertex 20.682 8.1521 -1
    endloop
  endfacet
  facet normal 0 -0 -1
    outer loop
      vertex 5.95261 22.3865 -1
      vertex 20.2283 7.93864 -1
      vertex 5.81802 22.1744 -1
    endloop
  endfacet
  facet normal 0 0 -1
    outer loop
      vertex 36.8 23.35 -1
      vertex 6.18422 23.6007 -1
      vertex 36.8158 23.6007 -1
    endloop
  endfacet
  facet normal 0 0 -1
    outer loop
      vertex 36.8158 23.6007 -1
      vertex 6.18422 23.6007 -1
      vertex 6.13716 23.8474 -1
    endloop
  endfacet
  facet normal -0 0 -1
    outer loop
      vertex 36.8628 23.8474 -1
      vertex 36.8158 23.6007 -1
      vertex 6.13716 23.8474 -1
    endloop
  endfacet
  facet normal 0 0 -1
    outer loop
      vertex 6.05954 24.0862 -1
      vertex 36.8628 23.8474 -1
      vertex 6.13716 23.8474 -1
    endloop
  endfacet
  facet normal 0 0 -1
    outer loop
      vertex 6.05954 24.0862 -1
      vertex 36.9404 24.0862 -1
      vertex 36.8628 23.8474 -1
    endloop
  endfacet
  facet normal 0 0 -1
    outer loop
      vertex 6.05954 24.0862 -1
      vertex 5.95261 24.3135 -1
      vertex 36.9404 24.0862 -1
    endloop
  endfacet
  facet normal 0 0 -1
    outer loop
      vertex 36.9404 24.0862 -1
      vertex 5.95261 24.3135 -1
      vertex 37.0474 24.3135 -1
    endloop
  endfacet
  facet normal 0 0 -1
    outer loop
      vertex 37.0474 24.3135 -1
      vertex 5.95261 24.3135 -1
      vertex 5.81802 24.5256 -1
    endloop
  endfacet
  facet normal 0 0 -1
    outer loop
      vertex 37.182 24.5256 -1
      vertex 5.81802 24.5256 -1
      vertex 5.65793 24.7191 -1
    endloop
  endfacet
  facet normal 0 0 -1
    outer loop
      vertex 5.65793 24.7191 -1
      vertex 5.47484 24.891 -1
      vertex 37.3421 24.7191 -1
    endloop
  endfacet
  facet normal 0 0 -1
    outer loop
      vertex 37.3421 24.7191 -1
      vertex 5.47484 24.891 -1
      vertex 37.5251 24.891 -1
    endloop
  endfacet
  facet normal 0 0 -1
    outer loop
      vertex 37.5251 24.891 -1
      vertex -2 38 -1
      vertex 45 38 -1
    endloop
  endfacet
  facet normal -0 0 -1
    outer loop
      vertex 37.7283 25.0387 -1
      vertex 37.5251 24.891 -1
      vertex 45 38 -1
    endloop
  endfacet
  facet normal -0 0 -1
    outer loop
      vertex 37.9484 25.1597 -1
      vertex 37.7283 25.0387 -1
      vertex 45 38 -1
    endloop
  endfacet
  facet normal -0 0 -1
    outer loop
      vertex 38.182 25.2521 -1
      vertex 37.9484 25.1597 -1
      vertex 45 38 -1
    endloop
  endfacet
  facet normal -0 0 -1
    outer loop
      vertex 38.4252 25.3146 -1
      vertex 38.182 25.2521 -1
      vertex 45 38 -1
    endloop
  endfacet
  facet normal -0 0 -1
    outer loop
      vertex 38.6744 25.346 -1
      vertex 38.4252 25.3146 -1
      vertex 45 38 -1
    endloop
  endfacet
  facet normal 0 0 -1
    outer loop
      vertex 38.9256 25.346 -1
      vertex 38.6744 25.346 -1
      vertex 45 38 -1
    endloop
  endfacet
  facet normal 0 0 -1
    outer loop
      vertex 39.1748 25.3146 -1
      vertex 38.9256 25.346 -1
      vertex 45 38 -1
    endloop
  endfacet
  facet normal 0 0 -1
    outer loop
      vertex 39.418 25.2521 -1
      vertex 39.1748 25.3146 -1
      vertex 45 38 -1
    endloop
  endfacet
  facet normal 0 0 -1
    outer loop
      vertex 39.8716 25.0387 -1
      vertex 39.6516 25.1597 -1
      vertex 45 38 -1
    endloop
  endfacet
  facet normal 0 0 -1
    outer loop
      vertex 39.6516 25.1597 -1
      vertex 39.418 25.2521 -1
      vertex 45 38 -1
    endloop
  endfacet
  facet normal 0 0 -1
    outer loop
      vertex 40.0748 24.891 -1
      vertex 45 38 -1
      vertex 45 23 -1
    endloop
  endfacet
  facet normal 0 0 -1
    outer loop
      vertex 39.8716 25.0387 -1
      vertex 45 38 -1
      vertex 40.0748 24.891 -1
    endloop
  endfacet
  facet normal 0 0 -1
    outer loop
      vertex 40.0748 24.891 -1
      vertex 45 23 -1
      vertex 40.2579 24.7191 -1
    endloop
  endfacet
  facet normal 0 0 -1
    outer loop
      vertex 40.2579 24.7191 -1
      vertex 45 23 -1
      vertex 40.418 24.5256 -1
    endloop
  endfacet
  facet normal 0 0 -1
    outer loop
      vertex 40.418 24.5256 -1
      vertex 45 23 -1
      vertex 43 23 -1
    endloop
  endfacet
  facet normal 0 0 -1
    outer loop
      vertex 40.5526 24.3135 -1
      vertex 40.418 24.5256 -1
      vertex 43 23 -1
    endloop
  endfacet
  facet normal 0 0 -1
    outer loop
      vertex 40.6595 24.0862 -1
      vertex 40.5526 24.3135 -1
      vertex 43 23 -1
    endloop
  endfacet
  facet normal 0 0 -1
    outer loop
      vertex 40.7372 23.8474 -1
      vertex 40.6595 24.0862 -1
      vertex 43 23 -1
    endloop
  endfacet
  facet normal 0 0 -1
    outer loop
      vertex 40.7842 23.6007 -1
      vertex 40.7372 23.8474 -1
      vertex 43 23 -1
    endloop
  endfacet
  facet normal 0 0 -1
    outer loop
      vertex 40.8 23.35 -1
      vertex 40.7842 23.6007 -1
      vertex 43 23 -1
    endloop
  endfacet
  facet normal 0 0 -1
    outer loop
      vertex 40.7842 23.0993 -1
      vertex 40.8 23.35 -1
      vertex 43 23 -1
    endloop
  endfacet
  facet normal 0 0 -1
    outer loop
      vertex 40.7372 22.8526 -1
      vertex 40.7842 23.0993 -1
      vertex 43 23 -1
    endloop
  endfacet
  facet normal 0 0 -1
    outer loop
      vertex 40.6595 22.6137 -1
      vertex 40.7372 22.8526 -1
      vertex 43 23 -1
    endloop
  endfacet
  facet normal 0 0 -1
    outer loop
      vertex 40.5526 22.3865 -1
      vertex 40.6595 22.6137 -1
      vertex 43 23 -1
    endloop
  endfacet
  facet normal 0 0 -1
    outer loop
      vertex 40.418 22.1744 -1
      vertex 40.5526 22.3865 -1
      vertex 43 23 -1
    endloop
  endfacet
  facet normal 0 0 -1
    outer loop
      vertex 40.2579 21.9809 -1
      vertex 40.418 22.1744 -1
      vertex 43 23 -1
    endloop
  endfacet
  facet normal 0 -0 -1
    outer loop
      vertex 40.0748 21.809 -1
      vertex 43 23 -1
      vertex 39.8716 21.6613 -1
    endloop
  endfacet
  facet normal 0 0 -1
    outer loop
      vertex 39.8716 21.6613 -1
      vertex 43 23 -1
      vertex 43 0 -1
    endloop
  endfacet
  facet normal 0 0 -1
    outer loop
      vertex 39.6516 21.5403 -1
      vertex 39.8716 21.6613 -1
      vertex 43 0 -1
    endloop
  endfacet
  facet normal 0 0 -1
    outer loop
      vertex 39.418 21.4479 -1
      vertex 39.6516 21.5403 -1
      vertex 43 0 -1
    endloop
  endfacet
  facet normal 0 0 -1
    outer loop
      vertex 38.9256 21.3539 -1
      vertex 39.1748 21.3854 -1
      vertex 43 0 -1
    endloop
  endfacet
  facet normal 0 0 -1
    outer loop
      vertex 39.1748 21.3854 -1
      vertex 39.418 21.4479 -1
      vertex 43 0 -1
    endloop
  endfacet
  facet normal -0 0 -1
    outer loop
      vertex 36.8 23.35 -1
      vertex 21.4256 8.24605 -1
      vertex 6.2 23.35 -1
    endloop
  endfacet
  facet normal 0 -0 -1
    outer loop
      vertex 21.4256 4.25394 -1
      vertex 43 0 -1
      vertex 0 0 -1
    endloop
  endfacet
  facet normal 0 -0 -1
    outer loop
      vertex 21.1744 4.25394 -1
      vertex 21.4256 4.25394 -1
      vertex 0 0 -1
    endloop
  endfacet
  facet normal 0 -0 -1
    outer loop
      vertex 20.9252 4.28542 -1
      vertex 21.1744 4.25394 -1
      vertex 0 0 -1
    endloop
  endfacet
  facet normal 0 -0 -1
    outer loop
      vertex 20.682 4.34789 -1
      vertex 20.9252 4.28542 -1
      vertex 0 0 -1
    endloop
  endfacet
  facet normal 0 -0 -1
    outer loop
      vertex 20.4484 4.44034 -1
      vertex 20.682 4.34789 -1
      vertex 0 0 -1
    endloop
  endfacet
  facet normal 0 -0 -1
    outer loop
      vertex 20.2283 4.56134 -1
      vertex 20.4484 4.44034 -1
      vertex 0 0 -1
    endloop
  endfacet
  facet normal 0 -0 -1
    outer loop
      vertex 20.0251 4.70897 -1
      vertex 20.2283 4.56134 -1
      vertex 0 0 -1
    endloop
  endfacet
  facet normal 0 -0 -1
    outer loop
      vertex 19.682 5.07442 -1
      vertex 19.8421 4.88091 -1
      vertex 0 0 -1
    endloop
  endfacet
  facet normal 0 -0 -1
    outer loop
      vertex 19.8421 4.88091 -1
      vertex 20.0251 4.70897 -1
      vertex 0 0 -1
    endloop
  endfacet
  facet normal -0 0 -1
    outer loop
      vertex 19.3158 6.50066 -1
      vertex 0 0 -1
      vertex 19.3628 6.74738 -1
    endloop
  endfacet
  facet normal 0 0 -1
    outer loop
      vertex 5.05154 21.5403 -1
      vertex 19.5474 7.2135 -1
      vertex 19.4404 6.98624 -1
    endloop
  endfacet
  facet normal 0 0 -1
    outer loop
      vertex 5.05154 21.5403 -1
      vertex 5.27165 21.6613 -1
      vertex 19.5474 7.2135 -1
    endloop
  endfacet
  facet normal 0 0 -1
    outer loop
      vertex 19.5474 7.2135 -1
      vertex 5.27165 21.6613 -1
      vertex 19.682 7.42557 -1
    endloop
  endfacet
  facet normal 0 0 -1
    outer loop
      vertex 19.682 7.42557 -1
      vertex 5.27165 21.6613 -1
      vertex 5.47484 21.809 -1
    endloop
  endfacet
  facet normal -0 0 -1
    outer loop
      vertex 19.8421 7.61908 -1
      vertex 19.682 7.42557 -1
      vertex 5.47484 21.809 -1
    endloop
  endfacet
  facet normal 0 -0 -1
    outer loop
      vertex 5.65793 21.9809 -1
      vertex 19.8421 7.61908 -1
      vertex 5.47484 21.809 -1
    endloop
  endfacet
  facet normal 0 0 -1
    outer loop
      vertex 5.65793 21.9809 -1
      vertex 20.0251 7.79102 -1
      vertex 19.8421 7.61908 -1
    endloop
  endfacet
  facet normal 0 0 -1
    outer loop
      vertex 5.65793 21.9809 -1
      vertex 5.81802 22.1744 -1
      vertex 20.0251 7.79102 -1
    endloop
  endfacet
  facet normal -0 0 -1
    outer loop
      vertex 20.9252 8.21457 -1
      vertex 20.682 8.1521 -1
      vertex 6.13716 22.8526 -1
    endloop
  endfacet
  facet normal 0 0 -1
    outer loop
      vertex 20.0251 7.79102 -1
      vertex 5.81802 22.1744 -1
      vertex 20.2283 7.93864 -1
    endloop
  endfacet
  facet normal -0 0 -1
    outer loop
      vertex 20.4484 8.05965 -1
      vertex 20.2283 7.93864 -1
      vertex 5.95261 22.3865 -1
    endloop
  endfacet
  facet normal 0 -0 -1
    outer loop
      vertex 6.05954 22.6137 -1
      vertex 20.4484 8.05965 -1
      vertex 5.95261 22.3865 -1
    endloop
  endfacet
  facet normal 0 0 -1
    outer loop
      vertex 6.05954 22.6137 -1
      vertex 20.682 8.1521 -1
      vertex 20.4484 8.05965 -1
    endloop
  endfacet
  facet normal 0 0 -1
    outer loop
      vertex 21.918 8.1521 -1
      vertex 21.6748 8.21457 -1
      vertex 36.8628 22.8526 -1
    endloop
  endfacet
  facet normal -0 0 -1
    outer loop
      vertex 36.9404 22.6137 -1
      vertex 21.918 8.1521 -1
      vertex 36.8628 22.8526 -1
    endloop
  endfacet
  facet normal -0 0 -1
    outer loop
      vertex 37.0474 22.3865 -1
      vertex 22.1516 8.05965 -1
      vertex 36.9404 22.6137 -1
    endloop
  endfacet
  facet normal 0 0 -1
    outer loop
      vertex 37.0474 22.3865 -1
      vertex 22.3716 7.93864 -1
      vertex 22.1516 8.05965 -1
    endloop
  endfacet
  facet normal 0 -0 -1
    outer loop
      vertex 37.0474 22.3865 -1
      vertex 37.182 22.1744 -1
      vertex 22.3716 7.93864 -1
    endloop
  endfacet
  facet normal 0 0 -1
    outer loop
      vertex 22.3716 7.93864 -1
      vertex 37.182 22.1744 -1
      vertex 22.5748 7.79102 -1
    endloop
  endfacet
  facet normal 0 0 -1
    outer loop
      vertex 22.5748 7.79102 -1
      vertex 37.182 22.1744 -1
      vertex 37.3421 21.9809 -1
    endloop
  endfacet
  facet normal 0 0 -1
    outer loop
      vertex 22.7579 7.61908 -1
      vertex 22.5748 7.79102 -1
      vertex 37.3421 21.9809 -1
    endloop
  endfacet
  facet normal 0 0 -1
    outer loop
      vertex 22.918 7.42557 -1
      vertex 22.7579 7.61908 -1
      vertex 37.5251 21.809 -1
    endloop
  endfacet
  facet normal -0 0 -1
    outer loop
      vertex 37.7283 21.6613 -1
      vertex 22.918 7.42557 -1
      vertex 37.5251 21.809 -1
    endloop
  endfacet
  facet normal 0 0 -1
    outer loop
      vertex 37.7283 21.6613 -1
      vertex 23.0526 7.2135 -1
      vertex 22.918 7.42557 -1
    endloop
  endfacet
  facet normal 0 -0 -1
    outer loop
      vertex 37.7283 21.6613 -1
      vertex 37.9484 21.5403 -1
      vertex 23.0526 7.2135 -1
    endloop
  endfacet
  facet normal 0 0 -1
    outer loop
      vertex 23.0526 7.2135 -1
      vertex 37.9484 21.5403 -1
      vertex 23.1595 6.98624 -1
    endloop
  endfacet
  facet normal 0 0 -1
    outer loop
      vertex 23.1595 6.98624 -1
      vertex 37.9484 21.5403 -1
      vertex 38.182 21.4479 -1
    endloop
  endfacet
  facet normal 0 0 -1
    outer loop
      vertex 23.2372 6.74738 -1
      vertex 23.1595 6.98624 -1
      vertex 38.182 21.4479 -1
    endloop
  endfacet
  facet normal 0 0 -1
    outer loop
      vertex 43 0 -1
      vertex 23.2372 6.74738 -1
      vertex 38.182 21.4479 -1
    endloop
  endfacet
  facet normal 0 0 -1
    outer loop
      vertex 43 0 -1
      vertex 23.2842 6.50066 -1
      vertex 23.2372 6.74738 -1
    endloop
  endfacet
  facet normal 0 0 -1
    outer loop
      vertex 43 0 -1
      vertex 23.3 6.25 -1
      vertex 23.2842 6.50066 -1
    endloop
  endfacet
  facet normal 0 0 -1
    outer loop
      vertex 43 0 -1
      vertex 23.2842 5.99933 -1
      vertex 23.3 6.25 -1
    endloop
  endfacet
  facet normal 0 0 -1
    outer loop
      vertex 43 0 -1
      vertex 23.2372 5.75261 -1
      vertex 23.2842 5.99933 -1
    endloop
  endfacet
  facet normal 0 0 -1
    outer loop
      vertex 43 0 -1
      vertex 23.1595 5.51375 -1
      vertex 23.2372 5.75261 -1
    endloop
  endfacet
  facet normal 0 0 -1
    outer loop
      vertex 43 0 -1
      vertex 23.0526 5.28648 -1
      vertex 23.1595 5.51375 -1
    endloop
  endfacet
  facet normal 0 0 -1
    outer loop
      vertex 43 0 -1
      vertex 22.918 5.07442 -1
      vertex 23.0526 5.28648 -1
    endloop
  endfacet
  facet normal 0 0 -1
    outer loop
      vertex 43 0 -1
      vertex 22.7579 4.88091 -1
      vertex 22.918 5.07442 -1
    endloop
  endfacet
  facet normal 0 0 -1
    outer loop
      vertex 43 0 -1
      vertex 22.5748 4.70897 -1
      vertex 22.7579 4.88091 -1
    endloop
  endfacet
  facet normal 0 0 -1
    outer loop
      vertex 43 0 -1
      vertex 22.3716 4.56134 -1
      vertex 22.5748 4.70897 -1
    endloop
  endfacet
  facet normal 0 0 -1
    outer loop
      vertex 43 0 -1
      vertex 22.1516 4.44034 -1
      vertex 22.3716 4.56134 -1
    endloop
  endfacet
  facet normal 0 0 -1
    outer loop
      vertex 43 0 -1
      vertex 21.918 4.34789 -1
      vertex 22.1516 4.44034 -1
    endloop
  endfacet
  facet normal 0 0 -1
    outer loop
      vertex 43 0 -1
      vertex 21.6748 4.28542 -1
      vertex 21.918 4.34789 -1
    endloop
  endfacet
  facet normal 0 0 1
    outer loop
      vertex 6.2 23.35 1
      vertex 6.18422 23.0993 1
      vertex 21.1744 8.24605 1
    endloop
  endfacet
  facet normal 0 -0 1
    outer loop
      vertex 21.6748 8.21457 1
      vertex 36.8158 23.0993 1
      vertex 21.4256 8.24605 1
    endloop
  endfacet
  facet normal 0 0 1
    outer loop
      vertex 2.34044 24.0862 1
      vertex 0 23 1
      vertex 2.26283 23.8474 1
    endloop
  endfacet
  facet normal -0 0 1
    outer loop
      vertex 4.07442 21.3539 1
      vertex 0 0 1
      vertex 4.32558 21.3539 1
    endloop
  endfacet
  facet normal 0 0 1
    outer loop
      vertex 3.82523 21.3854 1
      vertex 0 0 1
      vertex 4.07442 21.3539 1
    endloop
  endfacet
  facet normal 0 0 1
    outer loop
      vertex 3.58195 21.4479 1
      vertex 0 0 1
      vertex 3.82523 21.3854 1
    endloop
  endfacet
  facet normal 0 0 1
    outer loop
      vertex 3.34843 21.5403 1
      vertex 0 0 1
      vertex 3.58195 21.4479 1
    endloop
  endfacet
  facet normal 0 0 1
    outer loop
      vertex 3.12834 21.6613 1
      vertex 0 0 1
      vertex 3.34843 21.5403 1
    endloop
  endfacet
  facet normal 0 0 1
    outer loop
      vertex 0 23 1
      vertex 0 0 1
      vertex 3.12834 21.6613 1
    endloop
  endfacet
  facet normal 0 0 1
    outer loop
      vertex 0 23 1
      vertex 3.12834 21.6613 1
      vertex 2.92514 21.809 1
    endloop
  endfacet
  facet normal 0 0 1
    outer loop
      vertex 0 23 1
      vertex 2.92514 21.809 1
      vertex 2.74205 21.9809 1
    endloop
  endfacet
  facet normal 0 0 1
    outer loop
      vertex 0 23 1
      vertex 2.74205 21.9809 1
      vertex 2.58195 22.1744 1
    endloop
  endfacet
  facet normal 0 0 1
    outer loop
      vertex 0 23 1
      vertex 2.58195 22.1744 1
      vertex 2.44737 22.3865 1
    endloop
  endfacet
  facet normal 0 0 1
    outer loop
      vertex 0 23 1
      vertex 2.44737 22.3865 1
      vertex 2.34044 22.6137 1
    endloop
  endfacet
  facet normal -0 0 1
    outer loop
      vertex 0 23 1
      vertex 2.26283 22.8526 1
      vertex 2.21576 23.0993 1
    endloop
  endfacet
  facet normal 0 0 1
    outer loop
      vertex 0 23 1
      vertex 2.34044 22.6137 1
      vertex 2.26283 22.8526 1
    endloop
  endfacet
  facet normal 0 0 1
    outer loop
      vertex 2.2 23.35 1
      vertex 0 23 1
      vertex 2.21576 23.0993 1
    endloop
  endfacet
  facet normal 0 0 1
    outer loop
      vertex 2.21576 23.6007 1
      vertex 0 23 1
      vertex 2.2 23.35 1
    endloop
  endfacet
  facet normal 0 0 1
    outer loop
      vertex 2.26283 23.8474 1
      vertex 0 23 1
      vertex 2.21576 23.6007 1
    endloop
  endfacet
  facet normal 0 -0 1
    outer loop
      vertex 2.34044 24.0862 1
      vertex 2.44737 24.3135 1
      vertex 0 23 1
    endloop
  endfacet
  facet normal 0 -0 1
    outer loop
      vertex 2.44737 24.3135 1
      vertex 2.58195 24.5256 1
      vertex 0 23 1
    endloop
  endfacet
  facet normal 0 0 1
    outer loop
      vertex 2.58195 24.5256 1
      vertex -2 23 1
      vertex 0 23 1
    endloop
  endfacet
  facet normal 0 0 1
    outer loop
      vertex 2.74205 24.7191 1
      vertex -2 23 1
      vertex 2.58195 24.5256 1
    endloop
  endfacet
  facet normal 0 0 1
    outer loop
      vertex 2.92514 24.891 1
      vertex -2 23 1
      vertex 2.74205 24.7191 1
    endloop
  endfacet
  facet normal 0 0 1
    outer loop
      vertex -2 38 1
      vertex -2 23 1
      vertex 2.92514 24.891 1
    endloop
  endfacet
  facet normal 0 0 1
    outer loop
      vertex -2 38 1
      vertex 2.92514 24.891 1
      vertex 3.12834 25.0387 1
    endloop
  endfacet
  facet normal 0 0 1
    outer loop
      vertex -2 38 1
      vertex 3.12834 25.0387 1
      vertex 3.34843 25.1597 1
    endloop
  endfacet
  facet normal 0 0 1
    outer loop
      vertex -2 38 1
      vertex 3.58195 25.2521 1
      vertex 3.82523 25.3146 1
    endloop
  endfacet
  facet normal 0 0 1
    outer loop
      vertex -2 38 1
      vertex 3.34843 25.1597 1
      vertex 3.58195 25.2521 1
    endloop
  endfacet
  facet normal 0 0 1
    outer loop
      vertex 4.07442 25.346 1
      vertex -2 38 1
      vertex 3.82523 25.3146 1
    endloop
  endfacet
  facet normal 0 0 1
    outer loop
      vertex 4.32558 25.346 1
      vertex -2 38 1
      vertex 4.07442 25.346 1
    endloop
  endfacet
  facet normal 0 0 1
    outer loop
      vertex 4.81802 25.2521 1
      vertex -2 38 1
      vertex 4.57475 25.3146 1
    endloop
  endfacet
  facet normal 0 0 1
    outer loop
      vertex 4.57475 25.3146 1
      vertex -2 38 1
      vertex 4.32558 25.346 1
    endloop
  endfacet
  facet normal -0 -0 1
    outer loop
      vertex 4.81802 25.2521 1
      vertex 5.05154 25.1597 1
      vertex -2 38 1
    endloop
  endfacet
  facet normal -0 -0 1
    outer loop
      vertex 5.05154 25.1597 1
      vertex 5.27165 25.0387 1
      vertex -2 38 1
    endloop
  endfacet
  facet normal -0 -0 1
    outer loop
      vertex 5.27165 25.0387 1
      vertex 5.47484 24.891 1
      vertex -2 38 1
    endloop
  endfacet
  facet normal 0 -0 1
    outer loop
      vertex 5.47484 24.891 1
      vertex 37.5251 24.891 1
      vertex -2 38 1
    endloop
  endfacet
  facet normal 0 0 1
    outer loop
      vertex 37.182 24.5256 1
      vertex 5.81802 24.5256 1
      vertex 37.0474 24.3135 1
    endloop
  endfacet
  facet normal 0 0 1
    outer loop
      vertex 36.8 23.35 1
      vertex 6.18422 23.6007 1
      vertex 6.2 23.35 1
    endloop
  endfacet
  facet normal 0 0 1
    outer loop
      vertex 6.18422 23.0993 1
      vertex 20.9252 8.21457 1
      vertex 21.1744 8.24605 1
    endloop
  endfacet
  facet normal -0 0 1
    outer loop
      vertex 5.65793 24.7191 1
      vertex 37.182 24.5256 1
      vertex 37.3421 24.7191 1
    endloop
  endfacet
  facet normal 0 0 1
    outer loop
      vertex 19.3628 6.74738 1
      vertex 4.57475 21.3854 1
      vertex 0 0 1
    endloop
  endfacet
  facet normal 0 0 1
    outer loop
      vertex 19.3158 6.50066 1
      vertex 0 0 1
      vertex 19.3 6.25 1
    endloop
  endfacet
  facet normal 0 -0 1
    outer loop
      vertex 21.1744 8.24605 1
      vertex 21.4256 8.24605 1
      vertex 6.2 23.35 1
    endloop
  endfacet
  facet normal 0 0 1
    outer loop
      vertex 19.3158 5.99933 1
      vertex 19.3 6.25 1
      vertex 0 0 1
    endloop
  endfacet
  facet normal 0 0 1
    outer loop
      vertex 36.8158 23.0993 1
      vertex 36.8 23.35 1
      vertex 21.4256 8.24605 1
    endloop
  endfacet
  facet normal 0 0 1
    outer loop
      vertex 36.8628 22.8526 1
      vertex 36.8158 23.0993 1
      vertex 21.6748 8.21457 1
    endloop
  endfacet
  facet normal -0 0 1
    outer loop
      vertex 40.2579 21.9809 1
      vertex 40.0748 21.809 1
      vertex 43 23 1
    endloop
  endfacet
  facet normal 0 0 1
    outer loop
      vertex 38.4252 21.3854 1
      vertex 38.182 21.4479 1
      vertex 43 0 1
    endloop
  endfacet
  facet normal -0 0 1
    outer loop
      vertex 38.6744 21.3539 1
      vertex 43 0 1
      vertex 38.9256 21.3539 1
    endloop
  endfacet
  facet normal 0 0 1
    outer loop
      vertex 37.3421 21.9809 1
      vertex 22.7579 7.61908 1
      vertex 37.5251 21.809 1
    endloop
  endfacet
  facet normal 0 0 1
    outer loop
      vertex 0 0 1
      vertex 19.4404 5.51375 1
      vertex 19.3628 5.75261 1
    endloop
  endfacet
  facet normal 0 0 1
    outer loop
      vertex 19.5474 5.28648 1
      vertex 19.4404 5.51375 1
      vertex 0 0 1
    endloop
  endfacet
  facet normal 0 0 1
    outer loop
      vertex 19.5474 5.28648 1
      vertex 0 0 1
      vertex 19.682 5.07442 1
    endloop
  endfacet
  facet normal 0 0 1
    outer loop
      vertex 21.6748 4.28542 1
      vertex 21.4256 4.25394 1
      vertex 43 0 1
    endloop
  endfacet
  facet normal 0 0 1
    outer loop
      vertex 0 0 1
      vertex 4.57475 21.3854 1
      vertex 4.32558 21.3539 1
    endloop
  endfacet
  facet normal 0 0 1
    outer loop
      vertex 0 0 1
      vertex 19.3628 5.75261 1
      vertex 19.3158 5.99933 1
    endloop
  endfacet
  facet normal -0 0 1
    outer loop
      vertex 21.918 8.1521 1
      vertex 22.1516 8.05965 1
      vertex 36.9404 22.6137 1
    endloop
  endfacet
  facet normal 0 0 1
    outer loop
      vertex 38.4252 21.3854 1
      vertex 43 0 1
      vertex 38.6744 21.3539 1
    endloop
  endfacet
  facet normal -0 0 1
    outer loop
      vertex 4.57475 21.3854 1
      vertex 19.3628 6.74738 1
      vertex 4.81802 21.4479 1
    endloop
  endfacet
  facet normal 0 0 1
    outer loop
      vertex 20.9252 8.21457 1
      vertex 6.18422 23.0993 1
      vertex 6.13716 22.8526 1
    endloop
  endfacet
  facet normal 0 -0 1
    outer loop
      vertex 19.3628 6.74738 1
      vertex 19.4404 6.98624 1
      vertex 4.81802 21.4479 1
    endloop
  endfacet
  facet normal 0 0 1
    outer loop
      vertex 19.4404 6.98624 1
      vertex 5.05154 21.5403 1
      vertex 4.81802 21.4479 1
    endloop
  endfacet
  facet normal 0 0 1
    outer loop
      vertex 20.682 8.1521 1
      vertex 6.13716 22.8526 1
      vertex 6.05954 22.6137 1
    endloop
  endfacet
  facet normal -0 0 1
    outer loop
      vertex 5.81802 22.1744 1
      vertex 20.2283 7.93864 1
      vertex 5.95261 22.3865 1
    endloop
  endfacet
  facet normal 0 0 1
    outer loop
      vertex 36.8158 23.6007 1
      vertex 6.18422 23.6007 1
      vertex 36.8 23.35 1
    endloop
  endfacet
  facet normal 0 0 1
    outer loop
      vertex 6.13716 23.8474 1
      vertex 6.18422 23.6007 1
      vertex 36.8158 23.6007 1
    endloop
  endfacet
  facet normal -0 0 1
    outer loop
      vertex 6.13716 23.8474 1
      vertex 36.8158 23.6007 1
      vertex 36.8628 23.8474 1
    endloop
  endfacet
  facet normal 0 -0 1
    outer loop
      vertex 6.13716 23.8474 1
      vertex 36.8628 23.8474 1
      vertex 6.05954 24.0862 1
    endloop
  endfacet
  facet normal 0 -0 1
    outer loop
      vertex 36.8628 23.8474 1
      vertex 36.9404 24.0862 1
      vertex 6.05954 24.0862 1
    endloop
  endfacet
  facet normal 0 0 1
    outer loop
      vertex 36.9404 24.0862 1
      vertex 5.95261 24.3135 1
      vertex 6.05954 24.0862 1
    endloop
  endfacet
  facet normal 0 0 1
    outer loop
      vertex 37.0474 24.3135 1
      vertex 5.95261 24.3135 1
      vertex 36.9404 24.0862 1
    endloop
  endfacet
  facet normal 0 0 1
    outer loop
      vertex 5.81802 24.5256 1
      vertex 5.95261 24.3135 1
      vertex 37.0474 24.3135 1
    endloop
  endfacet
  facet normal 0 0 1
    outer loop
      vertex 5.65793 24.7191 1
      vertex 5.81802 24.5256 1
      vertex 37.182 24.5256 1
    endloop
  endfacet
  facet normal 0 0 1
    outer loop
      vertex 37.3421 24.7191 1
      vertex 5.47484 24.891 1
      vertex 5.65793 24.7191 1
    endloop
  endfacet
  facet normal 0 0 1
    outer loop
      vertex 37.5251 24.891 1
      vertex 5.47484 24.891 1
      vertex 37.3421 24.7191 1
    endloop
  endfacet
  facet normal 0 0 1
    outer loop
      vertex 45 38 1
      vertex -2 38 1
      vertex 37.5251 24.891 1
    endloop
  endfacet
  facet normal 0 0 1
    outer loop
      vertex 45 38 1
      vertex 37.5251 24.891 1
      vertex 37.7283 25.0387 1
    endloop
  endfacet
  facet normal 0 0 1
    outer loop
      vertex 45 38 1
      vertex 37.7283 25.0387 1
      vertex 37.9484 25.1597 1
    endloop
  endfacet
  facet normal 0 0 1
    outer loop
      vertex 45 38 1
      vertex 37.9484 25.1597 1
      vertex 38.182 25.2521 1
    endloop
  endfacet
  facet normal 0 0 1
    outer loop
      vertex 45 38 1
      vertex 38.182 25.2521 1
      vertex 38.4252 25.3146 1
    endloop
  endfacet
  facet normal 0 0 1
    outer loop
      vertex 45 38 1
      vertex 38.4252 25.3146 1
      vertex 38.6744 25.346 1
    endloop
  endfacet
  facet normal 0 0 1
    outer loop
      vertex 45 38 1
      vertex 38.6744 25.346 1
      vertex 38.9256 25.346 1
    endloop
  endfacet
  facet normal 0 0 1
    outer loop
      vertex 45 38 1
      vertex 38.9256 25.346 1
      vertex 39.1748 25.3146 1
    endloop
  endfacet
  facet normal 0 0 1
    outer loop
      vertex 45 38 1
      vertex 39.1748 25.3146 1
      vertex 39.418 25.2521 1
    endloop
  endfacet
  facet normal 0 0 1
    outer loop
      vertex 45 38 1
      vertex 39.6516 25.1597 1
      vertex 39.8716 25.0387 1
    endloop
  endfacet
  facet normal 0 0 1
    outer loop
      vertex 45 38 1
      vertex 39.418 25.2521 1
      vertex 39.6516 25.1597 1
    endloop
  endfacet
  facet normal 0 -0 1
    outer loop
      vertex 45 23 1
      vertex 45 38 1
      vertex 40.0748 24.891 1
    endloop
  endfacet
  facet normal 0 -0 1
    outer loop
      vertex 40.0748 24.891 1
      vertex 45 38 1
      vertex 39.8716 25.0387 1
    endloop
  endfacet
  facet normal -0 -0 1
    outer loop
      vertex 40.2579 24.7191 1
      vertex 45 23 1
      vertex 40.0748 24.891 1
    endloop
  endfacet
  facet normal -0 -0 1
    outer loop
      vertex 40.418 24.5256 1
      vertex 45 23 1
      vertex 40.2579 24.7191 1
    endloop
  endfacet
  facet normal 0 -0 1
    outer loop
      vertex 43 23 1
      vertex 45 23 1
      vertex 40.418 24.5256 1
    endloop
  endfacet
  facet normal 0 0 1
    outer loop
      vertex 43 23 1
      vertex 40.418 24.5256 1
      vertex 40.5526 24.3135 1
    endloop
  endfacet
  facet normal 0 0 1
    outer loop
      vertex 43 23 1
      vertex 40.5526 24.3135 1
      vertex 40.6595 24.0862 1
    endloop
  endfacet
  facet normal 0 0 1
    outer loop
      vertex 43 23 1
      vertex 40.6595 24.0862 1
      vertex 40.7372 23.8474 1
    endloop
  endfacet
  facet normal 0 0 1
    outer loop
      vertex 43 23 1
      vertex 40.7372 23.8474 1
      vertex 40.7842 23.6007 1
    endloop
  endfacet
  facet normal 0 0 1
    outer loop
      vertex 43 23 1
      vertex 40.7842 23.6007 1
      vertex 40.8 23.35 1
    endloop
  endfacet
  facet normal 0 0 1
    outer loop
      vertex 43 23 1
      vertex 40.8 23.35 1
      vertex 40.7842 23.0993 1
    endloop
  endfacet
  facet normal 0 0 1
    outer loop
      vertex 43 23 1
      vertex 40.7842 23.0993 1
      vertex 40.7372 22.8526 1
    endloop
  endfacet
  facet normal 0 0 1
    outer loop
      vertex 43 23 1
      vertex 40.7372 22.8526 1
      vertex 40.6595 22.6137 1
    endloop
  endfacet
  facet normal 0 0 1
    outer loop
      vertex 43 23 1
      vertex 40.6595 22.6137 1
      vertex 40.5526 22.3865 1
    endloop
  endfacet
  facet normal 0 0 1
    outer loop
      vertex 43 23 1
      vertex 40.5526 22.3865 1
      vertex 40.418 22.1744 1
    endloop
  endfacet
  facet normal 0 0 1
    outer loop
      vertex 43 23 1
      vertex 40.418 22.1744 1
      vertex 40.2579 21.9809 1
    endloop
  endfacet
  facet normal 0 0 1
    outer loop
      vertex 39.8716 21.6613 1
      vertex 43 23 1
      vertex 40.0748 21.809 1
    endloop
  endfacet
  facet normal 0 -0 1
    outer loop
      vertex 43 0 1
      vertex 43 23 1
      vertex 39.8716 21.6613 1
    endloop
  endfacet
  facet normal 0 0 1
    outer loop
      vertex 43 0 1
      vertex 39.8716 21.6613 1
      vertex 39.6516 21.5403 1
    endloop
  endfacet
  facet normal 0 0 1
    outer loop
      vertex 43 0 1
      vertex 39.6516 21.5403 1
      vertex 39.418 21.4479 1
    endloop
  endfacet
  facet normal 0 0 1
    outer loop
      vertex 43 0 1
      vertex 39.1748 21.3854 1
      vertex 38.9256 21.3539 1
    endloop
  endfacet
  facet normal 0 0 1
    outer loop
      vertex 43 0 1
      vertex 39.418 21.4479 1
      vertex 39.1748 21.3854 1
    endloop
  endfacet
  facet normal -0 0 1
    outer loop
      vertex 6.2 23.35 1
      vertex 21.4256 8.24605 1
      vertex 36.8 23.35 1
    endloop
  endfacet
  facet normal 0 0 1
    outer loop
      vertex 0 0 1
      vertex 43 0 1
      vertex 21.4256 4.25394 1
    endloop
  endfacet
  facet normal 0 0 1
    outer loop
      vertex 0 0 1
      vertex 21.4256 4.25394 1
      vertex 21.1744 4.25394 1
    endloop
  endfacet
  facet normal 0 0 1
    outer loop
      vertex 0 0 1
      vertex 21.1744 4.25394 1
      vertex 20.9252 4.28542 1
    endloop
  endfacet
  facet normal 0 0 1
    outer loop
      vertex 0 0 1
      vertex 20.9252 4.28542 1
      vertex 20.682 4.34789 1
    endloop
  endfacet
  facet normal 0 0 1
    outer loop
      vertex 0 0 1
      vertex 20.682 4.34789 1
      vertex 20.4484 4.44034 1
    endloop
  endfacet
  facet normal 0 0 1
    outer loop
      vertex 0 0 1
      vertex 20.4484 4.44034 1
      vertex 20.2283 4.56134 1
    endloop
  endfacet
  facet normal 0 0 1
    outer loop
      vertex 0 0 1
      vertex 20.2283 4.56134 1
      vertex 20.0251 4.70897 1
    endloop
  endfacet
  facet normal 0 0 1
    outer loop
      vertex 0 0 1
      vertex 19.8421 4.88091 1
      vertex 19.682 5.07442 1
    endloop
  endfacet
  facet normal 0 0 1
    outer loop
      vertex 0 0 1
      vertex 20.0251 4.70897 1
      vertex 19.8421 4.88091 1
    endloop
  endfacet
  facet normal 0 0 1
    outer loop
      vertex 19.3628 6.74738 1
      vertex 0 0 1
      vertex 19.3158 6.50066 1
    endloop
  endfacet
  facet normal 0 -0 1
    outer loop
      vertex 19.4404 6.98624 1
      vertex 19.5474 7.2135 1
      vertex 5.05154 21.5403 1
    endloop
  endfacet
  facet normal 0 0 1
    outer loop
      vertex 19.5474 7.2135 1
      vertex 5.27165 21.6613 1
      vertex 5.05154 21.5403 1
    endloop
  endfacet
  facet normal 0 0 1
    outer loop
      vertex 19.682 7.42557 1
      vertex 5.27165 21.6613 1
      vertex 19.5474 7.2135 1
    endloop
  endfacet
  facet normal 0 0 1
    outer loop
      vertex 5.47484 21.809 1
      vertex 5.27165 21.6613 1
      vertex 19.682 7.42557 1
    endloop
  endfacet
  facet normal 0 0 1
    outer loop
      vertex 5.47484 21.809 1
      vertex 19.682 7.42557 1
      vertex 19.8421 7.61908 1
    endloop
  endfacet
  facet normal -0 0 1
    outer loop
      vertex 5.47484 21.809 1
      vertex 19.8421 7.61908 1
      vertex 5.65793 21.9809 1
    endloop
  endfacet
  facet normal 0 -0 1
    outer loop
      vertex 19.8421 7.61908 1
      vertex 20.0251 7.79102 1
      vertex 5.65793 21.9809 1
    endloop
  endfacet
  facet normal 0 0 1
    outer loop
      vertex 20.0251 7.79102 1
      vertex 5.81802 22.1744 1
      vertex 5.65793 21.9809 1
    endloop
  endfacet
  facet normal 0 0 1
    outer loop
      vertex 6.13716 22.8526 1
      vertex 20.682 8.1521 1
      vertex 20.9252 8.21457 1
    endloop
  endfacet
  facet normal 0 0 1
    outer loop
      vertex 20.2283 7.93864 1
      vertex 5.81802 22.1744 1
      vertex 20.0251 7.79102 1
    endloop
  endfacet
  facet normal 0 0 1
    outer loop
      vertex 5.95261 22.3865 1
      vertex 20.2283 7.93864 1
      vertex 20.4484 8.05965 1
    endloop
  endfacet
  facet normal -0 0 1
    outer loop
      vertex 5.95261 22.3865 1
      vertex 20.4484 8.05965 1
      vertex 6.05954 22.6137 1
    endloop
  endfacet
  facet normal 0 -0 1
    outer loop
      vertex 20.4484 8.05965 1
      vertex 20.682 8.1521 1
      vertex 6.05954 22.6137 1
    endloop
  endfacet
  facet normal 0 0 1
    outer loop
      vertex 36.8628 22.8526 1
      vertex 21.6748 8.21457 1
      vertex 21.918 8.1521 1
    endloop
  endfacet
  facet normal 0 0 1
    outer loop
      vertex 36.8628 22.8526 1
      vertex 21.918 8.1521 1
      vertex 36.9404 22.6137 1
    endloop
  endfacet
  facet normal 0 0 1
    outer loop
      vertex 36.9404 22.6137 1
      vertex 22.1516 8.05965 1
      vertex 37.0474 22.3865 1
    endloop
  endfacet
  facet normal -0 0 1
    outer loop
      vertex 22.1516 8.05965 1
      vertex 22.3716 7.93864 1
      vertex 37.0474 22.3865 1
    endloop
  endfacet
  facet normal 0 0 1
    outer loop
      vertex 22.3716 7.93864 1
      vertex 37.182 22.1744 1
      vertex 37.0474 22.3865 1
    endloop
  endfacet
  facet normal 0 -0 1
    outer loop
      vertex 22.5748 7.79102 1
      vertex 37.182 22.1744 1
      vertex 22.3716 7.93864 1
    endloop
  endfacet
  facet normal 0 0 1
    outer loop
      vertex 37.3421 21.9809 1
      vertex 37.182 22.1744 1
      vertex 22.5748 7.79102 1
    endloop
  endfacet
  facet normal 0 0 1
    outer loop
      vertex 37.3421 21.9809 1
      vertex 22.5748 7.79102 1
      vertex 22.7579 7.61908 1
    endloop
  endfacet
  facet normal 0 0 1
    outer loop
      vertex 37.5251 21.809 1
      vertex 22.7579 7.61908 1
      vertex 22.918 7.42557 1
    endloop
  endfacet
  facet normal 0 0 1
    outer loop
      vertex 37.5251 21.809 1
      vertex 22.918 7.42557 1
      vertex 37.7283 21.6613 1
    endloop
  endfacet
  facet normal -0 0 1
    outer loop
      vertex 22.918 7.42557 1
      vertex 23.0526 7.2135 1
      vertex 37.7283 21.6613 1
    endloop
  endfacet
  facet normal 0 0 1
    outer loop
      vertex 23.0526 7.2135 1
      vertex 37.9484 21.5403 1
      vertex 37.7283 21.6613 1
    endloop
  endfacet
  facet normal 0 -0 1
    outer loop
      vertex 23.1595 6.98624 1
      vertex 37.9484 21.5403 1
      vertex 23.0526 7.2135 1
    endloop
  endfacet
  facet normal 0 0 1
    outer loop
      vertex 38.182 21.4479 1
      vertex 37.9484 21.5403 1
      vertex 23.1595 6.98624 1
    endloop
  endfacet
  facet normal 0 0 1
    outer loop
      vertex 38.182 21.4479 1
      vertex 23.1595 6.98624 1
      vertex 23.2372 6.74738 1
    endloop
  endfacet
  facet normal 0 0 1
    outer loop
      vertex 38.182 21.4479 1
      vertex 23.2372 6.74738 1
      vertex 43 0 1
    endloop
  endfacet
  facet normal 0 0 1
    outer loop
      vertex 23.2372 6.74738 1
      vertex 23.2842 6.50066 1
      vertex 43 0 1
    endloop
  endfacet
  facet normal 0 0 1
    outer loop
      vertex 23.2842 6.50066 1
      vertex 23.3 6.25 1
      vertex 43 0 1
    endloop
  endfacet
  facet normal 0 0 1
    outer loop
      vertex 23.3 6.25 1
      vertex 23.2842 5.99933 1
      vertex 43 0 1
    endloop
  endfacet
  facet normal 0 0 1
    outer loop
      vertex 23.2842 5.99933 1
      vertex 23.2372 5.75261 1
      vertex 43 0 1
    endloop
  endfacet
  facet normal 0 0 1
    outer loop
      vertex 23.2372 5.75261 1
      vertex 23.1595 5.51375 1
      vertex 43 0 1
    endloop
  endfacet
  facet normal 0 0 1
    outer loop
      vertex 23.1595 5.51375 1
      vertex 23.0526 5.28648 1
      vertex 43 0 1
    endloop
  endfacet
  facet normal 0 0 1
    outer loop
      vertex 23.0526 5.28648 1
      vertex 22.918 5.07442 1
      vertex 43 0 1
    endloop
  endfacet
  facet normal 0 0 1
    outer loop
      vertex 22.918 5.07442 1
      vertex 22.7579 4.88091 1
      vertex 43 0 1
    endloop
  endfacet
  facet normal 0 0 1
    outer loop
      vertex 22.7579 4.88091 1
      vertex 22.5748 4.70897 1
      vertex 43 0 1
    endloop
  endfacet
  facet normal 0 0 1
    outer loop
      vertex 22.5748 4.70897 1
      vertex 22.3716 4.56134 1
      vertex 43 0 1
    endloop
  endfacet
  facet normal 0 0 1
    outer loop
      vertex 22.3716 4.56134 1
      vertex 22.1516 4.44034 1
      vertex 43 0 1
    endloop
  endfacet
  facet normal 0 0 1
    outer loop
      vertex 22.1516 4.44034 1
      vertex 21.918 4.34789 1
      vertex 43 0 1
    endloop
  endfacet
  facet normal 0 0 1
    outer loop
      vertex 21.918 4.34789 1
      vertex 21.6748 4.28542 1
      vertex 43 0 1
    endloop
  endfacet
  facet normal 0 -1 0
    outer loop
      vertex 45 23 -1
      vertex 43 23 1
      vertex 43 23 -1
    endloop
  endfacet
  facet normal 0 -1 0
    outer loop
      vertex 45 23 -1
      vertex 45 23 1
      vertex 43 23 1
    endloop
  endfacet
  facet normal 1 0 0
    outer loop
      vertex 45 38 -1
      vertex 45 23 1
      vertex 45 23 -1
    endloop
  endfacet
  facet normal 1 0 -0
    outer loop
      vertex 45 38 -1
      vertex 45 38 1
      vertex 45 23 1
    endloop
  endfacet
  facet normal 0 1 0
    outer loop
      vertex -2 38 -1
      vertex 45 38 1
      vertex 45 38 -1
    endloop
  endfacet
  facet normal 0 1 0
    outer loop
      vertex -2 38 -1
      vertex -2 38 1
      vertex 45 38 1
    endloop
  endfacet
  facet normal -1 0 0
    outer loop
      vertex -2 23 -1
      vertex -2 38 1
      vertex -2 38 -1
    endloop
  endfacet
  facet normal -1 0 0
    outer loop
      vertex -2 23 -1
      vertex -2 23 1
      vertex -2 38 1
    endloop
  endfacet
  facet normal 0 -1 0
    outer loop
      vertex 0 23 -1
      vertex -2 23 1
      vertex -2 23 -1
    endloop
  endfacet
  facet normal 0 -1 0
    outer loop
      vertex 0 23 -1
      vertex 0 23 1
      vertex -2 23 1
    endloop
  endfacet
  facet normal -1 0 0
    outer loop
      vertex 0 0 -1
      vertex 0 23 1
      vertex 0 23 -1
    endloop
  endfacet
  facet normal -1 0 0
    outer loop
      vertex 0 0 -1
      vertex 0 0 1
      vertex 0 23 1
    endloop
  endfacet
  facet normal 0 -1 0
    outer loop
      vertex 43 0 -1
      vertex 0 0 1
      vertex 0 0 -1
    endloop
  endfacet
  facet normal 0 -1 0
    outer loop
      vertex 43 0 -1
      vertex 43 0 1
      vertex 0 0 1
    endloop
  endfacet
  facet normal 1 0 0
    outer loop
      vertex 43 23 -1
      vertex 43 0 1
      vertex 43 0 -1
    endloop
  endfacet
  facet normal 1 0 -0
    outer loop
      vertex 43 23 -1
      vertex 43 23 1
      vertex 43 0 1
    endloop
  endfacet
  facet normal 0.125412 0.992105 -0
    outer loop
      vertex 3.82523 21.3854 -1
      vertex 3.82523 21.3854 1
      vertex 4.07442 21.3539 -1
    endloop
  endfacet
  facet normal 0.125412 0.992105 0
    outer loop
      vertex 4.07442 21.3539 1
      vertex 4.07442 21.3539 -1
      vertex 3.82523 21.3854 1
    endloop
  endfacet
  facet normal 0.248826 0.968548 -0
    outer loop
      vertex 3.58195 21.4479 -1
      vertex 3.58195 21.4479 1
      vertex 3.82523 21.3854 -1
    endloop
  endfacet
  facet normal 0.248826 0.968548 0
    outer loop
      vertex 3.82523 21.3854 1
      vertex 3.82523 21.3854 -1
      vertex 3.58195 21.4479 1
    endloop
  endfacet
  facet normal 0.367928 0.929854 -0
    outer loop
      vertex 3.34843 21.5403 -1
      vertex 3.34843 21.5403 1
      vertex 3.58195 21.4479 -1
    endloop
  endfacet
  facet normal 0.367928 0.929854 0
    outer loop
      vertex 3.58195 21.4479 1
      vertex 3.58195 21.4479 -1
      vertex 3.34843 21.5403 1
    endloop
  endfacet
  facet normal 0.481767 0.876299 -0
    outer loop
      vertex 3.12834 21.6613 -1
      vertex 3.12834 21.6613 1
      vertex 3.34843 21.5403 -1
    endloop
  endfacet
  facet normal 0.481767 0.876299 0
    outer loop
      vertex 3.34843 21.5403 1
      vertex 3.34843 21.5403 -1
      vertex 3.12834 21.6613 1
    endloop
  endfacet
  facet normal 0.587959 0.808891 -0
    outer loop
      vertex 2.92514 21.809 -1
      vertex 2.92514 21.809 1
      vertex 3.12834 21.6613 -1
    endloop
  endfacet
  facet normal 0.587959 0.808891 0
    outer loop
      vertex 3.12834 21.6613 1
      vertex 3.12834 21.6613 -1
      vertex 2.92514 21.809 1
    endloop
  endfacet
  facet normal 0.684477 0.729034 -0
    outer loop
      vertex 2.74205 21.9809 -1
      vertex 2.74205 21.9809 1
      vertex 2.92514 21.809 -1
    endloop
  endfacet
  facet normal 0.684477 0.729034 0
    outer loop
      vertex 2.92514 21.809 1
      vertex 2.92514 21.809 -1
      vertex 2.74205 21.9809 1
    endloop
  endfacet
  facet normal 0.770468 0.637478 -0
    outer loop
      vertex 2.58195 22.1744 -1
      vertex 2.58195 22.1744 1
      vertex 2.74205 21.9809 -1
    endloop
  endfacet
  facet normal 0.770468 0.637478 0
    outer loop
      vertex 2.74205 21.9809 1
      vertex 2.74205 21.9809 -1
      vertex 2.58195 22.1744 1
    endloop
  endfacet
  facet normal 0.844369 0.535762 -0
    outer loop
      vertex 2.44737 22.3865 -1
      vertex 2.44737 22.3865 1
      vertex 2.58195 22.1744 -1
    endloop
  endfacet
  facet normal 0.844369 0.535762 0
    outer loop
      vertex 2.58195 22.1744 1
      vertex 2.58195 22.1744 -1
      vertex 2.44737 22.3865 1
    endloop
  endfacet
  facet normal 0.9048 0.425837 -0
    outer loop
      vertex 2.34044 22.6137 -1
      vertex 2.34044 22.6137 1
      vertex 2.44737 22.3865 -1
    endloop
  endfacet
  facet normal 0.9048 0.425837 0
    outer loop
      vertex 2.44737 22.3865 1
      vertex 2.44737 22.3865 -1
      vertex 2.34044 22.6137 1
    endloop
  endfacet
  facet normal 0.951072 0.308969 -0
    outer loop
      vertex 2.26283 22.8526 -1
      vertex 2.26283 22.8526 1
      vertex 2.34044 22.6137 -1
    endloop
  endfacet
  facet normal 0.951072 0.308969 0
    outer loop
      vertex 2.34044 22.6137 1
      vertex 2.34044 22.6137 -1
      vertex 2.26283 22.8526 1
    endloop
  endfacet
  facet normal 0.98228 0.187418 -0
    outer loop
      vertex 2.21576 23.0993 -1
      vertex 2.21576 23.0993 1
      vertex 2.26283 22.8526 -1
    endloop
  endfacet
  facet normal 0.98228 0.187418 0
    outer loop
      vertex 2.26283 22.8526 1
      vertex 2.26283 22.8526 -1
      vertex 2.21576 23.0993 1
    endloop
  endfacet
  facet normal 0.99803 0.0627401 -0
    outer loop
      vertex 2.2 23.35 -1
      vertex 2.2 23.35 1
      vertex 2.21576 23.0993 -1
    endloop
  endfacet
  facet normal 0.99803 0.0627401 0
    outer loop
      vertex 2.21576 23.0993 1
      vertex 2.21576 23.0993 -1
      vertex 2.2 23.35 1
    endloop
  endfacet
  facet normal 0.99803 -0.0627401 0
    outer loop
      vertex 2.21576 23.6007 -1
      vertex 2.21576 23.6007 1
      vertex 2.2 23.35 -1
    endloop
  endfacet
  facet normal 0.99803 -0.0627401 0
    outer loop
      vertex 2.2 23.35 1
      vertex 2.2 23.35 -1
      vertex 2.21576 23.6007 1
    endloop
  endfacet
  facet normal 0.98228 -0.187418 0
    outer loop
      vertex 2.26283 23.8474 -1
      vertex 2.26283 23.8474 1
      vertex 2.21576 23.6007 -1
    endloop
  endfacet
  facet normal 0.98228 -0.187418 0
    outer loop
      vertex 2.21576 23.6007 1
      vertex 2.21576 23.6007 -1
      vertex 2.26283 23.8474 1
    endloop
  endfacet
  facet normal 0.951034 -0.309086 0
    outer loop
      vertex 2.34044 24.0862 -1
      vertex 2.34044 24.0862 1
      vertex 2.26283 23.8474 -1
    endloop
  endfacet
  facet normal 0.951034 -0.309086 0
    outer loop
      vertex 2.26283 23.8474 1
      vertex 2.26283 23.8474 -1
      vertex 2.34044 24.0862 1
    endloop
  endfacet
  facet normal 0.904872 -0.425684 0
    outer loop
      vertex 2.44737 24.3135 -1
      vertex 2.44737 24.3135 1
      vertex 2.34044 24.0862 -1
    endloop
  endfacet
  facet normal 0.904872 -0.425684 0
    outer loop
      vertex 2.34044 24.0862 1
      vertex 2.34044 24.0862 -1
      vertex 2.44737 24.3135 1
    endloop
  endfacet
  facet normal 0.844369 -0.535762 0
    outer loop
      vertex 2.58195 24.5256 -1
      vertex 2.58195 24.5256 1
      vertex 2.44737 24.3135 -1
    endloop
  endfacet
  facet normal 0.844369 -0.535762 0
    outer loop
      vertex 2.44737 24.3135 1
      vertex 2.44737 24.3135 -1
      vertex 2.58195 24.5256 1
    endloop
  endfacet
  facet normal 0.770468 -0.637478 0
    outer loop
      vertex 2.74205 24.7191 -1
      vertex 2.74205 24.7191 1
      vertex 2.58195 24.5256 -1
    endloop
  endfacet
  facet normal 0.770468 -0.637478 0
    outer loop
      vertex 2.58195 24.5256 1
      vertex 2.58195 24.5256 -1
      vertex 2.74205 24.7191 1
    endloop
  endfacet
  facet normal 0.684477 -0.729034 0
    outer loop
      vertex 2.92514 24.891 -1
      vertex 2.92514 24.891 1
      vertex 2.74205 24.7191 -1
    endloop
  endfacet
  facet normal 0.684477 -0.729034 0
    outer loop
      vertex 2.74205 24.7191 1
      vertex 2.74205 24.7191 -1
      vertex 2.92514 24.891 1
    endloop
  endfacet
  facet normal 0.587959 -0.808891 0
    outer loop
      vertex 3.12834 25.0387 -1
      vertex 3.12834 25.0387 1
      vertex 2.92514 24.891 -1
    endloop
  endfacet
  facet normal 0.587959 -0.808891 0
    outer loop
      vertex 2.92514 24.891 1
      vertex 2.92514 24.891 -1
      vertex 3.12834 25.0387 1
    endloop
  endfacet
  facet normal 0.481767 -0.876299 0
    outer loop
      vertex 3.34843 25.1597 -1
      vertex 3.34843 25.1597 1
      vertex 3.12834 25.0387 -1
    endloop
  endfacet
  facet normal 0.481767 -0.876299 0
    outer loop
      vertex 3.12834 25.0387 1
      vertex 3.12834 25.0387 -1
      vertex 3.34843 25.1597 1
    endloop
  endfacet
  facet normal 0.367928 -0.929854 0
    outer loop
      vertex 3.58195 25.2521 -1
      vertex 3.58195 25.2521 1
      vertex 3.34843 25.1597 -1
    endloop
  endfacet
  facet normal 0.367928 -0.929854 0
    outer loop
      vertex 3.34843 25.1597 1
      vertex 3.34843 25.1597 -1
      vertex 3.58195 25.2521 1
    endloop
  endfacet
  facet normal 0.248826 -0.968548 0
    outer loop
      vertex 3.82523 25.3146 -1
      vertex 3.82523 25.3146 1
      vertex 3.58195 25.2521 -1
    endloop
  endfacet
  facet normal 0.248826 -0.968548 0
    outer loop
      vertex 3.58195 25.2521 1
      vertex 3.58195 25.2521 -1
      vertex 3.82523 25.3146 1
    endloop
  endfacet
  facet normal 0.12502 -0.992154 0
    outer loop
      vertex 4.07442 25.346 -1
      vertex 4.07442 25.346 1
      vertex 3.82523 25.3146 -1
    endloop
  endfacet
  facet normal 0.12502 -0.992154 0
    outer loop
      vertex 3.82523 25.3146 1
      vertex 3.82523 25.3146 -1
      vertex 4.07442 25.346 1
    endloop
  endfacet
  facet normal 0 -1 0
    outer loop
      vertex 4.32558 25.346 -1
      vertex 4.32558 25.346 1
      vertex 4.07442 25.346 -1
    endloop
  endfacet
  facet normal 0 -1 0
    outer loop
      vertex 4.07442 25.346 1
      vertex 4.07442 25.346 -1
      vertex 4.32558 25.346 1
    endloop
  endfacet
  facet normal -0.12503 -0.992153 0
    outer loop
      vertex 4.57475 25.3146 -1
      vertex 4.57475 25.3146 1
      vertex 4.32558 25.346 -1
    endloop
  endfacet
  facet normal -0.12503 -0.992153 -0
    outer loop
      vertex 4.32558 25.346 1
      vertex 4.32558 25.346 -1
      vertex 4.57475 25.3146 1
    endloop
  endfacet
  facet normal -0.248835 -0.968546 0
    outer loop
      vertex 4.81802 25.2521 -1
      vertex 4.81802 25.2521 1
      vertex 4.57475 25.3146 -1
    endloop
  endfacet
  facet normal -0.248835 -0.968546 -0
    outer loop
      vertex 4.57475 25.3146 1
      vertex 4.57475 25.3146 -1
      vertex 4.81802 25.2521 1
    endloop
  endfacet
  facet normal -0.367928 -0.929854 0
    outer loop
      vertex 5.05154 25.1597 -1
      vertex 5.05154 25.1597 1
      vertex 4.81802 25.2521 -1
    endloop
  endfacet
  facet normal -0.367928 -0.929854 -0
    outer loop
      vertex 4.81802 25.2521 1
      vertex 4.81802 25.2521 -1
      vertex 5.05154 25.1597 1
    endloop
  endfacet
  facet normal -0.481734 -0.876318 0
    outer loop
      vertex 5.27165 25.0387 -1
      vertex 5.27165 25.0387 1
      vertex 5.05154 25.1597 -1
    endloop
  endfacet
  facet normal -0.481734 -0.876318 -0
    outer loop
      vertex 5.05154 25.1597 1
      vertex 5.05154 25.1597 -1
      vertex 5.27165 25.0387 1
    endloop
  endfacet
  facet normal -0.587978 -0.808877 0
    outer loop
      vertex 5.47484 24.891 -1
      vertex 5.47484 24.891 1
      vertex 5.27165 25.0387 -1
    endloop
  endfacet
  facet normal -0.587978 -0.808877 -0
    outer loop
      vertex 5.27165 25.0387 1
      vertex 5.27165 25.0387 -1
      vertex 5.47484 24.891 1
    endloop
  endfacet
  facet normal -0.684477 -0.729034 0
    outer loop
      vertex 5.65793 24.7191 -1
      vertex 5.65793 24.7191 1
      vertex 5.47484 24.891 -1
    endloop
  endfacet
  facet normal -0.684477 -0.729034 -0
    outer loop
      vertex 5.47484 24.891 1
      vertex 5.47484 24.891 -1
      vertex 5.65793 24.7191 1
    endloop
  endfacet
  facet normal -0.770488 -0.637454 0
    outer loop
      vertex 5.81802 24.5256 -1
      vertex 5.81802 24.5256 1
      vertex 5.65793 24.7191 -1
    endloop
  endfacet
  facet normal -0.770488 -0.637454 -0
    outer loop
      vertex 5.65793 24.7191 1
      vertex 5.65793 24.7191 -1
      vertex 5.81802 24.5256 1
    endloop
  endfacet
  facet normal -0.844351 -0.535791 0
    outer loop
      vertex 5.95261 24.3135 -1
      vertex 5.95261 24.3135 1
      vertex 5.81802 24.5256 -1
    endloop
  endfacet
  facet normal -0.844351 -0.535791 -0
    outer loop
      vertex 5.81802 24.5256 1
      vertex 5.81802 24.5256 -1
      vertex 5.95261 24.3135 1
    endloop
  endfacet
  facet normal -0.904872 -0.425684 0
    outer loop
      vertex 6.05954 24.0862 -1
      vertex 6.05954 24.0862 1
      vertex 5.95261 24.3135 -1
    endloop
  endfacet
  facet normal -0.904872 -0.425684 -0
    outer loop
      vertex 5.95261 24.3135 1
      vertex 5.95261 24.3135 -1
      vertex 6.05954 24.0862 1
    endloop
  endfacet
  facet normal -0.951022 -0.309122 0
    outer loop
      vertex 6.13716 23.8474 -1
      vertex 6.13716 23.8474 1
      vertex 6.05954 24.0862 -1
    endloop
  endfacet
  facet normal -0.951022 -0.309122 -0
    outer loop
      vertex 6.05954 24.0862 1
      vertex 6.05954 24.0862 -1
      vertex 6.13716 23.8474 1
    endloop
  endfacet
  facet normal -0.982288 -0.187379 0
    outer loop
      vertex 6.18422 23.6007 -1
      vertex 6.18422 23.6007 1
      vertex 6.13716 23.8474 -1
    endloop
  endfacet
  facet normal -0.982288 -0.187379 -0
    outer loop
      vertex 6.13716 23.8474 1
      vertex 6.13716 23.8474 -1
      vertex 6.18422 23.6007 1
    endloop
  endfacet
  facet normal -0.998025 -0.0628194 0
    outer loop
      vertex 6.2 23.35 -1
      vertex 6.2 23.35 1
      vertex 6.18422 23.6007 -1
    endloop
  endfacet
  facet normal -0.998025 -0.0628194 -0
    outer loop
      vertex 6.18422 23.6007 1
      vertex 6.18422 23.6007 -1
      vertex 6.2 23.35 1
    endloop
  endfacet
  facet normal -0.998025 0.0628194 0
    outer loop
      vertex 6.18422 23.0993 -1
      vertex 6.18422 23.0993 1
      vertex 6.2 23.35 -1
    endloop
  endfacet
  facet normal -0.998025 0.0628194 0
    outer loop
      vertex 6.2 23.35 1
      vertex 6.2 23.35 -1
      vertex 6.18422 23.0993 1
    endloop
  endfacet
  facet normal -0.982288 0.187379 0
    outer loop
      vertex 6.13716 22.8526 -1
      vertex 6.13716 22.8526 1
      vertex 6.18422 23.0993 -1
    endloop
  endfacet
  facet normal -0.982288 0.187379 0
    outer loop
      vertex 6.18422 23.0993 1
      vertex 6.18422 23.0993 -1
      vertex 6.13716 22.8526 1
    endloop
  endfacet
  facet normal -0.95106 0.309005 0
    outer loop
      vertex 6.05954 22.6137 -1
      vertex 6.05954 22.6137 1
      vertex 6.13716 22.8526 -1
    endloop
  endfacet
  facet normal -0.95106 0.309005 0
    outer loop
      vertex 6.13716 22.8526 1
      vertex 6.13716 22.8526 -1
      vertex 6.05954 22.6137 1
    endloop
  endfacet
  facet normal -0.9048 0.425837 0
    outer loop
      vertex 5.95261 22.3865 -1
      vertex 5.95261 22.3865 1
      vertex 6.05954 22.6137 -1
    endloop
  endfacet
  facet normal -0.9048 0.425837 0
    outer loop
      vertex 6.05954 22.6137 1
      vertex 6.05954 22.6137 -1
      vertex 5.95261 22.3865 1
    endloop
  endfacet
  facet normal -0.844351 0.535791 0
    outer loop
      vertex 5.81802 22.1744 -1
      vertex 5.81802 22.1744 1
      vertex 5.95261 22.3865 -1
    endloop
  endfacet
  facet normal -0.844351 0.535791 0
    outer loop
      vertex 5.95261 22.3865 1
      vertex 5.95261 22.3865 -1
      vertex 5.81802 22.1744 1
    endloop
  endfacet
  facet normal -0.770488 0.637454 0
    outer loop
      vertex 5.65793 21.9809 -1
      vertex 5.65793 21.9809 1
      vertex 5.81802 22.1744 -1
    endloop
  endfacet
  facet normal -0.770488 0.637454 0
    outer loop
      vertex 5.81802 22.1744 1
      vertex 5.81802 22.1744 -1
      vertex 5.65793 21.9809 1
    endloop
  endfacet
  facet normal -0.684477 0.729034 0
    outer loop
      vertex 5.47484 21.809 -1
      vertex 5.47484 21.809 1
      vertex 5.65793 21.9809 -1
    endloop
  endfacet
  facet normal -0.684477 0.729034 0
    outer loop
      vertex 5.65793 21.9809 1
      vertex 5.65793 21.9809 -1
      vertex 5.47484 21.809 1
    endloop
  endfacet
  facet normal -0.587978 0.808877 0
    outer loop
      vertex 5.27165 21.6613 -1
      vertex 5.27165 21.6613 1
      vertex 5.47484 21.809 -1
    endloop
  endfacet
  facet normal -0.587978 0.808877 0
    outer loop
      vertex 5.47484 21.809 1
      vertex 5.47484 21.809 -1
      vertex 5.27165 21.6613 1
    endloop
  endfacet
  facet normal -0.481734 0.876318 0
    outer loop
      vertex 5.05154 21.5403 -1
      vertex 5.05154 21.5403 1
      vertex 5.27165 21.6613 -1
    endloop
  endfacet
  facet normal -0.481734 0.876318 0
    outer loop
      vertex 5.27165 21.6613 1
      vertex 5.27165 21.6613 -1
      vertex 5.05154 21.5403 1
    endloop
  endfacet
  facet normal -0.367928 0.929854 0
    outer loop
      vertex 4.81802 21.4479 -1
      vertex 4.81802 21.4479 1
      vertex 5.05154 21.5403 -1
    endloop
  endfacet
  facet normal -0.367928 0.929854 0
    outer loop
      vertex 5.05154 21.5403 1
      vertex 5.05154 21.5403 -1
      vertex 4.81802 21.4479 1
    endloop
  endfacet
  facet normal -0.248835 0.968546 0
    outer loop
      vertex 4.57475 21.3854 -1
      vertex 4.57475 21.3854 1
      vertex 4.81802 21.4479 -1
    endloop
  endfacet
  facet normal -0.248835 0.968546 0
    outer loop
      vertex 4.81802 21.4479 1
      vertex 4.81802 21.4479 -1
      vertex 4.57475 21.3854 1
    endloop
  endfacet
  facet normal -0.125421 0.992104 0
    outer loop
      vertex 4.32558 21.3539 -1
      vertex 4.32558 21.3539 1
      vertex 4.57475 21.3854 -1
    endloop
  endfacet
  facet normal -0.125421 0.992104 0
    outer loop
      vertex 4.57475 21.3854 1
      vertex 4.57475 21.3854 -1
      vertex 4.32558 21.3539 1
    endloop
  endfacet
  facet normal 0 1 0
    outer loop
      vertex 4.07442 21.3539 -1
      vertex 4.07442 21.3539 1
      vertex 4.32558 21.3539 -1
    endloop
  endfacet
  facet normal 0 1 0
    outer loop
      vertex 4.32558 21.3539 1
      vertex 4.32558 21.3539 -1
      vertex 4.07442 21.3539 1
    endloop
  endfacet
  facet normal 0.125407 0.992105 -0
    outer loop
      vertex 38.4252 21.3854 -1
      vertex 38.4252 21.3854 1
      vertex 38.6744 21.3539 -1
    endloop
  endfacet
  facet normal 0.125407 0.992105 0
    outer loop
      vertex 38.6744 21.3539 1
      vertex 38.6744 21.3539 -1
      vertex 38.4252 21.3854 1
    endloop
  endfacet
  facet normal 0.248902 0.968529 -0
    outer loop
      vertex 38.182 21.4479 -1
      vertex 38.182 21.4479 1
      vertex 38.4252 21.3854 -1
    endloop
  endfacet
  facet normal 0.248902 0.968529 0
    outer loop
      vertex 38.4252 21.3854 1
      vertex 38.4252 21.3854 -1
      vertex 38.182 21.4479 1
    endloop
  endfacet
  facet normal 0.367819 0.929897 -0
    outer loop
      vertex 37.9484 21.5403 -1
      vertex 37.9484 21.5403 1
      vertex 38.182 21.4479 -1
    endloop
  endfacet
  facet normal 0.367819 0.929897 0
    outer loop
      vertex 38.182 21.4479 1
      vertex 38.182 21.4479 -1
      vertex 37.9484 21.5403 1
    endloop
  endfacet
  facet normal 0.481751 0.876308 -0
    outer loop
      vertex 37.7283 21.6613 -1
      vertex 37.7283 21.6613 1
      vertex 37.9484 21.5403 -1
    endloop
  endfacet
  facet normal 0.481751 0.876308 0
    outer loop
      vertex 37.9484 21.5403 1
      vertex 37.9484 21.5403 -1
      vertex 37.7283 21.6613 1
    endloop
  endfacet
  facet normal 0.587959 0.808891 -0
    outer loop
      vertex 37.5251 21.809 -1
      vertex 37.5251 21.809 1
      vertex 37.7283 21.6613 -1
    endloop
  endfacet
  facet normal 0.587959 0.808891 0
    outer loop
      vertex 37.7283 21.6613 1
      vertex 37.7283 21.6613 -1
      vertex 37.5251 21.809 1
    endloop
  endfacet
  facet normal 0.684656 0.728866 -0
    outer loop
      vertex 37.3421 21.9809 -1
      vertex 37.3421 21.9809 1
      vertex 37.5251 21.809 -1
    endloop
  endfacet
  facet normal 0.684656 0.728866 0
    outer loop
      vertex 37.5251 21.809 1
      vertex 37.5251 21.809 -1
      vertex 37.3421 21.9809 1
    endloop
  endfacet
  facet normal 0.770468 0.637478 -0
    outer loop
      vertex 37.182 22.1744 -1
      vertex 37.182 22.1744 1
      vertex 37.3421 21.9809 -1
    endloop
  endfacet
  facet normal 0.770468 0.637478 0
    outer loop
      vertex 37.3421 21.9809 1
      vertex 37.3421 21.9809 -1
      vertex 37.182 22.1744 1
    endloop
  endfacet
  facet normal 0.844333 0.535819 -0
    outer loop
      vertex 37.0474 22.3865 -1
      vertex 37.0474 22.3865 1
      vertex 37.182 22.1744 -1
    endloop
  endfacet
  facet normal 0.844333 0.535819 0
    outer loop
      vertex 37.182 22.1744 1
      vertex 37.182 22.1744 -1
      vertex 37.0474 22.3865 1
    endloop
  endfacet
  facet normal 0.904692 0.426065 -0
    outer loop
      vertex 36.9404 22.6137 -1
      vertex 36.9404 22.6137 1
      vertex 37.0474 22.3865 -1
    endloop
  endfacet
  facet normal 0.904692 0.426065 0
    outer loop
      vertex 37.0474 22.3865 1
      vertex 37.0474 22.3865 -1
      vertex 36.9404 22.6137 1
    endloop
  endfacet
  facet normal 0.951084 0.308933 -0
    outer loop
      vertex 36.8628 22.8526 -1
      vertex 36.8628 22.8526 1
      vertex 36.9404 22.6137 -1
    endloop
  endfacet
  facet normal 0.951084 0.308933 0
    outer loop
      vertex 36.9404 22.6137 1
      vertex 36.9404 22.6137 -1
      vertex 36.8628 22.8526 1
    endloop
  endfacet
  facet normal 0.982332 0.187149 -0
    outer loop
      vertex 36.8158 23.0993 -1
      vertex 36.8158 23.0993 1
      vertex 36.8628 22.8526 -1
    endloop
  endfacet
  facet normal 0.982332 0.187149 0
    outer loop
      vertex 36.8628 22.8526 1
      vertex 36.8628 22.8526 -1
      vertex 36.8158 23.0993 1
    endloop
  endfacet
  facet normal 0.99802 0.0628987 -0
    outer loop
      vertex 36.8 23.35 -1
      vertex 36.8 23.35 1
      vertex 36.8158 23.0993 -1
    endloop
  endfacet
  facet normal 0.99802 0.0628987 0
    outer loop
      vertex 36.8158 23.0993 1
      vertex 36.8158 23.0993 -1
      vertex 36.8 23.35 1
    endloop
  endfacet
  facet normal 0.99802 -0.0628987 0
    outer loop
      vertex 36.8158 23.6007 -1
      vertex 36.8158 23.6007 1
      vertex 36.8 23.35 -1
    endloop
  endfacet
  facet normal 0.99802 -0.0628987 0
    outer loop
      vertex 36.8 23.35 1
      vertex 36.8 23.35 -1
      vertex 36.8158 23.6007 1
    endloop
  endfacet
  facet normal 0.982332 -0.187149 0
    outer loop
      vertex 36.8628 23.8474 -1
      vertex 36.8628 23.8474 1
      vertex 36.8158 23.6007 -1
    endloop
  endfacet
  facet normal 0.982332 -0.187149 0
    outer loop
      vertex 36.8158 23.6007 1
      vertex 36.8158 23.6007 -1
      vertex 36.8628 23.8474 1
    endloop
  endfacet
  facet normal 0.951046 -0.30905 0
    outer loop
      vertex 36.9404 24.0862 -1
      vertex 36.9404 24.0862 1
      vertex 36.8628 23.8474 -1
    endloop
  endfacet
  facet normal 0.951046 -0.30905 0
    outer loop
      vertex 36.8628 23.8474 1
      vertex 36.8628 23.8474 -1
      vertex 36.9404 24.0862 1
    endloop
  endfacet
  facet normal 0.904765 -0.425912 0
    outer loop
      vertex 37.0474 24.3135 -1
      vertex 37.0474 24.3135 1
      vertex 36.9404 24.0862 -1
    endloop
  endfacet
  facet normal 0.904765 -0.425912 0
    outer loop
      vertex 36.9404 24.0862 1
      vertex 36.9404 24.0862 -1
      vertex 37.0474 24.3135 1
    endloop
  endfacet
  facet normal 0.844333 -0.535819 0
    outer loop
      vertex 37.182 24.5256 -1
      vertex 37.182 24.5256 1
      vertex 37.0474 24.3135 -1
    endloop
  endfacet
  facet normal 0.844333 -0.535819 0
    outer loop
      vertex 37.0474 24.3135 1
      vertex 37.0474 24.3135 -1
      vertex 37.182 24.5256 1
    endloop
  endfacet
  facet normal 0.770468 -0.637478 0
    outer loop
      vertex 37.3421 24.7191 -1
      vertex 37.3421 24.7191 1
      vertex 37.182 24.5256 -1
    endloop
  endfacet
  facet normal 0.770468 -0.637478 0
    outer loop
      vertex 37.182 24.5256 1
      vertex 37.182 24.5256 -1
      vertex 37.3421 24.7191 1
    endloop
  endfacet
  facet normal 0.684656 -0.728866 0
    outer loop
      vertex 37.5251 24.891 -1
      vertex 37.5251 24.891 1
      vertex 37.3421 24.7191 -1
    endloop
  endfacet
  facet normal 0.684656 -0.728866 0
    outer loop
      vertex 37.3421 24.7191 1
      vertex 37.3421 24.7191 -1
      vertex 37.5251 24.891 1
    endloop
  endfacet
  facet normal 0.587959 -0.808891 0
    outer loop
      vertex 37.7283 25.0387 -1
      vertex 37.7283 25.0387 1
      vertex 37.5251 24.891 -1
    endloop
  endfacet
  facet normal 0.587959 -0.808891 0
    outer loop
      vertex 37.5251 24.891 1
      vertex 37.5251 24.891 -1
      vertex 37.7283 25.0387 1
    endloop
  endfacet
  facet normal 0.481751 -0.876308 0
    outer loop
      vertex 37.9484 25.1597 -1
      vertex 37.9484 25.1597 1
      vertex 37.7283 25.0387 -1
    endloop
  endfacet
  facet normal 0.481751 -0.876308 0
    outer loop
      vertex 37.7283 25.0387 1
      vertex 37.7283 25.0387 -1
      vertex 37.9484 25.1597 1
    endloop
  endfacet
  facet normal 0.367819 -0.929897 0
    outer loop
      vertex 38.182 25.2521 -1
      vertex 38.182 25.2521 1
      vertex 37.9484 25.1597 -1
    endloop
  endfacet
  facet normal 0.367819 -0.929897 0
    outer loop
      vertex 37.9484 25.1597 1
      vertex 37.9484 25.1597 -1
      vertex 38.182 25.2521 1
    endloop
  endfacet
  facet normal 0.248902 -0.968529 0
    outer loop
      vertex 38.4252 25.3146 -1
      vertex 38.4252 25.3146 1
      vertex 38.182 25.2521 -1
    endloop
  endfacet
  facet normal 0.248902 -0.968529 0
    outer loop
      vertex 38.182 25.2521 1
      vertex 38.182 25.2521 -1
      vertex 38.4252 25.3146 1
    endloop
  endfacet
  facet normal 0.125015 -0.992155 0
    outer loop
      vertex 38.6744 25.346 -1
      vertex 38.6744 25.346 1
      vertex 38.4252 25.3146 -1
    endloop
  endfacet
  facet normal 0.125015 -0.992155 0
    outer loop
      vertex 38.4252 25.3146 1
      vertex 38.4252 25.3146 -1
      vertex 38.6744 25.346 1
    endloop
  endfacet
  facet normal 0 -1 0
    outer loop
      vertex 38.9256 25.346 -1
      vertex 38.9256 25.346 1
      vertex 38.6744 25.346 -1
    endloop
  endfacet
  facet normal 0 -1 0
    outer loop
      vertex 38.6744 25.346 1
      vertex 38.6744 25.346 -1
      vertex 38.9256 25.346 1
    endloop
  endfacet
  facet normal -0.125015 -0.992155 0
    outer loop
      vertex 39.1748 25.3146 -1
      vertex 39.1748 25.3146 1
      vertex 38.9256 25.346 -1
    endloop
  endfacet
  facet normal -0.125015 -0.992155 -0
    outer loop
      vertex 38.9256 25.346 1
      vertex 38.9256 25.346 -1
      vertex 39.1748 25.3146 1
    endloop
  endfacet
  facet normal -0.248902 -0.968529 0
    outer loop
      vertex 39.418 25.2521 -1
      vertex 39.418 25.2521 1
      vertex 39.1748 25.3146 -1
    endloop
  endfacet
  facet normal -0.248902 -0.968529 -0
    outer loop
      vertex 39.1748 25.3146 1
      vertex 39.1748 25.3146 -1
      vertex 39.418 25.2521 1
    endloop
  endfacet
  facet normal -0.367819 -0.929897 0
    outer loop
      vertex 39.6516 25.1597 -1
      vertex 39.6516 25.1597 1
      vertex 39.418 25.2521 -1
    endloop
  endfacet
  facet normal -0.367819 -0.929897 -0
    outer loop
      vertex 39.418 25.2521 1
      vertex 39.418 25.2521 -1
      vertex 39.6516 25.1597 1
    endloop
  endfacet
  facet normal -0.481919 -0.876216 0
    outer loop
      vertex 39.8716 25.0387 -1
      vertex 39.8716 25.0387 1
      vertex 39.6516 25.1597 -1
    endloop
  endfacet
  facet normal -0.481919 -0.876216 -0
    outer loop
      vertex 39.6516 25.1597 1
      vertex 39.6516 25.1597 -1
      vertex 39.8716 25.0387 1
    endloop
  endfacet
  facet normal -0.587959 -0.808891 0
    outer loop
      vertex 40.0748 24.891 -1
      vertex 40.0748 24.891 1
      vertex 39.8716 25.0387 -1
    endloop
  endfacet
  facet normal -0.587959 -0.808891 -0
    outer loop
      vertex 39.8716 25.0387 1
      vertex 39.8716 25.0387 -1
      vertex 40.0748 24.891 1
    endloop
  endfacet
  facet normal -0.684458 -0.729053 0
    outer loop
      vertex 40.2579 24.7191 -1
      vertex 40.2579 24.7191 1
      vertex 40.0748 24.891 -1
    endloop
  endfacet
  facet normal -0.684458 -0.729053 -0
    outer loop
      vertex 40.0748 24.891 1
      vertex 40.0748 24.891 -1
      vertex 40.2579 24.7191 1
    endloop
  endfacet
  facet normal -0.770468 -0.637478 0
    outer loop
      vertex 40.418 24.5256 -1
      vertex 40.418 24.5256 1
      vertex 40.2579 24.7191 -1
    endloop
  endfacet
  facet normal -0.770468 -0.637478 -0
    outer loop
      vertex 40.2579 24.7191 1
      vertex 40.2579 24.7191 -1
      vertex 40.418 24.5256 1
    endloop
  endfacet
  facet normal -0.844333 -0.535819 0
    outer loop
      vertex 40.5526 24.3135 -1
      vertex 40.5526 24.3135 1
      vertex 40.418 24.5256 -1
    endloop
  endfacet
  facet normal -0.844333 -0.535819 -0
    outer loop
      vertex 40.418 24.5256 1
      vertex 40.418 24.5256 -1
      vertex 40.5526 24.3135 1
    endloop
  endfacet
  facet normal -0.904918 -0.425586 0
    outer loop
      vertex 40.6595 24.0862 -1
      vertex 40.6595 24.0862 1
      vertex 40.5526 24.3135 -1
    endloop
  endfacet
  facet normal -0.904918 -0.425586 -0
    outer loop
      vertex 40.5526 24.3135 1
      vertex 40.5526 24.3135 -1
      vertex 40.6595 24.0862 1
    endloop
  endfacet
  facet normal -0.950929 -0.30941 0
    outer loop
      vertex 40.7372 23.8474 -1
      vertex 40.7372 23.8474 1
      vertex 40.6595 24.0862 -1
    endloop
  endfacet
  facet normal -0.950929 -0.30941 -0
    outer loop
      vertex 40.6595 24.0862 1
      vertex 40.6595 24.0862 -1
      vertex 40.7372 23.8474 1
    endloop
  endfacet
  facet normal -0.982332 -0.187149 0
    outer loop
      vertex 40.7842 23.6007 -1
      vertex 40.7842 23.6007 1
      vertex 40.7372 23.8474 -1
    endloop
  endfacet
  facet normal -0.982332 -0.187149 -0
    outer loop
      vertex 40.7372 23.8474 1
      vertex 40.7372 23.8474 -1
      vertex 40.7842 23.6007 1
    endloop
  endfacet
  facet normal -0.99802 -0.0628987 0
    outer loop
      vertex 40.8 23.35 -1
      vertex 40.8 23.35 1
      vertex 40.7842 23.6007 -1
    endloop
  endfacet
  facet normal -0.99802 -0.0628987 -0
    outer loop
      vertex 40.7842 23.6007 1
      vertex 40.7842 23.6007 -1
      vertex 40.8 23.35 1
    endloop
  endfacet
  facet normal -0.99802 0.0628987 0
    outer loop
      vertex 40.7842 23.0993 -1
      vertex 40.7842 23.0993 1
      vertex 40.8 23.35 -1
    endloop
  endfacet
  facet normal -0.99802 0.0628987 0
    outer loop
      vertex 40.8 23.35 1
      vertex 40.8 23.35 -1
      vertex 40.7842 23.0993 1
    endloop
  endfacet
  facet normal -0.982332 0.187149 0
    outer loop
      vertex 40.7372 22.8526 -1
      vertex 40.7372 22.8526 1
      vertex 40.7842 23.0993 -1
    endloop
  endfacet
  facet normal -0.982332 0.187149 0
    outer loop
      vertex 40.7842 23.0993 1
      vertex 40.7842 23.0993 -1
      vertex 40.7372 22.8526 1
    endloop
  endfacet
  facet normal -0.950967 0.309293 0
    outer loop
      vertex 40.6595 22.6137 -1
      vertex 40.6595 22.6137 1
      vertex 40.7372 22.8526 -1
    endloop
  endfacet
  facet normal -0.950967 0.309293 0
    outer loop
      vertex 40.7372 22.8526 1
      vertex 40.7372 22.8526 -1
      vertex 40.6595 22.6137 1
    endloop
  endfacet
  facet normal -0.904846 0.425739 0
    outer loop
      vertex 40.5526 22.3865 -1
      vertex 40.5526 22.3865 1
      vertex 40.6595 22.6137 -1
    endloop
  endfacet
  facet normal -0.904846 0.425739 0
    outer loop
      vertex 40.6595 22.6137 1
      vertex 40.6595 22.6137 -1
      vertex 40.5526 22.3865 1
    endloop
  endfacet
  facet normal -0.844333 0.535819 0
    outer loop
      vertex 40.418 22.1744 -1
      vertex 40.418 22.1744 1
      vertex 40.5526 22.3865 -1
    endloop
  endfacet
  facet normal -0.844333 0.535819 0
    outer loop
      vertex 40.5526 22.3865 1
      vertex 40.5526 22.3865 -1
      vertex 40.418 22.1744 1
    endloop
  endfacet
  facet normal -0.770468 0.637478 0
    outer loop
      vertex 40.2579 21.9809 -1
      vertex 40.2579 21.9809 1
      vertex 40.418 22.1744 -1
    endloop
  endfacet
  facet normal -0.770468 0.637478 0
    outer loop
      vertex 40.418 22.1744 1
      vertex 40.418 22.1744 -1
      vertex 40.2579 21.9809 1
    endloop
  endfacet
  facet normal -0.684458 0.729053 0
    outer loop
      vertex 40.0748 21.809 -1
      vertex 40.0748 21.809 1
      vertex 40.2579 21.9809 -1
    endloop
  endfacet
  facet normal -0.684458 0.729053 0
    outer loop
      vertex 40.2579 21.9809 1
      vertex 40.2579 21.9809 -1
      vertex 40.0748 21.809 1
    endloop
  endfacet
  facet normal -0.587959 0.808891 0
    outer loop
      vertex 39.8716 21.6613 -1
      vertex 39.8716 21.6613 1
      vertex 40.0748 21.809 -1
    endloop
  endfacet
  facet normal -0.587959 0.808891 0
    outer loop
      vertex 40.0748 21.809 1
      vertex 40.0748 21.809 -1
      vertex 39.8716 21.6613 1
    endloop
  endfacet
  facet normal -0.481919 0.876216 0
    outer loop
      vertex 39.6516 21.5403 -1
      vertex 39.6516 21.5403 1
      vertex 39.8716 21.6613 -1
    endloop
  endfacet
  facet normal -0.481919 0.876216 0
    outer loop
      vertex 39.8716 21.6613 1
      vertex 39.8716 21.6613 -1
      vertex 39.6516 21.5403 1
    endloop
  endfacet
  facet normal -0.367819 0.929897 0
    outer loop
      vertex 39.418 21.4479 -1
      vertex 39.418 21.4479 1
      vertex 39.6516 21.5403 -1
    endloop
  endfacet
  facet normal -0.367819 0.929897 0
    outer loop
      vertex 39.6516 21.5403 1
      vertex 39.6516 21.5403 -1
      vertex 39.418 21.4479 1
    endloop
  endfacet
  facet normal -0.248902 0.968529 0
    outer loop
      vertex 39.1748 21.3854 -1
      vertex 39.1748 21.3854 1
      vertex 39.418 21.4479 -1
    endloop
  endfacet
  facet normal -0.248902 0.968529 0
    outer loop
      vertex 39.418 21.4479 1
      vertex 39.418 21.4479 -1
      vertex 39.1748 21.3854 1
    endloop
  endfacet
  facet normal -0.125407 0.992105 0
    outer loop
      vertex 38.9256 21.3539 -1
      vertex 38.9256 21.3539 1
      vertex 39.1748 21.3854 -1
    endloop
  endfacet
  facet normal -0.125407 0.992105 0
    outer loop
      vertex 39.1748 21.3854 1
      vertex 39.1748 21.3854 -1
      vertex 38.9256 21.3539 1
    endloop
  endfacet
  facet normal 0 1 0
    outer loop
      vertex 38.6744 21.3539 -1
      vertex 38.6744 21.3539 1
      vertex 38.9256 21.3539 -1
    endloop
  endfacet
  facet normal 0 1 0
    outer loop
      vertex 38.9256 21.3539 1
      vertex 38.9256 21.3539 -1
      vertex 38.6744 21.3539 1
    endloop
  endfacet
  facet normal 0.125328 0.992115 -0
    outer loop
      vertex 20.9252 4.28542 -1
      vertex 20.9252 4.28542 1
      vertex 21.1744 4.25394 -1
    endloop
  endfacet
  facet normal 0.125328 0.992115 0
    outer loop
      vertex 21.1744 4.25394 1
      vertex 21.1744 4.25394 -1
      vertex 20.9252 4.28542 1
    endloop
  endfacet
  facet normal 0.24879 0.968557 -0
    outer loop
      vertex 20.682 4.34789 -1
      vertex 20.682 4.34789 1
      vertex 20.9252 4.28542 -1
    endloop
  endfacet
  facet normal 0.24879 0.968557 0
    outer loop
      vertex 20.9252 4.28542 1
      vertex 20.9252 4.28542 -1
      vertex 20.682 4.34789 1
    endloop
  endfacet
  facet normal 0.367991 0.929829 -0
    outer loop
      vertex 20.4484 4.44034 -1
      vertex 20.4484 4.44034 1
      vertex 20.682 4.34789 -1
    endloop
  endfacet
  facet normal 0.367991 0.929829 0
    outer loop
      vertex 20.682 4.34789 1
      vertex 20.682 4.34789 -1
      vertex 20.4484 4.44034 1
    endloop
  endfacet
  facet normal 0.481751 0.876308 -0
    outer loop
      vertex 20.2283 4.56134 -1
      vertex 20.2283 4.56134 1
      vertex 20.4484 4.44034 -1
    endloop
  endfacet
  facet normal 0.481751 0.876308 0
    outer loop
      vertex 20.4484 4.44034 1
      vertex 20.4484 4.44034 -1
      vertex 20.2283 4.56134 1
    endloop
  endfacet
  facet normal 0.587776 0.809024 -0
    outer loop
      vertex 20.0251 4.70897 -1
      vertex 20.0251 4.70897 1
      vertex 20.2283 4.56134 -1
    endloop
  endfacet
  facet normal 0.587776 0.809024 0
    outer loop
      vertex 20.2283 4.56134 1
      vertex 20.2283 4.56134 -1
      vertex 20.0251 4.70897 1
    endloop
  endfacet
  facet normal 0.684741 0.728787 -0
    outer loop
      vertex 19.8421 4.88091 -1
      vertex 19.8421 4.88091 1
      vertex 20.0251 4.70897 -1
    endloop
  endfacet
  facet normal 0.684741 0.728787 0
    outer loop
      vertex 20.0251 4.70897 1
      vertex 20.0251 4.70897 -1
      vertex 19.8421 4.88091 1
    endloop
  endfacet
  facet normal 0.770485 0.637459 -0
    outer loop
      vertex 19.682 5.07442 -1
      vertex 19.682 5.07442 1
      vertex 19.8421 4.88091 -1
    endloop
  endfacet
  facet normal 0.770485 0.637459 0
    outer loop
      vertex 19.8421 4.88091 1
      vertex 19.8421 4.88091 -1
      vertex 19.682 5.07442 1
    endloop
  endfacet
  facet normal 0.844287 0.535891 -0
    outer loop
      vertex 19.5474 5.28648 -1
      vertex 19.5474 5.28648 1
      vertex 19.682 5.07442 -1
    endloop
  endfacet
  facet normal 0.844287 0.535891 0
    outer loop
      vertex 19.682 5.07442 1
      vertex 19.682 5.07442 -1
      vertex 19.5474 5.28648 1
    endloop
  endfacet
  facet normal 0.904743 0.425958 -0
    outer loop
      vertex 19.4404 5.51375 -1
      vertex 19.4404 5.51375 1
      vertex 19.5474 5.28648 -1
    endloop
  endfacet
  facet normal 0.904743 0.425958 0
    outer loop
      vertex 19.5474 5.28648 1
      vertex 19.5474 5.28648 -1
      vertex 19.4404 5.51375 1
    endloop
  endfacet
  facet normal 0.951069 0.30898 -0
    outer loop
      vertex 19.3628 5.75261 -1
      vertex 19.3628 5.75261 1
      vertex 19.4404 5.51375 -1
    endloop
  endfacet
  facet normal 0.951069 0.30898 0
    outer loop
      vertex 19.4404 5.51375 1
      vertex 19.4404 5.51375 -1
      vertex 19.3628 5.75261 1
    endloop
  endfacet
  facet normal 0.982334 0.187134 -0
    outer loop
      vertex 19.3158 5.99933 -1
      vertex 19.3158 5.99933 1
      vertex 19.3628 5.75261 -1
    endloop
  endfacet
  facet normal 0.982334 0.187134 0
    outer loop
      vertex 19.3628 5.75261 1
      vertex 19.3628 5.75261 -1
      vertex 19.3158 5.99933 1
    endloop
  endfacet
  facet normal 0.998019 0.0629062 -0
    outer loop
      vertex 19.3 6.25 -1
      vertex 19.3 6.25 1
      vertex 19.3158 5.99933 -1
    endloop
  endfacet
  facet normal 0.998019 0.0629062 0
    outer loop
      vertex 19.3158 5.99933 1
      vertex 19.3158 5.99933 -1
      vertex 19.3 6.25 1
    endloop
  endfacet
  facet normal 0.998019 -0.0629087 0
    outer loop
      vertex 19.3158 6.50066 -1
      vertex 19.3158 6.50066 1
      vertex 19.3 6.25 -1
    endloop
  endfacet
  facet normal 0.998019 -0.0629087 0
    outer loop
      vertex 19.3 6.25 1
      vertex 19.3 6.25 -1
      vertex 19.3158 6.50066 1
    endloop
  endfacet
  facet normal 0.982334 -0.187134 0
    outer loop
      vertex 19.3628 6.74738 -1
      vertex 19.3628 6.74738 1
      vertex 19.3158 6.50066 -1
    endloop
  endfacet
  facet normal 0.982334 -0.187134 0
    outer loop
      vertex 19.3158 6.50066 1
      vertex 19.3158 6.50066 -1
      vertex 19.3628 6.74738 1
    endloop
  endfacet
  facet normal 0.951069 -0.30898 0
    outer loop
      vertex 19.4404 6.98624 -1
      vertex 19.4404 6.98624 1
      vertex 19.3628 6.74738 -1
    endloop
  endfacet
  facet normal 0.951069 -0.30898 0
    outer loop
      vertex 19.3628 6.74738 1
      vertex 19.3628 6.74738 -1
      vertex 19.4404 6.98624 1
    endloop
  endfacet
  facet normal 0.904736 -0.425973 0
    outer loop
      vertex 19.5474 7.2135 -1
      vertex 19.5474 7.2135 1
      vertex 19.4404 6.98624 -1
    endloop
  endfacet
  facet normal 0.904736 -0.425973 0
    outer loop
      vertex 19.4404 6.98624 1
      vertex 19.4404 6.98624 -1
      vertex 19.5474 7.2135 1
    endloop
  endfacet
  facet normal 0.844299 -0.535873 0
    outer loop
      vertex 19.682 7.42557 -1
      vertex 19.682 7.42557 1
      vertex 19.5474 7.2135 -1
    endloop
  endfacet
  facet normal 0.844299 -0.535873 0
    outer loop
      vertex 19.5474 7.2135 1
      vertex 19.5474 7.2135 -1
      vertex 19.682 7.42557 1
    endloop
  endfacet
  facet normal 0.770485 -0.637459 0
    outer loop
      vertex 19.8421 7.61908 -1
      vertex 19.8421 7.61908 1
      vertex 19.682 7.42557 -1
    endloop
  endfacet
  facet normal 0.770485 -0.637459 0
    outer loop
      vertex 19.682 7.42557 1
      vertex 19.682 7.42557 -1
      vertex 19.8421 7.61908 1
    endloop
  endfacet
  facet normal 0.684741 -0.728787 0
    outer loop
      vertex 20.0251 7.79102 -1
      vertex 20.0251 7.79102 1
      vertex 19.8421 7.61908 -1
    endloop
  endfacet
  facet normal 0.684741 -0.728787 0
    outer loop
      vertex 19.8421 7.61908 1
      vertex 19.8421 7.61908 -1
      vertex 20.0251 7.79102 1
    endloop
  endfacet
  facet normal 0.58775 -0.809042 0
    outer loop
      vertex 20.2283 7.93864 -1
      vertex 20.2283 7.93864 1
      vertex 20.0251 7.79102 -1
    endloop
  endfacet
  facet normal 0.58775 -0.809042 0
    outer loop
      vertex 20.0251 7.79102 1
      vertex 20.0251 7.79102 -1
      vertex 20.2283 7.93864 1
    endloop
  endfacet
  facet normal 0.481781 -0.876292 0
    outer loop
      vertex 20.4484 8.05965 -1
      vertex 20.4484 8.05965 1
      vertex 20.2283 7.93864 -1
    endloop
  endfacet
  facet normal 0.481781 -0.876292 0
    outer loop
      vertex 20.2283 7.93864 1
      vertex 20.2283 7.93864 -1
      vertex 20.4484 8.05965 1
    endloop
  endfacet
  facet normal 0.367991 -0.929829 0
    outer loop
      vertex 20.682 8.1521 -1
      vertex 20.682 8.1521 1
      vertex 20.4484 8.05965 -1
    endloop
  endfacet
  facet normal 0.367991 -0.929829 0
    outer loop
      vertex 20.4484 8.05965 1
      vertex 20.4484 8.05965 -1
      vertex 20.682 8.1521 1
    endloop
  endfacet
  facet normal 0.24879 -0.968557 0
    outer loop
      vertex 20.9252 8.21457 -1
      vertex 20.9252 8.21457 1
      vertex 20.682 8.1521 -1
    endloop
  endfacet
  facet normal 0.24879 -0.968557 0
    outer loop
      vertex 20.682 8.1521 1
      vertex 20.682 8.1521 -1
      vertex 20.9252 8.21457 1
    endloop
  endfacet
  facet normal 0.125328 -0.992115 0
    outer loop
      vertex 21.1744 8.24605 -1
      vertex 21.1744 8.24605 1
      vertex 20.9252 8.21457 -1
    endloop
  endfacet
  facet normal 0.125328 -0.992115 0
    outer loop
      vertex 20.9252 8.21457 1
      vertex 20.9252 8.21457 -1
      vertex 21.1744 8.24605 1
    endloop
  endfacet
  facet normal 0 -1 0
    outer loop
      vertex 21.4256 8.24605 -1
      vertex 21.4256 8.24605 1
      vertex 21.1744 8.24605 -1
    endloop
  endfacet
  facet normal 0 -1 0
    outer loop
      vertex 21.1744 8.24605 1
      vertex 21.1744 8.24605 -1
      vertex 21.4256 8.24605 1
    endloop
  endfacet
  facet normal -0.125328 -0.992115 0
    outer loop
      vertex 21.6748 8.21457 -1
      vertex 21.6748 8.21457 1
      vertex 21.4256 8.24605 -1
    endloop
  endfacet
  facet normal -0.125328 -0.992115 -0
    outer loop
      vertex 21.4256 8.24605 1
      vertex 21.4256 8.24605 -1
      vertex 21.6748 8.21457 1
    endloop
  endfacet
  facet normal -0.24879 -0.968557 0
    outer loop
      vertex 21.918 8.1521 -1
      vertex 21.918 8.1521 1
      vertex 21.6748 8.21457 -1
    endloop
  endfacet
  facet normal -0.24879 -0.968557 -0
    outer loop
      vertex 21.6748 8.21457 1
      vertex 21.6748 8.21457 -1
      vertex 21.918 8.1521 1
    endloop
  endfacet
  facet normal -0.367991 -0.929829 0
    outer loop
      vertex 22.1516 8.05965 -1
      vertex 22.1516 8.05965 1
      vertex 21.918 8.1521 -1
    endloop
  endfacet
  facet normal -0.367991 -0.929829 -0
    outer loop
      vertex 21.918 8.1521 1
      vertex 21.918 8.1521 -1
      vertex 22.1516 8.05965 1
    endloop
  endfacet
  facet normal -0.481949 -0.876199 0
    outer loop
      vertex 22.3716 7.93864 -1
      vertex 22.3716 7.93864 1
      vertex 22.1516 8.05965 -1
    endloop
  endfacet
  facet normal -0.481949 -0.876199 -0
    outer loop
      vertex 22.1516 8.05965 1
      vertex 22.1516 8.05965 -1
      vertex 22.3716 7.93864 1
    endloop
  endfacet
  facet normal -0.58775 -0.809042 0
    outer loop
      vertex 22.5748 7.79102 -1
      vertex 22.5748 7.79102 1
      vertex 22.3716 7.93864 -1
    endloop
  endfacet
  facet normal -0.58775 -0.809042 -0
    outer loop
      vertex 22.3716 7.93864 1
      vertex 22.3716 7.93864 -1
      vertex 22.5748 7.79102 1
    endloop
  endfacet
  facet normal -0.684542 -0.728973 0
    outer loop
      vertex 22.7579 7.61908 -1
      vertex 22.7579 7.61908 1
      vertex 22.5748 7.79102 -1
    endloop
  endfacet
  facet normal -0.684542 -0.728973 -0
    outer loop
      vertex 22.5748 7.79102 1
      vertex 22.5748 7.79102 -1
      vertex 22.7579 7.61908 1
    endloop
  endfacet
  facet normal -0.770485 -0.637459 0
    outer loop
      vertex 22.918 7.42557 -1
      vertex 22.918 7.42557 1
      vertex 22.7579 7.61908 -1
    endloop
  endfacet
  facet normal -0.770485 -0.637459 -0
    outer loop
      vertex 22.7579 7.61908 1
      vertex 22.7579 7.61908 -1
      vertex 22.918 7.42557 1
    endloop
  endfacet
  facet normal -0.844299 -0.535873 0
    outer loop
      vertex 23.0526 7.2135 -1
      vertex 23.0526 7.2135 1
      vertex 22.918 7.42557 -1
    endloop
  endfacet
  facet normal -0.844299 -0.535873 -0
    outer loop
      vertex 22.918 7.42557 1
      vertex 22.918 7.42557 -1
      vertex 23.0526 7.2135 1
    endloop
  endfacet
  facet normal -0.904889 -0.425647 0
    outer loop
      vertex 23.1595 6.98624 -1
      vertex 23.1595 6.98624 1
      vertex 23.0526 7.2135 -1
    endloop
  endfacet
  facet normal -0.904889 -0.425647 -0
    outer loop
      vertex 23.0526 7.2135 1
      vertex 23.0526 7.2135 -1
      vertex 23.1595 6.98624 1
    endloop
  endfacet
  facet normal -0.950952 -0.30934 0
    outer loop
      vertex 23.2372 6.74738 -1
      vertex 23.2372 6.74738 1
      vertex 23.1595 6.98624 -1
    endloop
  endfacet
  facet normal -0.950952 -0.30934 -0
    outer loop
      vertex 23.1595 6.98624 1
      vertex 23.1595 6.98624 -1
      vertex 23.2372 6.74738 1
    endloop
  endfacet
  facet normal -0.982334 -0.187134 0
    outer loop
      vertex 23.2842 6.50066 -1
      vertex 23.2842 6.50066 1
      vertex 23.2372 6.74738 -1
    endloop
  endfacet
  facet normal -0.982334 -0.187134 -0
    outer loop
      vertex 23.2372 6.74738 1
      vertex 23.2372 6.74738 -1
      vertex 23.2842 6.50066 1
    endloop
  endfacet
  facet normal -0.998019 -0.0629087 0
    outer loop
      vertex 23.3 6.25 -1
      vertex 23.3 6.25 1
      vertex 23.2842 6.50066 -1
    endloop
  endfacet
  facet normal -0.998019 -0.0629087 -0
    outer loop
      vertex 23.2842 6.50066 1
      vertex 23.2842 6.50066 -1
      vertex 23.3 6.25 1
    endloop
  endfacet
  facet normal -0.998019 0.0629062 0
    outer loop
      vertex 23.2842 5.99933 -1
      vertex 23.2842 5.99933 1
      vertex 23.3 6.25 -1
    endloop
  endfacet
  facet normal -0.998019 0.0629062 0
    outer loop
      vertex 23.3 6.25 1
      vertex 23.3 6.25 -1
      vertex 23.2842 5.99933 1
    endloop
  endfacet
  facet normal -0.982334 0.187134 0
    outer loop
      vertex 23.2372 5.75261 -1
      vertex 23.2372 5.75261 1
      vertex 23.2842 5.99933 -1
    endloop
  endfacet
  facet normal -0.982334 0.187134 0
    outer loop
      vertex 23.2842 5.99933 1
      vertex 23.2842 5.99933 -1
      vertex 23.2372 5.75261 1
    endloop
  endfacet
  facet normal -0.950952 0.30934 0
    outer loop
      vertex 23.1595 5.51375 -1
      vertex 23.1595 5.51375 1
      vertex 23.2372 5.75261 -1
    endloop
  endfacet
  facet normal -0.950952 0.30934 0
    outer loop
      vertex 23.2372 5.75261 1
      vertex 23.2372 5.75261 -1
      vertex 23.1595 5.51375 1
    endloop
  endfacet
  facet normal -0.904896 0.425632 0
    outer loop
      vertex 23.0526 5.28648 -1
      vertex 23.0526 5.28648 1
      vertex 23.1595 5.51375 -1
    endloop
  endfacet
  facet normal -0.904896 0.425632 0
    outer loop
      vertex 23.1595 5.51375 1
      vertex 23.1595 5.51375 -1
      vertex 23.0526 5.28648 1
    endloop
  endfacet
  facet normal -0.844287 0.535891 0
    outer loop
      vertex 22.918 5.07442 -1
      vertex 22.918 5.07442 1
      vertex 23.0526 5.28648 -1
    endloop
  endfacet
  facet normal -0.844287 0.535891 0
    outer loop
      vertex 23.0526 5.28648 1
      vertex 23.0526 5.28648 -1
      vertex 22.918 5.07442 1
    endloop
  endfacet
  facet normal -0.770485 0.637459 0
    outer loop
      vertex 22.7579 4.88091 -1
      vertex 22.7579 4.88091 1
      vertex 22.918 5.07442 -1
    endloop
  endfacet
  facet normal -0.770485 0.637459 0
    outer loop
      vertex 22.918 5.07442 1
      vertex 22.918 5.07442 -1
      vertex 22.7579 4.88091 1
    endloop
  endfacet
  facet normal -0.684542 0.728973 0
    outer loop
      vertex 22.5748 4.70897 -1
      vertex 22.5748 4.70897 1
      vertex 22.7579 4.88091 -1
    endloop
  endfacet
  facet normal -0.684542 0.728973 0
    outer loop
      vertex 22.7579 4.88091 1
      vertex 22.7579 4.88091 -1
      vertex 22.5748 4.70897 1
    endloop
  endfacet
  facet normal -0.587776 0.809024 0
    outer loop
      vertex 22.3716 4.56134 -1
      vertex 22.3716 4.56134 1
      vertex 22.5748 4.70897 -1
    endloop
  endfacet
  facet normal -0.587776 0.809024 0
    outer loop
      vertex 22.5748 4.70897 1
      vertex 22.5748 4.70897 -1
      vertex 22.3716 4.56134 1
    endloop
  endfacet
  facet normal -0.481919 0.876216 0
    outer loop
      vertex 22.1516 4.44034 -1
      vertex 22.1516 4.44034 1
      vertex 22.3716 4.56134 -1
    endloop
  endfacet
  facet normal -0.481919 0.876216 0
    outer loop
      vertex 22.3716 4.56134 1
      vertex 22.3716 4.56134 -1
      vertex 22.1516 4.44034 1
    endloop
  endfacet
  facet normal -0.367991 0.929829 0
    outer loop
      vertex 21.918 4.34789 -1
      vertex 21.918 4.34789 1
      vertex 22.1516 4.44034 -1
    endloop
  endfacet
  facet normal -0.367991 0.929829 0
    outer loop
      vertex 22.1516 4.44034 1
      vertex 22.1516 4.44034 -1
      vertex 21.918 4.34789 1
    endloop
  endfacet
  facet normal -0.24879 0.968557 0
    outer loop
      vertex 21.6748 4.28542 -1
      vertex 21.6748 4.28542 1
      vertex 21.918 4.34789 -1
    endloop
  endfacet
  facet normal -0.24879 0.968557 0
    outer loop
      vertex 21.918 4.34789 1
      vertex 21.918 4.34789 -1
      vertex 21.6748 4.28542 1
    endloop
  endfacet
  facet normal -0.125328 0.992115 0
    outer loop
      vertex 21.4256 4.25394 -1
      vertex 21.4256 4.25394 1
      vertex 21.6748 4.28542 -1
    endloop
  endfacet
  facet normal -0.125328 0.992115 0
    outer loop
      vertex 21.6748 4.28542 1
      vertex 21.6748 4.28542 -1
      vertex 21.4256 4.25394 1
    endloop
  endfacet
  facet normal 0 1 0
    outer loop
      vertex 21.1744 4.25394 -1
      vertex 21.1744 4.25394 1
      vertex 21.4256 4.25394 -1
    endloop
  endfacet
  facet normal 0 1 0
    outer loop
      vertex 21.4256 4.25394 1
      vertex 21.4256 4.25394 -1
      vertex 21.1744 4.25394 1
    endloop
  endfacet
endsolid OpenSCAD_Model
