<?xml version="1.0" encoding="UTF-8" standalone="no"?>
<svg
   xmlns:dc="http://purl.org/dc/elements/1.1/"
   xmlns:cc="http://creativecommons.org/ns#"
   xmlns:rdf="http://www.w3.org/1999/02/22-rdf-syntax-ns#"
   xmlns:svg="http://www.w3.org/2000/svg"
   xmlns="http://www.w3.org/2000/svg"
   xmlns:sodipodi="http://sodipodi.sourceforge.net/DTD/sodipodi-0.dtd"
   xmlns:inkscape="http://www.inkscape.org/namespaces/inkscape"
   width="47mm"
   height="38mm"
   viewBox="-2 -38 47 38"
   version="1.1"
   id="svg6"
   sodipodi:docname="anavi-macro-pad-2-plate.svg"
   inkscape:version="0.92.5 (2060ec1f9f, 2020-04-08)">
  <metadata
     id="metadata12">
    <rdf:RDF>
      <cc:Work
         rdf:about="">
        <dc:format>image/svg+xml</dc:format>
        <dc:type
           rdf:resource="http://purl.org/dc/dcmitype/StillImage" />
      </cc:Work>
    </rdf:RDF>
  </metadata>
  <defs
     id="defs10" />
  <sodipodi:namedview
     pagecolor="#ffffff"
     bordercolor="#666666"
     borderopacity="1"
     objecttolerance="10"
     gridtolerance="10"
     guidetolerance="10"
     inkscape:pageopacity="0"
     inkscape:pageshadow="2"
     inkscape:window-width="1832"
     inkscape:window-height="1009"
     id="namedview8"
     showgrid="false"
     inkscape:zoom="3.2864035"
     inkscape:cx="64.521611"
     inkscape:cy="77.649719"
     inkscape:window-x="88"
     inkscape:window-y="34"
     inkscape:window-maximized="1"
     inkscape:current-layer="svg6" />
  <title
     id="title2">OpenSCAD Model</title>
  <path
     d="m 42.879725,-22.972323 h 1.988812 V -37.868536 H -1.8685361 v 14.896213 H 0.12027559 V -0.13146368 H 42.879725 Z m -38.7078226,1.634711 -0.247796,-0.03128 -0.241919,-0.06207 -0.2322136,-0.09176 -0.2188588,-0.120159 -0.2020633,-0.146679 -0.1820657,-0.17071 -0.1592044,-0.192161 -0.1338272,-0.210632 -0.1063317,-0.225628 -0.077176,-0.237247 -0.046807,-0.244994 -0.015671,-0.248965 0.015671,-0.248966 0.046807,-0.244993 0.077176,-0.237147 0.1063317,-0.225728 0.1338272,-0.210632 0.1592044,-0.192161 0.1820657,-0.170711 0.2020633,-0.146678 0.2188588,-0.120162 0.2322136,-0.09176 0.241919,-0.06207 0.247796,-0.03118 h 0.249755 l 0.247776,0.03118 0.2419092,0.06207 0.2322136,0.09176 0.2188787,0.120162 0.2020532,0.146678 0.1820658,0.170711 0.1591945,0.192161 0.133837,0.210632 0.1063318,0.225728 0.077186,0.237147 0.046797,0.244993 0.015691,0.248966 -0.015691,0.248965 -0.046797,0.244994 -0.077186,0.237247 -0.1063318,0.225628 -0.133837,0.210632 -0.1591945,0.192161 -0.1820658,0.17071 -0.2020532,0.146679 -0.2188787,0.120162 -0.2322136,0.09176 -0.2419092,0.06207 -0.247776,0.03128 z m 34.4064206,0 -0.247806,-0.03128 -0.241839,-0.06207 -0.232293,-0.09176 -0.218869,-0.120162 -0.202063,-0.146679 -0.181977,-0.17071 -0.159204,-0.192161 -0.133847,-0.210632 -0.106402,-0.225628 -0.07716,-0.237247 -0.04674,-0.244994 -0.01571,-0.248965 0.01571,-0.248966 0.04674,-0.244993 0.07716,-0.237147 0.106402,-0.225728 0.133847,-0.210632 0.159204,-0.192161 0.181977,-0.170711 0.202063,-0.146678 0.218869,-0.120162 0.232293,-0.09176 0.241839,-0.06207 0.247806,-0.03118 h 0.249795 l 0.247806,0.03118 0.24184,0.06207 0.232293,0.09176 0.218769,0.120162 0.202063,0.146678 0.182076,0.170711 0.159204,0.192161 0.133848,0.210632 0.106302,0.225728 0.07726,0.237147 0.04674,0.244993 0.01571,0.248966 -0.01571,0.248965 -0.04674,0.244994 -0.07726,0.237247 -0.106302,0.225628 -0.133848,0.210632 -0.159204,0.192161 -0.182076,0.17071 -0.202063,0.146679 -0.218769,0.120162 -0.232293,0.09176 -0.24184,0.06207 -0.247806,0.03128 z m -17.402101,16.981642 -0.247806,-0.031262 -0.24184,-0.062038 -0.232292,-0.09181 -0.21887,-0.1201628 -0.202063,-0.1466086 -0.181976,-0.1707502 -0.159204,-0.1921711 -0.133847,-0.2105927 -0.106402,-0.2256976 -0.07716,-0.2372072 -0.04674,-0.2450129 -0.01571,-0.2489356 0.01571,-0.2489256 0.04674,-0.2450129 0.07716,-0.2372074 0.106402,-0.2256875 0.133847,-0.2106027 0.159204,-0.192171 0.181976,-0.1707504 0.202063,-0.1465986 0.21887,-0.1201726 0.232292,-0.091811 0.24184,-0.062038 0.247806,-0.031263 h 0.249795 l 0.247805,0.031263 0.24184,0.062038 0.232294,0.091811 0.218769,0.1201726 0.202063,0.1465986 0.182075,0.1707504 0.159205,0.192171 0.133847,0.2106027 0.106302,0.2256875 0.07726,0.2372074 0.04674,0.2450129 0.01571,0.2489256 -0.01571,0.2489356 -0.04674,0.2450129 -0.07726,0.2372072 -0.106302,0.2256976 -0.133847,0.2105927 -0.159205,0.1921711 -0.182075,0.1707502 -0.202063,0.1466086 -0.218769,0.1201628 -0.232294,0.091811 -0.24184,0.062038 -0.247805,0.031262 z"
     id="path4"
     style="fill:none;stroke:#000000;stroke-width:0.26292786;stroke-miterlimit:4;stroke-dasharray:none"
     inkscape:connector-curvature="0" />
</svg>
