<?xml version="1.0" encoding="UTF-8" standalone="no"?>
<svg
   xmlns:dc="http://purl.org/dc/elements/1.1/"
   xmlns:cc="http://creativecommons.org/ns#"
   xmlns:rdf="http://www.w3.org/1999/02/22-rdf-syntax-ns#"
   xmlns:svg="http://www.w3.org/2000/svg"
   xmlns="http://www.w3.org/2000/svg"
   xmlns:sodipodi="http://sodipodi.sourceforge.net/DTD/sodipodi-0.dtd"
   xmlns:inkscape="http://www.inkscape.org/namespaces/inkscape"
   width="85mm"
   height="38mm"
   viewBox="0 -38 85 38"
   version="1.1"
   id="svg6"
   sodipodi:docname="anavi-macro-pad-2-bottom-2d.svg"
   inkscape:version="0.92.5 (2060ec1f9f, 2020-04-08)">
  <metadata
     id="metadata12">
    <rdf:RDF>
      <cc:Work
         rdf:about="">
        <dc:format>image/svg+xml</dc:format>
        <dc:type
           rdf:resource="http://purl.org/dc/dcmitype/StillImage" />
      </cc:Work>
    </rdf:RDF>
  </metadata>
  <defs
     id="defs10" />
  <sodipodi:namedview
     pagecolor="#ffffff"
     bordercolor="#666666"
     borderopacity="1"
     objecttolerance="10"
     gridtolerance="10"
     guidetolerance="10"
     inkscape:pageopacity="0"
     inkscape:pageshadow="2"
     inkscape:window-width="1832"
     inkscape:window-height="1009"
     id="namedview8"
     showgrid="false"
     inkscape:zoom="2.9633333"
     inkscape:cx="128.39914"
     inkscape:cy="92.535413"
     inkscape:window-x="88"
     inkscape:window-y="34"
     inkscape:window-maximized="1"
     inkscape:current-layer="svg6" />
  <title
     id="title2">OpenSCAD Model</title>
  <path
     d="m 83.248193,-0.16290921 0.242446,-0.0620497 0.232777,-0.0918313 0.219418,-0.12018977 0.20257,-0.14663586 0.182533,-0.17078048 0.159605,-0.19221147 0.134183,-0.21064271 0.106568,-0.2257327 0.07746,-0.2372547 0.04685,-0.2450618 0.01575,-0.2489754 V -35.885774 l -0.01575,-0.249015 -0.04685,-0.245043 -0.07746,-0.237194 -0.106568,-0.225773 -0.134183,-0.210674 -0.159605,-0.1922 -0.182533,-0.170745 -0.20257,-0.146608 -0.219418,-0.120187 -0.232777,-0.09188 -0.242446,-0.06208 -0.248429,-0.03119 H 2.0002561 l -0.2484081,0.03119 -0.2425166,0.06208 -0.2327966,0.09188 -0.2194083,0.120187 -0.20257163,0.146608 -0.18252389,0.170745 -0.15959911,0.1922 -0.13416514,0.210674 -0.10660277,0.225773 -0.0773806,0.237194 -0.0469123,0.245043 -0.0157292,0.249015 v 33.7714989 l 0.0157292,0.2489754 0.0469123,0.2450618 0.0773806,0.2372547 0.10660277,0.2257327 0.13416514,0.21064275 0.15959911,0.19221147 0.18252389,0.17078048 0.20257163,0.14663586 0.2194083,0.12018977 0.2327966,0.0918313 0.2425166,0.0620497 0.2484081,0.0312673 H 5.1161548 V -15.026908 h 1.993805 V -0.1316419 H 77.89004 V -15.026908 h 1.993805 v 14.8952661 h 3.115919 z"
     id="path4"
     style="fill:none;stroke:#000000;stroke-width:0.26328403;stroke-miterlimit:4;stroke-dasharray:none"
     inkscape:connector-curvature="0" />
  <path
     style="fill:none;stroke:#ff0000;stroke-width:0.26484793;stroke-linecap:butt;stroke-linejoin:miter;stroke-miterlimit:4;stroke-dasharray:none;stroke-opacity:1"
     d="M 21.303616,-37.999394 21.132423,-5.9647469e-4"
     id="path866"
     inkscape:connector-curvature="0" />
  <path
     style="fill:none;stroke:#ff0000;stroke-width:0.26484793;stroke-linecap:butt;stroke-linejoin:miter;stroke-miterlimit:4;stroke-dasharray:none;stroke-opacity:1"
     d="M 64.303616,-37.999394 64.132423,-5.9647469e-4"
     id="path866-3"
     inkscape:connector-curvature="0" />
</svg>
