<?xml version="1.0" encoding="UTF-8" standalone="no"?>
<svg
   xmlns:dc="http://purl.org/dc/elements/1.1/"
   xmlns:cc="http://creativecommons.org/ns#"
   xmlns:rdf="http://www.w3.org/1999/02/22-rdf-syntax-ns#"
   xmlns:svg="http://www.w3.org/2000/svg"
   xmlns="http://www.w3.org/2000/svg"
   xmlns:sodipodi="http://sodipodi.sourceforge.net/DTD/sodipodi-0.dtd"
   xmlns:inkscape="http://www.inkscape.org/namespaces/inkscape"
   width="41mm"
   height="18mm"
   viewBox="0 -38 41 18"
   version="1.1"
   id="svg6"
   sodipodi:docname="anavi-macro-pad-2-top.svg"
   inkscape:version="0.92.5 (2060ec1f9f, 2020-04-08)">
  <metadata
     id="metadata12">
    <rdf:RDF>
      <cc:Work
         rdf:about="">
        <dc:format>image/svg+xml</dc:format>
        <dc:type
           rdf:resource="http://purl.org/dc/dcmitype/StillImage" />
      </cc:Work>
    </rdf:RDF>
  </metadata>
  <defs
     id="defs10" />
  <sodipodi:namedview
     pagecolor="#ffffff"
     bordercolor="#666666"
     borderopacity="1"
     objecttolerance="10"
     gridtolerance="10"
     guidetolerance="10"
     inkscape:pageopacity="0"
     inkscape:pageshadow="2"
     inkscape:window-width="1832"
     inkscape:window-height="1009"
     id="namedview8"
     showgrid="false"
     inkscape:zoom="6.1434959"
     inkscape:cx="65.54861"
     inkscape:cy="27.794948"
     inkscape:window-x="88"
     inkscape:window-y="34"
     inkscape:window-maximized="1"
     inkscape:current-layer="svg6" />
  <title
     id="title2">OpenSCAD Model</title>
  <path
     d="m 39.254246,-20.161892 0.241647,-0.06161 0.232008,-0.09119 0.218694,-0.119292 0.201903,-0.145517 0.18193,-0.169475 0.159077,-0.19077 0.13374,-0.209107 0.106217,-0.224093 0.0772,-0.23543 0.0467,-0.24322 0.0157,-0.247163 v -13.802463 l -0.0157,-0.247163 -0.0467,-0.24322 -0.0772,-0.23543 -0.106217,-0.224093 -0.13374,-0.209107 -0.159077,-0.19077 -0.18193,-0.169475 -0.201903,-0.145517 -0.218694,-0.119292 -0.232008,-0.0912 -0.241647,-0.06161 -0.247609,-0.03096 H 1.9933829 l -0.2475885,0.03096 -0.2417163,0.06161 -0.2320284,0.0912 -0.2186843,0.119292 -0.20190315,0.145517 -0.18192158,0.169475 -0.15907246,0.19077 -0.13372242,0.209107 -0.106251,0.224093 -0.0771255,0.23543 -0.0467575,0.24322 -0.0156768,0.247163 v 13.802463 l 0.0156768,0.247163 0.0467575,0.24322 0.0771255,0.23543 0.106251,0.224093 0.13372242,0.209107 0.15907246,0.19077 0.18192158,0.169475 0.20190315,0.145517 0.2186843,0.119292 0.2320284,0.09119 0.2417163,0.06161 0.2475885,0.03096 H 39.006637 Z m -17.451023,-0.956807 -0.371313,-0.04653 -0.362669,-0.09237 -0.347963,-0.136743 -0.328091,-0.178939 -0.302854,-0.218276 -0.272845,-0.254359 -0.238666,-0.286106 -0.200511,-0.313612 -0.159376,-0.33609 -0.115756,-0.353244 -0.07005,-0.364878 -0.02355,-0.370695 0.02355,-0.370695 0.07005,-0.364878 0.115756,-0.353244 0.159376,-0.33609 0.200511,-0.313612 0.238666,-0.286105 0.272845,-0.254262 0.302854,-0.218374 0.328091,-0.17894 0.347963,-0.136742 0.362669,-0.09237 0.371313,-0.04653 h 0.374393 l 0.371314,0.04653 0.362569,0.09237 0.348062,0.136742 0.328092,0.17894 0.302852,0.218374 0.272847,0.254262 0.238566,0.286105 0.200611,0.313612 0.159375,0.33609 0.115657,0.353244 0.07015,0.364878 0.02355,0.370695 -0.02355,0.370695 -0.07015,0.364878 -0.115657,0.353244 -0.159375,0.33609 -0.200611,0.313612 -0.238566,0.286106 -0.272847,0.254359 -0.302852,0.218276 -0.328092,0.178939 -0.348062,0.136743 -0.362569,0.09237 -0.371314,0.04653 z m -18.6175046,-0.343089 -0.2475984,-0.03105 -0.2417262,-0.06161 -0.2320284,-0.09109 -0.2186844,-0.119294 -0.2019021,-0.145616 -0.1819206,-0.169474 -0.1590774,-0.19077 -0.1337205,-0.209107 -0.1062469,-0.223995 -0.077115,-0.235529 -0.046769,-0.243218 -0.01566,-0.247163 0.01566,-0.247163 0.046769,-0.243219 0.077115,-0.235431 0.1062469,-0.224093 0.1337205,-0.209107 0.1590774,-0.19077 0.1819206,-0.169475 0.2019021,-0.145616 0.2186844,-0.119292 0.2320284,-0.09109 0.2417262,-0.06161 0.2475984,-0.03095 h 0.2495558 l 0.2475785,0.03095 0.2417163,0.06161 0.2320284,0.09109 0.2187042,0.119292 0.2018922,0.145616 0.1819206,0.169475 0.1590674,0.19077 0.1337305,0.209107 0.1062469,0.224093 0.077125,0.235431 0.046759,0.243219 0.015679,0.247163 -0.015679,0.247163 -0.046759,0.243218 -0.077125,0.235529 -0.1062469,0.223995 -0.1337305,0.209107 -0.1590674,0.19077 -0.1819206,0.169474 -0.2018922,0.145616 -0.2187042,0.119294 -0.2320284,0.09109 -0.2417163,0.06161 -0.2475785,0.03105 z m 34.3789876,0 -0.247608,-0.03105 -0.241647,-0.06161 -0.232108,-0.09109 -0.218694,-0.119294 -0.201902,-0.145616 -0.181831,-0.169474 -0.159078,-0.19077 -0.13374,-0.209107 -0.106317,-0.223995 -0.0771,-0.235529 -0.0467,-0.243218 -0.0157,-0.247163 0.0157,-0.247163 0.0467,-0.243219 0.0771,-0.235431 0.106317,-0.224093 0.13374,-0.209107 0.159078,-0.19077 0.181831,-0.169475 0.201902,-0.145616 0.218694,-0.119292 0.232108,-0.09109 0.241647,-0.06161 0.247608,-0.03095 h 0.249596 l 0.247608,0.03095 0.241647,0.06161 0.232108,0.09109 0.218595,0.119292 0.201902,0.145616 0.18193,0.169475 0.159078,0.19077 0.13374,0.209107 0.106218,0.224093 0.0772,0.235431 0.0467,0.243219 0.0157,0.247163 -0.0157,0.247163 -0.0467,0.243218 -0.0772,0.235529 -0.106218,0.223995 -0.13374,0.209107 -0.159078,0.19077 -0.18193,0.169474 -0.201902,0.145616 -0.218595,0.119294 -0.232108,0.09109 -0.241647,0.06161 -0.247608,0.03105 z"
     id="path4"
     style="fill:none;stroke:#000000;stroke-width:0.26186982;stroke-miterlimit:4;stroke-dasharray:none"
     inkscape:connector-curvature="0" />
</svg>
