<?xml version="1.0" encoding="UTF-8" standalone="no"?>
<svg
   xmlns:dc="http://purl.org/dc/elements/1.1/"
   xmlns:cc="http://creativecommons.org/ns#"
   xmlns:rdf="http://www.w3.org/1999/02/22-rdf-syntax-ns#"
   xmlns:svg="http://www.w3.org/2000/svg"
   xmlns="http://www.w3.org/2000/svg"
   xmlns:sodipodi="http://sodipodi.sourceforge.net/DTD/sodipodi-0.dtd"
   xmlns:inkscape="http://www.inkscape.org/namespaces/inkscape"
   width="136mm"
   height="48mm"
   viewBox="0 -47 136 48"
   version="1.1"
   id="svg6"
   sodipodi:docname="anavi-macro-pad-8-top.svg"
   inkscape:version="0.92.5 (2060ec1f9f, 2020-04-08)">
  <metadata
     id="metadata12">
    <rdf:RDF>
      <cc:Work
         rdf:about="">
        <dc:format>image/svg+xml</dc:format>
        <dc:type
           rdf:resource="http://purl.org/dc/dcmitype/StillImage" />
        <dc:title>OpenSCAD Model</dc:title>
      </cc:Work>
    </rdf:RDF>
  </metadata>
  <defs
     id="defs10" />
  <sodipodi:namedview
     pagecolor="#ffffff"
     bordercolor="#666666"
     borderopacity="1"
     objecttolerance="10"
     gridtolerance="10"
     guidetolerance="10"
     inkscape:pageopacity="0"
     inkscape:pageshadow="2"
     inkscape:window-width="1832"
     inkscape:window-height="1009"
     id="namedview8"
     showgrid="false"
     inkscape:zoom="1.3193216"
     inkscape:cx="156.19789"
     inkscape:cy="-12.775803"
     inkscape:window-x="88"
     inkscape:window-y="34"
     inkscape:window-maximized="1"
     inkscape:current-layer="svg6"
     showguides="false" />
  <title
     id="title2">OpenSCAD Model</title>
  <path
     d="m 131.20158,0.78900322 0.608,-0.1561427 0.584,-0.231156 0.55,-0.30249 0.508,-0.36908404 0.458,-0.42982 0.4,-0.48380998 0.337,-0.53015 0.267,-0.56815 0.194,-0.59718 0.118,-0.61678 0.039,-0.62666 V -41.122419 l -0.039,-0.6267 -0.118,-0.6167 -0.194,-0.5972 -0.267,-0.5682 -0.337,-0.5301 -0.4,-0.4838 -0.458,-0.4299 -0.508,-0.369 -0.55,-0.3025 -0.584,-0.2312 -0.608,-0.1561 -0.623,-0.0787 H 4.9506333 l -0.62295,0.0787 -0.60817,0.1561 -0.58382,0.2312 -0.55023,0.3025 -0.508,0.369 -0.45772,0.4299 -0.400234,0.4838 -0.33645668,0.5301 -0.2673489,0.5682 -0.1940311,0.5972 -0.1176603,0.6167 -0.039429,0.6267 v 36.9999995 l 0.039429,0.62666 0.1176603,0.61678 0.1940311,0.59718 0.2673489,0.56815 0.33645668,0.53015 0.400234,0.48380998 0.45772,0.42982 0.508,0.36908404 0.55023,0.30249 0.58382,0.231156 0.60817,0.1561427 0.62295,0.0787049 H 130.57858 Z M 44.264578,-2.1224195 V -43.122419 h 82.000002 v 40.9999995 z m 85.874002,-37.0038995 -0.249,-0.0315 -0.243,-0.0625 -0.234,-0.0924 -0.22,-0.121 -0.203,-0.1477 -0.183,-0.1719 -0.16,-0.1935 -0.135,-0.2121 -0.107,-0.2272 -0.077,-0.2389 -0.047,-0.2467 -0.016,-0.2507 0.016,-0.2507 0.047,-0.2467 0.077,-0.2388 0.107,-0.2273 0.135,-0.2121 0.16,-0.1935 0.183,-0.1719 0.203,-0.1476 0.22,-0.121 0.234,-0.0925 0.243,-0.0625 0.249,-0.0314 h 0.252 l 0.249,0.0314 0.243,0.0625 0.234,0.0925 0.22,0.121 0.203,0.1476 0.183,0.1719 0.16,0.1935 0.135,0.2121 0.107,0.2273 0.077,0.2388 0.047,0.2467 0.016,0.2507 -0.016,0.2507 -0.047,0.2467 -0.077,0.2389 -0.107,0.2272 -0.135,0.2121 -0.16,0.1935 -0.183,0.1719 -0.203,0.1477 -0.22,0.121 -0.234,0.0924 -0.243,0.0625 -0.249,0.0315 z m -124.9995967,0 -0.24917,-0.0315 -0.24327,-0.0625 -0.23352,-0.0924 -0.2201,-0.121 -0.2032,-0.1477 -0.18309,-0.1719 -0.16009,-0.1935 -0.13458,-0.2121 -0.10694,-0.2272 -0.07762,-0.2389 -0.04706,-0.2467 -0.01576,-0.2507 0.01576,-0.2507 0.04706,-0.2467 0.07762,-0.2388 0.10694,-0.2273 0.13458,-0.2121 0.16009,-0.1935 0.18309,-0.1719 0.2032,-0.1476 0.2201,-0.121 0.23352,-0.0925 0.24327,-0.0625 0.24917,-0.0314 h 0.25118 l 0.24918,0.0314 0.24327,0.0625 0.23352,0.0925 0.22009,0.121 0.2032,0.1476 0.18309,0.1719 0.1601,0.1935 0.13458,0.2121 0.10693,0.2273 0.07762,0.2388 0.04706,0.2467 0.01578,0.2507 -0.01578,0.2507 -0.04706,0.2467 -0.07762,0.2389 -0.10693,0.2272 -0.13458,0.2121 -0.1601,0.1935 -0.18309,0.1719 -0.2032,0.1477 -0.22009,0.121 -0.23352,0.0924 -0.24327,0.0625 -0.24918,0.0315 z m 10.5313947,4.001 -0.1869,-0.0237 -0.1824,-0.0468 -0.1752,-0.0693 -0.165,-0.0908 -0.1524,-0.1107 -0.1374,-0.129 -0.12,-0.1451 -0.101,-0.1591 -0.0802,-0.1704 -0.0582,-0.1792 -0.0353,-0.185 -0.0118,-0.188 0.0118,-0.188 0.0353,-0.185 0.0582,-0.1792 0.0802,-0.1704 0.101,-0.1591 0.12,-0.1451 0.1374,-0.129 0.1524,-0.1107 0.165,-0.0907 0.1752,-0.0694 0.1824,-0.0468 0.1869,-0.0236 h 0.1884 l 0.1869,0.0236 0.1824,0.0468 0.1752,0.0694 0.165,0.0907 0.1524,0.1107 0.1373,0.129 0.1201,0.1451 0.101,0.1591 0.0802,0.1704 0.0582,0.1792 0.0353,0.185 0.0118,0.188 -0.0118,0.188 -0.0353,0.185 -0.0582,0.1792 -0.0802,0.1704 -0.101,0.1591 -0.1201,0.1451 -0.1373,0.129 -0.1524,0.1107 -0.165,0.0908 -0.1752,0.0693 -0.1824,0.0468 -0.1869,0.0237 z m -10.5313947,32.9989595 -0.24917,-0.03148 -0.24327,-0.06247 -0.23352,-0.09245 -0.2201,-0.121 -0.2032,-0.14763 -0.18309,-0.17194 -0.16009,-0.19351 -0.13458,-0.21206 -0.10694,-0.22727 -0.07762,-0.23886 -0.04706,-0.24672 -0.01576,-0.25067 0.01576,-0.25066 0.04706,-0.24672 0.07762,-0.23886 0.10694,-0.22726 0.13458,-0.21207 0.16009,-0.19351 0.18309,-0.17194 0.2032,-0.14762 0.2201,-0.12101 0.23352,-0.09245 0.24327,-0.06247 0.24917,-0.03148 h 0.25118 l 0.24918,0.03148 0.24327,0.06247 0.23352,0.09245 0.22009,0.12101 0.2032,0.14762 0.18309,0.17194 0.1601,0.19351 0.13458,0.21207 0.10693,0.22726 0.07762,0.23886 0.04706,0.24672 0.01578,0.25066 -0.01578,0.25067 -0.04706,0.24672 -0.07762,0.23886 -0.10693,0.22727 -0.13458,0.21206 -0.1601,0.19351 -0.18309,0.17194 -0.2032,0.14763 -0.22009,0.121 -0.23352,0.09245 -0.24327,0.06247 -0.24918,0.03148 z m 124.9995967,0 -0.249,-0.03148 -0.243,-0.06247 -0.234,-0.09245 -0.22,-0.121 -0.203,-0.14763 -0.183,-0.17194 -0.16,-0.19351 -0.135,-0.21206 -0.107,-0.22727 -0.077,-0.23886 -0.047,-0.24672 -0.016,-0.25067 0.016,-0.25066 0.047,-0.24672 0.077,-0.23886 0.107,-0.22726 0.135,-0.21207 0.16,-0.19351 0.183,-0.17194 0.203,-0.14762 0.22,-0.12101 0.234,-0.09245 0.243,-0.06247 0.249,-0.03148 h 0.252 l 0.249,0.03148 0.243,0.06247 0.234,0.09245 0.22,0.12101 0.203,0.14762 0.183,0.17194 0.16,0.19351 0.135,0.21207 0.107,0.22726 0.077,0.23886 0.047,0.24672 0.016,0.25066 -0.016,0.25067 -0.047,0.24672 -0.077,0.23886 -0.107,0.22727 -0.135,0.21206 -0.16,0.19351 -0.183,0.17194 -0.203,0.14763 -0.22,0.121 -0.234,0.09245 -0.243,0.06247 -0.249,0.03148 z m -112.374002,0.75394 v -4.5 h 12 v 4.5 z"
     id="path4"
     style="fill:none;stroke:#000000;stroke-width:0.26458332;stroke-miterlimit:4;stroke-dasharray:none"
     inkscape:connector-curvature="0" />
</svg>
