solid OpenSCAD_Model
  facet normal -1 0 0
    outer loop
      vertex -3 18 -1.5
      vertex -3 17 -0.5
      vertex -3 18 1
    endloop
  endfacet
  facet normal -1 0 0
    outer loop
      vertex -3 16 -1.5
      vertex -3 17 -0.5
      vertex -3 18 -1.5
    endloop
  endfacet
  facet normal -1 -0 0
    outer loop
      vertex -3 17 -0.5
      vertex -3 16 -1.5
      vertex -3 16 -0.5
    endloop
  endfacet
  facet normal -1 -0 0
    outer loop
      vertex -3 18 1
      vertex -3 17 -0.5
      vertex -3 17 1
    endloop
  endfacet
  facet normal 1 0 0
    outer loop
      vertex 3 17 -0.5
      vertex 3 18 1
      vertex 3 17 1
    endloop
  endfacet
  facet normal 1 0 0
    outer loop
      vertex 3 18 1
      vertex 3 17 -0.5
      vertex 3 18 -1.5
    endloop
  endfacet
  facet normal 1 0 0
    outer loop
      vertex 3 16 -1.5
      vertex 3 17 -0.5
      vertex 3 16 -0.5
    endloop
  endfacet
  facet normal 1 0 0
    outer loop
      vertex 3 17 -0.5
      vertex 3 16 -1.5
      vertex 3 18 -1.5
    endloop
  endfacet
  facet normal 0 1 -0
    outer loop
      vertex 3 18 -1.5
      vertex -3 18 1
      vertex 3 18 1
    endloop
  endfacet
  facet normal 0 1 0
    outer loop
      vertex -3 18 1
      vertex 3 18 -1.5
      vertex -3 18 -1.5
    endloop
  endfacet
  facet normal 0 1 0
    outer loop
      vertex 3 18 1
      vertex 35.5 18 3
      vertex 35.5 18 1
    endloop
  endfacet
  facet normal 0 1 0
    outer loop
      vertex 35.5 18 3
      vertex 3 18 1
      vertex -35.5 18 3
    endloop
  endfacet
  facet normal 0 1 -0
    outer loop
      vertex -3 18 1
      vertex -35.5 18 3
      vertex 3 18 1
    endloop
  endfacet
  facet normal 0 1 0
    outer loop
      vertex -35.5 18 3
      vertex -3 18 1
      vertex -35.5 18 1
    endloop
  endfacet
  facet normal 0 0 -1
    outer loop
      vertex -3 16 -1.5
      vertex 3 18 -1.5
      vertex 3 16 -1.5
    endloop
  endfacet
  facet normal -0 0 -1
    outer loop
      vertex 3 18 -1.5
      vertex -3 16 -1.5
      vertex -3 18 -1.5
    endloop
  endfacet
  facet normal 0 -1 0
    outer loop
      vertex -3 17 1
      vertex 3 17 1.5
      vertex -3 17 1.5
    endloop
  endfacet
  facet normal 0 -1 0
    outer loop
      vertex -3 17 1
      vertex 3 17 1
      vertex 3 17 1.5
    endloop
  endfacet
  facet normal 0 -1 0
    outer loop
      vertex -3 17 -0.5
      vertex 3 17 1
      vertex -3 17 1
    endloop
  endfacet
  facet normal 0 -1 -0
    outer loop
      vertex 3 17 1
      vertex -3 17 -0.5
      vertex 3 17 -0.5
    endloop
  endfacet
  facet normal 0 -1 0
    outer loop
      vertex -34.5 17 2
      vertex -3 17 1.5
      vertex 34.5 17 2
    endloop
  endfacet
  facet normal 0 -1 0
    outer loop
      vertex -34.5 17 1
      vertex -3 17 1.5
      vertex -34.5 17 2
    endloop
  endfacet
  facet normal 0 -1 -0
    outer loop
      vertex -3 17 1.5
      vertex -34.5 17 1
      vertex -3 17 1
    endloop
  endfacet
  facet normal 0 -1 0
    outer loop
      vertex 3 17 1.5
      vertex 34.5 17 2
      vertex -3 17 1.5
    endloop
  endfacet
  facet normal 0 -1 0
    outer loop
      vertex 34.5 17 1
      vertex 3 17 1.5
      vertex 3 17 1
    endloop
  endfacet
  facet normal 0 -1 0
    outer loop
      vertex 3 17 1.5
      vertex 34.5 17 1
      vertex 34.5 17 2
    endloop
  endfacet
  facet normal -0 0 1
    outer loop
      vertex -3 17 -0.5
      vertex 3 16 -0.5
      vertex 3 17 -0.5
    endloop
  endfacet
  facet normal 0 0 1
    outer loop
      vertex 3 16 -0.5
      vertex -3 17 -0.5
      vertex -3 16 -0.5
    endloop
  endfacet
  facet normal 0 -1 0
    outer loop
      vertex -3 16 -1.5
      vertex 3 16 -0.5
      vertex -3 16 -0.5
    endloop
  endfacet
  facet normal 0 -1 -0
    outer loop
      vertex 3 16 -0.5
      vertex -3 16 -1.5
      vertex 3 16 -1.5
    endloop
  endfacet
  facet normal -1 0 0
    outer loop
      vertex -35.5 -18 1
      vertex -35.5 -8 3
      vertex -35.5 -8 1
    endloop
  endfacet
  facet normal -1 -0 0
    outer loop
      vertex -35.5 -8 3
      vertex -35.5 -18 1
      vertex -35.5 -18 3
    endloop
  endfacet
  facet normal -1 0 0
    outer loop
      vertex -35.5 8 1
      vertex -35.5 18 3
      vertex -35.5 18 1
    endloop
  endfacet
  facet normal -1 -0 0
    outer loop
      vertex -35.5 18 3
      vertex -35.5 8 1
      vertex -35.5 8 3
    endloop
  endfacet
  facet normal 0 0 1
    outer loop
      vertex -3 -3 3
      vertex -16 2 3
      vertex -9 -9.5 3
    endloop
  endfacet
  facet normal 0 0 1
    outer loop
      vertex -9 -9.5 3
      vertex -16 2 3
      vertex -19 -9.5 3
    endloop
  endfacet
  facet normal -0 0 1
    outer loop
      vertex -3 -3 3
      vertex 9 -4 3
      vertex 9 -3 3
    endloop
  endfacet
  facet normal 0 0 1
    outer loop
      vertex 9 -4 3
      vertex -3 -3 3
      vertex -3 -4 3
    endloop
  endfacet
  facet normal -0 0 1
    outer loop
      vertex -3 2 3
      vertex 9 1 3
      vertex 9 2 3
    endloop
  endfacet
  facet normal 0 0 1
    outer loop
      vertex 9 1 3
      vertex -3 2 3
      vertex -3 1 3
    endloop
  endfacet
  facet normal 0 0 1
    outer loop
      vertex 35.5 18 3
      vertex 25 0 3
      vertex 35.5 -18 3
    endloop
  endfacet
  facet normal -0 0 1
    outer loop
      vertex 9 6 3
      vertex 25 0 3
      vertex 35.5 18 3
    endloop
  endfacet
  facet normal -0 0 1
    outer loop
      vertex 9 2 3
      vertex 15 0 3
      vertex 9 6 3
    endloop
  endfacet
  facet normal 0 0 1
    outer loop
      vertex 25 0 3
      vertex 9 6 3
      vertex 15 0 3
    endloop
  endfacet
  facet normal 0 0 1
    outer loop
      vertex 35.5 18 3
      vertex -3 6 3
      vertex 9 6 3
    endloop
  endfacet
  facet normal 0 0 1
    outer loop
      vertex -4 2 3
      vertex -3 2 3
      vertex -3 6 3
    endloop
  endfacet
  facet normal 0 0 1
    outer loop
      vertex -3 2 3
      vertex -4 2 3
      vertex -3 1 3
    endloop
  endfacet
  facet normal 0 0 1
    outer loop
      vertex -3 1 3
      vertex -4 2 3
      vertex -3 -3 3
    endloop
  endfacet
  facet normal -0 0 1
    outer loop
      vertex -16 2 3
      vertex -3 -3 3
      vertex -4 2 3
    endloop
  endfacet
  facet normal 0 0 1
    outer loop
      vertex -4 2 3
      vertex -3 6 3
      vertex -4 6 3
    endloop
  endfacet
  facet normal -0 0 1
    outer loop
      vertex -35.5 18 3
      vertex -3 6 3
      vertex 35.5 18 3
    endloop
  endfacet
  facet normal 0 0 1
    outer loop
      vertex -3 6 3
      vertex -35.5 18 3
      vertex -4 6 3
    endloop
  endfacet
  facet normal 0 0 1
    outer loop
      vertex -26 8 3
      vertex -16 2 3
      vertex -16 6 3
    endloop
  endfacet
  facet normal 0 0 1
    outer loop
      vertex -16 2 3
      vertex -26 -8 3
      vertex -19 -9.5 3
    endloop
  endfacet
  facet normal 0 0 1
    outer loop
      vertex -16 2 3
      vertex -26 8 3
      vertex -26 -8 3
    endloop
  endfacet
  facet normal 0 0 1
    outer loop
      vertex -4 6 3
      vertex -35.5 18 3
      vertex -16 6 3
    endloop
  endfacet
  facet normal 0 0 1
    outer loop
      vertex -16 6 3
      vertex -35.5 18 3
      vertex -26 8 3
    endloop
  endfacet
  facet normal 0 0 1
    outer loop
      vertex -26 8 3
      vertex -35.5 18 3
      vertex -35.5 8 3
    endloop
  endfacet
  facet normal -0 0 1
    outer loop
      vertex 25 -12 3
      vertex 35.5 -18 3
      vertex 25 0 3
    endloop
  endfacet
  facet normal -0 0 1
    outer loop
      vertex 15 -12 3
      vertex 35.5 -18 3
      vertex 25 -12 3
    endloop
  endfacet
  facet normal -0 0 1
    outer loop
      vertex 9 1 3
      vertex 15 0 3
      vertex 9 2 3
    endloop
  endfacet
  facet normal 0 0 1
    outer loop
      vertex 9 -3 3
      vertex 15 0 3
      vertex 9 1 3
    endloop
  endfacet
  facet normal 0 0 1
    outer loop
      vertex 9 -4 3
      vertex 15 0 3
      vertex 9 -3 3
    endloop
  endfacet
  facet normal 0 0 1
    outer loop
      vertex 15 0 3
      vertex 9 -4 3
      vertex 15 -12 3
    endloop
  endfacet
  facet normal -0 0 1
    outer loop
      vertex 9 -8 3
      vertex 15 -12 3
      vertex 9 -4 3
    endloop
  endfacet
  facet normal 0 0 1
    outer loop
      vertex -9 -18 3
      vertex 9 -8 3
      vertex -3 -8 3
    endloop
  endfacet
  facet normal 0 0 1
    outer loop
      vertex 9 -8 3
      vertex -9 -18 3
      vertex 15 -12 3
    endloop
  endfacet
  facet normal 0 0 1
    outer loop
      vertex -3 -3 3
      vertex -9 -9.5 3
      vertex -3 -4 3
    endloop
  endfacet
  facet normal 0 0 1
    outer loop
      vertex -3 -4 3
      vertex -9 -9.5 3
      vertex -3 -8 3
    endloop
  endfacet
  facet normal 0 0 1
    outer loop
      vertex -9 -18 3
      vertex -3 -8 3
      vertex -9 -9.5 3
    endloop
  endfacet
  facet normal 0 0 1
    outer loop
      vertex 15 -12 3
      vertex -9 -18 3
      vertex 35.5 -18 3
    endloop
  endfacet
  facet normal 0 0 1
    outer loop
      vertex -19 -9.5 3
      vertex -26 -8 3
      vertex -19 -18 3
    endloop
  endfacet
  facet normal 0 0 1
    outer loop
      vertex -35.5 -18 3
      vertex -26 -8 3
      vertex -35.5 -8 3
    endloop
  endfacet
  facet normal 0 0 1
    outer loop
      vertex -26 -8 3
      vertex -35.5 -18 3
      vertex -19 -18 3
    endloop
  endfacet
  facet normal 1 -0 0
    outer loop
      vertex 35.5 -18 3
      vertex 35.5 18 1
      vertex 35.5 18 3
    endloop
  endfacet
  facet normal 1 0 0
    outer loop
      vertex 35.5 18 1
      vertex 35.5 -18 3
      vertex 35.5 -18 1
    endloop
  endfacet
  facet normal 0 0 -1
    outer loop
      vertex -34.5 8 1
      vertex -35.5 8 1
      vertex -34.5 17 1
    endloop
  endfacet
  facet normal 0 0 -1
    outer loop
      vertex -34.5 17 1
      vertex -3 18 1
      vertex -3 17 1
    endloop
  endfacet
  facet normal 0 0 -1
    outer loop
      vertex -34.5 17 1
      vertex -35.5 18 1
      vertex -3 18 1
    endloop
  endfacet
  facet normal 0 0 -1
    outer loop
      vertex -35.5 18 1
      vertex -34.5 17 1
      vertex -35.5 8 1
    endloop
  endfacet
  facet normal 0 0 -1
    outer loop
      vertex 35.5 -18 1
      vertex 34.5 -17 1
      vertex 35.5 18 1
    endloop
  endfacet
  facet normal 0 0 -1
    outer loop
      vertex -9 -18 1
      vertex 34.5 -17 1
      vertex 35.5 -18 1
    endloop
  endfacet
  facet normal -0 0 -1
    outer loop
      vertex 34.5 -17 1
      vertex -9 -18 1
      vertex -9 -17 1
    endloop
  endfacet
  facet normal 0 0 -1
    outer loop
      vertex 34.5 17 1
      vertex 35.5 18 1
      vertex 34.5 -17 1
    endloop
  endfacet
  facet normal 0 0 -1
    outer loop
      vertex 3 18 1
      vertex 34.5 17 1
      vertex 3 17 1
    endloop
  endfacet
  facet normal 0 0 -1
    outer loop
      vertex 34.5 17 1
      vertex 3 18 1
      vertex 35.5 18 1
    endloop
  endfacet
  facet normal 0 0 -1
    outer loop
      vertex -19 -18 1
      vertex -34.5 -17 1
      vertex -19 -17 1
    endloop
  endfacet
  facet normal 0 0 -1
    outer loop
      vertex -35.5 -18 1
      vertex -34.5 -17 1
      vertex -19 -18 1
    endloop
  endfacet
  facet normal 0 0 -1
    outer loop
      vertex -35.5 -8 1
      vertex -34.5 -17 1
      vertex -35.5 -18 1
    endloop
  endfacet
  facet normal 0 0 -1
    outer loop
      vertex -34.5 -17 1
      vertex -35.5 -8 1
      vertex -34.5 -8 1
    endloop
  endfacet
  facet normal 0 0 -1
    outer loop
      vertex -32.5 8 1
      vertex -33.5 8 1
      vertex -32.5 15 1
    endloop
  endfacet
  facet normal 0 0 -1
    outer loop
      vertex 33.5 -16 1
      vertex 32.5 -15 1
      vertex 33.5 16 1
    endloop
  endfacet
  facet normal 0 0 -1
    outer loop
      vertex -9 -16 1
      vertex 32.5 -15 1
      vertex 33.5 -16 1
    endloop
  endfacet
  facet normal -0 0 -1
    outer loop
      vertex 32.5 -15 1
      vertex -9 -16 1
      vertex -9 -15 1
    endloop
  endfacet
  facet normal 0 0 -1
    outer loop
      vertex 32.5 15 1
      vertex 33.5 16 1
      vertex 32.5 -15 1
    endloop
  endfacet
  facet normal 0 0 -1
    outer loop
      vertex -32.5 15 1
      vertex 33.5 16 1
      vertex 32.5 15 1
    endloop
  endfacet
  facet normal 0 0 -1
    outer loop
      vertex -32.5 15 1
      vertex -33.5 16 1
      vertex 33.5 16 1
    endloop
  endfacet
  facet normal 0 0 -1
    outer loop
      vertex -33.5 16 1
      vertex -32.5 15 1
      vertex -33.5 8 1
    endloop
  endfacet
  facet normal 0 0 -1
    outer loop
      vertex -19 -16 1
      vertex -32.5 -15 1
      vertex -19 -15 1
    endloop
  endfacet
  facet normal 0 0 -1
    outer loop
      vertex -33.5 -16 1
      vertex -32.5 -15 1
      vertex -19 -16 1
    endloop
  endfacet
  facet normal 0 0 -1
    outer loop
      vertex -33.5 -8 1
      vertex -32.5 -15 1
      vertex -33.5 -16 1
    endloop
  endfacet
  facet normal 0 0 -1
    outer loop
      vertex -32.5 -15 1
      vertex -33.5 -8 1
      vertex -32.5 -8 1
    endloop
  endfacet
  facet normal 0 -1 0
    outer loop
      vertex -35.5 -18 1
      vertex -19 -18 3
      vertex -35.5 -18 3
    endloop
  endfacet
  facet normal 0 -1 -0
    outer loop
      vertex -19 -18 3
      vertex -35.5 -18 1
      vertex -19 -18 1
    endloop
  endfacet
  facet normal 0 -1 0
    outer loop
      vertex -9 -18 1
      vertex 35.5 -18 3
      vertex -9 -18 3
    endloop
  endfacet
  facet normal 0 -1 -0
    outer loop
      vertex 35.5 -18 3
      vertex -9 -18 1
      vertex 35.5 -18 1
    endloop
  endfacet
  facet normal 1 -0 0
    outer loop
      vertex -34.5 -17 2
      vertex -34.5 -8 1
      vertex -34.5 -8 2
    endloop
  endfacet
  facet normal 1 0 0
    outer loop
      vertex -34.5 -8 1
      vertex -34.5 -17 2
      vertex -34.5 -17 1
    endloop
  endfacet
  facet normal 1 -0 0
    outer loop
      vertex -34.5 8 2
      vertex -34.5 17 1
      vertex -34.5 17 2
    endloop
  endfacet
  facet normal 1 0 0
    outer loop
      vertex -34.5 17 1
      vertex -34.5 8 2
      vertex -34.5 8 1
    endloop
  endfacet
  facet normal 0 0 -1
    outer loop
      vertex -19 -17 2
      vertex -33.5 -16 2
      vertex -19 -16 2
    endloop
  endfacet
  facet normal 0 0 -1
    outer loop
      vertex -34.5 -17 2
      vertex -33.5 -16 2
      vertex -19 -17 2
    endloop
  endfacet
  facet normal 0 0 -1
    outer loop
      vertex -34.5 -8 2
      vertex -33.5 -16 2
      vertex -34.5 -17 2
    endloop
  endfacet
  facet normal 0 0 -1
    outer loop
      vertex -33.5 -16 2
      vertex -34.5 -8 2
      vertex -33.5 -8 2
    endloop
  endfacet
  facet normal 0 0 -1
    outer loop
      vertex -33.5 8 2
      vertex -34.5 8 2
      vertex -33.5 16 2
    endloop
  endfacet
  facet normal 0 0 -1
    outer loop
      vertex 34.5 -17 2
      vertex 33.5 -16 2
      vertex 34.5 17 2
    endloop
  endfacet
  facet normal 0 0 -1
    outer loop
      vertex -9 -17 2
      vertex 33.5 -16 2
      vertex 34.5 -17 2
    endloop
  endfacet
  facet normal -0 0 -1
    outer loop
      vertex 33.5 -16 2
      vertex -9 -17 2
      vertex -9 -16 2
    endloop
  endfacet
  facet normal 0 0 -1
    outer loop
      vertex 33.5 16 2
      vertex 34.5 17 2
      vertex 33.5 -16 2
    endloop
  endfacet
  facet normal 0 0 -1
    outer loop
      vertex -33.5 16 2
      vertex 34.5 17 2
      vertex 33.5 16 2
    endloop
  endfacet
  facet normal 0 0 -1
    outer loop
      vertex -33.5 16 2
      vertex -34.5 17 2
      vertex 34.5 17 2
    endloop
  endfacet
  facet normal 0 0 -1
    outer loop
      vertex -34.5 17 2
      vertex -33.5 16 2
      vertex -34.5 8 2
    endloop
  endfacet
  facet normal -1 0 0
    outer loop
      vertex 34.5 -17 1
      vertex 34.5 17 2
      vertex 34.5 17 1
    endloop
  endfacet
  facet normal -1 -0 0
    outer loop
      vertex 34.5 17 2
      vertex 34.5 -17 1
      vertex 34.5 -17 2
    endloop
  endfacet
  facet normal 0 1 -0
    outer loop
      vertex -19 -17 1
      vertex -34.5 -17 2
      vertex -19 -17 2
    endloop
  endfacet
  facet normal 0 1 0
    outer loop
      vertex -34.5 -17 2
      vertex -19 -17 1
      vertex -34.5 -17 1
    endloop
  endfacet
  facet normal 0 1 -0
    outer loop
      vertex 34.5 -17 1
      vertex -9 -17 2
      vertex 34.5 -17 2
    endloop
  endfacet
  facet normal 0 1 0
    outer loop
      vertex -9 -17 2
      vertex 34.5 -17 1
      vertex -9 -17 1
    endloop
  endfacet
  facet normal -1 0 0
    outer loop
      vertex -33.5 -16 1
      vertex -33.5 -8 2
      vertex -33.5 -8 1
    endloop
  endfacet
  facet normal -1 -0 0
    outer loop
      vertex -33.5 -8 2
      vertex -33.5 -16 1
      vertex -33.5 -16 2
    endloop
  endfacet
  facet normal -1 0 0
    outer loop
      vertex -33.5 8 1
      vertex -33.5 16 2
      vertex -33.5 16 1
    endloop
  endfacet
  facet normal -1 -0 0
    outer loop
      vertex -33.5 16 2
      vertex -33.5 8 1
      vertex -33.5 8 2
    endloop
  endfacet
  facet normal 1 -0 0
    outer loop
      vertex 33.5 -16 2
      vertex 33.5 16 1
      vertex 33.5 16 2
    endloop
  endfacet
  facet normal 1 0 0
    outer loop
      vertex 33.5 16 1
      vertex 33.5 -16 2
      vertex 33.5 -16 1
    endloop
  endfacet
  facet normal 0 1 -0
    outer loop
      vertex 33.5 16 1
      vertex -33.5 16 2
      vertex 33.5 16 2
    endloop
  endfacet
  facet normal 0 1 0
    outer loop
      vertex -33.5 16 2
      vertex 33.5 16 1
      vertex -33.5 16 1
    endloop
  endfacet
  facet normal 0 -1 0
    outer loop
      vertex -33.5 -16 1
      vertex -19 -16 2
      vertex -33.5 -16 2
    endloop
  endfacet
  facet normal 0 -1 -0
    outer loop
      vertex -19 -16 2
      vertex -33.5 -16 1
      vertex -19 -16 1
    endloop
  endfacet
  facet normal 0 -1 0
    outer loop
      vertex -9 -16 1
      vertex 33.5 -16 2
      vertex -9 -16 2
    endloop
  endfacet
  facet normal 0 -1 -0
    outer loop
      vertex 33.5 -16 2
      vertex -9 -16 1
      vertex 33.5 -16 1
    endloop
  endfacet
  facet normal 1 -0 0
    outer loop
      vertex -3 -8 3
      vertex -3 -4 2
      vertex -3 -4 3
    endloop
  endfacet
  facet normal 1 0 0
    outer loop
      vertex -3 -4 2
      vertex -3 -8 3
      vertex -3 -8 2
    endloop
  endfacet
  facet normal -1 0 0
    outer loop
      vertex 9 -8 2
      vertex 9 -4 3
      vertex 9 -4 2
    endloop
  endfacet
  facet normal -1 -0 0
    outer loop
      vertex 9 -4 3
      vertex 9 -8 2
      vertex 9 -8 3
    endloop
  endfacet
  facet normal 0 -1 0
    outer loop
      vertex -3 -4 2
      vertex 9 -4 3
      vertex -3 -4 3
    endloop
  endfacet
  facet normal 0 -1 -0
    outer loop
      vertex 9 -4 3
      vertex -3 -4 2
      vertex 9 -4 2
    endloop
  endfacet
  facet normal 0 1 -0
    outer loop
      vertex 9 -8 2
      vertex -3 -8 3
      vertex 9 -8 3
    endloop
  endfacet
  facet normal 0 1 0
    outer loop
      vertex -3 -8 3
      vertex 9 -8 2
      vertex -3 -8 2
    endloop
  endfacet
  facet normal 1 -0 0
    outer loop
      vertex -3 -3 3
      vertex -3 1 2
      vertex -3 1 3
    endloop
  endfacet
  facet normal 1 0 0
    outer loop
      vertex -3 1 2
      vertex -3 -3 3
      vertex -3 -3 2
    endloop
  endfacet
  facet normal -1 0 0
    outer loop
      vertex 9 -3 2
      vertex 9 1 3
      vertex 9 1 2
    endloop
  endfacet
  facet normal -1 -0 0
    outer loop
      vertex 9 1 3
      vertex 9 -3 2
      vertex 9 -3 3
    endloop
  endfacet
  facet normal 0 -1 0
    outer loop
      vertex -3 1 2
      vertex 9 1 3
      vertex -3 1 3
    endloop
  endfacet
  facet normal 0 -1 -0
    outer loop
      vertex 9 1 3
      vertex -3 1 2
      vertex 9 1 2
    endloop
  endfacet
  facet normal 0 1 -0
    outer loop
      vertex 9 -3 2
      vertex -3 -3 3
      vertex 9 -3 3
    endloop
  endfacet
  facet normal 0 1 0
    outer loop
      vertex -3 -3 3
      vertex 9 -3 2
      vertex -3 -3 2
    endloop
  endfacet
  facet normal 1 -0 0
    outer loop
      vertex -3 2 3
      vertex -3 6 2
      vertex -3 6 3
    endloop
  endfacet
  facet normal 1 0 0
    outer loop
      vertex -3 6 2
      vertex -3 2 3
      vertex -3 2 2
    endloop
  endfacet
  facet normal -1 0 0
    outer loop
      vertex 9 2 2
      vertex 9 6 3
      vertex 9 6 2
    endloop
  endfacet
  facet normal -1 -0 0
    outer loop
      vertex 9 6 3
      vertex 9 2 2
      vertex 9 2 3
    endloop
  endfacet
  facet normal 0 1 -0
    outer loop
      vertex 9 2 2
      vertex -3 2 3
      vertex 9 2 3
    endloop
  endfacet
  facet normal 0 1 0
    outer loop
      vertex -3 2 3
      vertex 9 2 2
      vertex -3 2 2
    endloop
  endfacet
  facet normal 0 -1 0
    outer loop
      vertex -3 6 2
      vertex 9 6 3
      vertex -3 6 3
    endloop
  endfacet
  facet normal 0 -1 -0
    outer loop
      vertex 9 6 3
      vertex -3 6 2
      vertex 9 6 2
    endloop
  endfacet
  facet normal 1 -0 0
    outer loop
      vertex -32.5 -15 2
      vertex -32.5 -8 1
      vertex -32.5 -8 2
    endloop
  endfacet
  facet normal 1 0 0
    outer loop
      vertex -32.5 -8 1
      vertex -32.5 -15 2
      vertex -32.5 -15 1
    endloop
  endfacet
  facet normal 1 -0 0
    outer loop
      vertex -32.5 8 2
      vertex -32.5 15 1
      vertex -32.5 15 2
    endloop
  endfacet
  facet normal 1 0 0
    outer loop
      vertex -32.5 15 1
      vertex -32.5 8 2
      vertex -32.5 8 1
    endloop
  endfacet
  facet normal 0 0 -1
    outer loop
      vertex -19 -15 2
      vertex -26 -8 2
      vertex -19 -9.5 2
    endloop
  endfacet
  facet normal 0 0 -1
    outer loop
      vertex -32.5 -15 2
      vertex -26 -8 2
      vertex -19 -15 2
    endloop
  endfacet
  facet normal -0 0 -1
    outer loop
      vertex -26 -8 2
      vertex -32.5 -15 2
      vertex -32.5 -8 2
    endloop
  endfacet
  facet normal 0 0 -1
    outer loop
      vertex -3 1 2
      vertex 9 2 2
      vertex 9 1 2
    endloop
  endfacet
  facet normal -0 0 -1
    outer loop
      vertex 9 2 2
      vertex -3 1 2
      vertex -3 2 2
    endloop
  endfacet
  facet normal 0 0 -1
    outer loop
      vertex -3 -4 2
      vertex 9 -3 2
      vertex 9 -4 2
    endloop
  endfacet
  facet normal -0 0 -1
    outer loop
      vertex 9 -3 2
      vertex -3 -4 2
      vertex -3 -3 2
    endloop
  endfacet
  facet normal 0 0 -1
    outer loop
      vertex 25 0 2
      vertex 32.5 -15 2
      vertex 25 -12 2
    endloop
  endfacet
  facet normal 0 0 -1
    outer loop
      vertex 32.5 -15 2
      vertex 15 -12 2
      vertex 25 -12 2
    endloop
  endfacet
  facet normal 0 0 -1
    outer loop
      vertex 15 -12 2
      vertex 9 -8 2
      vertex 15 0 2
    endloop
  endfacet
  facet normal 0 0 -1
    outer loop
      vertex -9 -15 2
      vertex 9 -8 2
      vertex 15 -12 2
    endloop
  endfacet
  facet normal 0 0 -1
    outer loop
      vertex -9 -9.5 2
      vertex -3 -4 2
      vertex -3 -8 2
    endloop
  endfacet
  facet normal -0 0 -1
    outer loop
      vertex -3 -4 2
      vertex -9 -9.5 2
      vertex -3 -3 2
    endloop
  endfacet
  facet normal 0 0 -1
    outer loop
      vertex -16 2 2
      vertex -3 -3 2
      vertex -9 -9.5 2
    endloop
  endfacet
  facet normal 0 0 -1
    outer loop
      vertex -3 1 2
      vertex -4 2 2
      vertex -3 2 2
    endloop
  endfacet
  facet normal 0 0 -1
    outer loop
      vertex -3 2 2
      vertex -4 2 2
      vertex -3 6 2
    endloop
  endfacet
  facet normal 0 0 -1
    outer loop
      vertex -9 -15 2
      vertex 15 -12 2
      vertex 32.5 -15 2
    endloop
  endfacet
  facet normal -0 0 -1
    outer loop
      vertex 9 -8 2
      vertex -9 -15 2
      vertex -3 -8 2
    endloop
  endfacet
  facet normal 0 0 -1
    outer loop
      vertex -9 -9.5 2
      vertex -3 -8 2
      vertex -9 -15 2
    endloop
  endfacet
  facet normal 0 0 -1
    outer loop
      vertex -3 -3 2
      vertex -4 2 2
      vertex -3 1 2
    endloop
  endfacet
  facet normal 0 0 -1
    outer loop
      vertex -3 -3 2
      vertex -16 2 2
      vertex -4 2 2
    endloop
  endfacet
  facet normal 0 0 -1
    outer loop
      vertex -26 -8 2
      vertex -16 2 2
      vertex -19 -9.5 2
    endloop
  endfacet
  facet normal 0 0 -1
    outer loop
      vertex -19 -9.5 2
      vertex -16 2 2
      vertex -9 -9.5 2
    endloop
  endfacet
  facet normal 0 0 -1
    outer loop
      vertex 32.5 -15 2
      vertex 25 0 2
      vertex 32.5 15 2
    endloop
  endfacet
  facet normal 0 0 -1
    outer loop
      vertex 9 6 2
      vertex 25 0 2
      vertex 15 0 2
    endloop
  endfacet
  facet normal 0 0 -1
    outer loop
      vertex 9 -4 2
      vertex 15 0 2
      vertex 9 -8 2
    endloop
  endfacet
  facet normal 0 0 -1
    outer loop
      vertex 9 -3 2
      vertex 15 0 2
      vertex 9 -4 2
    endloop
  endfacet
  facet normal 0 0 -1
    outer loop
      vertex 9 1 2
      vertex 15 0 2
      vertex 9 -3 2
    endloop
  endfacet
  facet normal 0 0 -1
    outer loop
      vertex 9 2 2
      vertex 15 0 2
      vertex 9 1 2
    endloop
  endfacet
  facet normal 0 0 -1
    outer loop
      vertex 9 6 2
      vertex 15 0 2
      vertex 9 2 2
    endloop
  endfacet
  facet normal 0 0 -1
    outer loop
      vertex 25 0 2
      vertex 9 6 2
      vertex 32.5 15 2
    endloop
  endfacet
  facet normal 0 0 -1
    outer loop
      vertex -3 6 2
      vertex 32.5 15 2
      vertex 9 6 2
    endloop
  endfacet
  facet normal 0 0 -1
    outer loop
      vertex -4 6 2
      vertex -3 6 2
      vertex -4 2 2
    endloop
  endfacet
  facet normal 0 0 -1
    outer loop
      vertex -32.5 15 2
      vertex -3 6 2
      vertex -4 6 2
    endloop
  endfacet
  facet normal 0 0 -1
    outer loop
      vertex -32.5 15 2
      vertex -4 6 2
      vertex -16 6 2
    endloop
  endfacet
  facet normal 0 0 -1
    outer loop
      vertex -26 8 2
      vertex -16 2 2
      vertex -26 -8 2
    endloop
  endfacet
  facet normal 0 0 -1
    outer loop
      vertex -16 2 2
      vertex -26 8 2
      vertex -16 6 2
    endloop
  endfacet
  facet normal 0 0 -1
    outer loop
      vertex -32.5 15 2
      vertex -16 6 2
      vertex -26 8 2
    endloop
  endfacet
  facet normal 0 0 -1
    outer loop
      vertex -32.5 15 2
      vertex -26 8 2
      vertex -32.5 8 2
    endloop
  endfacet
  facet normal 0 0 -1
    outer loop
      vertex -3 6 2
      vertex -32.5 15 2
      vertex 32.5 15 2
    endloop
  endfacet
  facet normal -1 0 0
    outer loop
      vertex 32.5 -15 1
      vertex 32.5 15 2
      vertex 32.5 15 1
    endloop
  endfacet
  facet normal -1 -0 0
    outer loop
      vertex 32.5 15 2
      vertex 32.5 -15 1
      vertex 32.5 -15 2
    endloop
  endfacet
  facet normal 0 -1 0
    outer loop
      vertex -32.5 15 1
      vertex 32.5 15 2
      vertex -32.5 15 2
    endloop
  endfacet
  facet normal 0 -1 -0
    outer loop
      vertex 32.5 15 2
      vertex -32.5 15 1
      vertex 32.5 15 1
    endloop
  endfacet
  facet normal 0 1 -0
    outer loop
      vertex -19 -15 1
      vertex -32.5 -15 2
      vertex -19 -15 2
    endloop
  endfacet
  facet normal 0 1 0
    outer loop
      vertex -32.5 -15 2
      vertex -19 -15 1
      vertex -32.5 -15 1
    endloop
  endfacet
  facet normal 0 1 -0
    outer loop
      vertex 32.5 -15 1
      vertex -9 -15 2
      vertex 32.5 -15 2
    endloop
  endfacet
  facet normal 0 1 0
    outer loop
      vertex -9 -15 2
      vertex 32.5 -15 1
      vertex -9 -15 1
    endloop
  endfacet
  facet normal -1 0 0
    outer loop
      vertex -26 -8 2
      vertex -26 8 3
      vertex -26 8 2
    endloop
  endfacet
  facet normal -1 -0 0
    outer loop
      vertex -26 8 3
      vertex -26 -8 2
      vertex -26 -8 3
    endloop
  endfacet
  facet normal 0 1 -0
    outer loop
      vertex -32.5 -8 1
      vertex -33.5 -8 2
      vertex -32.5 -8 2
    endloop
  endfacet
  facet normal 0 1 0
    outer loop
      vertex -33.5 -8 2
      vertex -32.5 -8 1
      vertex -33.5 -8 1
    endloop
  endfacet
  facet normal 0 1 0
    outer loop
      vertex -32.5 -8 2
      vertex -26 -8 3
      vertex -26 -8 2
    endloop
  endfacet
  facet normal 0 1 0
    outer loop
      vertex -26 -8 3
      vertex -32.5 -8 2
      vertex -35.5 -8 3
    endloop
  endfacet
  facet normal 0 1 -0
    outer loop
      vertex -33.5 -8 2
      vertex -35.5 -8 3
      vertex -32.5 -8 2
    endloop
  endfacet
  facet normal 0 1 -0
    outer loop
      vertex -34.5 -8 2
      vertex -35.5 -8 3
      vertex -33.5 -8 2
    endloop
  endfacet
  facet normal 0 1 0
    outer loop
      vertex -35.5 -8 1
      vertex -34.5 -8 2
      vertex -34.5 -8 1
    endloop
  endfacet
  facet normal 0 1 0
    outer loop
      vertex -34.5 -8 2
      vertex -35.5 -8 1
      vertex -35.5 -8 3
    endloop
  endfacet
  facet normal 0 -1 0
    outer loop
      vertex -33.5 8 1
      vertex -32.5 8 2
      vertex -33.5 8 2
    endloop
  endfacet
  facet normal 0 -1 -0
    outer loop
      vertex -32.5 8 2
      vertex -33.5 8 1
      vertex -32.5 8 1
    endloop
  endfacet
  facet normal 0 -1 0
    outer loop
      vertex -33.5 8 2
      vertex -35.5 8 3
      vertex -34.5 8 2
    endloop
  endfacet
  facet normal 0 -1 0
    outer loop
      vertex -35.5 8 1
      vertex -34.5 8 2
      vertex -35.5 8 3
    endloop
  endfacet
  facet normal 0 -1 -0
    outer loop
      vertex -34.5 8 2
      vertex -35.5 8 1
      vertex -34.5 8 1
    endloop
  endfacet
  facet normal 0 -1 0
    outer loop
      vertex -32.5 8 2
      vertex -35.5 8 3
      vertex -33.5 8 2
    endloop
  endfacet
  facet normal 0 -1 0
    outer loop
      vertex -35.5 8 3
      vertex -32.5 8 2
      vertex -26 8 3
    endloop
  endfacet
  facet normal 0 -1 -0
    outer loop
      vertex -26 8 3
      vertex -32.5 8 2
      vertex -26 8 2
    endloop
  endfacet
  facet normal 1 0 0
    outer loop
      vertex -19 -9.5 3
      vertex -19 -15 2
      vertex -19 -9.5 2
    endloop
  endfacet
  facet normal 1 0 0
    outer loop
      vertex -19 -15 2
      vertex -19 -16 2
      vertex -19 -15 1
    endloop
  endfacet
  facet normal 1 -0 0
    outer loop
      vertex -19 -18 3
      vertex -19 -15 2
      vertex -19 -9.5 3
    endloop
  endfacet
  facet normal 1 0 0
    outer loop
      vertex -19 -15 2
      vertex -19 -18 3
      vertex -19 -16 2
    endloop
  endfacet
  facet normal 1 0 0
    outer loop
      vertex -19 -16 2
      vertex -19 -18 3
      vertex -19 -17 2
    endloop
  endfacet
  facet normal 1 0 0
    outer loop
      vertex -19 -18 1
      vertex -19 -17 2
      vertex -19 -18 3
    endloop
  endfacet
  facet normal 1 0 0
    outer loop
      vertex -19 -17 2
      vertex -19 -18 1
      vertex -19 -17 1
    endloop
  endfacet
  facet normal 1 0 0
    outer loop
      vertex -19 -15 1
      vertex -19 -16 2
      vertex -19 -16 1
    endloop
  endfacet
  facet normal -1 0 0
    outer loop
      vertex -9 -17 1
      vertex -9 -18 1
      vertex -9 -17 2
    endloop
  endfacet
  facet normal -1 0 0
    outer loop
      vertex -9 -15 1
      vertex -9 -16 1
      vertex -9 -15 2
    endloop
  endfacet
  facet normal -1 0 0
    outer loop
      vertex -9 -15 2
      vertex -9 -9.5 3
      vertex -9 -9.5 2
    endloop
  endfacet
  facet normal -1 0 0
    outer loop
      vertex -9 -16 2
      vertex -9 -15 2
      vertex -9 -16 1
    endloop
  endfacet
  facet normal -1 0 0
    outer loop
      vertex -9 -18 3
      vertex -9 -15 2
      vertex -9 -16 2
    endloop
  endfacet
  facet normal -1 0 0
    outer loop
      vertex -9 -18 3
      vertex -9 -16 2
      vertex -9 -17 2
    endloop
  endfacet
  facet normal -1 0 0
    outer loop
      vertex -9 -15 2
      vertex -9 -18 3
      vertex -9 -9.5 3
    endloop
  endfacet
  facet normal -1 0 0
    outer loop
      vertex -9 -18 3
      vertex -9 -17 2
      vertex -9 -18 1
    endloop
  endfacet
  facet normal 0 -1 0
    outer loop
      vertex -19 -9.5 2
      vertex -9 -9.5 3
      vertex -19 -9.5 3
    endloop
  endfacet
  facet normal 0 -1 -0
    outer loop
      vertex -9 -9.5 3
      vertex -19 -9.5 2
      vertex -9 -9.5 2
    endloop
  endfacet
  facet normal 1 -0 0
    outer loop
      vertex -16 2 3
      vertex -16 6 2
      vertex -16 6 3
    endloop
  endfacet
  facet normal 1 0 0
    outer loop
      vertex -16 6 2
      vertex -16 2 3
      vertex -16 2 2
    endloop
  endfacet
  facet normal -1 0 0
    outer loop
      vertex -4 2 2
      vertex -4 6 3
      vertex -4 6 2
    endloop
  endfacet
  facet normal -1 -0 0
    outer loop
      vertex -4 6 3
      vertex -4 2 2
      vertex -4 2 3
    endloop
  endfacet
  facet normal 0 1 -0
    outer loop
      vertex -4 2 2
      vertex -16 2 3
      vertex -4 2 3
    endloop
  endfacet
  facet normal 0 1 0
    outer loop
      vertex -16 2 3
      vertex -4 2 2
      vertex -16 2 2
    endloop
  endfacet
  facet normal 0 -1 0
    outer loop
      vertex -16 6 2
      vertex -4 6 3
      vertex -16 6 3
    endloop
  endfacet
  facet normal 0 -1 -0
    outer loop
      vertex -4 6 3
      vertex -16 6 2
      vertex -4 6 2
    endloop
  endfacet
  facet normal 1 -0 0
    outer loop
      vertex 15 -12 3
      vertex 15 0 2
      vertex 15 0 3
    endloop
  endfacet
  facet normal 1 0 0
    outer loop
      vertex 15 0 2
      vertex 15 -12 3
      vertex 15 -12 2
    endloop
  endfacet
  facet normal -1 0 0
    outer loop
      vertex 25 -12 2
      vertex 25 0 3
      vertex 25 0 2
    endloop
  endfacet
  facet normal -1 -0 0
    outer loop
      vertex 25 0 3
      vertex 25 -12 2
      vertex 25 -12 3
    endloop
  endfacet
  facet normal 0 -1 0
    outer loop
      vertex 15 0 2
      vertex 25 0 3
      vertex 15 0 3
    endloop
  endfacet
  facet normal 0 -1 -0
    outer loop
      vertex 25 0 3
      vertex 15 0 2
      vertex 25 0 2
    endloop
  endfacet
  facet normal 0 1 -0
    outer loop
      vertex 25 -12 2
      vertex 15 -12 3
      vertex 25 -12 3
    endloop
  endfacet
  facet normal 0 1 0
    outer loop
      vertex 15 -12 3
      vertex 25 -12 2
      vertex 15 -12 2
    endloop
  endfacet
endsolid OpenSCAD_Model
