<?xml version="1.0" encoding="UTF-8" standalone="no"?>
<svg
   xmlns:dc="http://purl.org/dc/elements/1.1/"
   xmlns:cc="http://creativecommons.org/ns#"
   xmlns:rdf="http://www.w3.org/1999/02/22-rdf-syntax-ns#"
   xmlns:svg="http://www.w3.org/2000/svg"
   xmlns="http://www.w3.org/2000/svg"
   xmlns:sodipodi="http://sodipodi.sourceforge.net/DTD/sodipodi-0.dtd"
   xmlns:inkscape="http://www.inkscape.org/namespaces/inkscape"
   width="10.4cm"
   height="4.5999999cm"
   viewBox="-3 -5 393.07084 173.85827"
   version="1.1"
   id="svg6"
   sodipodi:docname="anavi-tag-manager-case.svg"
   inkscape:version="0.92.3 (2405546, 2018-03-11)">
  <metadata
     id="metadata12">
    <rdf:RDF>
      <cc:Work
         rdf:about="">
        <dc:format>image/svg+xml</dc:format>
        <dc:type
           rdf:resource="http://purl.org/dc/dcmitype/StillImage" />
        <dc:title>OpenSCAD Model</dc:title>
      </cc:Work>
    </rdf:RDF>
  </metadata>
  <defs
     id="defs10" />
  <sodipodi:namedview
     pagecolor="#ffffff"
     bordercolor="#666666"
     borderopacity="1"
     objecttolerance="10"
     gridtolerance="10"
     guidetolerance="10"
     inkscape:pageopacity="0"
     inkscape:pageshadow="2"
     inkscape:window-width="1837"
     inkscape:window-height="1018"
     id="namedview8"
     showgrid="false"
     units="cm"
     inkscape:zoom="1.2291667"
     inkscape:cx="344.6649"
     inkscape:cy="-112.9613"
     inkscape:window-x="83"
     inkscape:window-y="34"
     inkscape:window-maximized="1"
     inkscape:current-layer="svg6" />
  <title
     id="title2">OpenSCAD Model</title>
  <path
     d="m 374.21118,168.01199 2.29194,-0.58613 2.20038,-0.86791 2.07372,-1.13842 1.91544,-1.38641 1.7247,-1.6156 1.50838,-1.81848 1.26828,-1.99132 1.00746,-2.13409 0.73158,-2.24305 0.44324,-2.31819 0.14888,-2.35576 V 14.297867 l -0.14888,-2.352006 -0.44324,-2.3181912 -0.73158,-2.2430476 -1.00746,-2.1340889 -1.26828,-1.9913144 -1.50838,-1.8184845 -1.7247,-1.61559528 -1.91544,-1.38640592 -2.07372,-1.1384317 -2.20038,-0.8679124 -2.29194,-0.5861226 -2.34812,-0.3005756 H 15.207813 L 12.8597,-4.1537335 10.567744,-3.5676109 8.367375,-2.6996985 6.293647,-1.5612668 4.3785956,-0.17486088 2.6535041,1.4407344 1.1451325,3.2592189 -0.12277414,5.2505333 -1.1306166,7.3846222 -1.8621888,9.6276698 -2.3054266,11.945861 -2.4543043,14.297867 V 149.55663 l 0.1488777,2.35576 0.4432378,2.31819 0.7315722,2.24305 1.00784246,2.13409 1.26790664,1.99132 1.5083716,1.81848 1.7250915,1.6156 1.9150514,1.38641 2.073728,1.13842 2.200369,0.86791 2.291956,0.58613 2.348113,0.30058 H 371.86306 Z M 269.85877,55.629679 V 10.543675 h 16.96033 v 45.086004 z m 100.34817,-22.557468 -0.93924,-0.112716 -0.91664,-0.225432 -0.88007,-0.338147 -0.82994,-0.454622 -0.7655,-0.556065 -0.69011,-0.646238 -0.60304,-0.728896 -0.50731,-0.796527 -0.40329,-0.852883 -0.29286,-0.897971 -0.17715,-0.928028 -0.0596,-0.943057 0.0596,-0.939299 0.17715,-0.928028 0.29286,-0.89797 0.40329,-0.852885 0.50731,-0.796526 0.60304,-0.728896 0.69011,-0.646238 0.7655,-0.552308 0.82994,-0.454621 0.88007,-0.338148 0.91664,-0.225432 0.93924,-0.112716 h 0.94716 l 0.93924,0.112716 0.91664,0.225432 0.87969,0.338148 0.82994,0.454621 0.76551,0.552308 0.69011,0.646238 0.60341,0.728896 0.50731,0.796526 0.40292,0.852885 0.29285,0.89797 0.17715,0.928028 0.0599,0.939299 -0.0599,0.943057 -0.17715,0.928028 -0.29285,0.897971 -0.40292,0.852883 -0.50731,0.796527 -0.60341,0.728896 -0.69011,0.646238 -0.76551,0.556065 -0.82994,0.454622 -0.87969,0.338147 -0.91664,0.225432 -0.93924,0.112716 z m -188.45222,0 -0.93925,-0.112716 -0.91662,-0.225432 -0.88007,-0.338147 -0.82995,-0.454622 -0.76549,-0.556065 -0.6901,-0.646238 -0.60306,-0.728896 -0.50732,-0.796527 -0.40328,-0.852883 -0.29285,-0.897971 -0.17715,-0.928028 -0.0596,-0.943057 0.0596,-0.939299 0.17715,-0.928028 0.29285,-0.89797 0.40328,-0.852885 0.50732,-0.796526 0.60306,-0.728896 0.6901,-0.646238 0.76549,-0.552308 0.82995,-0.454621 0.88007,-0.338148 0.91662,-0.225432 0.93925,-0.112716 h 0.94717 l 0.93925,0.112716 0.91662,0.225432 0.87969,0.338148 0.82995,0.454621 0.76549,0.552308 0.69011,0.646238 0.60344,0.728896 0.50731,0.796526 0.40291,0.852885 0.29285,0.89797 0.17714,0.928028 0.0599,0.939299 -0.0599,0.943057 -0.17714,0.928028 -0.29285,0.897971 -0.40291,0.852883 -0.50731,0.796527 -0.60344,0.728896 -0.69011,0.646238 -0.76549,0.556065 -0.82995,0.454622 -0.87969,0.338147 -0.91662,0.225432 -0.93925,0.112716 z m 147.11145,1.882356 -0.70443,-0.07514 -0.68784,-0.187861 -0.66035,-0.263004 -0.62151,-0.338147 -0.57477,-0.417049 -0.51749,-0.484679 -0.45268,-0.544793 -0.38067,-0.597395 -0.30189,-0.638724 -0.21974,-0.672538 -0.13304,-0.695082 -0.044,-0.706354 0.044,-0.706353 0.13304,-0.695081 0.21974,-0.672538 0.30189,-0.638724 0.38067,-0.597395 0.45268,-0.544794 0.51749,-0.484679 0.57477,-0.417049 0.62151,-0.338147 0.66035,-0.263003 0.68784,-0.187861 0.70443,-0.07514 h 0.70971 l 0.70444,0.07514 0.68785,0.187861 0.65958,0.263003 0.62228,0.338147 0.57478,0.417049 0.51749,0.484679 0.45265,0.544794 0.37993,0.597395 0.30265,0.638724 0.21898,0.672538 0.13343,0.695081 0.0445,0.706353 -0.0445,0.706354 -0.13343,0.695082 -0.21898,0.672538 -0.30265,0.638724 -0.37993,0.597395 -0.45265,0.544793 -0.51749,0.484679 -0.57478,0.417049 -0.62228,0.338147 -0.65958,0.263004 -0.68785,0.187861 -0.70444,0.07514 z M 197.3043,104.47401 h 11.30751 V 70.659223 h 60.30432 V 153.31758 H 197.3043 Z m -15.54958,41.31415 -0.93925,-0.11272 -0.91662,-0.22543 -0.88007,-0.33816 -0.82995,-0.4546 -0.76549,-0.55607 -0.6901,-0.64624 -0.60306,-0.72515 -0.50732,-0.79651 -0.40328,-0.85289 -0.29285,-0.89797 -0.17715,-0.92803 -0.0596,-0.94305 0.0596,-0.94306 0.17715,-0.92803 0.29285,-0.89797 0.40328,-0.85289 0.50732,-0.79652 0.60306,-0.72513 0.6901,-0.64625 0.76549,-0.55605 0.82995,-0.45463 0.88007,-0.33815 0.91662,-0.22543 0.93925,-0.11271 h 0.94717 l 0.93925,0.11271 0.91662,0.22543 0.87969,0.33815 0.82995,0.45463 0.76549,0.55605 0.69011,0.64625 0.60344,0.72513 0.50731,0.79652 0.40291,0.85289 0.29285,0.89797 0.17714,0.92803 0.0599,0.94306 -0.0599,0.94305 -0.17714,0.92803 -0.29285,0.89797 -0.40291,0.85289 -0.50731,0.79651 -0.60344,0.72515 -0.69011,0.64624 -0.76549,0.55607 -0.82995,0.4546 -0.87969,0.33816 -0.91662,0.22543 -0.93925,0.11272 z m 188.45222,0 -0.93924,-0.11272 -0.91664,-0.22543 -0.88007,-0.33816 -0.82994,-0.4546 -0.7655,-0.55607 -0.69011,-0.64624 -0.60304,-0.72515 -0.50731,-0.79651 -0.40329,-0.85289 -0.29286,-0.89797 -0.17715,-0.92803 -0.0596,-0.94305 0.0596,-0.94306 0.17715,-0.92803 0.29286,-0.89797 0.40329,-0.85289 0.50731,-0.79652 0.60304,-0.72513 0.69011,-0.64625 0.7655,-0.55605 0.82994,-0.45463 0.88007,-0.33815 0.91664,-0.22543 0.93924,-0.11271 h 0.94716 l 0.93924,0.11271 0.91664,0.22543 0.87969,0.33815 0.82994,0.45463 0.76551,0.55605 0.69011,0.64625 0.60341,0.72513 0.50731,0.79652 0.40292,0.85289 0.29285,0.89797 0.17715,0.92803 0.0599,0.94306 -0.0599,0.94305 -0.17715,0.92803 -0.29285,0.89797 -0.40292,0.85289 -0.50731,0.79651 -0.60341,0.72515 -0.69011,0.64624 -0.76551,0.55607 -0.82994,0.4546 -0.87969,0.33816 -0.91664,0.22543 -0.93924,0.11272 z"
     id="path4"
     inkscape:connector-curvature="0"
     style="fill:none;stroke:#000000;stroke-width:1.09139144;stroke-miterlimit:4;stroke-dasharray:none" />
</svg>
