<?xml version="1.0" encoding="UTF-8" standalone="no"?>
<svg
   xmlns:dc="http://purl.org/dc/elements/1.1/"
   xmlns:cc="http://creativecommons.org/ns#"
   xmlns:rdf="http://www.w3.org/1999/02/22-rdf-syntax-ns#"
   xmlns:svg="http://www.w3.org/2000/svg"
   xmlns="http://www.w3.org/2000/svg"
   xmlns:sodipodi="http://sodipodi.sourceforge.net/DTD/sodipodi-0.dtd"
   xmlns:inkscape="http://www.inkscape.org/namespaces/inkscape"
   width="10.4cm"
   height="4.5999999cm"
   viewBox="-3 -5 103.99999 45.999997"
   version="1.1"
   id="svg6"
   sodipodi:docname="anavi-tag-manager-case.svg"
   inkscape:version="0.92.5 (2060ec1f9f, 2020-04-08)">
  <metadata
     id="metadata12">
    <rdf:RDF>
      <cc:Work
         rdf:about="">
        <dc:format>image/svg+xml</dc:format>
        <dc:type
           rdf:resource="http://purl.org/dc/dcmitype/StillImage" />
        <dc:title>OpenSCAD Model</dc:title>
      </cc:Work>
    </rdf:RDF>
  </metadata>
  <defs
     id="defs10" />
  <sodipodi:namedview
     pagecolor="#ffffff"
     bordercolor="#666666"
     borderopacity="1"
     objecttolerance="10"
     gridtolerance="10"
     guidetolerance="10"
     inkscape:pageopacity="0"
     inkscape:pageshadow="2"
     inkscape:window-width="1832"
     inkscape:window-height="1009"
     id="namedview8"
     showgrid="false"
     units="cm"
     inkscape:zoom="1.8397052"
     inkscape:cx="290.26252"
     inkscape:cy="49.295452"
     inkscape:window-x="88"
     inkscape:window-y="34"
     inkscape:window-maximized="1"
     inkscape:current-layer="svg6" />
  <title
     id="title2">OpenSCAD Model</title>
  <path
     d="m 96.809572,40.783346 0.606488,-0.155228 0.582249,-0.229911 0.548742,-0.300911 0.506851,-0.366842 0.456392,-0.427401 0.399132,-0.481199 0.335604,-0.527142 0.2666,-0.56493 0.19357,-0.593768 0.1173,-0.613457 0.0394,-0.622994 V 0.10053079 l -0.0394,-0.6230039 -0.1173,-0.61345739 -0.19357,-0.5937678 -0.2666,-0.5650292 -0.335604,-0.5271418 -0.399132,-0.4811996 -0.456392,-0.4274015 -0.506851,-0.3669408 -0.548742,-0.3009113 -0.582249,-0.2298104 -0.606488,-0.1552289 -0.621346,-0.078559 H 1.8117496 l -0.6213473,0.078559 -0.60648697,0.1552289 -0.58225137,0.2298104 -0.54874046,0.3009113 -0.506752,0.3669408 -0.4564859,0.4274015 -0.3991385,0.4811996 -0.3355075,0.5271418 -0.2666907,0.5650292 -0.1935851,0.5937678 -0.1172881,0.61345739 -0.039395,0.6230039 V 35.899563 l 0.039395,0.623004 0.1172881,0.613457 0.1935851,0.593768 0.2666907,0.56493 0.3355075,0.527141 0.3991385,0.481199 0.4564859,0.427402 0.506752,0.366842 0.54874046,0.300911 0.58225137,0.22991 0.60648697,0.15523 0.6213473,0.07856 H 96.188226 Z M 69.196319,11.039046 V -0.89388873 h 4.487963 V 11.039046 Z M 95.749991,5.0687501 95.501453,5.0369287 95.258897,4.9742802 95.026016,4.8827936 94.806402,4.7624688 94.60384,4.6156926 94.421225,4.4447517 94.261649,4.2523316 94.127406,4.0414152 94.02069,3.8154831 93.9432,3.5778169 93.89633,3.3324936 93.88058,3.0831926 93.89633,2.8340905 93.9432,2.5886678 l 0.0775,-0.2375669 0.106716,-0.225932 0.134243,-0.2109165 0.159576,-0.1924201 0.182615,-0.1710401 0.202562,-0.146677 0.219614,-0.1203247 0.232881,-0.091487 0.242556,-0.062648 0.248538,-0.030828 h 0.250633 l 0.24854,0.030828 0.242554,0.062648 0.232781,0.091487 0.219615,0.1203247 0.202562,0.146677 0.182614,0.1710401 0.159676,0.1924201 0.134243,0.2109165 0.106617,0.225932 0.0775,0.2375669 0.04687,0.2454227 0.01586,0.2491021 -0.01586,0.249301 -0.04687,0.2453233 -0.0775,0.2376662 -0.106617,0.2259321 -0.134243,0.2109164 -0.159676,0.1924201 -0.182614,0.1709409 -0.202562,0.1467762 -0.219615,0.1203248 -0.232781,0.091487 -0.242554,0.062647 -0.24854,0.031822 z m -49.867362,0 -0.24854,-0.031821 -0.242554,-0.062648 -0.23288,-0.091487 L 44.939039,4.7624693 44.736477,4.6156926 44.553864,4.4447517 44.394288,4.2523316 44.260046,4.0414152 44.153329,3.8154831 l -0.07749,-0.2376662 -0.04687,-0.2453233 -0.01576,-0.249301 0.01576,-0.2491021 0.04687,-0.2454227 0.0775,-0.2375669 0.106716,-0.225932 0.134243,-0.2109165 0.159576,-0.1924201 0.182613,-0.1710401 0.202562,-0.146677 0.219616,-0.1203247 0.23288,-0.091487 0.242554,-0.062648 0.24854,-0.030828 h 0.250633 l 0.24854,0.030828 0.242555,0.062648 0.23278,0.091487 0.219616,0.1203247 0.202562,0.146677 0.182613,0.1710401 0.159675,0.1924201 0.134243,0.2109165 0.106617,0.225932 0.0775,0.2375669 0.04687,0.2454227 0.01586,0.2491021 -0.01586,0.249301 -0.04687,0.2453233 -0.0775,0.2376662 -0.106627,0.2259321 -0.134243,0.2109164 -0.159675,0.1924201 -0.182613,0.1709409 -0.202562,0.1467762 -0.219616,0.1203248 -0.23278,0.091486 -0.242555,0.062648 -0.24854,0.031821 z M 85.807836,5.5668547 85.621432,5.5429887 85.439515,5.496251 85.26488,5.4276361 85.100218,5.3371439 84.948122,5.227161 84.811187,5.0987815 84.691604,4.9544911 84.590873,4.7963786 84.510782,4.6269293 84.452832,4.4487295 84.417618,4.2646623 84.405754,4.077811 l 0.01186,-0.1869508 0.03521,-0.1840672 0.05795,-0.1781999 0.0801,-0.169449 0.100734,-0.1581127 0.119583,-0.1442903 0.136935,-0.1281807 0.152096,-0.1101816 0.164662,-0.090492 0.174635,-0.068615 0.181917,-0.046738 0.186404,-0.023866 h 0.187899 l 0.186504,0.023866 0.181818,0.046738 0.174735,0.068615 0.164661,0.090492 0.151996,0.1101816 0.136936,0.1281807 0.119681,0.1442903 0.100736,0.1581127 0.0801,0.169449 0.05795,0.1781999 0.03511,0.1840672 0.01187,0.1869508 -0.01187,0.1868513 -0.03511,0.1840672 -0.05795,0.1781998 -0.0801,0.1694493 -0.100736,0.1581125 -0.119681,0.1442904 -0.136936,0.1283795 -0.151996,0.1099829 -0.164661,0.090492 -0.174735,0.068615 -0.181818,0.046738 -0.186504,0.023866 z M 49.997284,23.966598 h 2.992143 V 15.016823 H 68.946883 V 36.894041 H 49.997284 Z m -4.114655,10.934687 -0.24854,-0.03083 -0.242554,-0.06265 -0.23288,-0.09149 -0.219616,-0.120326 -0.202562,-0.146775 -0.182613,-0.171042 -0.159576,-0.192419 -0.134242,-0.210916 -0.106717,-0.225933 -0.0775,-0.237665 -0.04687,-0.245324 -0.01576,-0.249301 0.01576,-0.249201 0.04687,-0.245324 0.0775,-0.237667 0.106717,-0.225932 0.134242,-0.210915 0.159576,-0.192422 0.182613,-0.171039 0.202562,-0.146776 0.219616,-0.120326 0.23288,-0.09149 0.242554,-0.06265 0.24854,-0.03083 h 0.250633 l 0.24854,0.03083 0.242555,0.06265 0.23278,0.09149 0.219616,0.120326 0.202562,0.146776 0.182613,0.171039 0.159675,0.192422 0.134243,0.210915 0.106617,0.225932 0.0775,0.237667 0.04687,0.245324 0.01586,0.249201 -0.01586,0.249301 -0.04687,0.245324 -0.0775,0.237665 -0.106617,0.225933 -0.134243,0.210916 -0.159675,0.192419 -0.182613,0.171042 -0.202562,0.146775 -0.219616,0.120326 -0.23278,0.09149 -0.242555,0.06265 -0.24854,0.03083 z m 49.867362,0 -0.248538,-0.03083 -0.242556,-0.06265 -0.232881,-0.09149 -0.219614,-0.120326 -0.202562,-0.146775 -0.182615,-0.171042 -0.159576,-0.192419 -0.134243,-0.210916 -0.106716,-0.225933 -0.0775,-0.237665 -0.04687,-0.245324 -0.01575,-0.249301 0.01575,-0.249201 0.04687,-0.245324 0.0775,-0.237667 0.106716,-0.225932 0.134243,-0.210915 0.159576,-0.192422 0.182615,-0.171039 0.202562,-0.146776 0.219614,-0.120326 0.232881,-0.09149 0.242556,-0.06265 0.248538,-0.03083 h 0.250633 l 0.24854,0.03083 0.242554,0.06265 0.232781,0.09149 0.219615,0.120326 0.202562,0.146776 0.182614,0.171039 0.159676,0.192422 0.134243,0.210915 0.106617,0.225932 0.0775,0.237667 0.04687,0.245324 0.01586,0.249201 -0.01586,0.249301 -0.04687,0.245324 -0.0775,0.237665 -0.106617,0.225933 -0.134243,0.210916 -0.159676,0.192419 -0.182614,0.171042 -0.202562,0.146775 -0.219615,0.120326 -0.232781,0.09149 -0.242554,0.06265 -0.24854,0.03083 z"
     id="path4"
     inkscape:connector-curvature="0"
     style="fill:none;stroke:#000000;stroke-width:0.27616104;stroke-miterlimit:4;stroke-dasharray:none" />
</svg>
