<?xml version="1.0" standalone="no"?>
<!DOCTYPE svg PUBLIC "-//W3C//DTD SVG 1.1//EN" "http://www.w3.org/Graphics/SVG/1.1/DTD/svg11.dtd">
<svg width="11" height="6" viewBox="-3 -5 11 6" xmlns="http://www.w3.org/2000/svg" version="1.1">
<title>OpenSCAD Model</title>
<path d="
M 7.09367,0.291122 L 7.15448,0.275513 L 7.21286,0.252396 L 7.26788,0.222137 L 7.3187,0.185242 L 7.36446,0.142258
 L 7.40448,0.0938721 L 7.43813,0.040863 L 7.46486,-0.0159454 L 7.48427,-0.0756531 L 7.49603,-0.137344 L 7.49998,-0.199997
 L 7.49998,-3.79999 L 7.49603,-3.86264 L 7.48427,-3.92433 L 7.46486,-3.98404 L 7.43813,-4.04086 L 7.40448,-4.09387
 L 7.36446,-4.14226 L 7.3187,-4.18524 L 7.26788,-4.22214 L 7.21286,-4.2524 L 7.15448,-4.27551 L 7.09367,-4.29112
 L 7.03137,-4.299 L -2.43138,-4.299 L -2.49368,-4.29112 L -2.55449,-4.27551 L -2.61287,-4.2524 L -2.66789,-4.22214
 L -2.7187,-4.18524 L -2.76447,-4.14226 L -2.80449,-4.09387 L -2.83813,-4.04086 L -2.86487,-3.98404 L -2.88428,-3.92433
 L -2.89604,-3.86264 L -2.89999,-3.79999 L -2.89999,-0.199997 L -2.89604,-0.137344 L -2.88428,-0.0756531 L -2.86487,-0.0159454
 L -2.83813,0.040863 L -2.80449,0.0938721 L -2.76447,0.142258 L -2.7187,0.185242 L -2.66789,0.222137 L -2.61287,0.252396
 L -2.55449,0.275513 L -2.49368,0.291122 L -2.43138,0.298996 L 7.03137,0.298996 z
M 4.39999,-2.7 L 4.39999,-3.89999 L 4.79999,-3.89999 L 4.79999,-2.7 z
M 6.98743,-3.30038 L 6.96251,-3.30353 L 6.93819,-3.30978 L 6.91484,-3.31903 L 6.89282,-3.33113 L 6.87251,-3.34589
 L 6.8542,-3.36308 L 6.8382,-3.38243 L 6.82474,-3.40364 L 6.81404,-3.42636 L 6.80627,-3.45026 L 6.80157,-3.47493
 L 6.79999,-3.5 L 6.80157,-3.52505 L 6.80627,-3.54973 L 6.81404,-3.57362 L 6.82474,-3.59634 L 6.8382,-3.61755
 L 6.8542,-3.6369 L 6.87251,-3.6541 L 6.89282,-3.66885 L 6.91484,-3.68095 L 6.93819,-3.6902 L 6.96251,-3.69646
 L 6.98743,-3.6996 L 7.01256,-3.6996 L 7.03748,-3.69646 L 7.0618,-3.6902 L 7.08514,-3.68095 L 7.10716,-3.66885
 L 7.12747,-3.6541 L 7.14578,-3.6369 L 7.16179,-3.61755 L 7.17525,-3.59634 L 7.18594,-3.57362 L 7.19371,-3.54973
 L 7.19841,-3.52505 L 7.2,-3.5 L 7.19841,-3.47493 L 7.19371,-3.45026 L 7.18594,-3.42636 L 7.17525,-3.40364
 L 7.16179,-3.38243 L 7.14578,-3.36308 L 7.12747,-3.34589 L 7.10716,-3.33113 L 7.08514,-3.31903 L 7.0618,-3.30978
 L 7.03748,-3.30353 L 7.01256,-3.30038 z
M 1.98743,-3.30038 L 1.96251,-3.30353 L 1.93819,-3.30978 L 1.91484,-3.31903 L 1.89282,-3.33113 L 1.87251,-3.34589
 L 1.8542,-3.36308 L 1.8382,-3.38243 L 1.82474,-3.40364 L 1.81404,-3.42636 L 1.80627,-3.45026 L 1.80157,-3.47493
 L 1.79999,-3.5 L 1.80157,-3.52505 L 1.80627,-3.54973 L 1.81404,-3.57362 L 1.82474,-3.59634 L 1.8382,-3.61755
 L 1.8542,-3.6369 L 1.87251,-3.6541 L 1.89282,-3.66885 L 1.91484,-3.68095 L 1.93819,-3.6902 L 1.96251,-3.69646
 L 1.98743,-3.6996 L 2.01256,-3.6996 L 2.03748,-3.69646 L 2.0618,-3.6902 L 2.08514,-3.68095 L 2.10716,-3.66885
 L 2.12747,-3.6541 L 2.14578,-3.6369 L 2.16179,-3.61755 L 2.17525,-3.59634 L 2.18594,-3.57362 L 2.19371,-3.54973
 L 2.19841,-3.52505 L 2.2,-3.5 L 2.19841,-3.47493 L 2.19371,-3.45026 L 2.18594,-3.42636 L 2.17525,-3.40364
 L 2.16179,-3.38243 L 2.14578,-3.36308 L 2.12747,-3.34589 L 2.10716,-3.33113 L 2.08514,-3.31903 L 2.0618,-3.30978
 L 2.03748,-3.30353 L 2.01256,-3.30038 z
M 5.99057,-3.33029 L 5.97188,-3.33266 L 5.95364,-3.33734 L 5.93613,-3.34427 L 5.91962,-3.35335 L 5.90437,-3.36441
 L 5.89064,-3.3773 L 5.87865,-3.39183 L 5.86855,-3.40773 L 5.86052,-3.42477 L 5.85471,-3.44269 L 5.85118,-3.4612
 L 5.84999,-3.48 L 5.85118,-3.49879 L 5.85471,-3.5173 L 5.86052,-3.53522 L 5.86855,-3.55226 L 5.87865,-3.56816
 L 5.89064,-3.58267 L 5.90437,-3.59557 L 5.91962,-3.60664 L 5.93613,-3.61572 L 5.95364,-3.62265 L 5.97188,-3.62733
 L 5.99057,-3.6297 L 6.00941,-3.6297 L 6.02811,-3.62733 L 6.04634,-3.62265 L 6.06386,-3.61572 L 6.08037,-3.60664
 L 6.09561,-3.59557 L 6.10934,-3.58267 L 6.12134,-3.56816 L 6.13144,-3.55226 L 6.13947,-3.53522 L 6.14528,-3.5173
 L 6.1488,-3.49879 L 6.14999,-3.48 L 6.1488,-3.4612 L 6.14528,-3.44269 L 6.13947,-3.42477 L 6.13144,-3.40773
 L 6.12134,-3.39183 L 6.10934,-3.3773 L 6.09561,-3.36441 L 6.08037,-3.35335 L 6.06386,-3.34427 L 6.04634,-3.33734
 L 6.02811,-3.33266 L 6.00941,-3.33029 z
M 2.39999,-1.39999 L 2.7,-1.39999 L 2.7,-2.39999 L 4.09999,-2.39999 L 4.09999,-0.199997 L 2.39999,-0.199997
 z
M 1.98743,-0.300385 L 1.96251,-0.303528 L 1.93819,-0.309784 L 1.91484,-0.319031 L 1.89282,-0.331131 L 1.87251,-0.345886
 L 1.8542,-0.363083 L 1.8382,-0.382431 L 1.82474,-0.403641 L 1.81404,-0.426361 L 1.80627,-0.450256 L 1.80157,-0.47493
 L 1.79999,-0.5 L 1.80157,-0.525055 L 1.80627,-0.549728 L 1.81404,-0.573624 L 1.82474,-0.596344 L 1.8382,-0.617554
 L 1.8542,-0.636902 L 1.87251,-0.654099 L 1.89282,-0.668854 L 1.91484,-0.680954 L 1.93819,-0.690201 L 1.96251,-0.696457
 L 1.98743,-0.6996 L 2.01256,-0.6996 L 2.03748,-0.696457 L 2.0618,-0.690201 L 2.08514,-0.680954 L 2.10716,-0.668854
 L 2.12747,-0.654099 L 2.14578,-0.636902 L 2.16179,-0.617554 L 2.17525,-0.596344 L 2.18594,-0.573624 L 2.19371,-0.549728
 L 2.19841,-0.525055 L 2.2,-0.5 L 2.19841,-0.47493 L 2.19371,-0.450256 L 2.18594,-0.426361 L 2.17525,-0.403641
 L 2.16179,-0.382431 L 2.14578,-0.363083 L 2.12747,-0.345886 L 2.10716,-0.331131 L 2.08514,-0.319031 L 2.0618,-0.309784
 L 2.03748,-0.303528 L 2.01256,-0.300385 z
M 6.98743,-0.300385 L 6.96251,-0.303528 L 6.93819,-0.309784 L 6.91484,-0.319031 L 6.89282,-0.331131 L 6.87251,-0.345886
 L 6.8542,-0.363083 L 6.8382,-0.382431 L 6.82474,-0.403641 L 6.81404,-0.426361 L 6.80627,-0.450256 L 6.80157,-0.47493
 L 6.79999,-0.5 L 6.80157,-0.525055 L 6.80627,-0.549728 L 6.81404,-0.573624 L 6.82474,-0.596344 L 6.8382,-0.617554
 L 6.8542,-0.636902 L 6.87251,-0.654099 L 6.89282,-0.668854 L 6.91484,-0.680954 L 6.93819,-0.690201 L 6.96251,-0.696457
 L 6.98743,-0.6996 L 7.01256,-0.6996 L 7.03748,-0.696457 L 7.0618,-0.690201 L 7.08514,-0.680954 L 7.10716,-0.668854
 L 7.12747,-0.654099 L 7.14578,-0.636902 L 7.16179,-0.617554 L 7.17525,-0.596344 L 7.18594,-0.573624 L 7.19371,-0.549728
 L 7.19841,-0.525055 L 7.2,-0.5 L 7.19841,-0.47493 L 7.19371,-0.450256 L 7.18594,-0.426361 L 7.17525,-0.403641
 L 7.16179,-0.382431 L 7.14578,-0.363083 L 7.12747,-0.345886 L 7.10716,-0.331131 L 7.08514,-0.319031 L 7.0618,-0.309784
 L 7.03748,-0.303528 L 7.01256,-0.300385 z
" stroke="black" fill="lightgray" stroke-width="0.5"/></svg>
