<?xml version="1.0" encoding="UTF-8" standalone="no"?>
<svg
   xmlns:dc="http://purl.org/dc/elements/1.1/"
   xmlns:cc="http://creativecommons.org/ns#"
   xmlns:rdf="http://www.w3.org/1999/02/22-rdf-syntax-ns#"
   xmlns:svg="http://www.w3.org/2000/svg"
   xmlns="http://www.w3.org/2000/svg"
   xmlns:sodipodi="http://sodipodi.sourceforge.net/DTD/sodipodi-0.dtd"
   xmlns:inkscape="http://www.inkscape.org/namespaces/inkscape"
   width="10.4cm"
   height="4.5999999cm"
   viewBox="-3 -5 393.07084 173.85827"
   version="1.1"
   id="svg6"
   sodipodi:docname="anavi-tag-manager-case.svg"
   inkscape:version="0.92.3 (2405546, 2018-03-11)">
  <metadata
     id="metadata12">
    <rdf:RDF>
      <cc:Work
         rdf:about="">
        <dc:format>image/svg+xml</dc:format>
        <dc:type
           rdf:resource="http://purl.org/dc/dcmitype/StillImage" />
        <dc:title>OpenSCAD Model</dc:title>
      </cc:Work>
    </rdf:RDF>
  </metadata>
  <defs
     id="defs10" />
  <sodipodi:namedview
     pagecolor="#ffffff"
     bordercolor="#666666"
     borderopacity="1"
     objecttolerance="10"
     gridtolerance="10"
     guidetolerance="10"
     inkscape:pageopacity="0"
     inkscape:pageshadow="2"
     inkscape:window-width="1837"
     inkscape:window-height="1018"
     id="namedview8"
     showgrid="false"
     units="cm"
     inkscape:zoom="0.86915209"
     inkscape:cx="177.88596"
     inkscape:cy="-191.49736"
     inkscape:window-x="83"
     inkscape:window-y="34"
     inkscape:window-maximized="1"
     inkscape:current-layer="svg6" />
  <title
     id="title2">OpenSCAD Model</title>
  <path
     d="m 374.23314,168.03574 2.29223,-0.58628 2.20064,-0.86817 2.07397,-1.13873 1.91566,-1.38679 1.72493,-1.61605 1.50856,-1.81898 1.26844,-1.99187 1.00758,-2.13466 0.73167,-2.24368 0.44328,-2.31883 0.1489,-2.35641 V 14.279205 l -0.1489,-2.352655 -0.44328,-2.3188321 -0.73167,-2.2436661 -1.00758,-2.1346781 -1.26844,-1.9918644 -1.50856,-1.8189858 -1.72493,-1.6160412 -1.91566,-1.3867886 -2.07397,-1.1387454 -2.20064,-0.8681522 -2.29223,-0.5862847 -2.3484,-0.3006589 H 15.186131 L 12.83773,-4.1774886 10.545497,-3.5912039 8.3448614,-2.7230517 6.2708809,-1.5843063 4.355597,-0.1975177 2.6302951,1.4185235 1.1217402,3.2375093 -0.14632045,5.2293737 -1.1542854,7.3640518 -1.8859459,9.6077179 -2.3292393,11.92655 -2.4781347,14.279205 V 149.57529 l 0.1488954,2.35641 0.4432934,2.31883 0.7316605,2.24368 1.00796495,2.13466 1.26806065,1.99187 1.5085549,1.81898 1.7253019,1.61605 1.9152839,1.38679 2.0739805,1.13873 2.2006356,0.86817 2.292233,0.58628 2.348401,0.30065 H 371.88474 Z M 268.9253,55.622421 V 10.523976 h 15.07839 v 45.098445 z m 101.30312,-22.563692 -0.93937,-0.112746 -0.91674,-0.225495 -0.88018,-0.338241 -0.83004,-0.454748 -0.76558,-0.556217 -0.69021,-0.646418 -0.60311,-0.729097 -0.50738,-0.796745 -0.40333,-0.85312 -0.29289,-0.898218 -0.17718,-0.928284 -0.0596,-0.943317 0.0596,-0.939559 0.17718,-0.928284 0.29289,-0.898217 0.40333,-0.853121 0.50738,-0.796745 0.60311,-0.729098 0.69021,-0.646417 0.76558,-0.55246 0.83004,-0.454746 0.88018,-0.338242 0.91674,-0.225494 0.93937,-0.112747 h 0.94728 l 0.93935,0.112747 0.91674,0.225494 0.87981,0.338242 0.83004,0.454746 0.76558,0.55246 0.69021,0.646417 0.6035,0.729098 0.50737,0.796745 0.40295,0.853121 0.29289,0.898217 0.17716,0.928284 0.06,0.939559 -0.06,0.943317 -0.17716,0.928284 -0.29289,0.898218 -0.40295,0.85312 -0.50737,0.796745 -0.6035,0.729097 -0.69021,0.646418 -0.76558,0.556217 -0.83004,0.454748 -0.87981,0.338241 -0.91674,0.225495 -0.93935,0.112746 z m -188.47514,0 -0.93935,-0.112746 -0.91674,-0.225495 -0.88019,-0.338241 -0.83004,-0.454748 -0.76558,-0.556217 -0.6902,-0.646418 -0.60312,-0.729097 -0.50737,-0.796745 -0.40333,-0.85312 -0.2929,-0.898218 -0.17716,-0.928284 -0.0596,-0.943317 0.0596,-0.939559 0.17716,-0.928284 0.2929,-0.898217 0.40333,-0.853121 0.50737,-0.796745 0.60312,-0.729098 0.6902,-0.646417 0.76558,-0.55246 0.83004,-0.454746 0.88019,-0.338242 0.91674,-0.225494 0.93935,-0.112747 h 0.94728 l 0.93937,0.112747 0.91674,0.225494 0.8798,0.338242 0.83005,0.454746 0.76557,0.55246 0.69021,0.646417 0.6035,0.729098 0.50737,0.796745 0.40295,0.853121 0.2929,0.898217 0.17716,0.928284 0.0599,0.939559 -0.0599,0.943317 -0.17716,0.928284 -0.2929,0.898218 -0.40295,0.85312 -0.50737,0.796745 -0.6035,0.729097 -0.69021,0.646418 -0.76557,0.556217 -0.83005,0.454748 -0.8798,0.338241 -0.91674,0.225495 -0.93937,0.112746 z m 147.12935,-1.123712 -0.70451,-0.07516 -0.68795,-0.187911 -0.66041,-0.263078 -0.62159,-0.33824 -0.57485,-0.417164 -0.51756,-0.484812 -0.45272,-0.544945 -0.38071,-0.597559 -0.30195,-0.6389 -0.21975,-0.672724 -0.13306,-0.695273 -0.0442,-0.706548 0.0442,-0.706549 0.13306,-0.695273 0.21975,-0.672725 0.30195,-0.638899 0.38071,-0.59756 0.45272,-0.544944 0.51756,-0.484812 0.57485,-0.417165 0.62159,-0.33824 0.66041,-0.263077 0.68795,-0.187912 0.70451,-0.07516 h 0.70979 l 0.70452,0.07516 0.68794,0.187912 0.65966,0.263077 0.62235,0.33824 0.57484,0.417165 0.51756,0.484812 0.45271,0.544944 0.37997,0.59756 0.30269,0.638899 0.21901,0.672725 0.13344,0.695273 0.0445,0.706549 -0.0445,0.706548 -0.13344,0.695273 -0.21901,0.672724 -0.30269,0.6389 -0.37997,0.597559 -0.45271,0.544945 -0.51756,0.484812 -0.57484,0.417164 -0.62235,0.33824 -0.65966,0.263078 -0.68794,0.187911 -0.70452,0.07516 z M 197.30474,104.48022 h 11.30889 V 66.897878 h 60.31167 v 82.680802 h -71.62056 z m -15.55146,41.32557 -0.93935,-0.11276 -0.91674,-0.2255 -0.88019,-0.33823 -0.83004,-0.45475 -0.76558,-0.55621 -0.6902,-0.64641 -0.60312,-0.72535 -0.50737,-0.79676 -0.40333,-0.85311 -0.2929,-0.89822 -0.17716,-0.92827 -0.0596,-0.94333 0.0596,-0.94332 0.17716,-0.92829 0.2929,-0.89821 0.40333,-0.85311 0.50737,-0.79676 0.60312,-0.72534 0.6902,-0.64641 0.76558,-0.55621 0.83004,-0.45475 0.88019,-0.33824 0.91674,-0.2255 0.93935,-0.11275 h 0.94728 l 0.93937,0.11275 0.91674,0.2255 0.8798,0.33824 0.83005,0.45475 0.76557,0.55621 0.69021,0.64641 0.6035,0.72534 0.50737,0.79676 0.40295,0.85311 0.2929,0.89821 0.17716,0.92829 0.0599,0.94332 -0.0599,0.94333 -0.17716,0.92827 -0.2929,0.89822 -0.40295,0.85311 -0.50737,0.79676 -0.6035,0.72535 -0.69021,0.64641 -0.76557,0.55621 -0.83005,0.45475 -0.8798,0.33823 -0.91674,0.2255 -0.93937,0.11276 z m 188.47514,0 -0.93937,-0.11276 -0.91674,-0.2255 -0.88018,-0.33823 -0.83004,-0.45475 -0.76558,-0.55621 -0.69021,-0.64641 -0.60311,-0.72535 -0.50738,-0.79676 -0.40333,-0.85311 -0.29289,-0.89822 -0.17718,-0.92827 -0.0596,-0.94333 0.0596,-0.94332 0.17718,-0.92829 0.29289,-0.89821 0.40333,-0.85311 0.50738,-0.79676 0.60311,-0.72534 0.69021,-0.64641 0.76558,-0.55621 0.83004,-0.45475 0.88018,-0.33824 0.91674,-0.2255 0.93937,-0.11275 h 0.94728 l 0.93935,0.11275 0.91674,0.2255 0.87981,0.33824 0.83004,0.45475 0.76558,0.55621 0.69021,0.64641 0.6035,0.72534 0.50737,0.79676 0.40295,0.85311 0.29289,0.89821 0.17716,0.92829 0.06,0.94332 -0.06,0.94333 -0.17716,0.92827 -0.29289,0.89822 -0.40295,0.85311 -0.50737,0.79676 -0.6035,0.72535 -0.69021,0.64641 -0.76558,0.55621 -0.83004,0.45475 -0.87981,0.33823 -0.91674,0.2255 -0.93935,0.11276 z"
     id="path4"
     inkscape:connector-curvature="0"
     style="fill:none;stroke:#000000;stroke-width:1.04373062;stroke-miterlimit:4;stroke-dasharray:none" />
</svg>
