<?xml version="1.0" encoding="UTF-8" standalone="no"?>
<svg
   xmlns:dc="http://purl.org/dc/elements/1.1/"
   xmlns:cc="http://creativecommons.org/ns#"
   xmlns:rdf="http://www.w3.org/1999/02/22-rdf-syntax-ns#"
   xmlns:svg="http://www.w3.org/2000/svg"
   xmlns="http://www.w3.org/2000/svg"
   xmlns:sodipodi="http://sodipodi.sourceforge.net/DTD/sodipodi-0.dtd"
   xmlns:inkscape="http://www.inkscape.org/namespaces/inkscape"
   version="1.1"
   width="37mm"
   height="92mm"
   viewBox="108925 -136575 36999.999 91999.998"
   id="X9nscuOGQrEsnKdNvZa5"
   sodipodi:docname="anavi-knobs-3-bottom.svg"
   style="fill-rule:evenodd;stroke-width:0;stroke-linecap:round;stroke-linejoin:round"
   inkscape:version="0.92.5 (2060ec1f9f, 2020-04-08)">
  <metadata
     id="metadata19">
    <rdf:RDF>
      <cc:Work
         rdf:about="">
        <dc:format>image/svg+xml</dc:format>
        <dc:type
           rdf:resource="http://purl.org/dc/dcmitype/StillImage" />
        <dc:title></dc:title>
      </cc:Work>
    </rdf:RDF>
  </metadata>
  <defs
     id="defs17" />
  <sodipodi:namedview
     pagecolor="#ffffff"
     bordercolor="#666666"
     borderopacity="1"
     objecttolerance="10"
     gridtolerance="10"
     guidetolerance="10"
     inkscape:pageopacity="0"
     inkscape:pageshadow="2"
     inkscape:window-width="1832"
     inkscape:window-height="1009"
     id="namedview15"
     showgrid="false"
     inkscape:zoom="1.9590871"
     inkscape:cx="131.15354"
     inkscape:cy="166.26917"
     inkscape:window-x="88"
     inkscape:window-y="34"
     inkscape:window-maximized="1"
     inkscape:current-layer="X9nscuOGQrEsnKdNvZa5" />
  <path
     style="fill:none;stroke:#000000;stroke-width:150"
     d="m 115711.73,-49650.138 a 1711.724,1711.724 0 0 0 -3423.44,0 1711.724,1711.724 0 0 0 3423.44,0"
     id="path855"
     inkscape:connector-curvature="0" />
  <path
     style="fill:none;stroke:#000000;stroke-width:150"
     d="m 142700.01,-49650.138 a 1700,1700 0 0 0 -3400,0 1700,1700 0 0 0 3400,0"
     id="path853"
     inkscape:connector-curvature="0" />
  <path
     style="fill:none;stroke:#000000;stroke-width:150"
     d="m 142700.01,-131650.14 a 1700,1700 0 0 0 -3400,0 1700,1700 0 0 0 3400,0"
     id="path851"
     inkscape:connector-curvature="0" />
  <path
     style="fill:none;stroke:#000000;stroke-width:150"
     d="m 115700.01,-131650.14 a 1700,1700 0 0 0 -3400,0 1700,1700 0 0 0 3400,0"
     id="path849"
     inkscape:connector-curvature="0" />
  <path
     style="fill:none;stroke:#000000;stroke-width:150"
     d="m 110000.01,-131650.14 v 82000.002"
     id="path847"
     inkscape:connector-curvature="0" />
  <path
     style="fill:none;stroke:#000000;stroke-width:150"
     d="m 145031.14,-49650.138 -31.13,-82000.002"
     id="path845"
     inkscape:connector-curvature="0" />
  <path
     style="fill:none;stroke:#000000;stroke-width:150"
     d="m 114000.01,-135650.14 26503.86,30.89"
     id="path843"
     inkscape:connector-curvature="0" />
  <path
     style="fill:none;stroke:#000000;stroke-width:150"
     d="m 141500.01,-45650.138 h -500"
     id="path841"
     inkscape:connector-curvature="0" />
  <path
     style="fill:none;stroke:#000000;stroke-width:150"
     d="m 114000.01,-45650.138 h 27500"
     id="path839"
     inkscape:connector-curvature="0" />
  <path
     style="fill:none;stroke:#000000;stroke-width:150"
     d="m 114000.01,-45650.138 a 4000,4000 0 0 1 -4000,-4000"
     id="path837"
     inkscape:connector-curvature="0" />
  <path
     style="fill:none;stroke:#000000;stroke-width:150"
     d="m 145031.14,-49650.138 a 4031.128,4031.128 0 0 1 -3531.13,4000"
     id="path835"
     inkscape:connector-curvature="0" />
  <path
     style="fill:none;stroke:#000000;stroke-width:150"
     d="m 140503.87,-135619.25 a 4000.0005,4000.0005 0 0 1 4496.14,3969.11"
     id="path833"
     inkscape:connector-curvature="0" />
  <path
     style="fill:none;stroke:#000000;stroke-width:150"
     d="m 110000.01,-131650.14 a 4000,4000 0 0 1 4000,-4000"
     id="path2"
     inkscape:connector-curvature="0" />
</svg>
