<?xml version="1.0" encoding="UTF-8" standalone="no"?>
<svg
   xmlns:dc="http://purl.org/dc/elements/1.1/"
   xmlns:cc="http://creativecommons.org/ns#"
   xmlns:rdf="http://www.w3.org/1999/02/22-rdf-syntax-ns#"
   xmlns:svg="http://www.w3.org/2000/svg"
   xmlns="http://www.w3.org/2000/svg"
   xmlns:sodipodi="http://sodipodi.sourceforge.net/DTD/sodipodi-0.dtd"
   xmlns:inkscape="http://www.inkscape.org/namespaces/inkscape"
   width="8.5cm"
   height="5.5999999cm"
   viewBox="0 -6 321.25985 211.65354"
   version="1.1"
   id="svg6"
   sodipodi:docname="anavi-play-rpi3-bottom.svg"
   inkscape:version="0.92.2 (5c3e80d, 2017-08-06)">
  <metadata
     id="metadata12">
    <rdf:RDF>
      <cc:Work
         rdf:about="">
        <dc:format>image/svg+xml</dc:format>
        <dc:type
           rdf:resource="http://purl.org/dc/dcmitype/StillImage" />
        <dc:title>OpenSCAD Model</dc:title>
      </cc:Work>
    </rdf:RDF>
  </metadata>
  <defs
     id="defs10" />
  <sodipodi:namedview
     pagecolor="#ffffff"
     bordercolor="#666666"
     borderopacity="1"
     objecttolerance="10"
     gridtolerance="10"
     guidetolerance="10"
     inkscape:pageopacity="0"
     inkscape:pageshadow="2"
     inkscape:window-width="1841"
     inkscape:window-height="1018"
     id="namedview8"
     showgrid="false"
     units="cm"
     inkscape:zoom="39.333333"
     inkscape:cx="4.5"
     inkscape:cy="3"
     inkscape:window-x="79"
     inkscape:window-y="34"
     inkscape:window-maximized="1"
     inkscape:current-layer="svg6" />
  <title
     id="title2">OpenSCAD Model</title>
  <path
     d="m 293.21927,204.98966 1.29338,-0.35467 1.24195,-0.52315 1.17036,-0.68275 1.08066,-0.83347 0.97391,-0.97093 0.85092,-1.09063 0.71585,-1.19702 0.56905,-1.28127 0.41273,-1.34777 0.2498,-1.3921 0.084,-1.41426 V 5.7656467 l -0.084,-1.4142668 -0.2498,-1.3920988 -0.41273,-1.3477641 -0.56905,-1.28126329 -0.71585,-1.19702962 -0.85092,-1.09062399 -0.97391,-0.9709234 -1.08066,-0.8334859 -1.17036,-0.6827475 -1.24195,-0.5231472 -1.29338,-0.3546747 -1.32563,-0.1773373 H 10.468588 L 9.1431605,-5.3223786 7.8496771,-4.9677039 6.6075318,-4.4445567 5.4373924,-3.7618092 4.356493,-2.9283233 3.3826949,-1.9573999 2.5317166,-0.86677591 1.8159849,0.33025371 1.2468571,1.611517 0.83408104,2.9592811 0.58414548,4.3513799 0.50028604,5.7523476 V 193.8879 l 0.0838594,1.41426 0.24993556,1.39209 0.4127761,1.34777 0.5691278,1.28127 0.7157317,1.19704 0.8509783,1.0906 0.9737981,0.97094 1.0808994,0.83347 1.1701394,0.68276 1.2421453,0.52314 1.2934834,0.35467 1.3254275,0.17734 H 291.89361 Z m -75.00813,-193.59 -0.66263,-0.08867 -0.64704,-0.177337 -0.62115,-0.266008 -0.58464,-0.354674 -0.54068,-0.399009 -0.48681,-0.4832457 -0.42579,-0.545312 -0.35801,-0.5985138 -0.28408,-0.638415 -0.20677,-0.673883 -0.12532,-0.696049 -0.0415,-0.7137831 0.0415,-0.7093507 0.12532,-0.6960494 0.20677,-0.6738815 0.28408,-0.6384156 0.35801,-0.5985138 0.42579,-0.545313 0.48681,-0.4876773 0.54068,-0.3990105 0.58464,-0.35467371 0.62115,-0.26600703 0.64704,-0.17733635 0.66263,-0.0886697 h 0.66758 l 0.66264,0.0886697 0.64704,0.17733635 0.62043,0.26600703 0.58534,0.35467371 0.54068,0.3990105 0.48682,0.4876773 0.4258,0.545313 0.35759,0.5985138 0.28491,0.6384156 0.20594,0.6738815 0.12532,0.6960494 0.0418,0.7093507 -0.0418,0.7093496 -0.12532,0.6960502 -0.20594,0.6738817 -0.28491,0.6384151 -0.35759,0.5985139 -0.4258,0.5453131 -0.48682,0.483244 -0.54068,0.399011 -0.58534,0.354674 -0.62043,0.266007 -0.64704,0.177336 -0.66264,0.08867 z m -207.408748,0 L 10.139679,11.31099 9.4932011,11.133653 8.872145,10.867645 8.2867927,10.512971 7.7463255,10.113962 7.2594294,9.6307163 6.8336942,9.0854043 6.476099,8.4868905 6.1915071,7.8484755 5.9854081,7.1745925 5.8599011,6.4785435 5.8182415,5.7691928 5.8599011,5.0598431 5.9854081,4.3637943 6.1915071,3.6899118 6.476099,3.0514972 6.8336942,2.4529824 7.2594294,1.9076704 7.7463255,1.4244251 8.2867927,1.0254166 8.872145,0.67074186 9.4932011,0.40473483 10.139679,0.22739748 10.802392,0.13872781 h 0.66814 l 0.662146,0.0886697 0.647045,0.17733735 0.621057,0.26600703 0.585351,0.35467474 0.539902,0.3990085 0.486898,0.4832453 0.425773,0.545312 0.358133,0.5985148 0.284025,0.6384146 0.206658,0.6738825 0.124989,0.6960488 0.04219,0.7093497 -0.04219,0.7093507 -0.124989,0.696049 -0.206658,0.673883 -0.284025,0.638415 -0.358133,0.5985138 -0.425773,0.545312 -0.486898,0.4832457 -0.539902,0.399009 -0.585351,0.354674 -0.621057,0.266008 -0.647045,0.177337 -0.662146,0.08867 z m 0,188.13555 -0.662713,-0.0887 -0.6464779,-0.17732 -0.6210561,-0.26602 -0.5853523,-0.35466 -0.5404672,-0.39902 -0.4868961,-0.48768 -0.4257352,-0.54532 -0.3575952,-0.5985 -0.2845919,-0.63843 -0.206099,-0.67389 -0.125507,-0.69605 -0.04166,-0.70933 0.04166,-0.70934 0.125507,-0.69606 0.206099,-0.67389 0.2845919,-0.63841 0.3575952,-0.5985 0.4257352,-0.54534 0.4868961,-0.48767 0.5404672,-0.39901 0.5853523,-0.35467 0.6210561,-0.266 0.6464779,-0.17735 0.662713,-0.0888 h 0.66814 l 0.662146,0.0888 0.647045,0.17735 0.621057,0.266 0.585351,0.35467 0.539902,0.39901 0.486898,0.48767 0.425773,0.54534 0.358133,0.5985 0.284025,0.63841 0.206658,0.67389 0.124989,0.69606 0.04219,0.70934 -0.04219,0.70933 -0.124989,0.69605 -0.206658,0.67389 -0.284025,0.63843 -0.358133,0.5985 -0.425773,0.54532 -0.486898,0.48768 -0.539902,0.39902 -0.585351,0.35466 -0.621057,0.26602 -0.647045,0.17732 -0.662146,0.0887 z m 207.408748,0 -0.66263,-0.0887 -0.64704,-0.17732 -0.62115,-0.26602 -0.58464,-0.35466 -0.54068,-0.39902 -0.48681,-0.48768 -0.42579,-0.54532 -0.35801,-0.5985 -0.28408,-0.63843 -0.20677,-0.67389 -0.12532,-0.69605 -0.0415,-0.70933 0.0415,-0.70934 0.12532,-0.69606 0.20677,-0.67389 0.28408,-0.63841 0.35801,-0.5985 0.42579,-0.54534 0.48681,-0.48324 0.54068,-0.399 0.58464,-0.35468 0.62115,-0.266 0.64704,-0.17734 0.66263,-0.0888 h 0.66758 l 0.66264,0.0888 0.64704,0.17734 0.62043,0.266 0.58534,0.35468 0.54068,0.399 0.48682,0.48324 0.4258,0.54534 0.35759,0.5985 0.28491,0.63841 0.20594,0.67389 0.12532,0.69606 0.0418,0.70934 -0.0418,0.70933 -0.12532,0.69605 -0.20594,0.67389 -0.28491,0.63843 -0.35759,0.5985 -0.4258,0.54532 -0.48682,0.48768 -0.54068,0.39902 -0.58534,0.35466 -0.62043,0.26602 -0.64704,0.17732 -0.66264,0.0887 z"
     id="path4"
     inkscape:connector-curvature="0"
     style="fill:none;stroke:#000000;stroke-width:1.00057209;stroke-miterlimit:4;stroke-dasharray:none" />
</svg>
