<?xml version="1.0" encoding="UTF-8" standalone="no"?>
<svg
   xmlns:dc="http://purl.org/dc/elements/1.1/"
   xmlns:cc="http://creativecommons.org/ns#"
   xmlns:rdf="http://www.w3.org/1999/02/22-rdf-syntax-ns#"
   xmlns:svg="http://www.w3.org/2000/svg"
   xmlns="http://www.w3.org/2000/svg"
   xmlns:sodipodi="http://sodipodi.sourceforge.net/DTD/sodipodi-0.dtd"
   xmlns:inkscape="http://www.inkscape.org/namespaces/inkscape"
   width="8.5cm"
   height="5.5999999cm"
   viewBox="0 -6 321.25985 211.65354"
   version="1.1"
   id="svg6"
   sodipodi:docname="anavi-play-rpi3-bottom.svg"
   inkscape:version="0.92.2 (5c3e80d, 2017-08-06)">
  <metadata
     id="metadata12">
    <rdf:RDF>
      <cc:Work
         rdf:about="">
        <dc:format>image/svg+xml</dc:format>
        <dc:type
           rdf:resource="http://purl.org/dc/dcmitype/StillImage" />
        <dc:title>OpenSCAD Model</dc:title>
      </cc:Work>
    </rdf:RDF>
  </metadata>
  <defs
     id="defs10" />
  <sodipodi:namedview
     pagecolor="#ffffff"
     bordercolor="#666666"
     borderopacity="1"
     objecttolerance="10"
     gridtolerance="10"
     guidetolerance="10"
     inkscape:pageopacity="0"
     inkscape:pageshadow="2"
     inkscape:window-width="1841"
     inkscape:window-height="1018"
     id="namedview8"
     showgrid="false"
     units="cm"
     inkscape:zoom="0.61458333"
     inkscape:cx="-349.91128"
     inkscape:cy="-274.30268"
     inkscape:window-x="79"
     inkscape:window-y="34"
     inkscape:window-maximized="1"
     inkscape:current-layer="svg6" />
  <title
     id="title2">OpenSCAD Model</title>
  <path
     d="m 311.59084,204.97422 1.37448,-0.35467 1.31983,-0.52315 1.24375,-0.68275 1.14843,-0.83348 1.03498,-0.97093 0.90428,-1.09063 0.76074,-1.19703 0.60473,-1.28127 0.43861,-1.34777 0.26547,-1.39211 0.0893,-1.41426 V 5.7497787 l -0.0893,-1.4142697 -0.26547,-1.3921017 -0.43861,-1.347767 -0.60473,-1.281266 -0.76074,-1.19703214 -0.90428,-1.09062636 -1.03498,-0.9709254 -1.14843,-0.8334877 -1.24375,-0.6827489 -1.31983,-0.5231484 -1.37448,-0.3546754 -1.40876,-0.1773376 H 11.109137 L 9.7005929,-5.33827 8.3259965,-4.9835946 7.0059574,-4.4604462 5.7624398,-3.7776973 4.6137583,-2.9442096 3.5788942,-1.9732842 2.674552,-0.88265784 1.9139374,0.3143743 1.3091202,1.5956403 0.87045934,2.9434073 0.60485057,4.335509 0.51573238,5.7364797 V 193.87243 l 0.0891182,1.41426 0.26560877,1.3921 0.43866085,1.34777 0.6048172,1.28128 0.7606146,1.19704 0.9043422,1.0906 1.0348641,0.97094 1.1486815,0.83348 1.2435176,0.68276 1.3200391,0.52313 1.3745964,0.35468 1.4085441,0.17734 H 310.18205 Z m -79.71183,-193.590417 -0.70418,-0.08867 -0.68761,-0.177337 -0.66011,-0.266008 -0.6213,-0.354675 -0.57458,-0.39901 -0.51734,-0.4832464 -0.45249,-0.5453132 -0.38047,-0.5985151 -0.30188,-0.6384163 -0.21975,-0.6738845 -0.13317,-0.6960504 -0.0441,-0.7137846 0.0441,-0.7093522 0.13317,-0.6960509 0.21975,-0.6738829 0.30188,-0.638417 0.38047,-0.598515 0.45249,-0.5453142 0.51734,-0.4876784 0.57458,-0.3990113 0.6213,-0.35467441 0.66011,-0.26600759 0.68761,-0.17733673 0.70418,-0.0886699 h 0.70945 l 0.70419,0.0886699 0.68762,0.17733673 0.65933,0.26600759 0.62205,0.35467441 0.57459,0.3990113 0.51734,0.4876784 0.4525,0.5453142 0.38002,0.598515 0.30278,0.638417 0.21885,0.6738829 0.13318,0.6960509 0.0444,0.7093522 -0.0444,0.7093511 -0.13318,0.6960517 -0.21885,0.6738831 -0.30278,0.6384164 -0.38002,0.5985153 -0.4525,0.5453141 -0.51734,0.4832458 -0.57459,0.399012 -0.62205,0.354674 -0.65933,0.266007 -0.68762,0.177336 -0.70419,0.08867 z m -220.415136,0 L 10.759602,11.29513 10.072584,11.117796 9.4125823,10.851788 8.7905231,10.497113 8.2161638,10.098103 7.6987349,9.6148566 7.2463023,9.0695434 6.8662827,8.4710283 6.5638443,7.832612 6.344821,7.1587275 6.2114436,6.4626771 6.1671715,5.7533249 6.2114436,5.0439737 6.344821,4.3479235 6.5638443,3.6740395 6.8662827,3.0356236 7.2463023,2.4371075 7.6987349,1.8917943 8.2161638,1.4085479 8.7905231,1.0095386 9.4125823,0.65486319 10.072584,0.38885559 10.759602,0.21151787 11.463874,0.12284801 h 0.710037 l 0.703669,0.0886699 0.687621,0.17733772 0.660002,0.2660076 0.622059,0.35467537 0.573758,0.3990093 0.51743,0.4832463 0.452474,0.5453133 0.380591,0.598516 0.301835,0.6384161 0.219618,0.6738838 0.132827,0.6960503 0.04483,0.7093511 -0.04483,0.7093522 -0.132827,0.6960505 -0.219618,0.6738844 -0.301835,0.6384165 -0.380591,0.598515 -0.452474,0.5453132 -0.51743,0.4832464 -0.573758,0.39901 -0.622059,0.354675 -0.660002,0.266008 -0.687621,0.177337 -0.703669,0.08867 z m 0,188.135957 -0.704272,-0.0887 -0.687018,-0.17733 -0.6600017,-0.26602 -0.6220592,-0.35465 -0.5743593,-0.39903 -0.5174289,-0.48768 -0.4524326,-0.54532 -0.3800196,-0.5985 -0.3024384,-0.63843 -0.2190233,-0.6739 -0.1333774,-0.69604 -0.044272,-0.70934 0.044272,-0.70934 0.1333774,-0.69607 0.2190233,-0.67389 0.3024384,-0.6384 0.3800196,-0.59851 0.4524326,-0.54534 0.5174289,-0.48767 0.5743593,-0.39901 0.6220592,-0.35467 0.6600017,-0.266 0.687018,-0.17735 0.704272,-0.0888 h 0.710037 l 0.703669,0.0888 0.687621,0.17735 0.660002,0.266 0.622059,0.35467 0.573758,0.39901 0.51743,0.48767 0.452474,0.54534 0.380591,0.59851 0.301835,0.6384 0.219618,0.67389 0.132827,0.69607 0.04483,0.70934 -0.04483,0.70934 -0.132827,0.69604 -0.219618,0.6739 -0.301835,0.63843 -0.380591,0.5985 -0.452474,0.54532 -0.51743,0.48768 -0.573758,0.39903 -0.622059,0.35465 -0.660002,0.26602 -0.687621,0.17733 -0.703669,0.0887 z m 220.415136,0 -0.70418,-0.0887 -0.68761,-0.17733 -0.66011,-0.26602 -0.6213,-0.35465 -0.57458,-0.39903 -0.51734,-0.48768 -0.45249,-0.54532 -0.38047,-0.5985 -0.30188,-0.63843 -0.21975,-0.6739 -0.13317,-0.69604 -0.0441,-0.70934 0.0441,-0.70934 0.13317,-0.69607 0.21975,-0.67389 0.30188,-0.6384 0.38047,-0.59851 0.45249,-0.54534 0.51734,-0.48324 0.57458,-0.399 0.6213,-0.35468 0.66011,-0.266 0.68761,-0.17734 0.70418,-0.0888 h 0.70945 l 0.70419,0.0888 0.68762,0.17734 0.65933,0.266 0.62205,0.35468 0.57459,0.399 0.51734,0.48324 0.4525,0.54534 0.38002,0.59851 0.30278,0.6384 0.21885,0.67389 0.13318,0.69607 0.0444,0.70934 -0.0444,0.70934 -0.13318,0.69604 -0.21885,0.6739 -0.30278,0.63843 -0.38002,0.5985 -0.4525,0.54532 -0.51734,0.48768 -0.57459,0.39903 -0.62205,0.35465 -0.65933,0.26602 -0.68762,0.17733 -0.70419,0.0887 z"
     id="path4"
     inkscape:connector-curvature="0"
     style="fill:none;stroke:#000000;stroke-width:1.00012279;stroke-miterlimit:4;stroke-dasharray:none" />
</svg>
