<?xml version="1.0" encoding="UTF-8" standalone="no"?>
<svg
   xmlns:dc="http://purl.org/dc/elements/1.1/"
   xmlns:cc="http://creativecommons.org/ns#"
   xmlns:rdf="http://www.w3.org/1999/02/22-rdf-syntax-ns#"
   xmlns:svg="http://www.w3.org/2000/svg"
   xmlns="http://www.w3.org/2000/svg"
   xmlns:sodipodi="http://sodipodi.sourceforge.net/DTD/sodipodi-0.dtd"
   xmlns:inkscape="http://www.inkscape.org/namespaces/inkscape"
   width="10.4cm"
   height="4cm"
   viewBox="-2 -3 393.07084 151.1811"
   version="1.1"
   id="svg6"
   sodipodi:docname="anavi-play-rpi0-top.svg"
   inkscape:version="0.92.2 (5c3e80d, 2017-08-06)">
  <metadata
     id="metadata12">
    <rdf:RDF>
      <cc:Work
         rdf:about="">
        <dc:format>image/svg+xml</dc:format>
        <dc:type
           rdf:resource="http://purl.org/dc/dcmitype/StillImage" />
        <dc:title>OpenSCAD Model</dc:title>
      </cc:Work>
    </rdf:RDF>
  </metadata>
  <defs
     id="defs10" />
  <sodipodi:namedview
     pagecolor="#ffffff"
     bordercolor="#666666"
     borderopacity="1"
     objecttolerance="10"
     gridtolerance="10"
     guidetolerance="10"
     inkscape:pageopacity="0"
     inkscape:pageshadow="2"
     inkscape:window-width="1841"
     inkscape:window-height="1018"
     id="namedview8"
     showgrid="false"
     units="cm"
     inkscape:zoom="2.6590909"
     inkscape:cx="181.06049"
     inkscape:cy="47.503147"
     inkscape:window-x="79"
     inkscape:window-y="34"
     inkscape:window-maximized="1"
     inkscape:current-layer="svg6" />
  <title
     id="title2">OpenSCAD Model</title>
  <path
     d="m 88.159621,146.25651 9.159608,-2.34124 8.792311,-3.46503 8.28755,-4.53227 7.65049,-5.52983 6.89368,-6.44047 5.26674,-6.33335 h 120.6505 l 5.26676,6.33335 6.89368,6.44047 7.65048,5.52983 8.2868,4.53227 8.79285,3.46503 9.15956,2.34124 9.38209,1.17998 h 9.45664 l 9.38246,-1.17998 9.15959,-2.34124 8.79246,-3.46503 8.28717,-4.53227 7.65087,-5.52983 6.89292,-6.44047 6.02845,-7.24848 5.06681,-7.94262 4.02686,-8.51314 2.92217,-8.946909 1.77228,-9.241728 0.5934,-9.389316 -0.5934,-9.388941 -1.77228,-9.241724 -2.92217,-8.946914 -4.02686,-8.512756 -5.06681,-7.943365 -6.02845,-7.248484 -6.89292,-6.440476 -7.65087,-5.5294507 -8.28717,-4.5326435 -8.79246,-3.4650387 -9.15959,-2.34124189 -9.38246,-1.17998551 h -4.72831 V -2.2553821 H 70.283937 v 0.1498388 h -0.962896 l -9.381946,1.17998551 -9.159608,2.34124189 -8.792462,3.4650387 -8.286913,4.5326435 -7.650748,5.5294507 -6.89368,6.440476 -6.028063,7.248484 -5.067187,7.943365 -4.0264927,8.512756 -2.9217915,8.946914 -1.77265524,9.241724 -0.59339526,9.388941 0.59339526,9.389316 1.77265524,9.241728 2.9217915,8.946909 4.0264927,8.51314 5.067187,7.94262 6.028063,7.24848 6.89368,6.44047 7.650748,5.52983 8.286913,4.53227 8.792462,3.46503 9.159608,2.34124 9.381946,1.17998 H 78.77768 Z M 305.25377,14.598935 l -0.7041,-0.07492 -0.68716,-0.187298 -0.65892,-0.26222 -0.62162,-0.337138 -0.57381,-0.415805 -0.51696,-0.483232 -0.45219,-0.543168 -0.37991,-0.595612 -0.30197,-0.640564 -0.21915,-0.670531 -0.13334,-0.6930084 -0.044,-0.7042448 0.044,-0.7042465 0.13334,-0.6930079 0.21915,-0.6705314 0.30197,-0.6368177 0.37991,-0.595612 0.45219,-0.5431677 0.51696,-0.4832329 0.57381,-0.4158042 0.62162,-0.3371387 0.65892,-0.2622193 0.68716,-0.1872985 0.7041,-0.074922 h 0.709 l 0.70371,0.074922 0.68716,0.1872985 0.65931,0.2622193 0.62125,0.3371387 0.57381,0.4158042 0.51734,0.4832329 0.45181,0.5431677 0.38065,0.595612 0.30162,0.6368177 0.21951,0.6705314 0.13259,0.6930079 0.0448,0.7042465 -0.0448,0.7042448 -0.13259,0.6930084 -0.21951,0.670531 -0.30162,0.640564 -0.38065,0.595612 -0.45181,0.543168 -0.51734,0.483232 -0.57381,0.415805 -0.62125,0.337138 -0.65931,0.26222 -0.68716,0.187298 -0.70371,0.07492 z m -218.381091,0 -0.703789,-0.07492 -0.686544,-0.187301 -0.659547,-0.262219 -0.621632,-0.337139 -0.573966,-0.415804 -0.517074,-0.483233 -0.452125,-0.543168 -0.379755,-0.595611 -0.302214,-0.640564 -0.218884,-0.670532 -0.133302,-0.6930078 -0.04424,-0.7042448 0.04424,-0.7042465 0.133302,-0.6930079 0.218884,-0.6705314 0.302214,-0.6368177 0.379755,-0.595612 0.452125,-0.5431677 0.517074,-0.4832329 0.573966,-0.4158042 0.621632,-0.3371387 0.659547,-0.2622193 0.686544,-0.1872985 0.703789,-0.074922 h 0.70955 l 0.703187,0.074922 0.687149,0.1872985 0.659546,0.2622193 0.621632,0.3371387 0.573363,0.4158042 0.517075,0.4832329 0.452161,0.5431677 0.380319,0.595612 0.301613,0.6368177 0.219487,0.6705314 0.132736,0.6930079 0.04481,0.7042465 -0.04481,0.7042448 -0.132736,0.6930078 -0.219487,0.670532 -0.301613,0.640564 -0.380319,0.595611 -0.452161,0.543168 -0.517075,0.483233 -0.573363,0.415804 -0.621632,0.337139 -0.659546,0.262219 -0.687149,0.187299 -0.703187,0.07492 z M 75.932066,80.160822 V 46.448814 H 98.522849 V 18.355787 h 35.769241 v 28.093027 h 30.12148 V 18.355787 h 97.89524 V 31.465991 H 298.0777 V 65.17725 h -13.17815 v 39.33062 H 164.41357 V 80.160822 H 134.29209 V 110.12609 H 98.522849 V 80.160822 Z m 10.940613,20.590188 -0.703789,-0.0749 -0.686544,-0.18729 -0.659547,-0.26222 -0.621632,-0.33714 -0.573966,-0.415801 -0.517074,-0.483238 -0.452125,-0.543172 -0.379755,-0.595606 -0.302214,-0.63681 -0.218884,-0.670543 -0.133302,-0.693003 -0.04424,-0.704246 0.04424,-0.704246 0.133302,-0.693002 0.218884,-0.670544 0.302214,-0.63681 0.379755,-0.595606 0.452125,-0.543172 0.517074,-0.483237 0.573966,-0.415802 0.621632,-0.337135 0.659547,-0.262229 0.686544,-0.187291 0.703789,-0.07486 h 0.70955 l 0.703187,0.07486 0.687149,0.187291 0.659546,0.262229 0.621632,0.337135 0.573363,0.415802 0.517075,0.483237 0.452161,0.543172 0.380319,0.595606 0.301613,0.63681 0.219487,0.670544 0.132736,0.693002 0.04481,0.704246 -0.04481,0.704246 -0.132736,0.693003 -0.219487,0.670543 -0.301613,0.63681 -0.380319,0.595606 -0.452161,0.543172 -0.517075,0.483238 -0.573363,0.415801 -0.621632,0.33714 -0.659546,0.26222 -0.687149,0.18729 -0.703187,0.0749 z m 218.381091,0 -0.7041,-0.0749 -0.68716,-0.18729 -0.65892,-0.26223 -0.62162,-0.337131 -0.57381,-0.415801 -0.51696,-0.483238 -0.45219,-0.543172 -0.37991,-0.595606 -0.30197,-0.63681 -0.21915,-0.670543 -0.13334,-0.693003 -0.044,-0.704246 0.044,-0.704246 0.13334,-0.693002 0.21915,-0.670544 0.30197,-0.63681 0.37991,-0.595606 0.45219,-0.543172 0.51696,-0.483237 0.57381,-0.415802 0.62162,-0.337135 0.65892,-0.262229 0.68716,-0.187291 0.7041,-0.07486 h 0.709 l 0.70371,0.07486 0.68716,0.187291 0.65931,0.262229 0.62125,0.337135 0.57381,0.415802 0.51734,0.483237 0.45181,0.543172 0.38065,0.595606 0.30162,0.63681 0.21951,0.670544 0.13259,0.693002 0.0448,0.704246 -0.0448,0.704246 -0.13259,0.693003 -0.21951,0.670543 -0.30162,0.63681 -0.38065,0.595606 -0.45181,0.543172 -0.51734,0.483238 -0.57381,0.415801 -0.62125,0.337131 -0.65931,0.26223 -0.68716,0.18729 -0.70371,0.0749 z"
     id="path4"
     inkscape:connector-curvature="0"
     style="fill:none;stroke:#000000;stroke-width:1.48922729;stroke-miterlimit:4;stroke-dasharray:none" />
</svg>
