<?xml version="1.0" encoding="UTF-8" standalone="no"?>
<svg
   xmlns:dc="http://purl.org/dc/elements/1.1/"
   xmlns:cc="http://creativecommons.org/ns#"
   xmlns:rdf="http://www.w3.org/1999/02/22-rdf-syntax-ns#"
   xmlns:svg="http://www.w3.org/2000/svg"
   xmlns="http://www.w3.org/2000/svg"
   xmlns:sodipodi="http://sodipodi.sourceforge.net/DTD/sodipodi-0.dtd"
   xmlns:inkscape="http://www.inkscape.org/namespaces/inkscape"
   width="8.5cm"
   height="5.5999999cm"
   viewBox="0 -6 321.25985 211.65354"
   version="1.1"
   id="svg6"
   sodipodi:docname="anavi-play-rpi3-top.svg"
   inkscape:version="0.92.2 (5c3e80d, 2017-08-06)">
  <metadata
     id="metadata12">
    <rdf:RDF>
      <cc:Work
         rdf:about="">
        <dc:format>image/svg+xml</dc:format>
        <dc:type
           rdf:resource="http://purl.org/dc/dcmitype/StillImage" />
        <dc:title>OpenSCAD Model</dc:title>
      </cc:Work>
    </rdf:RDF>
  </metadata>
  <defs
     id="defs10" />
  <sodipodi:namedview
     pagecolor="#ffffff"
     bordercolor="#666666"
     borderopacity="1"
     objecttolerance="10"
     gridtolerance="10"
     guidetolerance="10"
     inkscape:pageopacity="0"
     inkscape:pageshadow="2"
     inkscape:window-width="1841"
     inkscape:window-height="1018"
     id="namedview8"
     showgrid="false"
     units="cm"
     inkscape:zoom="1.7383042"
     inkscape:cx="294.48488"
     inkscape:cy="31.990404"
     inkscape:window-x="79"
     inkscape:window-y="34"
     inkscape:window-maximized="1"
     inkscape:current-layer="svg6" />
  <title
     id="title2">OpenSCAD Model</title>
  <path
     d="M 25.056445,114.86387 V 84.784451 H 0.57806567 V 193.82097 l 0.08907,1.41446 0.265482,1.39262 0.43844803,1.34462 0.604519,1.28348 0.760245,1.19617 0.903901,1.0914 1.034361,0.96918 1.148122,0.83382 1.24291,0.68103 1.319396,0.52387 1.37393,0.34925 1.4078573,0.17461 H 310.09347 l 1.40808,-0.17461 1.37381,-0.34925 1.31918,-0.52387 1.24316,-0.68103 1.14786,-0.83382 1.0345,-0.96918 0.90383,-1.0914 0.76037,-1.19617 0.60443,-1.28348 0.43835,-1.34462 0.26543,-1.39262 0.0892,-1.41446 V 128.02311 H 252.896 V 71.62566 h 67.78577 V 56.585733 H 252.896 V 0.18786304 h 66.25718 l -0.62928,-0.986626 -0.90383,-1.09139904 -1.03449,-0.969164 -1.14787,-0.833829 -1.24315,-0.681034 -1.31919,-0.523872 -1.3738,-0.349247 -1.40809,-0.174625 H 11.166307 l -1.4078583,0.174625 -1.37393,0.349247 -1.319396,0.523872 -1.24291,0.681034 -1.148123,0.833829 -1.03436,0.969164 -0.903901,1.09139904 -0.760246,1.196174 -0.604519,1.28348696 -0.43844803,1.344604 -0.265482,1.392626 -0.08907,1.4144547 V 47.190527 H 25.056447 V 20.872074 H 60.83272 V 47.190527 H 90.960233 V 20.872074 h 97.914787 v 15.039053 h 37.65939 V 73.509416 H 211.47028 V 107.34849 H 90.960233 V 84.788816 H 60.83272 V 114.86823 Z M 231.82858,11.457221 l -0.70387,-0.08731 -0.6873,-0.174624 -0.6598,-0.261936 -0.621,-0.349248 -0.5743,-0.436561 -0.51708,-0.4845805 -0.45231,-0.5456998 -0.38041,-0.5980877 -0.30172,-0.6373769 -0.2195,-0.672303 -0.13294,-0.6941304 -0.0442,-0.7115922 0.0442,-0.7072255 0.13294,-0.694131 0.2195,-0.672303 0.30172,-0.637376 0.38041,-0.598089 0.45231,-0.545699 0.51708,-0.484582 0.5743,-0.43656 0.621,-0.34924796 0.6598,-0.261936 0.6873,-0.174624 0.70387,-0.08731 h 0.70911 l 0.70387,0.08731 0.6873,0.174624 0.65906,0.261936 0.62174,0.34924796 0.57431,0.43656 0.51707,0.484582 0.45231,0.545699 0.37955,0.598089 0.30258,0.637376 0.21864,0.672303 0.13337,0.694131 0.0446,0.7072255 -0.0446,0.7072268 -0.13337,0.6941303 -0.21864,0.672303 -0.30258,0.6373769 -0.37955,0.5980878 -0.45231,0.5456997 -0.51707,0.484581 -0.57431,0.436561 -0.62174,0.349248 -0.65906,0.261935 -0.6873,0.174624 -0.70387,0.08731 z m -220.307711,0 -0.703931,-0.08731 -0.68668,-0.174624 L 9.4705787,10.933351 8.8488227,10.584103 8.2747437,10.147542 7.7575677,9.6629615 7.3053537,9.1172617 6.9255217,8.519174 6.6232297,7.8817971 6.4043157,7.2094941 6.2710027,6.5153637 6.2267427,5.808137 l 0.04426,-0.707226 0.133313,-0.69413 0.218914,-0.672303 0.302292,-0.637377 0.379832,-0.598088 0.452214,-0.5457 0.517176,-0.484581 0.574079,-0.43656 0.621756,-0.34924896 0.6596793,-0.261936 0.68668,-0.174623 0.703931,-0.08731 h 0.709689 l 0.703327,0.08731 0.687285,0.174623 0.659679,0.261936 0.621755,0.34924896 0.573477,0.43656 0.517177,0.484581 0.452253,0.5457 0.380379,0.598088 0.301671,0.637377 0.219509,0.672303 0.132754,0.69413 0.04482,0.707226 -0.04482,0.7072267 -0.132754,0.6941304 -0.219509,0.672303 -0.301671,0.6373769 -0.380379,0.5980877 -0.452253,0.5456998 -0.517177,0.4845805 -0.573477,0.436561 -0.621755,0.349248 -0.659679,0.261936 -0.687285,0.174624 -0.703327,0.08731 z m 0,187.992319 -0.703931,-0.0873 -0.68668,-0.17463 -0.6596793,-0.26193 -0.621756,-0.34925 -0.574079,-0.43655 -0.517176,-0.48458 -0.452214,-0.54571 -0.379832,-0.59809 -0.302292,-0.63737 -0.218914,-0.67231 -0.133313,-0.69412 -0.04426,-0.70724 0.04426,-0.70722 0.133313,-0.69414 0.218914,-0.6723 0.302292,-0.63737 0.379832,-0.59809 0.452214,-0.5457 0.517176,-0.48458 0.574079,-0.43656 0.621756,-0.34925 0.6596793,-0.26194 0.68668,-0.17462 0.703931,-0.0873 h 0.709689 l 0.703327,0.0873 0.687285,0.17462 0.659679,0.26194 0.621755,0.34925 0.573477,0.43656 0.517177,0.48458 0.452253,0.5457 0.380379,0.59809 0.301671,0.63737 0.219509,0.6723 0.132754,0.69414 0.04482,0.70722 -0.04482,0.70724 -0.132754,0.69412 -0.219509,0.67231 -0.301671,0.63737 -0.380379,0.59809 -0.452253,0.54571 -0.517177,0.48458 -0.573477,0.43655 -0.621755,0.34925 -0.659679,0.26193 -0.687285,0.17463 -0.703327,0.0873 z m 220.307711,0 -0.70387,-0.0873 -0.6873,-0.17463 -0.6598,-0.26193 -0.621,-0.34925 -0.5743,-0.43655 -0.51708,-0.48458 -0.45231,-0.54571 -0.38041,-0.59809 -0.30172,-0.63737 -0.2195,-0.67231 -0.13294,-0.69412 -0.0442,-0.7116 0.0442,-0.70723 0.13294,-0.69413 0.2195,-0.67231 0.30172,-0.63736 0.38041,-0.5981 0.45231,-0.5457 0.51708,-0.48458 0.5743,-0.43655 0.621,-0.34925 0.6598,-0.26194 0.6873,-0.17462 0.70387,-0.0873 h 0.70911 l 0.70387,0.0873 0.6873,0.17462 0.65906,0.26194 0.62174,0.34925 0.57431,0.43655 0.51707,0.48458 0.45231,0.5457 0.37955,0.5981 0.30258,0.63736 0.21864,0.67231 0.13337,0.69413 0.0446,0.70723 -0.0446,0.70723 -0.13337,0.69413 -0.21864,0.67231 -0.30258,0.63737 -0.37955,0.59809 -0.45231,0.5457 -0.51707,0.48458 -0.57431,0.43655 -0.62174,0.34925 -0.65906,0.26194 -0.6873,0.17462 -0.70387,0.0873 z"
     id="path4"
     inkscape:connector-curvature="0"
     style="fill:none;stroke:#000000;stroke-width:1.156;stroke-miterlimit:4;stroke-dasharray:none" />
</svg>
