<?xml version="1.0" encoding="UTF-8" standalone="no"?>
<svg
   xmlns:dc="http://purl.org/dc/elements/1.1/"
   xmlns:cc="http://creativecommons.org/ns#"
   xmlns:rdf="http://www.w3.org/1999/02/22-rdf-syntax-ns#"
   xmlns:svg="http://www.w3.org/2000/svg"
   xmlns="http://www.w3.org/2000/svg"
   xmlns:sodipodi="http://sodipodi.sourceforge.net/DTD/sodipodi-0.dtd"
   xmlns:inkscape="http://www.inkscape.org/namespaces/inkscape"
   width="10.4cm"
   height="3cm"
   viewBox="-2 -3 393.07084 113.38583"
   version="1.1"
   id="svg6"
   sodipodi:docname="anavi-play-rpi0-bottom.svg"
   inkscape:version="0.92.2 (5c3e80d, 2017-08-06)">
  <metadata
     id="metadata12">
    <rdf:RDF>
      <cc:Work
         rdf:about="">
        <dc:format>image/svg+xml</dc:format>
        <dc:type
           rdf:resource="http://purl.org/dc/dcmitype/StillImage" />
        <dc:title>OpenSCAD Model</dc:title>
      </cc:Work>
    </rdf:RDF>
  </metadata>
  <defs
     id="defs10" />
  <sodipodi:namedview
     pagecolor="#ffffff"
     bordercolor="#666666"
     borderopacity="1"
     objecttolerance="10"
     gridtolerance="10"
     guidetolerance="10"
     inkscape:pageopacity="0"
     inkscape:pageshadow="2"
     inkscape:window-width="1841"
     inkscape:window-height="1018"
     id="namedview8"
     showgrid="false"
     units="cm"
     inkscape:zoom="1.8802612"
     inkscape:cx="137.06838"
     inkscape:cy="-65.286034"
     inkscape:window-x="79"
     inkscape:window-y="34"
     inkscape:window-maximized="1"
     inkscape:current-layer="svg6" />
  <title
     id="title2">OpenSCAD Model</title>
  <path
     d="m 333.95521,109.63116 h 3.54922 l 7.0419,-0.82839 6.87534,-1.75342 6.59953,-2.59561 6.22007,-3.39639 5.74227,-4.141941 5.17478,-4.818454 4.5244,-5.425939 3.80356,-5.950585 3.02206,-6.378584 2.19343,-6.70994 1.33016,-6.930843 0.44539,-7.027489 -0.44539,-7.041293 -1.33016,-6.930844 -2.19343,-6.709939 -3.02206,-6.378585 -3.80356,-5.950584 -4.5244,-5.42594 -5.17478,-4.818454 -5.74227,-4.1419379 -6.22007,-3.3963898 -6.59953,-2.59561402 -6.87534,-1.75342098 -7.0419,-0.828387 h -3.54922 v -0.111824 H 51.345349 v 0.138064 l -6.823197,0.828387 -6.874934,1.75341998 -6.599557,2.59561602 -6.220068,3.3963882 -5.742644,4.1419385 -5.174409,4.818454 -4.5244068,5.42594 -3.8035593,5.950584 -3.022048,6.378585 -2.19343413,6.709939 -1.3297765,6.930844 -0.44577087,7.041295 0.44577087,7.041295 1.3297765,6.930842 2.19343413,6.696134 3.022048,6.378585 3.8035593,5.950583 4.5244068,5.42594 5.174409,4.818455 5.742644,4.141939 6.220068,3.39639 6.599557,2.59561 6.874934,1.75342 6.823197,0.82839 v 0.13806 H 333.95521 Z m -28.61562,-95.314281 -0.70465,-0.07455 -0.68768,-0.138065 -0.65943,-0.27613 -0.62211,-0.276128 -0.57427,-0.414194 -0.51738,-0.552258 -0.45253,-0.55226 -0.38021,-0.552258 -0.3022,-0.690322 -0.21931,-0.690323 -0.13339,-0.690323 -0.0441,-0.6903228 0.0441,-0.6903228 0.13339,-0.6903241 0.21931,-0.6903228 0.3022,-0.6903228 0.38021,-0.5522594 0.45253,-0.552258 0.51738,-0.414194 0.57427,-0.414194 0.62211,-0.276129 0.65943,-0.27613 0.68768,-0.138063 0.70465,-0.07455 h 0.70954 l 0.70426,0.07455 0.68768,0.138063 0.65981,0.27613 0.62174,0.276129 0.57428,0.414194 0.51773,0.414194 0.45218,0.552258 0.38096,0.5522594 0.30182,0.6903228 0.21968,0.6903228 0.13265,0.6903241 0.0448,0.6903228 -0.0448,0.6903228 -0.13265,0.690323 -0.21968,0.690323 -0.30182,0.690322 -0.38096,0.552258 -0.45218,0.55226 -0.51773,0.552258 -0.57428,0.414194 -0.62174,0.276128 -0.65981,0.27613 -0.68768,0.138065 -0.70426,0.07455 z m -218.552363,0 -0.704342,-0.07455 -0.687082,-0.138065 -0.660065,-0.27613 -0.62212,-0.276128 -0.574415,-0.414194 -0.517479,-0.552258 -0.452478,-0.55226 -0.380054,-0.552258 -0.302469,-0.690322 -0.219042,-0.690323 -0.133392,-0.690323 -0.04428,-0.6903228 0.04428,-0.6903228 0.133392,-0.6903241 0.219042,-0.6903228 0.302469,-0.6903228 0.380054,-0.5522594 0.452478,-0.552258 0.517479,-0.414194 0.574415,-0.414194 0.62212,-0.276129 0.660065,-0.27613 0.687082,-0.138063 0.704342,-0.07455 h 0.710106 l 0.703738,0.07455 0.687685,0.138063 0.660065,0.27613 0.62212,0.276129 0.573812,0.414194 0.517478,0.414194 0.452516,0.552258 0.380621,0.5522594 0.301865,0.6903228 0.219645,0.6903228 0.132826,0.6903241 0.04484,0.6903228 -0.04484,0.6903228 -0.132826,0.690323 -0.219645,0.690323 -0.301865,0.690322 -0.380621,0.552258 -0.452516,0.55226 -0.517478,0.552258 -0.573812,0.414194 -0.62212,0.276128 -0.660065,0.27613 -0.687685,0.138065 -0.703738,0.07455 z m 0,86.059811 -0.704342,-0.0746 -0.687082,-0.13806 -0.660065,-0.276134 -0.62212,-0.276129 -0.574415,-0.414193 -0.517479,-0.414193 -0.452478,-0.55226 -0.380054,-0.552258 -0.302469,-0.690323 -0.219042,-0.690322 -0.133392,-0.690323 -0.04428,-0.690323 0.04428,-0.690323 0.133392,-0.690324 0.219042,-0.690323 0.302469,-0.690323 0.380054,-0.552259 0.452478,-0.552258 0.517479,-0.552258 0.574415,-0.414194 0.62212,-0.276129 0.660065,-0.276129 0.687082,-0.138065 0.704342,-0.07455 h 0.710106 l 0.703738,0.07455 0.687685,0.138065 0.660065,0.276129 0.62212,0.276129 0.573812,0.414194 0.517478,0.552258 0.452516,0.552258 0.380621,0.552259 0.301865,0.690323 0.219645,0.690323 0.132826,0.690324 0.04484,0.690323 -0.04484,0.690323 -0.132826,0.690323 -0.219645,0.690322 -0.301865,0.690323 -0.380621,0.552258 -0.452516,0.55226 -0.517478,0.414193 -0.573812,0.414193 -0.62212,0.276129 -0.660065,0.276134 -0.687685,0.13806 -0.703738,0.0746 z m 218.552363,0 -0.70465,-0.0746 -0.68768,-0.13806 -0.65943,-0.276134 -0.62211,-0.276129 -0.57427,-0.414193 -0.51738,-0.414193 -0.45253,-0.55226 -0.38021,-0.552258 -0.3022,-0.690323 -0.21931,-0.690322 -0.13339,-0.690323 -0.0441,-0.690323 0.0441,-0.690323 0.13339,-0.690324 0.21931,-0.690323 0.3022,-0.690323 0.38021,-0.552259 0.45253,-0.552258 0.51738,-0.552258 0.57427,-0.414194 0.62211,-0.276129 0.65943,-0.276129 0.68768,-0.138065 0.70465,-0.07455 h 0.70954 l 0.70426,0.07455 0.68768,0.138065 0.65981,0.276129 0.62174,0.276129 0.57428,0.414194 0.51773,0.552258 0.45218,0.552258 0.38096,0.552259 0.30182,0.690323 0.21968,0.690323 0.13265,0.690324 0.0448,0.690323 -0.0448,0.690323 -0.13265,0.690323 -0.21968,0.690322 -0.30182,0.690323 -0.38096,0.552258 -0.45218,0.55226 -0.51773,0.414193 -0.57428,0.414193 -0.62174,0.276129 -0.65981,0.276134 -0.68768,0.13806 -0.70426,0.0746 z"
     id="path4"
     inkscape:connector-curvature="0"
     style="fill:none;stroke:#000000;stroke-width:1.18072498;stroke-miterlimit:4;stroke-dasharray:none" />
</svg>
