<?xml version="1.0" encoding="UTF-8" standalone="no"?>
<svg
   xmlns:dc="http://purl.org/dc/elements/1.1/"
   xmlns:cc="http://creativecommons.org/ns#"
   xmlns:rdf="http://www.w3.org/1999/02/22-rdf-syntax-ns#"
   xmlns:svg="http://www.w3.org/2000/svg"
   xmlns="http://www.w3.org/2000/svg"
   xmlns:sodipodi="http://sodipodi.sourceforge.net/DTD/sodipodi-0.dtd"
   xmlns:inkscape="http://www.inkscape.org/namespaces/inkscape"
   width="80mm"
   height="45mm"
   viewBox="0 -4 302.36222 170.07875"
   version="1.1"
   id="svg6"
   sodipodi:docname="anavi-light-controller-case.svg"
   inkscape:version="0.92.2 (5c3e80d, 2017-08-06)">
  <metadata
     id="metadata12">
    <rdf:RDF>
      <cc:Work
         rdf:about="">
        <dc:format>image/svg+xml</dc:format>
        <dc:type
           rdf:resource="http://purl.org/dc/dcmitype/StillImage" />
        <dc:title>OpenSCAD Model</dc:title>
      </cc:Work>
    </rdf:RDF>
  </metadata>
  <defs
     id="defs10" />
  <sodipodi:namedview
     pagecolor="#ffffff"
     bordercolor="#666666"
     borderopacity="1"
     objecttolerance="10"
     gridtolerance="10"
     guidetolerance="10"
     inkscape:pageopacity="0"
     inkscape:pageshadow="2"
     inkscape:window-width="1841"
     inkscape:window-height="1018"
     id="namedview8"
     showgrid="false"
     units="mm"
     inkscape:zoom="0.9140625"
     inkscape:cx="-47.665515"
     inkscape:cy="-185.90705"
     inkscape:window-x="79"
     inkscape:window-y="34"
     inkscape:window-maximized="1"
     inkscape:current-layer="svg6" />
  <title
     id="title2">OpenSCAD Model</title>
  <path
     d="m 7.8972365,141.87509 0.44405,2.32553 0.732595,2.25076 1.0090495,2.14194 1.269953,1.99914 1.510707,1.82235 1.727244,1.62517 1.917854,1.39396 2.076875,1.14238 2.203544,0.87037 2.295116,0.61197 2.35158,0.27201 H 273.14698 l 2.35151,-0.27201 2.29526,-0.61197 2.20356,-0.87037 2.07672,-1.14238 1.91781,-1.39396 1.72721,-1.62517 1.51094,-1.82235 1.26974,-1.99914 1.0089,-2.14194 0.73264,-2.25076 0.44424,-2.32553 0.1491,-2.35953 V 90.477274 H 245.54039 V 45.210852 h 45.29422 v -18.86135 l -0.1491,-2.366339 -0.44424,-2.325539 -0.73264,-2.250741 -1.0089,-2.141945 -1.26974,-1.999148 -1.51094,-1.822352 -1.72721,-1.625158 -1.91781,-1.393964 -2.07672,-1.1423705 -2.20356,-0.8703773 -2.29526,-0.6119845 -2.35151,-0.2719928 H 25.435804 l -2.35158,0.2719928 -2.295116,0.6119845 -2.203544,0.8703773 -2.076875,1.1423705 -1.917854,1.393964 -1.727244,1.625158 -1.510707,1.822352 -1.269953,1.999148 -1.0090495,2.141945 -0.732595,2.250741 -0.44405,2.325539 -0.149171,2.366339 V 41.43831 H 45.492939 v 82.98843 H 7.7480655 v 15.08813 z M 271.48772,33.876226 l -0.94061,-0.135995 -0.91794,-0.203995 -0.88135,-0.339992 -0.83114,-0.475988 -0.7666,-0.543985 -0.69111,-0.679982 -0.60391,-0.734382 -0.50805,-0.802379 -0.40388,-0.856777 -0.29327,-0.904377 -0.17741,-0.931575 -0.0595,-0.945176 0.0595,-0.945177 0.17741,-0.931574 0.29327,-0.904378 0.40388,-0.856777 0.50805,-0.802378 0.60391,-0.727581 0.69111,-0.679982 0.7666,-0.543987 0.83114,-0.475987 0.88135,-0.339992 0.91794,-0.203994 0.94061,-0.135997 h 0.94852 l 0.94062,0.135997 0.91796,0.203994 0.88095,0.339992 0.83114,0.475987 0.76661,0.543987 0.69109,0.679982 0.60431,0.727581 0.50805,0.802378 0.40348,0.856777 0.29329,0.904378 0.1774,0.931574 0.06,0.945177 -0.06,0.945176 -0.1774,0.931575 -0.29329,0.904377 -0.40348,0.856777 -0.50805,0.802379 -0.60431,0.734382 -0.69109,0.679982 -0.76661,0.543985 -0.83114,0.475988 -0.88095,0.339992 -0.91796,0.203995 -0.94062,0.135995 z m -245.341784,0 -0.940526,-0.135995 -0.91803,-0.203995 -0.881193,-0.339992 -0.831104,-0.475988 -0.766561,-0.543985 -0.691146,-0.679982 -0.604144,-0.734382 -0.507971,-0.802379 -0.403757,-0.856777 -0.293165,-0.904377 -0.177363,-0.931575 -0.05991,-0.945176 0.05991,-0.945177 0.177363,-0.931574 0.293165,-0.904378 0.403757,-0.856777 0.507971,-0.802378 0.604144,-0.727581 0.691146,-0.679982 0.766561,-0.543987 0.831104,-0.475987 0.881193,-0.339992 0.91803,-0.203994 0.940526,-0.135997 h 0.948566 l 0.940528,0.135997 0.918031,0.203994 0.881191,0.339992 0.831068,0.475987 0.766598,0.543987 0.691106,0.679982 0.604184,0.727581 0.50797,0.802378 0.403757,0.856777 0.293126,0.904378 0.177402,0.931574 0.0599,0.945177 -0.0599,0.945176 -0.177402,0.931575 -0.293126,0.904377 -0.403757,0.856777 -0.50797,0.802379 -0.604184,0.734382 -0.691106,0.679982 -0.766598,0.543985 -0.831068,0.475988 -0.881191,0.339992 -0.918031,0.203995 -0.940528,0.135995 z m 185.068894,10.188855 -0.70546,-0.06799 -0.68884,-0.203995 -0.66129,-0.271993 -0.62241,-0.339992 -0.57561,-0.407989 -0.51824,-0.475989 -0.45331,-0.543984 -0.38124,-0.611984 -0.30234,-0.611984 -0.22005,-0.679983 -0.13323,-0.700382 -0.0442,-0.707181 0.0442,-0.707183 0.13323,-0.700381 0.22005,-0.679982 0.30234,-0.611984 0.38124,-0.611984 0.45331,-0.543985 0.51824,-0.475988 0.57561,-0.407989 0.62241,-0.339992 0.66129,-0.271993 0.68884,-0.203995 0.70546,-0.06799 h 0.71073 l 0.70545,0.06799 0.68884,0.203995 0.66054,0.271993 0.62317,0.339992 0.5756,0.407989 0.51826,0.475988 0.4533,0.543985 0.38047,0.611984 0.30309,0.611984 0.2193,0.679982 0.13361,0.700381 0.0444,0.707183 -0.0444,0.707181 -0.13361,0.700382 -0.2193,0.679983 -0.30309,0.611984 -0.38047,0.611984 -0.4533,0.543984 -0.51826,0.475989 -0.5756,0.407989 -0.62317,0.339992 -0.66054,0.271993 -0.68884,0.203995 -0.70545,0.06799 z M 75.688461,124.42401 V 41.435591 h 45.294229 v 82.988419 z m -49.542525,22.61827 -0.940526,-0.136 -0.91803,-0.20399 -0.881193,-0.34 -0.831104,-0.47599 -0.766561,-0.54399 -0.691146,-0.67998 -0.604144,-0.73438 -0.507971,-0.80238 -0.403757,-0.85678 -0.293165,-0.90437 -0.177363,-0.93158 -0.05991,-0.94518 0.05991,-0.94517 0.177363,-0.93157 0.293165,-0.90437 0.403757,-0.85679 0.507971,-0.80237 0.604144,-0.72759 0.691146,-0.67998 0.766561,-0.54399 0.831104,-0.47598 0.881193,-0.33999 0.91803,-0.20399 0.940526,-0.136 h 0.948566 l 0.940528,0.136 0.918031,0.20399 0.881191,0.33999 0.831068,0.47598 0.766598,0.54399 0.691106,0.67998 0.604184,0.72759 0.50797,0.80237 0.403757,0.85679 0.293126,0.90437 0.177402,0.93157 0.0599,0.94517 -0.0599,0.94518 -0.177402,0.93158 -0.293126,0.90437 -0.403757,0.85678 -0.50797,0.80238 -0.604184,0.73438 -0.691106,0.67998 -0.766598,0.54399 -0.831068,0.47599 -0.881191,0.34 -0.918031,0.20399 -0.940528,0.136 z m 245.341784,0 -0.94061,-0.136 -0.91794,-0.20399 -0.88135,-0.34 -0.83114,-0.47599 -0.7666,-0.54399 -0.69111,-0.67998 -0.60391,-0.73438 -0.50805,-0.80238 -0.40388,-0.85678 -0.29327,-0.90437 -0.17741,-0.93158 -0.0595,-0.94518 0.0595,-0.94517 0.17741,-0.93157 0.29327,-0.90437 0.40388,-0.85679 0.50805,-0.80237 0.60391,-0.72759 0.69111,-0.67998 0.7666,-0.54399 0.83114,-0.47598 0.88135,-0.33999 0.91794,-0.20399 0.94061,-0.136 h 0.94852 l 0.94062,0.136 0.91796,0.20399 0.88095,0.33999 0.83114,0.47598 0.76661,0.54399 0.69109,0.67998 0.60431,0.72759 0.50805,0.80237 0.40348,0.85679 0.29329,0.90437 0.1774,0.93157 0.06,0.94517 -0.06,0.94518 -0.1774,0.93158 -0.29329,0.90437 -0.40348,0.85678 -0.50805,0.80238 -0.60431,0.73438 -0.69109,0.67998 -0.76661,0.54399 -0.83114,0.47599 -0.88095,0.34 -0.91796,0.20399 -0.94062,0.136 z"
     id="path4"
     inkscape:connector-curvature="0"
     style="fill:none;stroke:#000000;stroke-width:0.37802085;stroke-miterlimit:4;stroke-dasharray:none" />
</svg>
