<?xml version="1.0" encoding="UTF-8" standalone="no"?>
<svg
   xmlns:dc="http://purl.org/dc/elements/1.1/"
   xmlns:cc="http://creativecommons.org/ns#"
   xmlns:rdf="http://www.w3.org/1999/02/22-rdf-syntax-ns#"
   xmlns:svg="http://www.w3.org/2000/svg"
   xmlns="http://www.w3.org/2000/svg"
   xmlns:sodipodi="http://sodipodi.sourceforge.net/DTD/sodipodi-0.dtd"
   xmlns:inkscape="http://www.inkscape.org/namespaces/inkscape"
   width="7.5cm"
   height="10cm"
   viewBox="0 -10 283.46456 377.95278"
   version="1.1"
   id="svg6"
   sodipodi:docname="anavi-thermometer-case.svg"
   inkscape:version="0.92.3 (2405546, 2018-03-11)">
  <metadata
     id="metadata12">
    <rdf:RDF>
      <cc:Work
         rdf:about="">
        <dc:format>image/svg+xml</dc:format>
        <dc:type
           rdf:resource="http://purl.org/dc/dcmitype/StillImage" />
        <dc:title>OpenSCAD Model</dc:title>
      </cc:Work>
    </rdf:RDF>
  </metadata>
  <defs
     id="defs10" />
  <sodipodi:namedview
     pagecolor="#ffffff"
     bordercolor="#666666"
     borderopacity="1"
     objecttolerance="10"
     gridtolerance="10"
     guidetolerance="10"
     inkscape:pageopacity="0"
     inkscape:pageshadow="2"
     inkscape:window-width="1841"
     inkscape:window-height="1018"
     id="namedview8"
     showgrid="false"
     units="cm"
     inkscape:zoom="2.085965"
     inkscape:cx="39.323941"
     inkscape:cy="186.57911"
     inkscape:window-x="79"
     inkscape:window-y="34"
     inkscape:window-maximized="1"
     inkscape:current-layer="svg6" />
  <title
     id="title2">OpenSCAD Model</title>
  <path
     d="m 282.96439,9.3426828 -0.14875,-2.3651943 -0.44328,-2.328714 -0.73103,-2.24967 -1.0067,-2.140227 -1.26695,-1.994301 -1.5076,-1.824058 -1.72342,-1.623412 -1.91359,-1.392365 -2.07217,-1.143075 -2.19871,-0.869467 -2.29021,-0.608019 -2.34633,-0.30401 H 18.149027 l -2.346409,0.30401 -2.29007,0.608019 -2.198702,0.869467 -2.0723076,1.143075 -1.913638,1.392365 -1.723448,1.623412 -1.507386,1.824058 -1.267161,1.994301 -1.006831,2.140227 -0.730983,2.24967 -0.443075,2.328714 -0.148842,2.3651943 V 140.90221 H 282.96439 Z m -38.1353,7.5248452 -0.93853,-0.121603 -0.91594,-0.243208 -0.87941,-0.364812 -0.82932,-0.425613 -0.76491,-0.547218 -0.68959,-0.65058 -0.60259,-0.729623 -0.50692,-0.796504 -0.40299,-0.857308 -0.29264,-0.899868 -0.17701,-0.930269 -0.0595,-0.94851 0.0595,-0.9485096 0.17701,-0.9302704 0.29264,-0.8998674 0.40299,-0.8573071 0.50692,-0.796505 0.60259,-0.729624 0.68959,-0.65058 0.76491,-0.547216 0.82932,-0.425615 0.87941,-0.36481 0.91594,-0.243208 0.93853,-0.121604 h 0.94643 l 0.93855,0.121604 0.91593,0.243208 0.87902,0.36481 0.82932,0.425615 0.76491,0.547216 0.68959,0.65058 0.60297,0.729624 0.50694,0.796505 0.4026,0.8573071 0.29263,0.8998674 0.17702,0.9302704 0.0598,0.9485096 -0.0598,0.94851 -0.17702,0.930269 -0.29263,0.899868 -0.4026,0.857308 -0.50694,0.796504 -0.60297,0.729623 -0.68959,0.65058 -0.76491,0.547218 -0.82932,0.425613 -0.87902,0.364812 -0.91593,0.243208 -0.93855,0.121603 z m -86.62199,0 -0.93854,-0.121603 -0.91669,-0.243208 -0.87901,-0.364812 -0.82895,-0.425613 -0.7653,-0.547218 -0.68958,-0.65058 -0.60297,-0.729623 -0.50693,-0.796504 -0.40261,-0.857308 -0.29262,-0.899868 -0.17702,-0.930269 -0.0591,-0.9667501 0.0591,-0.9485107 0.17702,-0.9302695 0.29262,-0.8998685 0.40261,-0.8573057 0.50693,-0.796506 0.60297,-0.729623 0.68958,-0.650581 0.7653,-0.547216 0.82895,-0.486415 0.87901,-0.364811 0.91669,-0.243208 0.93854,-0.121604 h 0.94568 l 0.93855,0.121604 0.91631,0.243208 0.87903,0.364811 0.82932,0.486415 0.76529,0.547216 0.6892,0.650581 0.60336,0.729623 0.50692,0.796506 0.40224,0.8573057 0.29262,0.8998685 0.1774,0.9302695 0.059,0.9485107 -0.059,0.9485091 -0.1774,0.930269 -0.29262,0.899868 -0.40224,0.857307 -0.50692,0.796506 -0.60336,0.729623 -0.6892,0.65058 -0.76529,0.547218 -0.82932,0.486414 -0.87903,0.364811 -0.91631,0.243208 -0.93855,0.121604 z m -135.346342,15.084956 -0.469495,-0.0608 -0.897632,-0.30401 -0.797077,-0.486415 -0.64594,-0.687061 -0.455143,-0.826907 -0.234482,-0.918108 -0.02987,-4.243974 0.118371,-0.936349 0.347694,-0.875548 0.55457,-0.766105 0.727517,-0.608019 0.853982,-0.425613 0.927501,-0.182406 H 128.78602 l 0.9276,0.182406 0.85379,0.425613 0.72764,0.608019 0.55438,0.766105 0.348,0.875548 0.0885,0.486414 0.0298,4.243975 -0.11823,0.936348 -0.348,0.881628 -0.55438,0.766104 -0.72765,0.608021 -0.85379,0.425612 -0.92759,0.182407 z m 0,52.774844 -0.469495,-0.0608 -0.897632,-0.304009 -0.797077,-0.486416 -0.64594,-0.687061 -0.455143,-0.826907 -0.234482,-0.918109 -0.02987,-4.243973 0.118371,-0.93635 0.347694,-0.875547 0.55457,-0.766104 0.727517,-0.608019 0.853982,-0.425613 0.927501,-0.182406 H 128.78602 l 0.9276,0.182406 0.85379,0.425613 0.72764,0.608019 0.55438,0.766104 0.348,0.875547 0.0885,0.486416 0.0298,4.243974 -0.11823,0.936348 -0.348,0.875548 -0.55438,0.766103 -0.72765,0.60802 -0.85379,0.425615 -0.92759,0.182404 z m 135.346342,18.841302 -0.93854,-0.12161 -0.91669,-0.24321 -0.87901,-0.36481 -0.82895,-0.42562 -0.7653,-0.54721 -0.68958,-0.65058 -0.60297,-0.72962 -0.50693,-0.79651 -0.40261,-0.857297 -0.29262,-0.899875 -0.17702,-0.930267 -0.0591,-0.972832 0.0591,-0.94851 0.17702,-0.930267 0.29262,-0.899875 0.40261,-0.857307 0.50693,-0.796502 0.60297,-0.729621 0.68958,-0.650583 0.7653,-0.547217 0.82895,-0.425613 0.87901,-0.36481 0.91669,-0.243208 0.93854,-0.121604 h 0.94568 l 0.93855,0.121604 0.91631,0.243208 0.87903,0.36481 0.82932,0.425613 0.76529,0.547217 0.6892,0.650583 0.60336,0.729621 0.50692,0.796502 0.40224,0.857307 0.29262,0.899875 0.1774,0.930267 0.059,0.94851 -0.059,0.948509 -0.1774,0.930267 -0.29262,0.899863 -0.40224,0.85732 -0.50692,0.796502 -0.60336,0.72962 -0.6892,0.65058 -0.76529,0.54722 -0.82932,0.48641 -0.87903,0.36482 -0.91631,0.2432 -0.93855,0.1216 z m 86.62199,0 -0.93853,-0.12161 -0.91594,-0.24321 -0.87941,-0.36481 -0.82932,-0.42562 -0.76491,-0.54721 -0.68959,-0.65058 -0.60259,-0.72962 -0.50692,-0.79651 -0.40299,-0.857297 -0.29264,-0.899875 -0.17701,-0.930267 -0.0595,-0.948509 0.0595,-0.94851 0.17701,-0.930277 0.29264,-0.899865 0.40299,-0.857307 0.50692,-0.796505 0.60259,-0.729622 0.68959,-0.650581 0.76491,-0.547216 0.82932,-0.425615 0.87941,-0.36481 0.91594,-0.243208 0.93853,-0.121604 h 0.94643 l 0.93855,0.121604 0.91593,0.243208 0.87902,0.36481 0.82932,0.425615 0.76491,0.547216 0.68959,0.650581 0.60297,0.729622 0.50694,0.796505 0.4026,0.857307 0.29263,0.899865 0.17702,0.930277 0.0598,0.94851 -0.0598,0.948509 -0.17702,0.930267 -0.29263,0.899875 -0.4026,0.857297 -0.50694,0.79651 -0.60297,0.72962 -0.68959,0.65058 -0.76491,0.54721 -0.82932,0.42562 -0.87902,0.36481 -0.91593,0.24321 -0.93855,0.12161 z M 0.6490164,350.96918 l 0.443075,2.32872 0.730983,2.24967 1.006831,2.14022 1.267161,2.00037 1.507386,1.82407 1.723448,1.62341 1.913638,1.39237 2.0723076,1.14306 2.198702,0.86948 2.29007,0.608 2.346409,0.30403 H 265.31565 l 2.34633,-0.30403 2.29021,-0.608 2.19871,-0.86948 2.07217,-1.14306 1.91359,-1.39237 1.72342,-1.62341 1.5076,-1.82407 1.26695,-2.00037 1.0067,-2.14022 0.73103,-2.24967 0.44328,-2.32872 0.14875,-2.35911 V 141.28161 H 0.5001744 V 348.61007 Z M 263.66004,243.04396 l -0.93853,-0.12161 -0.91594,-0.24321 -0.8794,-0.36481 -0.82932,-0.42561 -0.76492,-0.54721 -0.68958,-0.65058 -0.6026,-0.72963 -0.50694,-0.7965 -0.40298,-0.85731 -0.29262,-0.89988 -0.17701,-0.93026 -0.0595,-0.94851 0.0595,-0.94851 0.17701,-0.93028 0.29262,-0.89985 0.40298,-0.85732 0.50694,-0.79651 0.6026,-0.72961 0.68958,-0.65059 0.76492,-0.54721 0.82932,-0.48642 0.8794,-0.36482 0.91594,-0.2432 0.93853,-0.12161 h 0.94645 l 0.93851,0.12161 0.91594,0.2432 0.87903,0.36482 0.82931,0.48642 0.76493,0.54721 0.68958,0.65059 0.60297,0.72961 0.50692,0.79651 0.40261,0.85732 0.29263,0.89985 0.17702,0.93028 0.0598,0.94851 -0.0598,0.94851 -0.17702,0.93026 -0.29263,0.89988 -0.40261,0.85731 -0.50692,0.7965 -0.60297,0.72963 -0.68958,0.65058 -0.76493,0.54721 -0.82931,0.42561 -0.87903,0.36481 -0.91594,0.24321 -0.93851,0.12161 z m -244.80244,0 -0.93846,-0.12161 -0.916013,-0.24321 -0.879255,-0.36481 -0.829277,-0.42561 -0.764875,-0.54721 -0.689628,-0.65058 -0.602816,-0.72963 -0.506855,-0.7965 -0.402867,-0.85731 -0.29252,-0.89988 -0.176974,-0.93026 -0.05977,-0.94851 0.05977,-0.94851 0.176974,-0.93028 0.29252,-0.89985 0.402867,-0.85732 0.506855,-0.79651 0.602816,-0.72961 0.689628,-0.65059 0.764875,-0.54721 0.829277,-0.48642 0.879255,-0.36482 0.916013,-0.2432 0.93846,-0.12161 h 0.946479 l 0.93846,0.12161 0.916013,0.2432 0.879255,0.36482 0.82924,0.48642 0.764912,0.54721 0.689591,0.65059 0.602853,0.72961 0.506854,0.79651 0.402869,0.85732 0.292481,0.89985 0.177012,0.93028 0.05977,0.94851 -0.05977,0.94851 -0.177012,0.93026 -0.292481,0.89988 -0.402869,0.85731 -0.506854,0.7965 -0.602853,0.72963 -0.689591,0.65058 -0.764912,0.54721 -0.82924,0.42561 -0.879255,0.36481 -0.916013,0.24321 -0.93846,0.12161 z m 0,113.08852 -0.93846,-0.12161 -0.916013,-0.2432 -0.879255,-0.36481 -0.829277,-0.48642 -0.764875,-0.54721 -0.689628,-0.65059 -0.602816,-0.72961 -0.506855,-0.79652 -0.402867,-0.8573 -0.29252,-0.89987 -0.176974,-0.93027 -0.05977,-0.94851 0.05977,-0.94851 0.176974,-0.93028 0.29252,-0.89986 0.402867,-0.85731 0.506855,-0.79651 0.602816,-0.72962 0.689628,-0.65058 0.764875,-0.54721 0.829277,-0.42562 0.879255,-0.36482 0.916013,-0.2432 0.93846,-0.12161 h 0.946479 l 0.93846,0.12161 0.916013,0.2432 0.879255,0.36482 0.82924,0.42562 0.764912,0.54721 0.689591,0.65058 0.602853,0.72962 0.506854,0.79651 0.402869,0.85731 0.292481,0.89986 0.177012,0.93028 0.05977,0.94851 -0.05977,0.94851 -0.177012,0.93027 -0.292481,0.89987 -0.402869,0.8573 -0.506854,0.79652 -0.602853,0.72961 -0.689591,0.65059 -0.764912,0.54721 -0.82924,0.48642 -0.879255,0.36481 -0.916013,0.2432 -0.93846,0.12161 z m 244.80244,0 -0.93853,-0.12161 -0.91594,-0.2432 -0.8794,-0.36481 -0.82932,-0.48642 -0.76492,-0.54721 -0.68958,-0.65059 -0.6026,-0.72961 -0.50694,-0.79652 -0.40298,-0.8573 -0.29262,-0.89987 -0.17701,-0.93027 -0.0595,-0.94851 0.0595,-0.94851 0.17701,-0.93028 0.29262,-0.89986 0.40298,-0.85731 0.50694,-0.79651 0.6026,-0.72962 0.68958,-0.65058 0.76492,-0.54721 0.82932,-0.42562 0.8794,-0.36482 0.91594,-0.2432 0.93853,-0.12161 h 0.94645 l 0.93851,0.12161 0.91594,0.2432 0.87903,0.36482 0.82931,0.42562 0.76493,0.54721 0.68958,0.65058 0.60297,0.72962 0.50692,0.79651 0.40261,0.85731 0.29263,0.89986 0.17702,0.93028 0.0598,0.94851 -0.0598,0.94851 -0.17702,0.93027 -0.29263,0.89987 -0.40261,0.8573 -0.50692,0.79652 -0.60297,0.72961 -0.68958,0.65059 -0.76493,0.54721 -0.82931,0.48642 -0.87903,0.36481 -0.91594,0.2432 -0.93851,0.12161 z"
     id="path4"
     inkscape:connector-curvature="0"
     style="fill:none;stroke:#000000;stroke-width:1.00034881;stroke-miterlimit:4;stroke-dasharray:none" />
  <path
     style="fill:none;fill-rule:evenodd;stroke:#ff0000;stroke-width:1.5;stroke-linecap:butt;stroke-linejoin:miter;stroke-miterlimit:4;stroke-dasharray:none;stroke-opacity:1"
     d="M 0.5001744,141.28161 282.96439,140.90221"
     id="path822"
     inkscape:connector-curvature="0" />
</svg>
