<?xml version="1.0" encoding="UTF-8" standalone="no"?>
<svg
   xmlns:dc="http://purl.org/dc/elements/1.1/"
   xmlns:cc="http://creativecommons.org/ns#"
   xmlns:rdf="http://www.w3.org/1999/02/22-rdf-syntax-ns#"
   xmlns:svg="http://www.w3.org/2000/svg"
   xmlns="http://www.w3.org/2000/svg"
   xmlns:sodipodi="http://sodipodi.sourceforge.net/DTD/sodipodi-0.dtd"
   xmlns:inkscape="http://www.inkscape.org/namespaces/inkscape"
   version="1.1"
   width="37mm"
   height="51mm"
   viewBox="108925 -96075 37027.969 51038.551"
   id="wFZkwd3HURzcyJqlPgbZ"
   sodipodi:docname="anavi-knob-1-bottom.svg"
   inkscape:version="0.92.5 (2060ec1f9f, 2020-04-08)"
   style="fill-rule:evenodd;stroke-width:0;stroke-linecap:round;stroke-linejoin:round">
  <metadata
     id="metadata19">
    <rdf:RDF>
      <cc:Work
         rdf:about="">
        <dc:format>image/svg+xml</dc:format>
        <dc:type
           rdf:resource="http://purl.org/dc/dcmitype/StillImage" />
        <dc:title></dc:title>
      </cc:Work>
    </rdf:RDF>
  </metadata>
  <defs
     id="defs17" />
  <sodipodi:namedview
     pagecolor="#ffffff"
     bordercolor="#666666"
     borderopacity="1"
     objecttolerance="10"
     gridtolerance="10"
     guidetolerance="10"
     inkscape:pageopacity="0"
     inkscape:pageshadow="2"
     inkscape:window-width="1832"
     inkscape:window-height="1009"
     id="namedview15"
     showgrid="false"
     inkscape:zoom="2.5152735"
     inkscape:cx="98.635736"
     inkscape:cy="106.3697"
     inkscape:window-x="88"
     inkscape:window-y="34"
     inkscape:window-maximized="1"
     inkscape:current-layer="wFZkwd3HURzcyJqlPgbZ"
     scale-x="264.78333" />
  <g
     id="g954"
     transform="matrix(0.99999999,0,0,1.0000026,-36736.706,567.07743)">
    <path
       inkscape:connector-curvature="0"
       id="path916"
       d="m 150737.47,-95679.169 h 27000"
       style="fill:none;stroke:#000000;stroke-width:150" />
    <path
       inkscape:connector-curvature="0"
       id="path914"
       d="m 146737.47,-91679.169 v 41000"
       style="fill:none;stroke:#000000;stroke-width:150" />
    <path
       inkscape:connector-curvature="0"
       id="path912"
       d="m 181737.47,-50679.169 v -41000"
       style="fill:none;stroke:#000000;stroke-width:150" />
    <path
       inkscape:connector-curvature="0"
       id="path910"
       d="m 179237.47,-91679.169 a 1500,1500 0 0 0 -3000,0 1500,1500 0 0 0 3000,0"
       style="fill:none;stroke:#000000;stroke-width:150" />
    <path
       inkscape:connector-curvature="0"
       id="path908"
       d="m 150241.33,-46710.057 27496.14,30.888"
       style="fill:none;stroke:#000000;stroke-width:150" />
    <path
       inkscape:connector-curvature="0"
       id="path906"
       d="m 150241.33,-46710.057 a 4000.0005,4000.0005 0 0 1 -3503.86,-3969.112"
       style="fill:none;stroke:#000000;stroke-width:150" />
    <path
       inkscape:connector-curvature="0"
       id="path904"
       d="m 181737.47,-50679.169 a 4000,4000 0 0 1 -4000,4000"
       style="fill:none;stroke:#000000;stroke-width:150" />
    <path
       inkscape:connector-curvature="0"
       id="path902"
       d="m 177737.47,-95679.169 a 4000,4000 0 0 1 4000,4000"
       style="fill:none;stroke:#000000;stroke-width:150" />
    <path
       inkscape:connector-curvature="0"
       id="path900"
       d="m 146737.47,-91679.169 a 4000,4000 0 0 1 4000,-4000"
       style="fill:none;stroke:#000000;stroke-width:150" />
    <path
       inkscape:connector-curvature="0"
       id="path898"
       d="m 179237.47,-50679.169 a 1500,1500 0 0 0 -3000,0 1500,1500 0 0 0 3000,0"
       style="fill:none;stroke:#000000;stroke-width:150" />
    <path
       inkscape:connector-curvature="0"
       id="path896"
       d="m 152318.61,-50679.169 a 1581.14,1581.14 0 0 0 -3162.28,0 1581.14,1581.14 0 0 0 3162.28,0"
       style="fill:none;stroke:#000000;stroke-width:150" />
    <path
       inkscape:connector-curvature="0"
       id="path894"
       d="m 152318.61,-91679.169 a 1581.14,1581.14 0 0 0 -3162.28,0 1581.14,1581.14 0 0 0 3162.28,0"
       style="fill:none;stroke:#000000;stroke-width:150" />
  </g>
</svg>
