<?xml version="1.0" encoding="UTF-8" standalone="no"?>
<svg
   xmlns:dc="http://purl.org/dc/elements/1.1/"
   xmlns:cc="http://creativecommons.org/ns#"
   xmlns:rdf="http://www.w3.org/1999/02/22-rdf-syntax-ns#"
   xmlns:svg="http://www.w3.org/2000/svg"
   xmlns="http://www.w3.org/2000/svg"
   style="fill-rule:evenodd;stroke-width:0;stroke-linecap:round;stroke-linejoin:round"
   id="wFZkwd3HURzcyJqlPgbZ"
   viewBox="108925 -96075 37027.968 51038.551"
   height="51mm"
   width="37mm"
   version="1.1">
  <metadata
     id="metadata19">
    <rdf:RDF>
      <cc:Work
         rdf:about="">
        <dc:format>image/svg+xml</dc:format>
        <dc:type
           rdf:resource="http://purl.org/dc/dcmitype/StillImage" />
        <dc:title></dc:title>
      </cc:Work>
    </rdf:RDF>
  </metadata>
  <defs
     id="defs17" />
  <g
     transform="translate(-57.576605,537.78808)"
     id="g940">
    <path
       style="fill:none;stroke:#000000;stroke-width:150"
       d="m 121558.34,-53650.002 v 500"
       id="path892" />
    <path
       style="fill:none;stroke:#000000;stroke-width:150"
       d="m 134058.34,-53650.002 h -12500"
       id="path890" />
    <path
       style="fill:none;stroke:#000000;stroke-width:150"
       d="m 134058.34,-53150.002 v -500"
       id="path888" />
    <path
       style="fill:none;stroke:#000000;stroke-width:150"
       d="m 134058.34,-49650.002 v -3500"
       id="path886" />
    <path
       style="fill:none;stroke:#000000;stroke-width:150"
       d="m 121558.34,-49650.002 h 12500"
       id="path884" />
    <path
       style="fill:none;stroke:#000000;stroke-width:150"
       d="m 121558.34,-53150.002 v 3500"
       id="path882" />
    <path
       style="fill:none;stroke:#000000;stroke-width:150"
       d="m 113562.2,-46680.89 27496.14,30.888"
       id="path880" />
    <path
       style="fill:none;stroke:#000000;stroke-width:150"
       d="m 117058.34,-95650.002 h -3000"
       id="path878" />
    <path
       style="fill:none;stroke:#000000;stroke-width:150"
       d="m 138058.34,-95650.002 h 3000"
       id="path876" />
    <path
       style="fill:none;stroke:#000000;stroke-width:150"
       d="m 138058.34,-58150.002 h -21000"
       id="path874" />
    <path
       style="fill:none;stroke:#000000;stroke-width:150"
       d="m 138058.34,-95650.002 v 37500"
       id="path872" />
    <path
       style="fill:none;stroke:#000000;stroke-width:150"
       d="m 117058.34,-95650.002 v 37500"
       id="path870" />
    <path
       style="fill:none;stroke:#000000;stroke-width:150"
       d="m 115639.48,-50650.002 a 1581.14,1581.14 0 0 0 -3162.28,0 1581.14,1581.14 0 0 0 3162.28,0"
       id="path868" />
    <path
       style="fill:none;stroke:#000000;stroke-width:150"
       d="m 142558.34,-50650.002 a 1500,1500 0 0 0 -3000,0 1500,1500 0 0 0 3000,0"
       id="path866" />
    <path
       style="fill:none;stroke:#000000;stroke-width:150"
       d="m 142558.34,-91650.002 a 1500,1500 0 0 0 -3000,0 1500,1500 0 0 0 3000,0"
       id="path864" />
    <path
       style="fill:none;stroke:#000000;stroke-width:150"
       d="m 115639.48,-91650.002 a 1581.14,1581.14 0 0 0 -3162.28,0 1581.14,1581.14 0 0 0 3162.28,0"
       id="path862" />
    <path
       style="fill:none;stroke:#000000;stroke-width:150"
       d="m 110058.34,-91650.002 v 41000"
       id="path860" />
    <path
       style="fill:none;stroke:#000000;stroke-width:150"
       d="m 145058.34,-50650.002 v -41000"
       id="path858" />
    <path
       style="fill:none;stroke:#000000;stroke-width:150"
       d="m 145058.34,-50650.002 a 4000,4000 0 0 1 -4000,4000"
       id="path856" />
    <path
       style="fill:none;stroke:#000000;stroke-width:150"
       d="m 141058.34,-95650.002 a 4000,4000 0 0 1 4000,4000"
       id="path854" />
    <path
       style="fill:none;stroke:#000000;stroke-width:150"
       d="m 110058.34,-91650.002 a 4000,4000 0 0 1 4000,-4000"
       id="path852" />
    <path
       style="fill:none;stroke:#000000;stroke-width:150"
       d="m 113562.2,-46680.89 a 4000.0005,4000.0005 0 0 1 -3503.86,-3969.112"
       id="path2" />
  </g>
</svg>
